<svg width="74" height="74" viewBox="0 0 74 74" fill="none" xmlns="http://www.w3.org/2000/svg">
<g clip-path="url(#clip0_226_1286)">
<path d="M68.2393 41.9133C71.1089 24.5043 59.3224 8.06525 41.9134 5.1957C24.5044 2.32614 8.06534 14.1127 5.19579 31.5217C2.32623 48.9307 14.1128 65.3697 31.5218 68.2392C48.9308 71.1088 65.3698 59.3223 68.2393 41.9133Z" fill="#ED1944"/>
<path d="M46.7068 44.7504L45.3054 43.1134C44.4973 42.1779 44.0557 40.9745 44.0642 39.731V34.3058C44.0642 32.5879 43.4593 30.9264 42.3582 29.6205C41.2572 28.3146 39.7325 27.45 38.0585 27.1825V25.0652C38.0594 24.9376 38.0354 24.8111 37.9878 24.6929C37.9402 24.5748 37.8701 24.4673 37.7814 24.3768C37.6927 24.2862 37.5872 24.2144 37.471 24.1653C37.3548 24.1163 37.2301 24.0911 37.1043 24.0911C36.85 24.0928 36.6066 24.196 36.4267 24.3783C36.2469 24.5606 36.1451 24.8074 36.1434 25.0652V27.1419C34.4074 27.3428 32.8048 28.1838 31.6408 29.5047C30.4767 30.8257 29.8325 32.5345 29.8307 34.3058V39.5552C29.8327 40.6986 29.4542 41.8092 28.7563 42.7075L27.1748 44.7369H34.4217C34.594 45.2024 34.8764 45.6178 35.2441 45.9468C35.6118 46.2758 36.0535 46.5083 36.5305 46.6238C37.0075 46.7394 37.5052 46.7345 37.9799 46.6095C38.4545 46.4846 38.8917 46.2434 39.253 45.9072C39.5989 45.5849 39.8642 45.1837 40.0271 44.7369L46.7068 44.7504Z" fill="white"/>
</g>
<defs>
<clipPath id="clip0_226_1286">
<rect width="73.4351" height="73.4351" fill="white"/>
</clipPath>
</defs>
</svg>
