<svg width="131" height="131" viewBox="0 0 131 131" fill="none" xmlns="http://www.w3.org/2000/svg">
<path d="M124.492 70.883C127.672 38.0957 103.671 8.93825 70.8832 5.75808C38.0958 2.57791 8.93837 26.5793 5.7582 59.3666C2.57803 92.154 26.5794 121.311 59.3668 124.492C92.1541 127.672 121.312 103.67 124.492 70.883Z" fill="#763188"/>
<path opacity="0.1" d="M82.4116 122.121C73.392 124.788 63.8663 125.314 54.6038 123.657C45.3414 121.999 36.602 118.205 29.0916 112.581C21.5813 106.956 15.5105 99.6593 11.3697 91.2792C7.22894 82.899 5.13427 73.6707 5.25493 64.3398C5.37559 55.0088 7.70819 45.8368 12.0643 37.5647C16.4204 29.2925 22.6779 22.1522 30.3312 16.7206C37.9845 11.2889 46.8192 7.71815 56.1214 6.29679C65.4236 4.87543 74.9326 5.6433 83.8803 8.53838C71.8391 5.13716 58.965 6.15179 47.617 11.3963C36.269 16.6409 27.2071 25.7641 22.0918 37.0943C16.9765 48.4244 16.1505 61.2027 19.765 73.0877C23.3795 84.9726 31.1925 95.1682 41.7723 101.806C52.3521 108.444 64.9903 111.08 77.3709 109.231C89.7515 107.382 101.045 101.171 109.183 91.7372C117.321 82.3034 121.757 70.2781 121.68 57.8649C121.602 45.4516 117.016 33.4818 108.761 24.1487C115.819 31.5212 120.854 40.5632 123.388 50.4127C125.922 60.2622 125.869 70.5909 123.234 80.4144C120.6 90.2378 115.471 99.2285 108.338 106.529C101.205 113.83 92.3042 119.198 82.485 122.121H82.4116Z" fill="black"/>
<path d="M96.8984 43.3232C97.376 44.8373 97.3669 46.4505 96.8722 47.9598C96.3776 49.469 95.4196 50.8067 94.1189 51.8043C92.8182 52.8019 91.2329 53.4148 89.5628 53.5659C87.8927 53.7169 86.2125 53.3993 84.7338 52.653C83.2551 51.9067 82.0441 50.7652 81.2533 49.3722C80.4626 47.9792 80.1274 46.3971 80.29 44.8251C80.4527 43.2531 81.1059 41.7616 82.1673 40.5384C83.2288 39.3153 84.6511 38.4152 86.2549 37.9515C87.3284 37.6432 88.456 37.5376 89.573 37.641C90.6899 37.7443 91.7741 38.0545 92.7633 38.5537C93.7524 39.0529 94.627 39.7313 95.3366 40.5498C96.0463 41.3683 96.577 42.3109 96.8984 43.3232Z" fill="#263238"/>
<path d="M42.8984 58.6807C43.376 60.2894 43.3669 62.0035 42.8722 63.6071C42.3776 65.2107 41.4196 66.6319 40.1189 67.6919C38.8182 68.7519 37.2329 69.4031 35.5628 69.5636C33.8927 69.724 32.2125 69.3866 30.7338 68.5937C29.2551 67.8007 28.0441 66.5879 27.2533 65.1078C26.4626 63.6278 26.1274 61.9467 26.29 60.2765C26.4527 58.6062 27.1059 57.0215 28.1673 55.7219C29.2288 54.4223 30.6511 53.466 32.2549 52.9734C33.3284 52.6457 34.456 52.5336 35.573 52.6434C36.6899 52.7532 37.7741 53.0828 38.7633 53.6132C39.7524 54.1436 40.627 54.8643 41.3366 55.734C42.0463 56.6037 42.577 57.6051 42.8984 58.6807Z" fill="#263238"/>
<path d="M83.7272 68.0359C81.1396 65.4702 77.8542 63.7227 74.2805 63.0109C70.847 62.5551 67.3642 63.3489 64.4673 65.2474C61.4331 66.9124 59.1181 69.6361 57.9639 72.899C56.9263 76.3636 56.8221 80.0408 57.6616 83.5587C55.753 80.1354 55.1486 76.1368 55.9603 72.3024C56.4162 70.3213 57.3011 68.4643 58.5528 66.8624C59.824 65.2983 61.3611 63.9707 63.0935 62.9406C64.8207 61.9102 66.7075 61.1748 68.6764 60.7646C70.6741 60.385 72.7311 60.4532 74.6993 60.9643C78.5152 62.0548 81.7546 64.5922 83.7272 68.0359Z" fill="#263238"/>
</svg>
