<svg width="615" height="615" viewBox="0 0 615 615" fill="none" xmlns="http://www.w3.org/2000/svg">
<path d="M107.736 281.129L91.5981 281.461L83.4063 281.608C80.6634 281.608 77.9082 281.608 75.1653 281.67H74.6241V281.129L74.5503 267.365V266.738H75.1653L91.4505 266.812C96.8871 266.812 102.311 266.947 107.736 267.008H108.08V267.34C108.08 269.665 107.969 271.99 107.92 274.29L107.736 281.129ZM107.736 281.129L107.563 274.167C107.563 271.879 107.428 269.616 107.404 267.365L107.736 267.697C102.311 267.759 96.8871 267.894 91.4505 267.894L75.1653 267.98L75.7803 267.365V281.129L75.2268 280.575C77.9082 280.575 80.5896 280.575 83.2833 280.575L91.3767 280.723L107.736 281.129Z" fill="#EBEBEB"/>
<path d="M89.5687 298.484L73.4311 298.816L65.2393 298.964C62.4964 298.964 59.7412 298.964 56.9983 299.025H56.4571V298.484L56.3833 284.72V284.13H56.9983L73.2835 284.204C78.7078 284.204 84.1444 284.339 89.5687 284.4H89.9131V284.733C89.9131 287.057 89.8147 289.382 89.7532 291.682L89.5687 298.484ZM89.5687 298.484L89.3965 291.51C89.335 289.222 89.2612 286.959 89.2366 284.708L89.5687 285.04C84.1444 285.102 78.7078 285.237 73.2835 285.237L56.9983 285.36L57.6133 284.757L57.5518 298.521L56.9983 297.967C59.6797 297.967 62.3611 297.967 65.0548 298.029L73.1482 298.176L89.5687 298.484Z" fill="#EBEBEB"/>
<path d="M558.002 298.484L541.852 298.816L533.66 298.964C530.93 298.964 528.174 298.964 525.431 299.025H524.878V298.484L524.816 284.72V284.13H525.431L541.717 284.204C547.141 284.204 552.578 284.339 558.002 284.4H558.334V284.733C558.334 287.057 558.236 289.382 558.174 291.682L558.002 298.484ZM558.002 298.484L557.83 291.522C557.83 289.234 557.682 286.971 557.67 284.72L558.002 285.052C552.578 285.114 547.141 285.249 541.717 285.249L525.431 285.323L526.046 284.72L525.973 298.484L525.431 297.93C528.113 297.93 530.794 297.93 533.476 297.992L541.569 298.14L558.002 298.484Z" fill="#EBEBEB"/>
<path d="M107.736 54.3661L91.5981 54.7105L83.4063 54.8458C80.6634 54.8458 77.9082 54.8458 75.1653 54.9196H74.6241V54.3661L74.5503 40.5901V39.9751H75.1653L91.4505 40.0489C96.8871 40.0489 102.311 40.1965 107.736 40.258H108.08V40.5901C108.08 42.9271 107.969 45.2518 107.92 47.5396L107.736 54.3661ZM107.736 54.3661L107.563 47.4166C107.563 45.1165 107.428 42.8533 107.404 40.6024L107.736 40.9345C102.311 40.9345 96.8871 41.1313 91.4505 41.1436L75.1653 41.2174L75.7803 40.6024V54.3661L75.2268 53.8126C77.9082 53.8126 80.5896 53.8126 83.2833 53.8864L91.3767 54.0217L107.736 54.3661Z" fill="#EBEBEB"/>
<path d="M352.838 136.272L356.934 145.276H450.586L454.67 136.272H352.838Z" fill="#DBDBDB"/>
<path d="M96.4076 144.304C99.8812 145.701 103.556 146.531 107.293 146.764C116.25 147.348 125.098 144.535 132.072 138.884C139.046 133.234 143.633 125.162 144.919 116.278C146.204 107.395 144.093 98.3536 139.007 90.9578C133.921 83.562 126.234 78.3555 117.479 76.377C108.724 74.3984 99.5449 75.7933 91.7728 80.2834C84.0008 84.7734 78.2072 92.0285 75.5479 100.601C72.8885 109.174 73.5589 118.434 77.4253 126.535C81.2917 134.635 88.0699 140.98 96.4076 144.304Z" fill="#EBEBEB"/>
<path d="M98.0557 109.04C98.4378 111.151 99.4374 113.102 100.928 114.645C102.419 116.188 104.333 117.255 106.43 117.71C108.527 118.165 110.711 117.988 112.708 117.201C114.704 116.415 116.422 115.054 117.645 113.291C118.868 111.528 119.54 109.442 119.578 107.297C119.615 105.152 119.016 103.044 117.855 101.239C116.694 99.4346 115.025 98.0148 113.057 97.1592C111.089 96.3036 108.912 96.0506 106.801 96.4323C103.971 96.9473 101.461 98.5639 99.8211 100.928C98.1816 103.291 97.5467 106.209 98.0557 109.04Z" fill="white"/>
<path d="M95.608 139.9L96.4075 144.304C99.881 145.701 103.556 146.531 107.293 146.764C112.016 147.061 116.751 146.41 121.219 144.849C125.687 143.288 129.797 140.849 133.307 137.674L132.508 133.283C131.622 128.39 128.829 124.049 124.743 121.215C120.656 118.381 115.612 117.287 110.719 118.172C105.825 119.058 101.484 121.851 98.6505 125.938C95.8167 130.024 94.7223 135.069 95.608 139.962V139.9Z" fill="white"/>
<path d="M429.024 350.439C432.378 354.061 436.792 356.528 441.634 357.486C446.476 358.444 451.497 357.845 455.977 355.774C460.457 353.703 464.167 350.266 466.574 345.957C468.981 341.648 469.962 336.688 469.376 331.787C468.79 326.886 466.668 322.296 463.313 318.676C459.958 315.056 455.543 312.59 450.701 311.634C445.859 310.677 440.838 311.278 436.358 313.35C431.879 315.423 428.17 318.86 425.765 323.17C423.372 327.481 422.398 332.436 422.984 337.332C423.569 342.228 425.683 346.814 429.024 350.439Z" fill="#EBEBEB"/>
<path d="M440.02 330.095C439.638 331.449 439.667 332.887 440.102 334.225C440.538 335.563 441.361 336.742 442.467 337.612C443.573 338.483 444.912 339.005 446.315 339.113C447.718 339.222 449.122 338.911 450.349 338.221C451.575 337.531 452.569 336.493 453.205 335.237C453.841 333.982 454.09 332.566 453.92 331.169C453.751 329.772 453.171 328.456 452.253 327.389C451.335 326.322 450.122 325.552 448.766 325.175C446.954 324.675 445.018 324.912 443.379 325.833C441.741 326.755 440.534 328.287 440.02 330.095Z" fill="white"/>
<path d="M429.811 347.611L429.024 350.44C431.976 353.618 435.754 355.913 439.935 357.067C444.117 358.22 448.537 358.187 452.701 356.971L453.489 354.154C454.165 351.079 453.635 347.861 452.01 345.165C450.385 342.468 447.787 340.497 444.752 339.658C441.717 338.82 438.476 339.177 435.696 340.656C432.917 342.135 430.81 344.625 429.811 347.611Z" fill="white"/>
<path d="M167.133 169.26C166.151 165.243 166.382 161.024 167.798 157.137C169.214 153.251 171.751 149.872 175.087 147.428C178.424 144.983 182.411 143.584 186.543 143.405C190.675 143.227 194.768 144.278 198.302 146.426C201.837 148.573 204.656 151.721 206.401 155.471C208.147 159.221 208.741 163.404 208.109 167.492C207.477 171.579 205.647 175.387 202.85 178.435C200.053 181.482 196.415 183.631 192.397 184.611C187.011 185.924 181.324 185.044 176.587 182.166C171.849 179.287 168.449 174.645 167.133 169.26Z" fill="#EBEBEB"/>
<path d="M198.104 166.923C194.943 173.282 187.44 177.071 187.44 177.071C187.44 177.071 179.924 173.282 176.776 166.923C174.143 161.61 175.816 155.853 179.961 154.623C185.914 152.828 187.44 163.233 187.44 163.233C187.44 163.233 188.965 152.877 194.918 154.623C199.063 155.866 200.736 161.61 198.104 166.923Z" fill="white"/>
<path d="M499.675 250.809C500.329 246.725 502.178 242.926 504.991 239.894C507.804 236.861 511.453 234.73 515.476 233.772C519.5 232.813 523.717 233.069 527.595 234.508C531.473 235.946 534.837 238.503 537.262 241.853C539.687 245.204 541.064 249.199 541.218 253.332C541.372 257.466 540.297 261.552 538.129 265.074C535.961 268.596 532.796 271.396 529.036 273.12C525.276 274.844 521.09 275.414 517.006 274.757C511.533 273.878 506.633 270.862 503.383 266.371C500.133 261.88 498.8 256.283 499.675 250.809Z" fill="#EBEBEB"/>
<path d="M529.121 260.662C523.746 265.311 515.358 265.877 515.358 265.877C515.358 265.877 509.896 259.481 509.466 252.347C509.109 246.431 512.861 241.794 517.178 242.249C523.328 242.901 520.745 253.036 520.745 253.036C520.745 253.036 526.169 244.081 530.966 248.054C534.3 250.92 533.611 256.787 529.121 260.662Z" fill="white"/>
<path fill-rule="evenodd" clip-rule="evenodd" d="M260.059 250.305C259.099 249.715 258.275 248.841 256.984 248.964C256.492 248.964 256.603 248.608 256.603 248.349C256.603 243.528 256.603 238.706 256.541 233.897C256.541 233.54 256.541 233.257 256.947 233.06C260.637 231.191 262.199 227.538 264.438 224.45C265.59 222.896 266.416 221.126 266.869 219.245C267.321 217.364 267.389 215.411 267.07 213.503C266.922 212.421 267.427 211.941 268.398 211.708C268.89 211.543 269.421 211.537 269.915 211.692C270.41 211.846 270.843 212.153 271.153 212.569C272.218 214.534 272.934 216.669 273.269 218.879C273.49 220.699 272.839 222.482 272.617 224.291C272.457 225.607 272.15 226.923 271.904 228.263C272.224 228.497 272.605 228.374 272.949 228.374H285.163C286.873 228.374 287.709 228.854 287.955 229.998C288.09 230.698 287.991 231.422 287.673 232.06C287.355 232.698 286.836 233.214 286.196 233.528C285.889 233.688 285.348 233.528 285.311 234.02C285.274 234.512 285.84 234.463 286.123 234.659C287.599 235.656 287.353 237.747 285.631 238.952C285.225 239.247 284.401 239.112 284.401 239.715C284.401 240.317 285.139 240.182 285.483 240.527C286.713 241.695 286.086 243.897 284.314 244.782C284.07 244.858 283.831 244.953 283.601 245.065C283.404 245.201 283.207 245.348 283.601 245.631C285.372 246.861 285.348 248.632 283.601 249.911L283.072 250.305C282.428 250.688 281.677 250.852 280.932 250.772L261.781 250.846C261.472 250.88 261.16 250.849 260.863 250.756C260.567 250.663 260.293 250.509 260.059 250.305Z" fill="#EBEBEB"/>
<path fill-rule="evenodd" clip-rule="evenodd" d="M241.892 241.88C241.892 238.817 241.892 235.73 241.892 232.692C241.892 232.064 241.892 231.769 242.716 231.769C246.455 231.769 250.186 231.769 253.909 231.769C254.647 231.769 254.758 232.015 254.758 232.667C254.758 238.825 254.758 244.975 254.758 251.117C254.758 251.904 254.561 252.126 253.774 252.113C250.084 252.113 246.529 252.113 242.913 252.113C242.015 252.113 241.88 251.806 241.892 251.019C241.941 247.993 241.904 244.942 241.892 241.88Z" fill="#EBEBEB"/>
<path d="M50.9834 453.009L115.116 452.714L179.248 452.603L307.5 452.406L435.752 452.603L499.884 452.714L564.016 453.009L499.884 453.316L435.752 453.427L307.5 453.624L179.248 453.427L115.116 453.316L50.9834 453.009Z" fill="#263238"/>
<path d="M328.064 147.281C333.464 111.645 308.952 78.3782 273.315 72.9787C237.678 67.5792 204.412 92.0913 199.012 127.728C193.613 163.365 218.125 196.631 253.762 202.031C289.398 207.43 322.665 182.918 328.064 147.281Z" fill="#763188"/>
<path opacity="0.1" d="M252.482 201.831C242.38 200.205 232.802 196.224 224.524 190.21C216.246 184.195 209.5 176.317 204.832 167.212C200.163 158.107 197.704 148.031 197.652 137.799C197.6 127.567 199.957 117.467 204.533 108.315C209.109 99.1631 215.775 91.2169 223.992 85.1192C232.208 79.0215 241.745 74.9436 251.83 73.2154C261.915 71.4872 272.265 72.1572 282.044 75.1712C291.822 78.1852 300.753 83.4586 308.115 90.5647C297.961 81.5051 284.883 76.4083 271.276 76.2087C257.67 76.009 244.447 80.7198 234.032 89.4777C223.617 98.2355 216.707 110.454 214.569 123.893C212.431 137.331 215.208 151.091 222.391 162.648C229.573 174.206 240.681 182.788 253.678 186.821C266.674 190.854 280.689 190.067 293.153 184.606C305.617 179.145 315.695 169.375 321.54 157.086C327.386 144.797 328.606 130.814 324.978 117.699C328.356 128.31 328.959 139.61 326.73 150.521C324.501 161.432 319.514 171.59 312.244 180.026C304.975 188.463 295.665 194.896 285.203 198.713C274.742 202.53 263.476 203.603 252.482 201.831Z" fill="black"/>
<path d="M225.09 118.338C225.111 117.012 225.395 115.704 225.928 114.49C226.46 113.275 227.229 112.179 228.189 111.266C229.185 110.278 230.392 109.529 231.72 109.076C233.081 108.621 234.532 108.498 235.951 108.719C237.363 108.958 238.699 109.527 239.85 110.38C240.965 111.23 241.877 112.319 242.519 113.566C243.141 114.736 243.523 116.019 243.643 117.339C243.764 118.659 243.62 119.989 243.22 121.253C243.078 118.845 242.278 116.522 240.908 114.537C240.291 113.635 239.5 112.865 238.581 112.274C237.662 111.682 236.634 111.281 235.557 111.093C234.477 110.93 233.375 110.987 232.318 111.262C231.261 111.537 230.271 112.023 229.407 112.692C227.475 114.14 225.981 116.094 225.09 118.338Z" fill="#263238"/>
<path d="M286.59 128.252C286.609 126.927 286.892 125.619 287.422 124.405C287.952 123.191 288.719 122.094 289.677 121.179C290.675 120.194 291.881 119.446 293.207 118.99C294.568 118.526 296.021 118.403 297.441 118.63C298.86 118.857 300.202 119.428 301.35 120.294C302.465 121.144 303.377 122.232 304.019 123.479C304.643 124.649 305.027 125.932 305.147 127.252C305.268 128.572 305.123 129.904 304.72 131.167C304.576 128.759 303.776 126.437 302.408 124.451C301.804 123.538 301.017 122.76 300.097 122.166C299.177 121.572 298.144 121.176 297.063 121.003C295.981 120.83 294.876 120.883 293.817 121.158C292.757 121.434 291.766 121.927 290.907 122.606C288.971 124.05 287.476 126.005 286.59 128.252Z" fill="#263238"/>
<path d="M278.903 124.021C278.709 125.871 278.14 127.663 277.232 129.286C276.323 130.91 275.094 132.332 273.619 133.466C272.144 134.599 270.453 135.421 268.65 135.88C266.847 136.34 264.97 136.428 263.132 136.139C261.294 135.85 259.534 135.19 257.96 134.199C256.385 133.208 255.028 131.907 253.972 130.376C252.916 128.844 252.183 127.113 251.816 125.289C251.45 123.465 251.459 121.586 251.843 119.765L278.903 124.021Z" fill="#263238"/>
<path d="M274.573 132.041C273.055 133.421 271.246 134.444 269.28 135.033C267.315 135.622 265.242 135.763 263.215 135.446C261.188 135.128 259.257 134.361 257.566 133.199C255.874 132.037 254.465 130.51 253.441 128.732C256.779 126.67 260.744 125.871 264.619 126.478C268.495 127.084 272.025 129.058 274.573 132.041Z" fill="#C95F50"/>
<path d="M224.032 117.871C224.032 117.871 214.192 114.5 207.784 118.215C201.375 121.93 203.343 129.285 209.862 129.826C216.381 130.367 224.032 117.871 224.032 117.871Z" fill="white"/>
<path d="M306.27 131.167C306.27 131.167 316.639 131.917 321.03 137.834C325.421 143.75 320.821 149.715 314.585 147.674C308.349 145.632 306.27 131.167 306.27 131.167Z" fill="white"/>
<path d="M151.289 209.576C153.968 181.949 133.744 157.381 106.118 154.701C78.4905 152.022 53.9222 172.245 51.2425 199.872C48.5629 227.499 68.7867 252.068 96.4137 254.747C124.041 257.427 148.609 237.203 151.289 209.576Z" fill="#763188"/>
<path opacity="0.1" d="M115.694 252.851C108.14 255.103 100.163 255.548 92.4056 254.148C84.6487 252.748 77.3298 249.543 71.0402 244.792C64.7505 240.042 59.6665 233.878 56.1987 226.8C52.731 219.721 50.9768 211.926 51.0779 204.045C51.1789 196.163 53.1324 188.416 56.7804 181.429C60.4285 174.441 65.6689 168.41 72.0783 163.822C78.4876 159.234 85.8863 156.218 93.6765 155.018C101.467 153.817 109.43 154.466 116.924 156.911C106.84 154.038 96.058 154.895 86.5544 159.325C77.0509 163.755 69.4619 171.461 65.1781 181.031C60.8942 190.601 60.2024 201.395 63.2294 211.434C66.2564 221.473 72.7995 230.084 81.6597 235.691C90.5199 241.298 101.104 243.525 111.472 241.963C121.84 240.401 131.299 235.155 138.114 227.186C144.929 219.218 148.644 209.061 148.579 198.576C148.514 188.09 144.673 177.98 137.76 170.097C143.671 176.324 147.888 183.961 150.01 192.281C152.132 200.6 152.087 209.325 149.881 217.622C147.675 225.92 143.38 233.514 137.406 239.681C131.432 245.848 123.978 250.382 115.755 252.851H115.694Z" fill="black"/>
<path d="M69.458 206.8C68.9908 205.879 68.7191 204.872 68.6598 203.841C68.6005 202.81 68.755 201.778 69.1136 200.81C69.4718 199.769 70.0605 198.823 70.8356 198.042C71.6471 197.257 72.6335 196.675 73.7138 196.345C74.8007 196.026 75.9486 195.975 77.0594 196.197C78.137 196.425 79.1498 196.892 80.0237 197.563C80.8499 198.181 81.5396 198.964 82.0497 199.861C82.5597 200.758 82.8792 201.751 82.988 202.778C82.0392 201.199 80.6842 199.903 79.0643 199.026C78.3585 198.618 77.577 198.357 76.7674 198.26C75.9577 198.163 75.1368 198.232 74.3545 198.462C73.5722 198.692 72.8448 199.079 72.2166 199.599C71.5884 200.118 71.0725 200.761 70.7003 201.486C69.8253 203.117 69.3967 204.95 69.458 206.8Z" fill="#263238"/>
<path d="M128.166 186.271C128.563 187.609 128.556 189.035 128.144 190.369C127.733 191.703 126.935 192.886 125.853 193.767C124.771 194.649 123.452 195.191 122.062 195.324C120.673 195.458 119.275 195.177 118.044 194.517C116.814 193.858 115.806 192.849 115.148 191.618C114.49 190.386 114.211 188.988 114.347 187.599C114.482 186.209 115.026 184.891 115.909 183.81C116.792 182.729 117.975 181.933 119.31 181.523C120.203 181.251 121.141 181.157 122.071 181.249C123 181.34 123.902 181.614 124.725 182.056C125.548 182.497 126.276 183.096 126.866 183.82C127.457 184.543 127.899 185.376 128.166 186.271Z" fill="#263238"/>
<path d="M88.0557 200.182C88.0557 200.182 91.2537 204.499 98.9166 203.798C98.9166 203.798 97.8342 218.226 88.7568 214.868C79.6794 211.51 88.0557 200.182 88.0557 200.182Z" fill="#C95F50"/>
<path d="M85.2637 195.927C86.8102 198.579 89.103 200.718 91.8565 202.077C94.5516 203.196 97.5594 203.31 100.331 202.396C103.164 201.703 105.642 199.991 107.293 197.587C108.893 194.993 109.78 192.023 109.864 188.977C110.671 192.179 110.29 195.566 108.794 198.51C107.99 200.023 106.865 201.341 105.497 202.372C104.121 203.368 102.581 204.113 100.946 204.573C99.3157 205.035 97.6197 205.223 95.9278 205.127C94.2191 205 92.5597 204.496 91.0693 203.651C88.2013 201.931 86.1182 199.16 85.2637 195.927Z" fill="#263238"/>
<path d="M90.5156 211.019C90.5935 209.643 90.8797 208.287 91.3643 206.997C91.7954 205.676 92.4304 204.431 93.2462 203.307C93.1785 204.683 92.8963 206.04 92.4098 207.329C91.9692 208.648 91.3304 209.892 90.5156 211.019Z" fill="#263238"/>
<path d="M464.62 161.216H350.943V223.922H464.62V161.216Z" fill="#455A64"/>
<path d="M329.025 223.934H350.944V204.389L329.025 223.934Z" fill="#455A64"/>
<path d="M416.306 172.803H364.769V174.217H416.306V172.803Z" fill="white"/>
<path d="M451.336 180.429H364.769V181.843H451.336V180.429Z" fill="white"/>
<path d="M451.336 188.055H364.769V189.469H451.336V188.055Z" fill="white"/>
<path d="M434.743 195.681H364.769V197.095H434.743V195.681Z" fill="white"/>
<path d="M451.336 203.307H364.769V204.722H451.336V203.307Z" fill="white"/>
<path d="M396.613 210.933H364.769V212.348H396.613V210.933Z" fill="white"/>
<path d="M512.233 234.918H399.319V281.424H512.233V234.918Z" fill="#763188"/>
<path d="M399.356 262.777V281.424H376.688L399.356 262.777Z" fill="#763188"/>
<path d="M498.667 246.492H413.059V247.907H498.667V246.492Z" fill="white"/>
<path d="M461.902 254.118H413.059V255.533H461.902V254.118Z" fill="white"/>
<path d="M479.085 261.744H413.059V263.159H479.085V261.744Z" fill="white"/>
<path d="M436.06 269.37H413.059V270.785H436.06V269.37Z" fill="white"/>
<path d="M328.484 264.315L327.795 263.712C328.324 263.097 328.89 262.482 329.455 261.879L330.132 262.507C329.566 263.109 329.013 263.712 328.484 264.315Z" fill="#263238"/>
<path d="M355.765 340.194V339.271C357.339 339.271 358.951 339.136 360.562 338.951L360.673 339.874C359.012 340.046 357.364 340.157 355.765 340.194ZM349.615 339.911C347.986 339.728 346.368 339.457 344.769 339.099L344.978 338.201C346.541 338.551 348.121 338.814 349.713 338.988L349.615 339.911ZM366.65 338.853L366.454 337.955C367.991 337.611 369.553 337.192 371.115 336.725L371.386 337.611C369.848 338.078 368.249 338.508 366.687 338.853H366.65ZM338.902 337.34C337.37 336.758 335.875 336.085 334.424 335.323L334.855 334.499C336.272 335.241 337.73 335.902 339.221 336.479L338.902 337.34ZM377.142 335.532L376.786 334.671C378.262 334.068 379.738 333.441 381.189 332.703L381.595 333.527C380.168 334.253 378.668 334.917 377.179 335.532H377.142ZM329.172 332.051C327.856 331.078 326.603 330.023 325.421 328.89L326.06 328.226C327.225 329.331 328.457 330.362 329.75 331.313L329.172 332.051ZM386.921 330.636L386.441 329.849C387.806 329.025 389.159 328.14 390.476 327.205L391.004 327.967C389.762 328.902 388.385 329.8 387.007 330.636H386.921ZM321.325 324.327C320.327 323.028 319.411 321.668 318.582 320.255L319.382 319.788C320.187 321.167 321.078 322.494 322.051 323.761L321.325 324.327ZM395.826 324.216L395.223 323.515C396.453 322.494 397.622 321.399 398.79 320.28L399.43 320.944C398.335 322.076 397.13 323.183 395.912 324.216H395.826ZM403.661 316.541L402.972 315.926C404.03 314.77 405.088 313.466 406.121 312.236L406.835 312.814C405.9 314.13 404.805 315.372 403.747 316.541H403.661ZM315.901 314.733C315.296 313.206 314.783 311.646 314.363 310.059L315.261 309.825C315.668 311.374 316.165 312.897 316.749 314.388L315.901 314.733ZM410.611 308.029L409.86 307.476C410.82 306.246 411.755 304.868 412.677 303.54L413.44 304.056C412.554 305.409 411.619 306.725 410.66 308.029H410.611ZM313.293 304.032C313.117 302.451 313.026 300.862 313.022 299.271V299.136H313.945V299.284C313.945 300.837 314.031 302.389 314.203 303.933L313.293 304.032ZM416.822 299.001L416.047 298.497C416.921 297.144 417.794 295.791 418.655 294.401L419.43 294.893C418.618 296.283 417.745 297.66 416.871 299.001H416.822ZM314.375 293.146L313.465 293.011C313.693 291.392 314.005 289.787 314.4 288.201L315.298 288.423C314.923 289.981 314.632 291.557 314.425 293.146H314.375ZM422.615 289.714L421.828 289.235C422.665 287.857 423.501 286.48 424.288 285.077L425.075 285.557L422.615 289.714ZM317.081 282.679L316.22 282.359C316.786 280.846 317.45 279.333 318.164 277.857L318.988 278.263C318.348 279.714 317.696 281.203 317.143 282.679H317.081ZM428.261 280.354L427.474 279.874L429.995 275.717L430.783 276.197L428.261 280.354ZM321.915 272.974L321.128 272.482C321.989 271.117 322.912 269.752 323.883 268.435L324.621 268.989C323.736 270.305 322.813 271.646 321.977 273.06L321.915 272.974ZM433.993 271.018L433.206 270.526C434.067 269.161 434.952 267.796 435.838 266.443L436.613 266.947C435.789 268.325 434.903 269.69 434.054 271.043L433.993 271.018ZM439.995 261.916L439.233 261.387C440.155 260.059 441.102 258.743 442.062 257.427L442.8 257.968C441.898 259.288 440.983 260.629 440.057 261.99L439.995 261.916ZM446.465 253.146L445.739 252.568C446.76 251.277 447.794 250.01 448.814 248.792L449.528 249.395C448.568 250.625 447.535 251.88 446.49 253.171L446.465 253.146ZM453.525 244.856L452.849 244.229C453.956 242.999 455.1 241.855 456.231 240.724L456.883 241.375C455.813 242.532 454.694 243.7 453.587 244.881L453.525 244.856ZM461.274 237.23L460.659 236.541C461.889 235.459 463.119 234.389 464.349 233.368L464.927 234.081C463.771 235.115 462.48 236.16 461.336 237.255L461.274 237.23ZM469.724 230.391L469.183 229.654C470.487 228.694 471.84 227.759 473.193 226.874L473.697 227.649C472.418 228.546 471.09 229.481 469.786 230.416L469.724 230.391ZM478.826 224.475L478.371 223.676C479.761 222.876 481.2 222.077 482.639 221.339L483.07 222.15C481.692 222.913 480.266 223.7 478.888 224.5L478.826 224.475ZM488.494 219.555L488.113 218.719C489.589 218.055 491.102 217.415 492.602 216.812L492.947 217.673C491.508 218.251 490.019 218.94 488.556 219.543L488.494 219.555ZM498.605 215.582L498.31 214.709C499.835 214.18 501.397 213.688 502.959 213.221L503.217 214.106C501.729 214.549 500.179 215.053 498.666 215.57L498.605 215.582Z" fill="#263238"/>
<path d="M509.33 212.433L509.109 211.536L511.507 210.97L511.716 211.868L509.33 212.433Z" fill="#263238"/>
<path d="M510.192 202.188L500.807 214.512L514.017 209.518L559.232 207.44L510.192 202.188Z" fill="#763188"/>
<path opacity="0.1" d="M510.192 202.188L500.807 214.512L514.017 209.518L559.232 207.44L510.192 202.188Z" fill="black"/>
<path d="M514.374 213.184L500.807 214.512L514.017 209.519L514.374 213.184Z" fill="#263238"/>
<path d="M514.017 209.518L559.231 207.439L515.775 229.579L514.017 209.518Z" fill="#763188"/>
<path d="M510.191 202.188L496.698 186.025L559.231 207.44L510.191 202.188Z" fill="#763188"/>
<path d="M149.138 530.228L376.688 531.212C432.038 487.781 437.708 423.44 398.25 384.449C374.375 360.857 344.056 365.618 315.175 361.866H315.102C305.04 360.55 295.176 358.176 285.815 353.256C256.086 337.574 239.321 300.575 214.315 269.456C211.191 265.545 207.911 261.76 204.475 258.103C183.91 236.135 142.975 235.422 121.561 266.295C67.1704 344.744 92.0903 461.521 149.138 530.228Z" fill="#763188"/>
<path opacity="0.2" d="M149.138 530.228L376.688 531.212C432.038 487.781 437.708 423.44 398.25 384.449C374.375 360.857 344.056 365.618 315.175 361.866H315.102C305.04 360.55 295.176 358.176 285.815 353.256C256.086 337.574 239.321 300.575 214.315 269.456C211.191 265.545 207.911 261.76 204.475 258.103C183.91 236.135 142.975 235.422 121.561 266.295C67.1704 344.744 92.0903 461.521 149.138 530.228Z" fill="black"/>
<path opacity="0.1" d="M144.082 350.735C150.06 444.03 257.845 478.925 325.187 450.967C383.723 426.65 364.547 371.153 315.151 361.866H315.077C305.015 360.55 295.151 358.176 285.791 353.256C256.062 337.574 239.297 300.575 214.291 269.456C177.022 250.096 139.716 282.384 144.082 350.735Z" fill="black"/>
<path d="M344.831 537.62C341.547 536.39 267.414 477.166 266.012 473.119C265.471 471.594 273.478 460.29 283.527 446.908C285.692 444.017 287.955 441.053 290.268 438.052C305.249 418.532 321.596 398.163 321.596 398.163L371.313 437.658L338.607 476.453L331.436 484.977C331.436 484.977 349.677 520.351 350.735 524.952C351.792 529.552 348.09 538.826 344.831 537.62Z" fill="#C95F50"/>
<path d="M344.831 537.621C341.547 536.391 267.415 477.166 266.012 473.12C265.36 471.25 277.304 454.965 290.268 438.052L338.607 476.453L331.436 484.977C331.436 484.977 349.677 520.352 350.735 524.952C351.793 529.552 348.09 538.826 344.831 537.621Z" fill="white"/>
<path d="M344.831 537.621C341.547 536.391 267.414 477.166 266.012 473.119C265.471 471.594 273.478 460.291 283.527 446.908L331.436 485.038C331.436 485.038 349.677 520.413 350.735 525.013C351.792 529.613 348.09 538.826 344.831 537.621Z" fill="#763188"/>
<path d="M346.134 533.82C333.957 523.587 283.847 483.39 271.031 474.251C270.92 474.177 270.871 474.251 271.031 474.325C282.875 484.731 333.305 524.472 346.061 534.017C346.245 534.214 346.393 534.017 346.134 533.82Z" fill="#263238"/>
<path d="M348.09 518.482C346.741 517.341 345.17 516.493 343.476 515.991C341.782 515.489 340.003 515.345 338.25 515.567C335.089 515.944 332.194 517.526 330.169 519.983C330.107 520.056 330.243 520.167 330.317 520.106C332.704 517.98 335.717 516.687 338.902 516.421C342.087 516.155 345.272 516.93 347.979 518.63C348.09 518.703 348.188 518.556 348.09 518.482Z" fill="#263238"/>
<path d="M335.261 490.056C330.341 486.01 323.183 483.168 316.811 484.755C316.565 484.817 316.651 485.173 316.811 485.21C322.986 486.406 329.015 488.262 334.794 490.745C334.839 490.776 334.89 490.797 334.943 490.808C334.997 490.82 335.052 490.82 335.106 490.81C335.159 490.799 335.21 490.779 335.256 490.749C335.302 490.719 335.341 490.68 335.372 490.635C335.403 490.589 335.424 490.538 335.435 490.485C335.446 490.431 335.446 490.376 335.436 490.323C335.426 490.269 335.405 490.218 335.375 490.172C335.345 490.126 335.306 490.087 335.261 490.056Z" fill="#263238"/>
<path d="M337.906 494.62C332.986 490.585 325.815 487.732 319.456 489.331C319.21 489.392 319.296 489.737 319.456 489.774C325.627 490.97 331.651 492.825 337.426 495.309C337.471 495.34 337.522 495.362 337.576 495.374C337.63 495.386 337.685 495.387 337.74 495.377C337.794 495.368 337.846 495.347 337.892 495.317C337.939 495.288 337.979 495.249 338.01 495.204C338.042 495.159 338.064 495.108 338.076 495.054C338.088 495 338.089 494.944 338.079 494.89C338.069 494.836 338.049 494.784 338.019 494.738C337.989 494.691 337.951 494.651 337.906 494.62Z" fill="#263238"/>
<path d="M340.55 499.195C335.63 495.149 328.459 492.295 322.1 493.894C321.854 493.894 321.94 494.3 322.1 494.349C328.271 495.541 334.295 497.393 340.07 499.872C340.16 499.935 340.271 499.961 340.38 499.942C340.488 499.924 340.585 499.863 340.649 499.773C340.712 499.684 340.738 499.572 340.719 499.464C340.701 499.356 340.64 499.259 340.55 499.195Z" fill="#263238"/>
<path d="M343.17 503.759C338.25 499.712 331.079 496.859 324.72 498.458C324.474 498.519 324.56 498.863 324.72 498.913C330.89 500.105 336.915 501.956 342.69 504.435C342.735 504.467 342.785 504.489 342.838 504.501C342.891 504.513 342.946 504.515 343 504.506C343.053 504.497 343.105 504.477 343.151 504.448C343.197 504.419 343.237 504.381 343.268 504.337C343.3 504.293 343.322 504.242 343.334 504.189C343.346 504.136 343.348 504.081 343.339 504.028C343.33 503.974 343.31 503.922 343.281 503.876C343.252 503.83 343.214 503.79 343.17 503.759Z" fill="#263238"/>
<path d="M283.626 464.94C278.029 460.5 271.117 469.184 276.713 473.636C282.31 478.089 289.222 469.417 283.626 464.94Z" fill="white"/>
<path d="M351.251 481.078C350.402 476.982 345.593 476.49 342.309 477.388C336.699 479.084 331.634 482.228 327.623 486.502C327.602 486.517 327.586 486.536 327.575 486.559C327.563 486.581 327.557 486.606 327.557 486.631C327.557 486.656 327.563 486.681 327.575 486.704C327.586 486.726 327.602 486.745 327.623 486.76C327.567 486.869 327.538 486.99 327.537 487.112C327.537 487.234 327.565 487.355 327.62 487.464C327.676 487.573 327.756 487.668 327.855 487.74C327.953 487.812 328.068 487.86 328.189 487.88C333.687 488.261 339.529 489.356 344.978 488.027C348.213 487.289 352.051 484.964 351.251 481.078ZM336.7 486.773C333.982 486.662 331.301 486.404 328.595 486.379C331.4 484.523 334.299 482.811 337.278 481.25C338.735 480.516 340.239 479.879 341.78 479.343C344.179 478.568 352.383 478.31 348.545 484.116C346.442 487.326 339.923 486.92 336.7 486.773Z" fill="#263238"/>
<path d="M313.798 478.47C317.598 482.59 323.047 484.928 327.832 487.67C327.943 487.722 328.065 487.746 328.188 487.741C328.31 487.736 328.43 487.703 328.536 487.642C328.643 487.582 328.734 487.498 328.802 487.396C328.87 487.294 328.913 487.177 328.927 487.055C329.037 487.055 329.136 486.994 329.111 486.859C328.149 481.079 325.684 475.654 321.965 471.127C319.751 468.532 315.483 466.268 312.494 469.208C309.505 472.148 311.571 476.084 313.798 478.47ZM313.06 473.23C313.06 466.281 319.776 471.053 321.338 473.033C322.322 474.333 323.217 475.697 324.019 477.117C325.627 480.071 327.085 483.105 328.386 486.207C326.122 484.718 323.748 483.439 321.424 482.037C318.669 480.376 313.035 477.092 313.06 473.255V473.23Z" fill="#263238"/>
<path d="M421.509 361.718C418.102 387.548 354.461 462.086 347.106 470.647L345.433 472.591L292.74 432.136L293.343 431.349L339.701 370.648L201.425 369.836L253.934 329.013C253.934 329.013 258.189 331.473 267.045 330.181C297.562 325.716 366.368 315.827 382.591 316.479C403.563 317.34 424.633 338.029 421.509 361.718Z" fill="#37474F"/>
<path d="M356.405 348.09C354.683 350.038 353.085 352.092 351.62 354.24C349.984 356.392 348.323 358.52 346.7 360.673V360.734C346.983 360.107 347.266 359.504 347.573 358.84C348.606 356.712 349.43 354.498 350.648 352.456C350.722 352.321 350.537 352.21 350.464 352.333C349.234 354.363 347.745 356.294 346.675 358.483C346.171 359.492 345.691 360.5 345.248 361.534C345.002 362.099 344.744 362.678 344.535 363.243C344.414 363.515 344.312 363.795 344.228 364.08C343.49 365.076 342.776 366.072 342.063 367.093C340.501 369.357 339.123 371.743 337.549 373.994C337.463 374.104 337.659 374.215 337.745 374.104C339.344 372.001 341.14 370.033 342.764 367.954C344.387 365.876 345.986 363.625 347.536 361.423C349.086 359.221 350.525 357.093 352.038 354.941C353.694 352.814 355.218 350.588 356.601 348.274C356.577 348.09 356.478 348.016 356.405 348.09Z" fill="#263238"/>
<path d="M225.619 291.657C237.07 321.017 273.589 355.248 286.012 356.355C300.477 357.659 337.844 341.066 352.309 320.956C355.728 316.196 325.101 293.502 319.923 297.057C309.296 304.339 289.271 314.277 287.549 314.351C284.13 314.609 261.4 296.811 243.269 284.093C220.687 268.287 221.056 279.96 225.619 291.657Z" fill="#C95F50"/>
<path d="M347.893 326.282C347.893 326.282 361.14 312.605 362.542 299.727C363.514 290.809 362.604 267.168 341.165 251.154C336.073 247.353 326.134 245.557 332.186 254.77C336.491 261.326 341.19 264.18 342.998 268.435C342.998 268.435 330.083 267.648 326.479 272.888C323.328 277.47 320.508 282.271 318.041 287.254C318.847 287.923 319.698 288.535 320.587 289.087C320.587 289.087 317.672 294.302 319.689 303.146L347.893 326.282Z" fill="#C95F50"/>
<path d="M316.245 241.978L301.485 288.718C300.907 290.083 301.485 291.252 302.9 291.326L327.414 292.74C328.163 292.73 328.893 292.506 329.518 292.094C330.144 291.682 330.639 291.099 330.944 290.415L345.642 243.675C346.233 242.31 345.642 241.142 344.24 241.055L319.8 239.666C319.049 239.674 318.316 239.896 317.687 240.306C317.058 240.715 316.558 241.295 316.245 241.978Z" fill="#A6A6A6"/>
<path d="M319.148 242.126L304.388 288.866C303.81 290.219 304.388 291.399 305.803 291.473L330.255 292.9C331.005 292.886 331.735 292.661 332.362 292.249C332.989 291.838 333.486 291.258 333.797 290.575L348.484 243.835C349.074 242.47 348.484 241.314 347.081 241.228L322.69 239.85C321.946 239.859 321.219 240.078 320.593 240.48C319.967 240.882 319.466 241.453 319.148 242.126Z" fill="#C7C7C7"/>
<path d="M325.729 244.684C325.696 245.093 325.542 245.484 325.287 245.807C325.032 246.129 324.687 246.369 324.296 246.495C323.905 246.622 323.485 246.629 323.09 246.517C322.694 246.405 322.341 246.178 322.074 245.865C321.808 245.552 321.64 245.167 321.592 244.759C321.544 244.35 321.619 243.937 321.806 243.571C321.993 243.205 322.284 242.903 322.643 242.702C323.002 242.502 323.413 242.412 323.822 242.445C324.095 242.467 324.36 242.542 324.603 242.666C324.846 242.791 325.062 242.962 325.239 243.169C325.416 243.377 325.551 243.618 325.635 243.878C325.719 244.138 325.751 244.411 325.729 244.684Z" fill="#263238"/>
<path d="M361.251 287.045C358.557 283.195 352.727 275.127 345.655 270.182C337.807 264.696 321.19 256.234 317.205 262.076C314.277 266.357 320.329 270.145 320.329 270.145C320.329 270.145 312.727 268.091 310.932 272.605C309.296 276.652 314.154 279.296 314.154 279.296C314.154 279.296 309.333 278.853 308.496 283.06C307.512 288.115 317.783 288.226 321.202 294.228C321.965 295.508 361.251 287.045 361.251 287.045Z" fill="#C95F50"/>
<path d="M341.239 279.443C335.446 274.279 328.216 271.005 320.513 270.059C320.316 270.059 320.193 270.182 320.378 270.231C327.664 272.476 334.652 275.594 341.189 279.517C341.189 279.517 341.276 279.48 341.239 279.443Z" fill="#263238"/>
<path d="M335.47 287.217C332.494 284.757 322.998 279.493 314.216 279.075C314.019 279.075 313.908 279.21 314.093 279.259C321.482 281.124 328.637 283.818 335.421 287.291C335.421 287.291 335.507 287.242 335.47 287.217Z" fill="#263238"/>
<path d="M319.542 292.088C319.542 294.929 319.542 297.684 319.861 300.427C319.984 301.805 320.206 303.158 320.452 304.511C320.754 305.87 321.127 307.213 321.571 308.533C319.848 306.209 318.832 303.437 318.644 300.55C318.515 299.122 318.515 297.686 318.644 296.258C318.769 294.836 319.071 293.435 319.542 292.088Z" fill="#263238"/>
<path d="M241.141 322.039L263.724 296.811C263.724 296.811 245.766 281.424 232.765 275.606C219.764 269.788 217.919 278.177 223.638 290.834C229.358 303.49 241.141 322.039 241.141 322.039Z" fill="#C7C7C7"/>
<path d="M257.722 303.502L241.141 322.038C241.141 322.038 229.358 303.49 223.638 290.833C219.346 281.313 219.296 274.204 225.09 273.749L257.722 303.502Z" fill="#A6A6A6"/>
<path d="M257.267 292.986C253.442 296.577 243.368 306.651 237.722 314.08C237.722 314.08 237.857 314.289 237.894 314.24C243.565 308.816 254.032 297.143 257.501 293.219C257.574 293.146 257.341 292.924 257.267 292.986Z" fill="#263238"/>
<path d="M172.286 384.99C172.52 385.236 262.507 365.519 263.306 364.474C264.536 362.998 248.386 295.323 231.424 275.139C227.181 270.083 213.676 270.428 207.624 275.532C177.698 300.76 171.425 384.092 172.286 384.99Z" fill="#EBEBEB"/>
<path fill-rule="evenodd" clip-rule="evenodd" d="M226.96 272.371L205.865 277.143C206.419 276.59 206.984 276.086 207.55 275.606L224.463 271.793C225.308 271.923 226.143 272.117 226.96 272.371ZM230.072 273.859L203.159 279.936C202.729 280.403 202.323 280.87 201.929 281.362L231.142 274.77C230.816 274.431 230.458 274.126 230.072 273.859ZM232.642 276.615L199.863 283.995C199.518 284.437 199.199 284.892 198.879 285.36L233.319 277.574C233.134 277.266 232.901 276.934 232.642 276.615ZM234.672 279.493L197.169 287.955C196.886 288.398 196.603 288.841 196.333 289.296L235.311 280.44L234.672 279.493ZM236.468 282.42L194.857 291.817L194.143 293.133L237.058 283.441L236.468 282.42ZM238.128 285.36L192.839 295.581L192.2 296.811L238.62 286.405L238.128 285.36ZM239.653 288.336L191.044 299.32C190.847 299.739 190.662 300.169 190.466 300.55L240.158 289.32C239.998 289.05 239.85 288.705 239.653 288.361V288.336ZM241.092 291.338L189.432 303.01L188.916 304.24L241.597 292.346C241.424 292.051 241.265 291.707 241.08 291.362L241.092 291.338ZM242.47 294.363L187.932 306.663C187.76 307.082 187.6 307.5 187.44 307.893L242.937 295.36C242.777 295.077 242.63 294.732 242.47 294.388V294.363ZM243.786 297.402L186.566 310.329C186.411 310.747 186.263 311.157 186.124 311.559L244.229 298.435L243.786 297.402ZM245.016 300.452L185.275 313.982C185.127 314.4 184.992 314.806 184.857 315.212L245.434 301.534C245.324 301.178 245.176 300.821 245.041 300.477L245.016 300.452ZM246.246 303.515L184.119 317.549C183.996 317.967 183.86 318.373 183.737 318.779L246.652 304.56L246.246 303.515ZM247.476 306.59L183.036 321.153L182.667 322.383L247.857 307.623L247.476 306.59ZM248.595 309.665L182.04 324.72C181.917 325.126 181.806 325.544 181.696 325.95L248.94 310.747C248.792 310.39 248.669 310.034 248.534 309.689L248.595 309.665ZM249.69 312.752L181.056 328.262C180.958 328.668 180.847 329.074 180.749 329.492L249.998 313.847L249.69 312.752ZM250.748 315.839L180.232 331.768C180.117 332.178 180.019 332.588 179.937 332.998L251.105 316.922C250.92 316.577 250.809 316.221 250.686 315.864L250.748 315.839ZM251.793 318.951L179.383 335.298C179.285 335.704 179.199 336.11 179.1 336.528L252.138 320.034C251.966 319.689 251.843 319.332 251.732 318.976L251.793 318.951ZM252.79 322.051L178.596 338.816L178.338 340.046L253.134 323.158C252.962 322.801 252.851 322.432 252.728 322.075L252.79 322.051ZM253.774 325.163L177.858 342.309C177.772 342.715 177.686 343.121 177.612 343.539L254.106 326.319L253.774 325.163ZM254.733 328.287L177.12 345.827C177.046 346.233 176.96 346.638 176.899 347.057L255.004 329.406C254.881 329.025 254.77 328.668 254.672 328.311L254.733 328.287ZM255.656 331.399L176.444 349.32C176.37 349.713 176.296 350.119 176.234 350.55L255.902 332.555C255.84 332.1 255.692 331.792 255.594 331.423L255.656 331.399ZM256.553 334.535L175.89 352.776C175.816 353.182 175.742 353.576 175.681 354.006L256.861 335.679C256.701 335.286 256.603 334.929 256.492 334.56L256.553 334.535ZM257.439 337.672L175.324 356.208L175.14 357.438L257.747 338.791C257.574 338.422 257.476 338.065 257.378 337.696L257.439 337.672ZM258.288 340.808L174.795 359.664L174.611 360.894L258.521 341.94C258.435 341.559 258.3 341.202 258.226 340.833L258.288 340.808ZM259.136 343.957L174.266 363.12C174.266 363.526 174.156 363.908 174.107 364.35L259.395 345.089C259.259 344.707 259.173 344.4 259.075 343.982L259.136 343.957ZM259.936 347.106L173.836 366.552L173.688 367.782L260.219 348.237C260.071 347.868 259.973 347.499 259.874 347.13L259.936 347.106ZM260.723 350.255L173.393 369.935C173.393 370.341 173.307 370.734 173.258 371.165L260.957 351.349L260.723 350.255ZM261.473 353.416L173.036 373.391C173.036 373.801 173 374.211 172.926 374.621L261.719 354.56C261.584 354.24 261.498 353.809 261.412 353.44L261.473 353.416ZM262.187 356.589L172.717 376.798C172.717 377.204 172.643 377.598 172.618 378.028L262.408 357.745C262.285 357.364 262.211 356.995 262.125 356.614L262.187 356.589ZM262.839 359.787L172.446 380.205C172.446 380.611 172.446 381.005 172.372 381.361L263.048 360.882C262.925 360.562 262.851 360.205 262.777 359.812L262.839 359.787ZM263.38 362.997L172.2 383.6C172.181 383.981 172.181 384.363 172.2 384.744L263.38 364.154C263.381 363.776 263.36 363.398 263.318 363.022L263.38 362.997Z" fill="#DBDBDB"/>
<path d="M227.427 290.747C223.331 291.215 214.266 284.142 210.477 277.906C210.231 277.476 210.687 272.826 210.994 267.144C211.154 263.7 211.265 259.862 211.105 256.356L233.368 260.723C232.306 265.153 231.794 269.697 231.843 274.253C231.866 274.734 231.936 275.212 232.052 275.68C232.052 275.754 232.052 275.827 232.052 275.913C232.667 278.681 233.835 290.009 227.427 290.747Z" fill="#C95F50"/>
<path d="M232.052 275.729C232.052 275.803 232.052 275.864 232.052 275.975C231.304 276.105 230.547 276.175 229.789 276.184C217.255 276.467 213.516 261.35 212.667 256.676L233.368 260.76C232.313 265.192 231.796 269.734 231.83 274.29C231.87 274.774 231.944 275.255 232.052 275.729Z" fill="#263238"/>
<path d="M204.34 229.309C203.024 237.378 210.121 259.198 216.295 263.441C225.25 269.591 238.435 268.534 243.269 258.115C247.98 248.005 238.226 219.727 231.461 216.025C221.498 210.564 206.296 217.402 204.34 229.309Z" fill="#C95F50"/>
<path d="M221.904 235.963C222.507 235.607 222.999 235.176 223.565 234.733C224.131 234.29 224.795 233.958 225.029 233.196C225.099 232.963 225.086 232.712 224.992 232.488C224.898 232.263 224.728 232.078 224.512 231.966C224.075 231.804 223.603 231.761 223.144 231.844C222.686 231.926 222.258 232.129 221.904 232.433C221.095 232.945 220.503 233.738 220.244 234.659C220.177 234.878 220.178 235.111 220.246 235.329C220.315 235.547 220.447 235.74 220.627 235.881C220.807 236.022 221.025 236.105 221.253 236.12C221.481 236.135 221.708 236.08 221.904 235.963Z" fill="#263238"/>
<path d="M236.517 231.683C235.837 231.72 235.155 231.72 234.475 231.683C233.757 231.805 233.018 231.689 232.372 231.351C232.196 231.205 232.072 231.008 232.016 230.786C231.961 230.565 231.978 230.332 232.064 230.121C232.316 229.724 232.668 229.402 233.085 229.185C233.502 228.969 233.969 228.868 234.438 228.891C235.386 228.806 236.332 229.073 237.095 229.641C237.282 229.777 237.422 229.968 237.497 230.186C237.573 230.405 237.579 230.641 237.516 230.863C237.453 231.086 237.324 231.283 237.145 231.43C236.967 231.576 236.747 231.665 236.517 231.683Z" fill="#263238"/>
<path d="M227.968 252.9C228.423 253.146 228.915 253.528 229.469 253.417C230.017 253.244 230.524 252.959 230.957 252.581C230.957 252.581 231.068 252.581 231.043 252.581C230.919 252.935 230.699 253.249 230.408 253.488C230.118 253.726 229.767 253.88 229.395 253.934C229.07 253.943 228.749 253.855 228.473 253.682C228.197 253.51 227.979 253.259 227.845 252.962C227.796 252.937 227.907 252.876 227.968 252.9Z" fill="#263238"/>
<path d="M228.239 248.005C228.788 248.477 229.429 248.83 230.121 249.042C230.813 249.254 231.542 249.319 232.261 249.235C232.895 249.179 233.516 249.03 234.106 248.792C234.221 248.756 234.332 248.711 234.438 248.657L234.758 248.509C234.831 248.469 234.889 248.407 234.924 248.332C234.96 248.257 234.97 248.172 234.955 248.091L234.893 247.943V247.82C234.598 246.664 233.983 244.954 233.983 244.954C234.463 245.04 236.861 245.385 236.665 244.794C235.032 239.671 232.885 234.725 230.256 230.034C230.24 229.999 230.21 229.971 230.173 229.957C230.136 229.943 230.095 229.944 230.059 229.961C230.024 229.977 229.996 230.007 229.982 230.044C229.968 230.081 229.969 230.121 229.986 230.157C231.474 234.881 233.774 239.321 235.336 244.056C234.475 243.934 233.602 243.934 232.741 244.056C232.593 244.142 233.971 247.328 234.082 247.857C234.086 247.877 234.086 247.898 234.082 247.919C233.171 248.28 232.197 248.456 231.217 248.437C230.237 248.418 229.271 248.204 228.374 247.808C228.202 247.783 228.116 247.919 228.239 248.005Z" fill="#263238"/>
<path d="M233.269 248.46C232.873 249.457 232.229 250.337 231.4 251.018C230.94 251.373 230.381 251.575 229.801 251.596C228.571 251.596 228.177 250.551 228.116 249.554C228.098 249.027 228.139 248.499 228.239 247.98C229.821 248.674 231.584 248.843 233.269 248.46Z" fill="#263238"/>
<path d="M231.4 251.006C230.94 251.361 230.381 251.563 229.801 251.584C228.571 251.584 228.177 250.539 228.116 249.542C228.748 249.382 229.416 249.439 230.012 249.705C230.607 249.97 231.096 250.429 231.4 251.006Z" fill="#FF9BBC"/>
<path d="M223.159 239.604C223.133 239.178 223.222 238.753 223.417 238.374C223.528 238.172 223.682 237.997 223.866 237.859C224.051 237.721 224.262 237.624 224.487 237.574C224.716 237.527 224.953 237.533 225.18 237.593C225.406 237.653 225.615 237.764 225.791 237.919C226.091 238.198 226.323 238.543 226.467 238.927C226.56 239.154 226.63 239.388 226.677 239.628C226.793 240.126 226.793 240.644 226.677 241.141C226.618 240.779 226.519 240.424 226.381 240.083C226.267 239.773 226.127 239.473 225.963 239.186C225.619 238.595 225.127 238.152 224.635 238.3C224.143 238.448 223.811 238.915 223.737 239.591C223.67 240.295 223.67 241.003 223.737 241.707C223.386 241.059 223.188 240.34 223.159 239.604Z" fill="#263238"/>
<path d="M237.562 235.016C237.358 234.654 237.066 234.349 236.713 234.13C236.509 234.021 236.285 233.955 236.054 233.936C235.824 233.917 235.592 233.946 235.373 234.02C235.155 234.105 234.959 234.239 234.801 234.412C234.643 234.584 234.528 234.791 234.462 235.016C234.358 235.419 234.358 235.842 234.462 236.246C234.515 236.487 234.581 236.725 234.659 236.959C234.835 237.424 235.112 237.845 235.471 238.189C235.326 237.854 235.219 237.503 235.151 237.144C235.094 236.818 235.053 236.49 235.028 236.16C235.028 235.483 235.188 234.844 235.68 234.696C235.957 234.627 236.25 234.651 236.512 234.765C236.774 234.878 236.992 235.074 237.131 235.323C237.55 235.894 237.913 236.503 238.214 237.144C238.166 236.393 237.943 235.664 237.562 235.016Z" fill="#263238"/>
<path d="M237.23 222.433C230.539 229.641 217.858 223.897 217.858 223.897C217.562 225.768 216.674 227.496 215.323 228.824C213.973 230.153 212.231 231.013 210.355 231.277C210.355 231.277 211.818 245.004 208.288 245.779C202.901 247.009 197.107 229.087 197.993 225.127C198.879 221.166 203.245 219.198 203.245 219.198C203.25 216.909 204.13 214.709 205.705 213.048C208.743 209.358 222.286 210.318 222.286 210.318C222.625 208.457 223.401 206.704 224.549 205.201C224.821 204.824 225.167 204.507 225.567 204.27C225.966 204.032 226.41 203.878 226.871 203.818C227.331 203.758 227.8 203.793 228.247 203.921C228.693 204.049 229.109 204.267 229.469 204.561C229.019 205.702 228.834 206.93 228.928 208.153C229.174 212.212 232.384 211.486 231.547 207.944C231.285 206.603 230.547 205.401 229.469 204.561C230.527 201.88 232.937 200.539 234.782 201.437C238.103 203.098 242.802 216.48 237.23 222.433Z" fill="#263238"/>
<path d="M226.013 246.996C224.843 247.227 223.633 247.124 222.519 246.701C221.404 246.278 220.431 245.551 219.71 244.602C218.988 243.654 218.547 242.522 218.437 241.335C218.326 240.149 218.551 238.955 219.085 237.889C219.619 236.824 220.441 235.93 221.458 235.308C222.475 234.687 223.646 234.363 224.838 234.374C226.03 234.385 227.195 234.729 228.2 235.369C229.206 236.009 230.012 236.918 230.527 237.992C231.255 239.515 231.35 241.264 230.793 242.856C230.235 244.449 229.069 245.756 227.55 246.492C227.064 246.731 226.546 246.901 226.013 246.996ZM223.7 235.323C223.25 235.415 222.812 235.559 222.396 235.754C221.124 236.358 220.13 237.424 219.616 238.736C219.103 240.047 219.109 241.505 219.632 242.813C220.156 244.12 221.159 245.179 222.436 245.773C223.713 246.367 225.168 246.451 226.506 246.01C227.843 245.568 228.962 244.633 229.634 243.396C230.306 242.158 230.482 240.711 230.124 239.348C229.766 237.986 228.903 236.811 227.709 236.064C226.516 235.316 225.082 235.051 223.7 235.323Z" fill="#763188"/>
<path d="M239.616 242.494C237.156 242.851 234.696 240.698 233.774 237.488C233.334 235.962 233.382 234.337 233.909 232.839C234.096 232.18 234.451 231.581 234.938 231.1C235.425 230.618 236.028 230.271 236.689 230.091C237.35 229.912 238.046 229.906 238.71 230.075C239.374 230.244 239.982 230.582 240.477 231.055C241.693 232.084 242.554 233.47 242.937 235.016C243.86 238.398 242.556 241.719 240.022 242.396L239.616 242.494ZM237.23 230.858L236.91 230.92C236.393 231.087 235.924 231.375 235.541 231.76C235.158 232.145 234.872 232.616 234.708 233.134C234.239 234.466 234.2 235.912 234.598 237.267C235.397 240.206 237.722 242.187 239.801 241.584C241.879 240.981 242.913 238.177 242.113 235.237C241.778 233.864 241.016 232.632 239.936 231.719C239.571 231.393 239.142 231.148 238.675 230.999C238.209 230.851 237.716 230.803 237.23 230.858Z" fill="#763188"/>
<path d="M230.551 238.767L229.838 238.312C230.502 237.242 232.298 235.52 234.29 236.627L233.872 237.365C232.089 236.369 230.613 238.62 230.551 238.767Z" fill="#763188"/>
<path d="M204.032 249.075L203.184 248.927C203.257 248.534 203.872 245.077 205.644 244.192C207.415 243.306 218.448 240.883 218.915 240.772L219.1 241.609C215.889 242.322 207.267 244.315 206.025 244.954C204.783 245.594 204.18 248.116 204.032 249.075Z" fill="#763188"/>
<path d="M211.56 246.898C211.56 246.898 205.41 240.465 202.409 242.777C199.408 245.09 204.869 254.954 208.891 255.779C209.405 255.924 209.943 255.964 210.472 255.895C211.002 255.827 211.512 255.651 211.972 255.38C212.432 255.109 212.832 254.747 213.148 254.316C213.464 253.886 213.69 253.396 213.811 252.876L211.56 246.898Z" fill="#C95F50"/>
<path d="M204.045 245.57C203.971 245.57 204.045 245.656 204.045 245.668C206.91 246.344 208.719 248.62 210.108 251.055C209.909 250.811 209.659 250.612 209.376 250.473C209.093 250.334 208.783 250.258 208.468 250.249C208.152 250.241 207.839 250.301 207.549 250.426C207.259 250.55 206.999 250.735 206.787 250.969C206.726 251.031 206.787 251.129 206.886 251.105C207.338 250.884 207.846 250.806 208.343 250.883C208.84 250.96 209.302 251.188 209.666 251.535C210.268 252.123 210.804 252.775 211.265 253.478C211.425 253.7 211.843 253.478 211.707 253.232C211.191 249.69 207.784 245.336 204.045 245.57Z" fill="#263238"/>
<path d="M200.195 300.501C206.443 338.754 222.027 363.6 229.321 364.805C248.94 368.04 282.125 335.95 292.051 328.422C296.049 325.372 263.417 298.066 259.567 301.805C250.465 310.612 238.239 324.437 237.599 324.584C236.369 324.892 231.695 316.196 216.025 291.596C203.307 271.682 197.649 284.868 200.195 300.501Z" fill="#C95F50"/>
<path d="M310.181 264.93C312.9 269.062 302.137 274.88 302.137 274.88C304.269 274.892 306.329 275.654 307.955 277.033C310.71 279.579 307.955 285.028 307.955 285.028C310.163 285.502 312.177 286.63 313.736 288.263C316.122 290.969 314.081 296.873 314.081 296.873C315.838 298.453 316.998 300.59 317.365 302.924C318.595 313.379 295.79 328.324 288.386 331.214L258.46 304.154C258.46 304.154 269.53 279.333 278.607 272.925C283.589 269.37 306.036 258.607 310.181 264.93Z" fill="#C95F50"/>
<path d="M301.977 274.819C295.545 276.762 289.579 280.243 283.86 283.662C283.737 283.736 283.86 283.933 283.983 283.859C289.628 280.391 296.344 278.349 302.113 275.114C302.273 275.028 302.15 274.769 301.977 274.819Z" fill="#263238"/>
<path d="M307.5 284.696C306.076 285.278 304.736 286.048 303.515 286.984C302.162 287.881 300.833 288.804 299.517 289.751C296.873 291.645 294.265 293.601 291.731 295.643C291.608 295.729 291.731 295.926 291.842 295.84C294.487 293.945 297.156 292.15 299.862 290.329C301.227 289.444 302.592 288.57 303.97 287.709C305.315 286.968 306.577 286.086 307.734 285.077C307.881 284.917 307.709 284.622 307.5 284.696Z" fill="#263238"/>
<path d="M313.933 296.947C312.657 297.489 311.484 298.247 310.464 299.185L306.885 301.83C304.499 303.576 302.1 305.335 299.653 306.996C299.627 307.012 299.608 307.038 299.601 307.068C299.594 307.098 299.599 307.13 299.616 307.156C299.632 307.182 299.658 307.2 299.688 307.207C299.718 307.214 299.75 307.209 299.776 307.193C302.236 305.52 304.794 303.872 307.279 302.162C308.509 301.326 309.739 300.489 310.969 299.702C312.146 299.031 313.196 298.156 314.068 297.119C314.091 297.101 314.106 297.075 314.109 297.046C314.113 297.017 314.105 296.988 314.087 296.965C314.069 296.942 314.043 296.928 314.014 296.924C313.985 296.921 313.956 296.929 313.933 296.947Z" fill="#263238"/>
<path d="M316.11 299.505C317.227 301.118 317.728 303.077 317.525 305.028C317.27 306.98 316.521 308.834 315.347 310.415C313.14 313.572 310.573 316.462 307.697 319.025C304.853 321.614 301.81 323.975 298.595 326.085C295.383 328.195 291.986 330.011 288.447 331.509H288.533C286.278 333.363 284.007 335.187 281.719 336.983C283.81 334.949 285.926 332.949 288.066 330.981C291.483 329.31 294.772 327.39 297.906 325.236C301.032 323.1 304.019 320.767 306.848 318.25C309.686 315.759 312.284 313.009 314.609 310.034C315.769 308.601 316.574 306.916 316.959 305.114C317.344 303.202 317.044 301.217 316.11 299.505Z" fill="#263238"/>
<path d="M204.045 331.596L234.143 316.11C234.143 316.11 222.901 295.335 212.79 285.237C202.68 275.139 198.03 282.334 198.817 296.196C199.605 310.058 204.045 331.596 204.045 331.596Z" fill="#C7C7C7"/>
<path d="M228.78 310.28C223.922 312.272 210.921 318.065 202.95 322.985C202.95 322.985 202.95 323.219 203.049 323.195C210.281 320.156 224.229 313.01 228.879 310.587C229.002 310.538 228.866 310.243 228.78 310.28Z" fill="#263238"/>
<path d="M537.018 470.475C535.788 473.747 476.318 547.694 472.259 549.084C470.733 549.613 459.454 541.581 446.109 531.483C443.231 529.306 440.266 527.03 437.265 524.705C417.794 509.663 397.487 493.23 397.487 493.23L437.13 443.648L475.826 476.477L484.325 483.673C484.325 483.673 519.761 465.555 524.361 464.509C528.962 463.464 538.223 467.191 537.018 470.475Z" fill="#C95F50"/>
<path d="M537.018 470.475C535.788 473.746 476.318 547.694 472.259 549.084C470.389 549.724 454.141 537.731 437.265 524.705L475.826 476.502L484.325 483.697C484.325 483.697 519.761 465.579 524.361 464.534C528.962 463.488 538.224 467.191 537.018 470.475Z" fill="white"/>
<path d="M537.018 470.475C535.788 473.746 476.318 547.694 472.259 549.084C470.733 549.613 459.454 541.581 446.109 531.483L484.325 483.697C484.325 483.697 519.761 465.579 524.361 464.534C528.962 463.488 538.224 467.191 537.018 470.475Z" fill="#763188"/>
<path d="M533.205 469.147C522.922 481.299 482.627 531.274 473.39 544.066C473.316 544.177 473.39 544.226 473.476 544.128C483.919 532.307 523.808 482.013 533.402 469.319C533.611 469.048 533.426 468.901 533.205 469.147Z" fill="#263238"/>
<path d="M517.83 467.142C516.688 468.49 515.838 470.061 515.332 471.754C514.826 473.448 514.676 475.227 514.891 476.982C515.259 480.144 516.831 483.042 519.282 485.075C519.355 485.136 519.466 485.001 519.405 484.927C517.286 482.532 516.003 479.513 515.747 476.326C515.492 473.138 516.279 469.954 517.99 467.252C518 467.231 518.003 467.207 517.997 467.184C517.991 467.162 517.977 467.142 517.958 467.128C517.938 467.115 517.915 467.109 517.892 467.111C517.868 467.114 517.846 467.124 517.83 467.142Z" fill="#263238"/>
<path d="M489.429 479.885C485.358 484.805 482.492 491.951 484.067 498.335C484.128 498.581 484.473 498.482 484.522 498.273C485.735 492.108 487.607 486.092 490.106 480.327C490.165 480.238 490.185 480.128 490.163 480.023C490.142 479.918 490.079 479.826 489.989 479.768C489.899 479.709 489.79 479.688 489.685 479.71C489.58 479.732 489.488 479.795 489.429 479.885Z" fill="#263238"/>
<path d="M493.992 477.24C489.933 482.16 487.068 489.306 488.642 495.69C488.703 495.936 489.048 495.85 489.097 495.69C490.31 489.521 492.182 483.501 494.681 477.732C494.746 477.64 494.773 477.527 494.754 477.416C494.736 477.305 494.674 477.207 494.583 477.141C494.492 477.076 494.378 477.05 494.267 477.068C494.157 477.087 494.058 477.148 493.992 477.24Z" fill="#263238"/>
<path d="M498.568 474.62C494.509 479.54 491.631 486.686 493.218 493.07C493.279 493.316 493.624 493.23 493.661 493.07C494.883 486.902 496.759 480.882 499.257 475.112C499.322 475.021 499.349 474.907 499.33 474.797C499.312 474.686 499.25 474.587 499.159 474.522C499.067 474.456 498.954 474.43 498.843 474.449C498.732 474.467 498.634 474.529 498.568 474.62Z" fill="#263238"/>
<path d="M503.144 472C499.085 476.92 496.207 484.067 497.794 490.45C497.794 490.696 498.199 490.598 498.236 490.45C499.453 484.287 501.325 478.271 503.82 472.505C503.887 472.415 503.916 472.302 503.9 472.192C503.884 472.081 503.824 471.981 503.734 471.914C503.645 471.847 503.532 471.819 503.421 471.835C503.311 471.851 503.211 471.911 503.144 472Z" fill="#263238"/>
<path d="M464.165 531.446C459.7 537.018 468.359 543.967 472.837 538.371C477.314 532.774 468.63 525.849 464.165 531.446Z" fill="white"/>
<path d="M480.499 463.87C476.391 464.706 475.887 469.503 476.809 472.8C478.482 478.43 481.609 483.521 485.874 487.56C485.891 487.58 485.911 487.597 485.935 487.608C485.958 487.619 485.984 487.625 486.01 487.625C486.036 487.625 486.062 487.619 486.085 487.608C486.108 487.597 486.129 487.58 486.145 487.56C486.255 487.613 486.376 487.64 486.498 487.638C486.62 487.637 486.741 487.607 486.849 487.55C486.958 487.494 487.052 487.414 487.124 487.315C487.196 487.216 487.244 487.102 487.264 486.981C487.658 481.483 488.765 475.653 487.461 470.204C486.699 466.932 484.374 463.083 480.499 463.87ZM486.145 478.47C486.01 481.188 485.751 483.87 485.727 486.588C483.879 483.773 482.175 480.867 480.622 477.879C479.893 476.418 479.26 474.91 478.728 473.365C477.966 470.967 477.732 462.763 483.525 466.613C486.723 468.704 486.305 475.21 486.145 478.47Z" fill="#263238"/>
<path d="M477.781 501.311C481.926 497.523 484.276 492.086 487.031 487.314C487.085 487.203 487.111 487.081 487.108 486.958C487.105 486.834 487.073 486.714 487.014 486.605C486.955 486.497 486.871 486.405 486.769 486.335C486.667 486.266 486.55 486.222 486.428 486.207C486.43 486.181 486.426 486.155 486.417 486.131C486.408 486.107 486.393 486.085 486.374 486.067C486.355 486.049 486.333 486.036 486.308 486.028C486.283 486.021 486.257 486.019 486.231 486.022C480.449 486.969 475.016 489.416 470.475 493.119C467.867 495.321 465.555 499.589 468.519 502.578C471.484 505.567 475.37 503.525 477.781 501.311ZM472.554 502.037C465.592 501.975 470.389 495.309 472.369 493.759C473.672 492.778 475.041 491.886 476.465 491.09C479.428 489.49 482.47 488.04 485.579 486.748C484.079 489.011 482.787 491.373 481.373 493.698C479.7 496.453 476.391 502.074 472.554 502.037Z" fill="#263238"/>
<path d="M473.759 469.011L432.493 524.681L293.257 428.04L279.837 418.717C279.837 418.717 276.037 421.275 270.305 424.436C262.359 428.827 250.711 434.399 240.404 435.912C223.184 438.47 194.266 438.2 179.691 418.692C167.391 402.284 174.082 380.882 174.082 380.882L193.11 372.801C193.11 372.801 238.03 335.372 267.119 334.252C279.481 333.76 297.476 343.121 314.13 352.912C330.784 362.702 473.759 469.011 473.759 469.011Z" fill="#37474F"/>
<path d="M279.837 418.753C279.837 418.753 276.037 421.312 270.305 424.473C260.194 412.369 238.78 390.365 238.128 389.59L279.837 418.753Z" fill="#263238"/>
<path d="M209.518 360.267C206.837 362.137 204.241 364.117 201.597 366.023C198.952 367.93 196.295 369.713 193.823 371.731C191.351 373.748 188.903 376.06 186.542 378.311C185.398 379.394 184.266 380.488 183.159 381.62C181.99 382.701 180.908 383.873 179.924 385.125C179.838 385.248 180.01 385.384 180.121 385.31C181.382 384.41 182.586 383.433 183.725 382.383L187.415 379.197C189.875 377.143 192.335 375.15 194.709 373.047C197.083 370.944 199.309 368.766 201.683 366.7C204.057 364.634 206.898 362.42 209.53 360.316L209.518 360.267Z" fill="#263238"/>
<path d="M464.067 467.018C461.385 469.909 458.913 473.021 456.416 476.071C453.919 479.122 451.41 482.221 448.938 485.296C444.018 491.446 438.999 497.596 434.178 503.882C431.509 507.313 428.864 510.77 426.379 514.349C426.269 514.509 426.527 514.681 426.65 514.546C431.976 508.691 436.847 502.442 441.779 496.268C446.711 490.093 451.619 483.882 456.539 477.621C459.196 474.189 461.926 470.782 464.374 467.203C464.411 467.055 464.177 466.895 464.067 467.018Z" fill="#263238"/>
<path d="M349.8 467.584C342.875 462.123 335.692 456.969 328.508 451.852C321.325 446.736 314.216 441.656 306.971 436.711C304.88 435.284 302.777 433.895 300.686 432.505C298.595 431.115 296.405 429.823 294.364 428.384C294.241 428.298 294.13 428.495 294.253 428.581C296.135 429.934 297.943 431.447 299.763 432.849C301.584 434.251 303.281 435.543 305.065 436.859C308.545 439.43 312.063 441.963 315.569 444.497C322.678 449.639 329.849 454.702 337.081 459.688C341.202 462.504 345.286 465.333 349.492 468.015C349.738 468.175 350.033 467.769 349.8 467.584Z" fill="#263238"/>
<path d="M394.326 410.143C387.93 404.842 381.067 400.07 374.351 395.162C367.635 390.254 360.821 385.199 354.007 380.267L333.724 365.617C327.168 360.87 320.649 356.06 313.724 351.866C309.936 349.578 306.061 347.45 302.064 345.532C298.19 343.557 294.158 341.912 290.01 340.612C289.982 340.6 289.951 340.6 289.923 340.612C289.895 340.623 289.873 340.645 289.862 340.673C289.851 340.701 289.851 340.732 289.862 340.76C289.874 340.787 289.896 340.809 289.924 340.821C293.343 342.727 296.922 344.338 300.366 346.171C303.81 348.004 307.144 349.861 310.452 351.903C317.328 356.073 323.81 360.808 330.329 365.494C343.859 375.224 357.389 385.002 371.005 394.596C378.631 399.971 386.097 405.666 394.018 410.586C394.264 410.722 394.56 410.34 394.326 410.143Z" fill="#263238"/>
<path d="M547.448 343.035C532.417 363.391 516.698 387.019 512.922 412.542C512.922 412.935 513.5 413.059 513.586 412.677C515.335 405.713 517.575 398.882 520.29 392.235C530.13 389.516 539.871 387.315 545.062 377.475C550.351 367.389 549.674 354.24 548.678 343.256C548.58 342.666 547.755 342.641 547.448 343.035Z" fill="#763188"/>
<path d="M520.388 392.038C527.141 376.884 535.812 361.669 546.833 349.209C546.907 349.123 547.018 349.209 546.944 349.332C539.736 358.2 534.25 367.868 528.9 377.708C533.881 372.653 539.33 368.126 544.041 362.764C544.139 362.665 544.287 362.764 544.201 362.924C539.515 368.532 534.361 374.646 528.297 378.803C526.657 381.812 525.017 384.834 523.377 387.868L524.607 387.228C524.681 387.228 524.742 387.302 524.669 387.339C524.213 387.573 523.746 387.819 523.266 388.028C522.479 389.455 521.692 390.894 520.88 392.321C520.683 392.64 520.29 392.37 520.388 392.038Z" fill="#263238"/>
<path d="M525.407 386.749C529.453 384.496 533.311 381.921 536.944 379.049C537.043 378.975 537.19 379.111 537.092 379.197C533.563 382.24 529.701 384.872 525.579 387.044C525.382 387.13 525.21 386.86 525.407 386.749Z" fill="#263238"/>
<path d="M511.188 408.753C511.188 409.061 511.741 409.049 511.741 408.753C511.815 400.34 511.741 391.89 511.864 383.452C514.029 379.098 518.641 376.7 521.864 373.219C524.171 370.671 526.18 367.869 527.854 364.867C531.734 357.691 534.103 349.796 534.816 341.669C535.701 332.678 532.294 302.998 528.494 304.031C526.538 304.572 520.167 319.271 518.481 324.129C515.745 332.13 513.744 340.365 512.504 348.729C509.429 368.52 509.687 388.84 511.188 408.753Z" fill="#763188"/>
<path d="M511.126 372.48C511.594 361.841 513.98 351.103 516.231 340.783C518.691 329.713 521.471 319.209 527.19 309.295C527.211 309.258 527.247 309.23 527.288 309.219C527.33 309.207 527.374 309.213 527.412 309.234C527.449 309.255 527.477 309.29 527.488 309.332C527.5 309.373 527.494 309.418 527.473 309.455C523.661 317.165 520.708 325.27 518.666 333.625C519.048 333.034 519.515 332.469 519.896 331.903C520.044 331.669 520.413 331.903 520.265 332.112C519.75 332.989 519.148 333.814 518.469 334.572C518.469 334.572 518.469 334.572 518.396 334.572C516.428 342.518 515.013 350.648 513.808 358.754C513.891 358.642 513.982 358.535 514.078 358.434C514.14 358.434 514.238 358.434 514.201 358.532C514.054 358.803 513.882 359.074 513.722 359.332C513.107 363.452 512.492 367.561 511.975 371.632C519.355 365.371 525.505 357.991 529.084 348.889C529.084 348.889 529.17 348.889 529.158 348.889C525.702 358.323 520.253 366.7 511.864 372.431C511.704 373.526 511.557 374.621 511.397 375.715C511.397 375.937 511.003 375.875 511.003 375.715C511.003 374.744 511.003 373.772 511.089 372.8C511.053 372.752 511.037 372.693 511.044 372.633C511.051 372.574 511.08 372.519 511.126 372.48Z" fill="#263238"/>
<path d="M514.583 357.069C520.179 348.717 525.407 340.599 529.502 331.362C529.512 331.337 529.531 331.318 529.556 331.307C529.58 331.297 529.607 331.297 529.632 331.306C529.656 331.316 529.676 331.335 529.686 331.36C529.696 331.384 529.697 331.411 529.687 331.436C526.231 340.611 521.397 349.886 514.853 357.266C514.73 357.438 514.46 357.241 514.583 357.069Z" fill="#263238"/>
<path d="M522.024 329.295C524.336 325.187 526.784 321.202 528.961 316.995C529.023 316.872 529.182 316.995 529.133 317.094C527.346 321.459 525.081 325.613 522.381 329.48C522.221 329.714 521.889 329.529 522.024 329.295Z" fill="#263238"/>
<path d="M505.53 384.436C505.408 390.003 504.741 395.544 503.537 400.98L503.796 402.788C505.503 396.775 506.498 390.583 506.76 384.338C506.808 384.252 506.834 384.154 506.834 384.055C506.834 383.956 506.808 383.859 506.76 383.772C506.996 375.391 506.373 367.008 504.903 358.754C502.295 343.305 496.612 328.471 485.825 316.934C485.737 316.848 485.628 316.785 485.51 316.751C485.392 316.716 485.267 316.71 485.146 316.735C485.025 316.759 484.912 316.812 484.816 316.889C484.72 316.967 484.644 317.067 484.595 317.18C480.241 328.25 481.766 341.423 485.469 352.456C487.48 358.428 490.356 364.072 494.005 369.209C497.781 374.363 502.492 378.754 505.53 384.436Z" fill="#763188"/>
<path d="M487.08 322.05C497.289 338.631 504.398 358.286 505.271 377.868C505.271 378.212 504.705 378.298 504.656 377.942C504.41 376.183 504.14 374.448 503.857 372.702C499.626 368.655 495.247 364.387 492.27 359.332C492.209 359.233 492.344 359.135 492.405 359.209C495.91 363.532 499.672 367.64 503.672 371.509C502.934 367.191 502.073 362.899 501.04 358.729L500.241 357.782C500.056 357.573 500.351 357.265 500.536 357.474L500.782 357.745C499.363 351.964 497.592 346.275 495.48 340.71C492.885 337.61 489.97 334.929 488.1 331.189C488.1 331.103 488.187 331.029 488.236 331.116C489.761 333.243 491.237 335.396 492.959 337.376C493.648 338.176 494.41 338.914 495.124 339.676C492.77 333.668 489.975 327.842 486.76 322.247C486.763 322.211 486.775 322.176 486.794 322.145C486.813 322.114 486.839 322.087 486.87 322.068C486.901 322.049 486.936 322.038 486.973 322.035C487.009 322.031 487.046 322.037 487.08 322.05Z" fill="#263238"/>
<path d="M489.195 342.505C492.492 346.946 496.256 351.189 499.331 355.777C499.417 355.912 499.22 356.048 499.109 355.937C495.173 352.247 491.828 347.192 488.974 342.628C488.888 342.493 489.097 342.37 489.195 342.505Z" fill="#263238"/>
<path d="M499.786 356.81L499.933 356.946C500.032 357.044 499.872 357.192 499.773 357.093L499.638 356.958C499.618 356.938 499.607 356.912 499.607 356.884C499.607 356.856 499.618 356.83 499.638 356.81C499.658 356.791 499.684 356.78 499.712 356.78C499.739 356.78 499.766 356.791 499.786 356.81Z" fill="#263238"/>
<path d="M471.09 353.92C472.301 363.176 476.028 371.923 481.865 379.209C484.274 382.064 487.252 384.385 490.61 386.023C494.398 387.893 498.359 390.057 502.27 391.595C504.132 396.332 505.516 401.244 506.403 406.256C506.526 405.838 506.649 405.383 506.784 404.965C504.263 383.366 490.29 364.916 472.43 353.071C472.29 352.98 472.127 352.932 471.96 352.931C471.793 352.93 471.629 352.977 471.488 353.066C471.347 353.155 471.235 353.283 471.164 353.435C471.093 353.586 471.068 353.754 471.09 353.92Z" fill="#763188"/>
<path d="M477.301 360.304C477.178 360.193 477.301 359.959 477.486 360.058C487.306 367.36 495.135 377.011 500.253 388.126C500.389 388.422 499.983 388.68 499.81 388.385C498.986 386.933 498.138 385.519 497.277 384.129C493.193 383.354 489.331 380.439 486.305 377.757C486.219 377.684 486.305 377.573 486.428 377.647C487.987 379.064 489.719 380.279 491.582 381.263C493.255 382.112 495.038 382.641 496.772 383.317C495.259 380.919 493.685 378.619 492.037 376.392C487.617 374.716 483.471 372.39 479.737 369.492C479.711 369.476 479.692 369.45 479.685 369.42C479.678 369.39 479.684 369.358 479.7 369.332C479.716 369.306 479.742 369.287 479.772 369.28C479.802 369.274 479.834 369.279 479.86 369.295C483.545 371.526 487.347 373.559 491.25 375.384C488.758 372.101 486.072 368.972 483.205 366.011C481.816 365.273 480.413 364.547 479.073 363.76C479.045 363.749 479.023 363.727 479.011 363.699C479 363.671 479 363.64 479.011 363.612C479.023 363.585 479.045 363.563 479.072 363.551C479.1 363.54 479.131 363.54 479.159 363.551C480.275 363.944 481.34 364.468 482.332 365.113C480.745 363.477 479.085 361.866 477.301 360.304Z" fill="#263238"/>
<path d="M477.682 367.77C477.927 367.911 478.158 368.076 478.371 368.262C478.433 368.262 478.371 368.397 478.285 368.373C478.039 368.252 477.801 368.117 477.572 367.967C477.449 367.868 477.559 367.672 477.682 367.77Z" fill="#263238"/>
<path d="M534.706 453.009H485.739L489.688 408.421L490.561 398.581H529.884L530.757 408.421L534.706 453.009Z" fill="#455A64"/>
<path d="M530.757 408.421H489.688L490.561 398.581H529.884L530.757 408.421Z" fill="#263238"/>
<path d="M532.221 391.706H488.211V401.435H532.221V391.706Z" fill="#455A64"/>
</svg>
