<svg width="433" height="410" viewBox="0 0 433 410" fill="none" xmlns="http://www.w3.org/2000/svg">
<path d="M121.262 0H179.591V70.7569H121.262V0Z" fill="#455A64"/>
<path d="M127.919 6.46704H172.924V64.3111H127.919V6.46704Z" fill="white"/>
<path d="M171.165 6.46704H172.924V64.3111H171.165V6.46704Z" fill="#263238"/>
<path d="M119.504 0H121.263V70.7569H119.504V0Z" fill="#263238"/>
<path d="M147.234 14.4402H157.84V46.048H147.234V14.4402Z" fill="#ED1944"/>
<path d="M133.659 51.9778H163.002V35.4314H133.659V51.9778ZM161.949 50.9246H134.712V36.4846H161.949V50.9246Z" fill="#EBEBEB"/>
<path d="M59.0786 87.0503H117.407V157.807H59.0786V87.0503Z" fill="#455A64"/>
<path d="M65.7352 93.5068H110.74V151.351H65.7352V93.5068Z" fill="white"/>
<path d="M108.981 93.5068H110.74V151.351H108.981V93.5068Z" fill="#263238"/>
<path d="M57.3104 87.0503H59.0693V157.807H57.3104V87.0503Z" fill="#263238"/>
<path d="M83.5043 108.452H92.5938V131.434H83.5043V108.452Z" fill="#ED1944"/>
<path d="M73.4039 138.807H98.8818V121.955H73.4039V138.807ZM97.8286 137.753H74.4571V123.008H97.8286V137.753Z" fill="#DBDBDB"/>
<path d="M393.093 172.975C393.093 172.975 414.653 169.962 409.608 143.937C409.608 143.937 385.52 149.34 393.093 172.975Z" fill="#ED1944"/>
<path opacity="0.1" d="M393.093 172.975C393.093 172.975 414.653 169.962 409.608 143.937C409.608 143.937 385.52 149.34 393.093 172.975Z" fill="black"/>
<path d="M394.179 167.55C394.603 166.23 395.095 164.933 395.653 163.664C395.653 163.506 395.653 163.337 395.706 163.179C395.706 162.821 395.769 162.463 395.79 162.126C395.853 161.347 395.906 160.567 395.948 159.788C396.043 158.24 396.138 156.628 396.169 155.122C396.169 155.105 396.176 155.089 396.188 155.077C396.2 155.066 396.216 155.059 396.233 155.059C396.249 155.059 396.265 155.066 396.277 155.077C396.289 155.089 396.296 155.105 396.296 155.122C396.296 156.67 396.296 158.282 396.296 159.788C396.296 160.567 396.222 161.347 396.169 162.116C396.169 162.295 396.169 162.463 396.169 162.642C397.38 160.055 398.829 157.587 400.498 155.27C401.234 154.233 402.021 153.235 402.858 152.278C403.711 151.299 404.616 150.361 405.491 149.382C405.543 149.319 405.638 149.382 405.575 149.477C404.033 151.195 402.644 153.045 401.425 155.006C400.772 155.996 400.151 157.018 399.561 158.05L399.761 157.966L400.53 157.66C401.12 157.429 401.699 157.207 402.289 156.997C403.447 156.565 404.606 156.144 405.764 155.701C405.828 155.701 405.88 155.796 405.764 155.828C404.616 156.281 403.489 156.765 402.352 157.25L400.677 157.966C400.403 158.092 400.119 158.208 399.845 158.313C399.662 158.408 399.467 158.479 399.266 158.524C398.834 159.303 398.402 160.083 398.002 160.883C397.004 162.901 396.124 164.976 395.369 167.097L395.222 167.54C395.786 167.213 396.374 166.928 396.98 166.687L399.213 165.633C400.73 164.938 402.226 164.233 403.679 163.411C403.753 163.411 403.816 163.485 403.742 163.527C402.257 164.338 400.804 165.202 399.329 166.002C398.581 166.402 397.834 166.803 397.075 167.161C396.449 167.537 395.766 167.811 395.053 167.972C394.332 169.945 393.858 172.001 393.642 174.091C393.399 177.03 393.431 180 393.357 182.949H393.284C393.062 180.274 392.947 177.567 392.936 174.891C392.954 172.394 393.373 169.915 394.179 167.55Z" fill="#263238"/>
<path d="M397.495 152.247C397.706 153.764 397.78 155.297 397.716 156.828H397.653C397.558 155.312 397.548 153.795 397.369 152.278C397.358 152.194 397.495 152.162 397.495 152.247Z" fill="#263238"/>
<path d="M403.668 153.552C404.632 153.187 405.559 152.732 406.438 152.193C406.512 152.193 406.575 152.267 406.501 152.309C405.64 152.893 404.695 153.344 403.7 153.647C403.7 153.647 403.615 153.552 403.668 153.552Z" fill="#263238"/>
<path d="M392.42 214.293C392.42 211.913 392.472 209.532 392.504 207.152C392.546 199.232 392.63 191.318 392.757 183.412C392.869 177.135 393.016 170.857 393.199 164.58C393.192 164.567 393.189 164.553 393.189 164.538C393.189 164.523 393.192 164.509 393.199 164.496C393.199 162.779 393.199 161.062 393.199 159.345C393.199 159.345 393.199 159.282 393.304 159.282C393.41 159.282 393.41 159.282 393.41 159.356V164.506C393.41 164.506 393.41 164.506 393.41 164.58C393.726 175.755 394.01 186.94 394.073 198.115C394.073 200.39 394.073 202.665 394.073 204.94C394.147 212.229 394.189 219.517 394.157 226.806C394.157 227.964 394.157 229.123 394.157 230.281C394.157 236.959 394.094 243.626 394.094 250.293C394.094 250.651 393.694 250.83 393.273 250.851C392.851 250.872 392.272 250.672 392.272 250.261C392.272 242.889 392.219 235.516 392.219 228.196C392.419 223.562 392.367 218.927 392.42 214.293Z" fill="#263238"/>
<path d="M401.404 207.057C401.404 207.057 411.778 199.379 421.615 204.561C431.453 209.743 433.001 229.765 433.001 229.765C433.001 229.765 418.55 231.872 409.45 223.172C400.677 214.83 401.404 207.057 401.404 207.057Z" fill="#ED1944"/>
<path d="M398.58 207.531C400.486 206.779 402.549 206.511 404.584 206.752C405.005 206.678 405.431 206.636 405.858 206.626L407.322 206.51L410.345 206.299C412.388 206.152 414.442 206.025 416.486 205.815C416.549 205.815 416.57 205.941 416.486 205.952C414.463 206.204 412.452 206.489 410.429 206.699C409.376 206.805 408.323 206.91 407.27 206.984L406.511 207.058L407.428 207.289C409.056 207.758 410.631 208.397 412.125 209.196C412.947 209.343 413.758 209.575 414.558 209.764C415.843 210.059 417.117 210.396 418.392 210.723C420.909 211.386 423.395 212.124 425.902 212.829C425.975 212.829 425.902 212.966 425.902 212.945C423.405 212.334 420.899 211.776 418.392 211.186L414.748 210.312L413.8 210.091C416.588 211.812 419.078 213.974 421.172 216.495C423.198 218.973 424.92 221.685 426.302 224.573C426.302 224.647 426.228 224.72 426.186 224.647C424.486 221.674 422.404 218.937 419.993 216.505L420.119 216.926C420.319 217.537 420.509 218.148 420.699 218.759C421.085 219.967 421.464 221.189 421.836 222.424C421.836 222.509 421.741 222.53 421.71 222.424C421.267 221.234 420.856 220.044 420.435 218.854C420.235 218.275 420.024 217.695 419.824 217.105L419.508 216.2C419.508 216.105 419.445 216.01 419.414 215.915C418.259 214.782 417.031 213.727 415.738 212.756C414.026 211.499 412.178 210.439 410.229 209.596C410.229 209.775 410.303 209.954 410.335 210.133C410.44 210.596 410.545 211.07 410.64 211.544C410.84 212.524 411.04 213.514 411.23 214.493C411.62 216.505 411.862 218.538 412.283 220.539C412.283 220.623 412.167 220.655 412.146 220.539C411.683 218.527 411.093 216.537 410.64 214.514C410.408 213.503 410.187 212.492 409.976 211.481C409.871 211.007 409.776 210.533 409.682 210.059C409.682 209.796 409.566 209.533 409.534 209.259L408.976 209.027C406.259 207.864 403.279 207.456 400.35 207.847C398.978 208.105 397.691 208.697 396.602 209.569C395.513 210.441 394.655 211.568 394.104 212.85C394.009 213.072 393.662 212.935 393.714 212.703C394.074 211.525 394.7 210.446 395.543 209.549C396.387 208.652 397.427 207.962 398.58 207.531Z" fill="#263238"/>
<path d="M414.454 216.074C414.749 217.39 415.044 218.707 415.328 220.023C415.654 221.284 415.897 222.564 416.055 223.857C416.055 223.857 415.981 223.857 415.97 223.857C415.591 222.593 415.296 221.305 415.086 220.002L414.327 216.105C414.325 216.097 414.325 216.088 414.326 216.08C414.327 216.071 414.33 216.063 414.335 216.056C414.339 216.048 414.345 216.042 414.352 216.037C414.359 216.032 414.366 216.028 414.375 216.026C414.383 216.024 414.392 216.024 414.4 216.025C414.409 216.026 414.417 216.029 414.424 216.033C414.431 216.038 414.438 216.044 414.443 216.051C414.448 216.057 414.452 216.065 414.454 216.074Z" fill="#263238"/>
<path d="M424.48 219.412C425.807 220.086 427.082 220.844 428.462 221.392C428.546 221.392 428.462 221.56 428.462 221.518C427.107 220.903 425.785 220.218 424.501 219.464C424.501 219.464 424.449 219.401 424.48 219.412Z" fill="#263238"/>
<path d="M399.077 192.944C399.077 192.944 411.716 193.755 417.645 185.402C423.575 177.05 422.216 165.138 422.216 165.138C422.216 165.138 408.903 166.76 403.616 172.763C398.329 178.767 399.077 192.944 399.077 192.944Z" fill="#ED1944"/>
<path d="M393.127 205.457C393.569 204.098 394.117 202.761 394.622 201.423C395.128 200.085 395.675 198.885 396.202 197.631C397.332 195.074 398.601 192.582 400.004 190.164C400.889 188.626 401.847 187.13 402.837 185.656C402.837 185.435 402.901 185.203 402.932 184.982C402.995 184.592 403.048 184.192 403.111 183.802C403.238 183.002 403.385 182.201 403.512 181.401C403.806 179.652 404.165 177.915 404.449 176.135C404.449 176.061 404.586 176.061 404.575 176.135C404.323 177.862 404.143 179.6 403.901 181.327C403.785 182.18 403.68 183.033 403.543 183.876C403.543 184.192 403.448 184.497 403.406 184.803C405.337 181.991 407.429 179.293 409.673 176.724L410.6 175.671C410.6 175.576 410.674 175.482 410.716 175.387L410.99 174.66C411.179 174.154 411.358 173.607 411.537 173.154C411.895 172.153 412.211 171.153 412.485 170.131C412.485 170.057 412.633 170.131 412.612 170.131C412.348 171.184 412.085 172.238 411.779 173.238C411.632 173.733 411.463 174.228 411.295 174.713L411.2 174.955C412.822 173.185 414.507 171.49 416.214 169.805C416.22 169.798 416.227 169.793 416.235 169.79C416.243 169.787 416.252 169.785 416.261 169.785C416.27 169.785 416.279 169.787 416.287 169.79C416.295 169.793 416.302 169.798 416.308 169.805C416.315 169.811 416.32 169.818 416.323 169.826C416.326 169.834 416.328 169.843 416.328 169.852C416.328 169.861 416.326 169.869 416.323 169.878C416.32 169.886 416.315 169.893 416.308 169.899C413.033 173.341 410.03 177.032 407.324 180.937C407.635 180.837 407.951 180.756 408.272 180.695C409.241 180.505 410.231 180.369 411.211 180.242C413.317 179.979 415.339 179.716 417.393 179.389C417.478 179.389 417.509 179.505 417.393 179.526C415.434 179.905 413.486 180.348 411.537 180.8C410.61 181.011 409.694 181.19 408.767 181.369C408.01 181.534 407.264 181.748 406.534 182.012L405.923 182.886C404.986 184.234 404.101 185.614 403.227 187.015C403.648 186.92 404.08 186.846 404.512 186.762C405.492 186.572 406.482 186.393 407.461 186.225C409.389 185.909 411.327 185.572 413.243 185.171C413.317 185.171 413.349 185.277 413.243 185.298C411.305 185.751 409.378 186.288 407.461 186.793C406.534 187.046 405.597 187.267 404.66 187.478L403.248 187.783C403.062 187.834 402.872 187.865 402.679 187.878C400.826 190.876 399.091 193.948 397.476 197.094C396.771 198.474 396.097 199.864 395.433 201.307C394.77 202.75 394.18 204.214 393.548 205.678C393.474 205.889 393.021 205.773 393.127 205.457Z" fill="#263238"/>
<path d="M406.111 176.324C406.354 175.123 406.606 173.912 406.87 172.712C406.87 172.627 407.017 172.712 406.996 172.712C406.764 173.902 406.533 175.092 406.311 176.282C406.136 177.495 405.893 178.698 405.585 179.884C405.675 178.686 405.851 177.497 406.111 176.324Z" fill="#263238"/>
<path d="M413.484 175.977C414.063 175.682 414.685 175.45 415.306 175.208L416.265 174.829L416.749 174.639C416.938 174.582 417.119 174.501 417.286 174.397C417.381 174.334 417.444 174.502 417.35 174.513C417.16 174.566 416.976 174.64 416.802 174.734L416.328 174.944L415.401 175.366C414.789 175.644 414.164 175.89 413.526 176.103C413.51 176.109 413.491 176.107 413.475 176.099C413.46 176.091 413.448 176.078 413.442 176.061C413.436 176.044 413.438 176.026 413.446 176.01C413.454 175.994 413.467 175.982 413.484 175.977Z" fill="#263238"/>
<path d="M386.1 182.981C386.1 182.981 378.432 168.657 366.762 166.445C355.092 164.233 347.951 176.229 347.951 176.229C347.951 176.229 356.461 187.099 367.173 188.995C377.884 190.891 386.1 182.981 386.1 182.981Z" fill="#ED1944"/>
<path d="M358.947 172.859C361.987 172.451 365.07 172.487 368.1 172.964L367.573 172.69L364.982 171.353C363.191 170.426 361.38 169.436 359.505 168.677C359.495 168.681 359.485 168.683 359.475 168.682C359.464 168.681 359.454 168.678 359.445 168.672C359.436 168.666 359.429 168.659 359.424 168.649C359.419 168.64 359.417 168.63 359.417 168.619C359.417 168.609 359.419 168.599 359.424 168.589C359.429 168.58 359.436 168.572 359.445 168.566C359.454 168.561 359.464 168.557 359.475 168.556C359.485 168.555 359.495 168.557 359.505 168.561C361.338 169.415 363.223 170.12 365.056 170.963C365.972 171.384 366.878 171.826 367.763 172.3C368.342 172.606 368.974 172.89 369.543 173.259C372.091 173.779 374.567 174.606 376.915 175.723L375.462 174.133C374.409 172.943 373.355 171.69 372.112 170.605C372.049 170.552 372.112 170.457 372.207 170.52C373.429 171.574 374.714 172.627 375.894 173.807C376.473 174.365 377.021 174.944 377.558 175.544C377.821 175.839 378.095 176.145 378.348 176.461C382.355 178.606 385.837 181.614 388.542 185.267C391.246 188.921 393.107 193.129 393.988 197.589C393.988 197.663 393.893 197.715 393.862 197.589C392.221 192.128 389.279 187.147 385.289 183.075C380.999 178.694 375.594 175.566 369.658 174.028C366.135 173.129 362.49 172.799 358.863 173.048C358.81 173.101 358.799 172.88 358.947 172.859Z" fill="#263238"/>
<path opacity="0.1" d="M347.952 176.229C347.952 176.229 356.462 187.099 367.173 188.994C375.346 190.416 382.066 186.203 384.794 184.097L385.384 183.128C385.384 183.128 379.854 178.473 369.406 175.755C358.958 173.038 347.952 176.229 347.952 176.229Z" fill="black"/>
<path d="M365.72 167.751C366.614 168.275 367.479 168.848 368.311 169.468C369.123 170.082 369.878 170.769 370.565 171.521C370.628 171.585 370.565 171.679 370.459 171.616C369.69 170.942 368.911 170.268 368.111 169.636C367.329 168.997 366.51 168.406 365.657 167.867C365.583 167.825 365.646 167.709 365.72 167.751Z" fill="#263238"/>
<path d="M359.316 170.173C359.748 170.362 360.191 170.51 360.622 170.689L361.928 171.237C362.013 171.237 361.928 171.426 361.928 171.384L360.633 170.857C360.191 170.678 359.769 170.478 359.337 170.299C359.2 170.268 359.243 170.141 359.316 170.173Z" fill="#263238"/>
<path d="M387.638 201.011C387.638 201.011 385.584 215.22 374.893 220.191C364.203 225.162 351.185 220.191 351.185 220.191C351.185 220.191 356.304 189.447 387.638 201.011Z" fill="#ED1944"/>
<path d="M358.547 210.955C359.537 210.839 360.517 210.671 361.486 210.492L362.929 210.218L363.676 210.07L364.54 209.27C366.568 207.49 368.758 205.903 371.081 204.53C372.343 203.785 373.648 203.113 374.988 202.518H374.788L371.27 202.676C368.932 202.782 366.583 202.834 364.235 202.982C364.15 202.982 364.161 202.856 364.235 202.856C366.583 202.698 368.922 202.434 371.27 202.234L374.693 201.929L376.452 201.771H376.905C377.516 201.539 378.127 201.328 378.748 201.139C381.658 200.132 384.792 199.957 387.796 200.633C390.492 201.328 393.167 203.087 393.862 205.899C393.862 205.994 393.736 206.068 393.694 205.963C392.641 203.593 390.071 202.403 387.69 201.908C386.095 201.607 384.461 201.575 382.856 201.813C382.743 202.53 382.563 203.235 382.319 203.919C382.013 204.973 381.729 205.92 381.424 206.921C380.813 208.922 380.149 210.892 379.559 212.893C379.559 212.977 379.412 212.893 379.433 212.893C379.928 210.892 380.349 208.88 380.834 206.879C381.065 205.896 381.308 204.916 381.56 203.94C381.693 203.258 381.872 202.586 382.098 201.929C381.158 202.086 380.229 202.305 379.317 202.582C377.668 203.063 376.053 203.654 374.483 204.351C374.325 205.404 374.093 206.373 373.861 207.363C373.566 208.627 373.24 209.87 372.808 211.092C372.808 211.109 372.801 211.125 372.789 211.137C372.778 211.148 372.762 211.155 372.745 211.155C372.728 211.155 372.712 211.148 372.7 211.137C372.688 211.125 372.682 211.109 372.682 211.092C372.682 211.008 372.682 210.934 372.682 210.85C372.924 209.691 373.177 208.532 373.419 207.374C373.619 206.437 373.798 205.489 374.009 204.562C372.677 205.151 371.376 205.808 370.112 206.531C370.112 206.826 370.017 207.121 369.975 207.384L369.722 208.838C369.511 209.891 369.301 211.029 369.037 212.114C368.555 214.211 367.939 216.276 367.194 218.296C367.205 218.308 367.21 218.323 367.21 218.338C367.21 218.354 367.205 218.369 367.194 218.38L367.131 218.443C367.131 218.496 367.015 218.443 367.026 218.38C367.521 216.274 368.079 214.167 368.553 212.061C368.785 211.008 369.016 209.954 369.227 208.901C369.332 208.375 369.427 207.848 369.532 207.311C369.532 207.163 369.532 206.995 369.606 206.837C365.679 209.146 362.128 212.041 359.074 215.421C359 215.515 358.842 215.421 358.916 215.294C359.712 214.216 360.563 213.179 361.465 212.187C362.002 211.618 362.518 211.06 363.129 210.513H362.95C362.444 210.597 361.896 210.671 361.443 210.734C360.453 210.871 359.463 210.965 358.473 211.081C358.494 211.092 358.463 210.965 358.547 210.955Z" fill="#263238"/>
<path d="M366.088 215.768L366.151 215.399C366.151 215.241 366.256 215.094 366.278 214.936C366.499 213.977 366.688 213.029 366.857 212.06C366.857 211.997 366.973 212.06 366.973 212.06C366.91 213.333 366.636 214.586 366.162 215.768C366.162 215.768 366.077 215.768 366.088 215.768Z" fill="#263238"/>
<path d="M374.999 215.547C374.999 215.53 375.006 215.514 375.017 215.502C375.029 215.49 375.045 215.483 375.062 215.483C375.367 214.22 375.652 212.966 375.915 211.702C376.052 211.028 376.189 210.365 376.315 209.701C376.389 209.343 376.452 208.974 376.516 208.648C376.545 208.329 376.623 208.016 376.747 207.721C376.752 207.71 376.76 207.7 376.771 207.693C376.781 207.687 376.793 207.683 376.805 207.683C376.817 207.683 376.83 207.687 376.84 207.693C376.85 207.7 376.858 207.71 376.863 207.721C376.876 208.366 376.787 209.01 376.6 209.627C376.463 210.323 376.336 211.018 376.179 211.734C375.873 213.145 375.515 214.536 375.125 215.947C375.125 215.966 375.117 215.985 375.104 215.999C375.09 216.013 375.071 216.021 375.052 216.021C375.032 216.021 375.013 216.013 374.999 215.999C374.986 215.985 374.978 215.966 374.978 215.947L374.999 215.547Z" fill="#263238"/>
<path d="M359.517 206.857C361.476 206.594 363.424 206.31 365.383 206.067C365.457 206.067 365.499 206.183 365.383 206.204C363.435 206.489 361.476 206.731 359.517 206.984C359.474 206.994 359.432 206.868 359.517 206.857Z" fill="#263238"/>
<path d="M393.104 167.687C393.104 167.687 399.644 138.997 368.827 127.39C368.827 127.39 360.285 165.138 393.104 167.687Z" fill="#ED1944"/>
<path d="M386.458 151.446L386.121 151.246L384.383 150.266L380.833 148.286C378.485 146.97 376.167 145.611 373.798 144.316C373.788 144.313 373.78 144.308 373.773 144.301C373.766 144.295 373.761 144.287 373.757 144.278C373.754 144.269 373.753 144.259 373.753 144.25C373.754 144.24 373.757 144.231 373.762 144.223C373.767 144.215 373.774 144.208 373.782 144.202C373.79 144.197 373.799 144.194 373.808 144.193C373.818 144.191 373.828 144.192 373.837 144.195C373.846 144.198 373.854 144.204 373.861 144.21C376.241 145.495 378.653 146.706 381.033 147.97L384.572 149.835L386.015 150.593C384.962 148.644 383.909 146.738 382.676 144.895C381.065 142.441 379.306 140.092 377.41 137.807C377.391 137.786 377.38 137.758 377.381 137.729C377.382 137.7 377.395 137.673 377.415 137.654C377.436 137.634 377.464 137.624 377.493 137.625C377.522 137.626 377.549 137.638 377.568 137.659C380.27 140.292 382.663 143.225 384.699 146.401C384.699 146.296 384.699 146.19 384.699 146.096C384.699 145.39 384.646 144.674 384.635 143.989C384.635 142.588 384.635 141.187 384.635 139.776C384.635 139.692 384.762 139.692 384.772 139.776C384.772 141.156 384.994 142.536 385.067 143.905C385.067 144.6 385.141 145.285 385.162 146.011C385.162 146.39 385.162 146.812 385.162 147.223C385.794 148.276 386.405 149.255 386.984 150.287C388.012 152.16 388.93 154.091 389.733 156.07C389.733 155.354 389.807 154.637 389.849 153.963C389.944 152.383 390.133 150.804 390.197 149.255C390.197 149.171 390.334 149.171 390.334 149.255C390.334 150.825 390.334 152.415 390.334 153.974C390.334 154.753 390.334 155.543 390.239 156.323C390.239 156.617 390.239 156.902 390.239 157.197C391.219 159.762 391.997 162.399 392.566 165.086C393.083 167.891 393.459 170.721 393.693 173.564C393.37 170.949 392.824 168.366 392.061 165.844C391.682 164.485 391.281 163.137 390.85 161.81C389.565 161.199 388.332 160.451 387.1 159.703L383.224 157.597C380.654 156.186 378.084 154.743 375.43 153.5C375.356 153.5 375.43 153.352 375.504 153.384C378.19 154.606 380.896 155.764 383.54 157.091C384.857 157.744 386.142 158.45 387.427 159.198C388.48 159.798 389.596 160.399 390.586 161.094C390.291 160.195 389.975 159.31 389.638 158.44C388.69 156.091 387.627 153.721 386.458 151.446Z" fill="#263238"/>
<path d="M389.05 144.853C389.05 144.769 389.187 144.769 389.187 144.853C389.071 146.496 389.018 148.129 388.849 149.761C388.849 149.781 388.842 149.799 388.828 149.813C388.814 149.827 388.795 149.835 388.776 149.835C388.756 149.835 388.737 149.827 388.724 149.813C388.71 149.799 388.702 149.781 388.702 149.761C388.755 148.118 388.934 146.486 389.05 144.853Z" fill="#263238"/>
<path d="M374.273 150.33C376.211 151.109 378.149 151.846 380.076 152.647C380.076 152.647 380.076 152.763 380.076 152.742C378.128 152.004 376.211 151.214 374.273 150.456C374.157 150.393 374.199 150.298 374.273 150.33Z" fill="#263238"/>
<path d="M371.355 137.101C373.241 137.969 375.073 138.951 376.842 140.039C376.856 140.053 376.866 140.072 376.868 140.092C376.87 140.112 376.865 140.132 376.853 140.148C376.842 140.165 376.825 140.177 376.805 140.182C376.786 140.187 376.765 140.185 376.747 140.176C374.967 139.123 373.145 138.133 371.291 137.217C371.197 137.175 371.27 137.069 371.355 137.101Z" fill="#263238"/>
<path d="M371.808 229.724H416.266V276.582H371.808V229.724Z" fill="#455A64"/>
<path d="M417.044 246.301H419.319V326.558H417.044V246.301Z" fill="#263238"/>
<path d="M368.996 246.301H371.271V326.558H368.996V246.301Z" fill="#263238"/>
<path d="M391.808 246.301H394.083V326.558H391.808V246.301Z" fill="#263238"/>
<path d="M370.121 273.569H418.181V280.057H370.121V273.569Z" fill="#263238"/>
<path d="M206.942 381.222H199.549L169.457 274.992H206.942V381.222Z" fill="#37474F"/>
<path d="M235.39 381.233H206.942V275.003H235.39V381.233Z" fill="#455A64"/>
<path d="M206.942 274.992C207.164 283.312 207.269 291.633 207.353 299.954L207.479 324.905L207.353 349.867L207.206 362.337L206.942 374.818L206.679 362.337L206.532 349.867L206.405 324.905L206.532 299.954C206.616 291.633 206.721 283.312 206.942 274.992Z" fill="#37474F"/>
<path d="M67.5029 326.706H33.7149L0.000587044 211.439L30.9343 197.231L67.5029 326.706Z" fill="#37474F"/>
<path d="M184.204 326.706H67.5048L30.9362 197.231H147.636L184.204 326.706Z" fill="#455A64"/>
<path d="M398.864 381.222L33.4414 381.222L33.4414 302.608L398.864 302.608V381.222Z" fill="#455A64"/>
<path d="M274.276 381.222L33.4414 381.222L33.4414 302.608H274.276V381.222Z" fill="#37474F"/>
<path d="M398.864 326.706C394.651 326.927 390.386 327.032 386.141 327.117L373.418 327.243L286.799 327.127L280.48 326.969L274.16 326.706L280.48 326.453L286.799 326.295L373.46 326.179L386.099 326.285C390.386 326.39 394.63 326.485 398.864 326.706Z" fill="#37474F"/>
<path d="M274.075 326.707C265.902 326.928 257.718 327.033 249.545 327.117L225.015 327.244L57.9708 327.128L45.7005 326.97L33.4408 326.707L45.7005 326.454L57.9708 326.285L225.015 326.169L249.545 326.285C257.718 326.391 265.902 326.485 274.075 326.707Z" fill="#455A64"/>
<path d="M35.8955 381.222L35.2004 389.827L33.5678 409.712H26.0688L24.4362 389.827L23.7306 381.222H35.8955Z" fill="#DBDBDB"/>
<path d="M23.7306 381.222H35.8955L35.2004 389.827H24.4362L23.7306 381.222Z" fill="#A6A6A6"/>
<path d="M133.531 381.222L132.826 389.827L131.193 409.712H123.694L122.061 389.827L121.356 381.222H133.531Z" fill="#DBDBDB"/>
<path d="M121.356 381.222H133.531L132.826 389.827H122.061L121.356 381.222Z" fill="#A6A6A6"/>
<path d="M293.74 381.222L293.045 389.827L291.402 409.712H283.913L282.27 389.827L281.575 381.222H293.74Z" fill="#DBDBDB"/>
<path d="M281.575 381.222H293.74L293.045 389.827H282.27L281.575 381.222Z" fill="#A6A6A6"/>
<path d="M391.366 381.222L390.671 389.827L389.039 409.712H381.539L379.907 389.827L379.201 381.222H391.366Z" fill="#DBDBDB"/>
<path d="M379.201 381.222H391.366L390.671 389.827H379.907L379.201 381.222Z" fill="#A6A6A6"/>
<path d="M3.83424 274.992H39.0547V381.222H3.83424V274.992Z" fill="#37474F"/>
<path d="M67.5028 381.233H39.0547L39.0547 275.003H67.5028L67.5028 381.233Z" fill="#455A64"/>
<path d="M67.5035 274.992C67.7246 283.312 67.8299 291.633 67.9142 299.954L68.0195 324.905L67.8931 349.867L67.7457 362.337L67.4824 374.818L67.2191 362.337L67.0716 349.867L66.9452 324.905L67.0927 299.954C67.1769 291.633 67.2823 283.312 67.5035 274.992Z" fill="#37474F"/>
<path d="M300.44 281.743C300.44 281.743 337.398 297.457 337.419 297.478C344.002 301.891 349.847 305.641 353.049 307.305C353.759 307.772 354.566 308.071 355.408 308.179H355.556C358.189 307.126 395.01 255.517 395.684 253.326C396.358 251.135 390.06 248.987 387.037 249.85C384.014 250.714 361.064 264.143 361.064 264.143L323.906 248.766L300.44 281.743Z" fill="#D3766A"/>
<path d="M395.663 253.347C394.989 255.58 358.167 307.136 355.534 308.2H355.461C354.618 308.092 353.811 307.793 353.101 307.326C349.942 305.672 344.054 301.912 337.471 297.499L331.046 294.761L354.155 261.31L361.106 264.196C361.106 264.196 383.993 250.746 387.016 249.872C390.039 248.997 396.358 251.114 395.663 253.347Z" fill="#EBEBEB"/>
<path d="M395.663 253.347C394.989 255.58 358.178 307.126 355.524 308.2C354.47 308.621 346.708 303.703 337.418 297.478L337.134 297.278L360.516 263.753L361.064 264.174C361.064 264.174 383.993 250.746 387.016 249.871C390.039 248.997 396.358 251.125 395.663 253.347Z" fill="#ED1944"/>
<path opacity="0.1" d="M337.135 297.277L337.419 297.477C346.709 303.702 354.503 308.621 355.556 308.199C356.609 307.778 360.749 302.343 366.299 294.929L371.271 258.297C365.825 261.404 361.096 264.174 361.096 264.174L360.548 263.753L337.135 297.277Z" fill="black"/>
<path d="M393.25 252.557C386.836 261.099 361.748 296.13 356.05 305.061C356.05 305.166 356.05 305.135 356.05 305.061C362.601 296.73 387.394 261.488 393.345 252.62C393.472 252.42 393.387 252.325 393.25 252.557Z" fill="#263238"/>
<path d="M363.16 261.447C360.085 264.417 357.62 268.967 358.189 273.327C358.189 273.496 358.452 273.454 358.494 273.327C359.775 269.296 361.48 265.412 363.582 261.742C363.596 261.687 363.593 261.63 363.574 261.577C363.555 261.525 363.52 261.479 363.474 261.447C363.428 261.415 363.373 261.398 363.317 261.397C363.261 261.397 363.206 261.415 363.16 261.447Z" fill="#263238"/>
<path d="M366.415 260.045C363.329 263.005 360.875 267.566 361.444 271.916C361.444 272.084 361.707 272.052 361.749 271.916C363.025 267.883 364.731 263.999 366.836 260.33C366.855 260.275 366.855 260.216 366.837 260.161C366.818 260.106 366.783 260.059 366.735 260.027C366.687 259.994 366.629 259.978 366.572 259.982C366.514 259.985 366.459 260.008 366.415 260.045Z" fill="#263238"/>
<path d="M369.659 258.635C366.584 261.605 364.119 266.155 364.688 270.515C364.688 270.684 364.951 270.642 364.994 270.515C366.274 266.484 367.979 262.6 370.081 258.93C370.095 258.875 370.092 258.818 370.073 258.765C370.054 258.713 370.019 258.667 369.973 258.635C369.927 258.603 369.872 258.586 369.816 258.585C369.76 258.585 369.705 258.603 369.659 258.635Z" fill="#263238"/>
<path d="M128.054 243.162C128.802 243.383 149.467 251.188 154.385 252.388C155.849 252.746 228.534 223.951 247.471 223.519C274.929 222.95 353.248 258.518 353.248 258.518L333.984 299.216C333.984 299.216 263.996 267.397 245.438 267.397C236.148 267.397 180.432 290.41 152.5 295.013C117.954 300.701 101.649 276.518 101.649 276.518C101.649 276.518 124.347 247.796 128.054 243.162Z" fill="#263238"/>
<path d="M343.328 256.244C340.348 262.373 341.117 260.572 338.21 266.776C336.788 269.799 327.445 289.621 326.624 292.665C326.624 292.738 326.708 292.781 326.75 292.728C328.52 290.105 337.514 270.125 338.873 267.081C341.664 260.867 340.801 262.616 343.518 256.37C343.535 256.345 343.541 256.314 343.535 256.284C343.529 256.255 343.512 256.229 343.486 256.212C343.461 256.195 343.43 256.189 343.401 256.195C343.371 256.201 343.345 256.218 343.328 256.244Z" fill="#37474F"/>
<path d="M323.484 286.767C305.843 279.394 288.106 272.358 270.022 266.144C265.493 264.617 260.953 263.111 256.33 261.931C254.005 261.271 251.631 260.799 249.231 260.52C248.005 260.44 246.773 260.514 245.565 260.741C244.375 260.941 243.185 261.162 242.016 261.436C237.34 262.489 232.737 263.796 228.145 265.112C223.553 266.429 218.982 267.84 214.453 269.251C196.221 274.939 178.105 281.006 159.779 286.324C155.224 287.708 150.592 288.827 145.908 289.674C141.221 290.306 136.428 289.358 131.91 288.031C127.349 286.633 122.908 284.872 118.629 282.764C114.325 280.702 110.14 278.399 106.095 275.866C110.097 278.474 114.243 280.855 118.513 282.996C122.776 285.176 127.207 287.011 131.763 288.484C136.323 289.874 141.147 290.885 145.992 290.285C150.718 289.49 155.392 288.414 159.989 287.062C169.216 284.534 178.316 281.648 187.437 278.794L214.769 270.21C219.319 268.788 223.879 267.387 228.461 265.997C233.042 264.607 237.624 263.332 242.258 262.279C244.521 261.667 246.855 261.359 249.199 261.363C251.546 261.63 253.867 262.088 256.14 262.732C260.732 263.922 265.282 265.375 269.832 266.86C278.901 269.852 287.864 273.127 296.816 276.466C305.769 279.805 314.606 283.259 323.484 286.767Z" fill="#37474F"/>
<path d="M294.858 308L335.028 309.053C342.77 310.749 349.584 312.097 353.176 312.466C354.008 312.643 354.869 312.625 355.693 312.413C355.693 312.413 355.693 312.413 355.756 312.413C357.863 310.454 373.187 248.997 373.008 246.67C372.829 244.342 366.183 244.7 363.687 246.606C361.191 248.513 344.729 269.42 344.729 269.42L304.516 268.725L294.858 308Z" fill="#D3766A"/>
<path d="M373.06 246.691C373.239 249.018 357.872 310.475 355.808 312.434C355.808 312.434 355.808 312.434 355.745 312.434C354.917 312.626 354.055 312.626 353.227 312.434H353.164C349.583 312.065 342.769 310.717 335.027 309.022L328.044 308.821L337.292 269.241L344.823 269.367C344.823 269.367 361.232 248.481 363.781 246.543C366.33 244.605 372.881 244.363 373.06 246.691Z" fill="#EBEBEB"/>
<path d="M373.06 246.69C373.249 249.018 357.872 310.475 355.808 312.434C355.028 313.192 345.949 311.475 335.027 309.085L334.69 309.011L344.169 269.251L344.843 269.44C344.843 269.44 361.242 248.555 363.802 246.627C366.361 244.7 372.881 244.363 373.06 246.69Z" fill="#ED1944"/>
<path d="M370.502 246.796C367.658 257.086 357.157 298.879 355.124 309.275C355.124 309.359 355.124 309.369 355.187 309.275C358.231 299.132 368.395 257.265 370.67 246.828C370.723 246.617 370.565 246.575 370.502 246.796Z" fill="#263238"/>
<path d="M345.782 266.133C344.002 270.02 343.38 275.17 345.508 279.004C345.592 279.152 345.803 279.004 345.792 278.899C345.506 274.68 345.676 270.442 346.298 266.26C346.298 266.199 346.277 266.14 346.239 266.092C346.201 266.044 346.148 266.01 346.089 265.995C346.03 265.981 345.967 265.986 345.912 266.011C345.856 266.036 345.81 266.079 345.782 266.133Z" fill="#263238"/>
<path d="M348.289 263.637C346.509 267.524 345.887 272.664 348.015 276.508C348.099 276.655 348.31 276.508 348.299 276.392C348.012 272.173 348.182 267.936 348.805 263.753C348.802 263.693 348.78 263.635 348.741 263.589C348.703 263.543 348.65 263.511 348.591 263.497C348.532 263.484 348.471 263.491 348.416 263.516C348.361 263.541 348.317 263.584 348.289 263.637Z" fill="#263238"/>
<path d="M350.805 261.141C349.025 265.028 348.403 270.168 350.52 274.012C350.605 274.159 350.815 274.012 350.805 273.896C350.518 269.677 350.687 265.44 351.31 261.257C351.313 261.195 351.295 261.134 351.257 261.085C351.22 261.036 351.166 261.001 351.106 260.987C351.046 260.973 350.982 260.981 350.927 261.009C350.872 261.038 350.829 261.084 350.805 261.141Z" fill="#263238"/>
<path d="M123.504 248.829C124.252 249.039 154.154 259.835 154.754 261.036C155.355 262.236 158.167 269.683 158.883 271.863C158.883 271.863 245.249 264.49 249.399 264.438C266.145 264.217 279.016 266.692 344.338 268.556L334.49 310.78C334.49 310.78 257.487 306.325 231.504 306.178C209.238 306.041 141.483 309.653 141.483 309.653C106.516 311.707 92.2442 288.367 92.2442 288.367C92.2442 288.367 123.473 248.818 123.504 248.829Z" fill="#263238"/>
<path d="M334.49 269.114C332.91 275.75 333.269 273.822 331.752 280.468C331.015 283.723 326.17 305.093 326.012 308.253C326.012 308.316 326.128 308.337 326.149 308.253C327.318 305.325 331.783 283.87 332.468 280.605C333.848 273.927 333.374 275.823 334.69 269.135C334.686 269.113 334.675 269.093 334.658 269.078C334.642 269.063 334.621 269.053 334.598 269.051C334.576 269.049 334.553 269.053 334.534 269.065C334.514 269.076 334.499 269.093 334.49 269.114Z" fill="#37474F"/>
<path d="M158.547 260.024C158.126 264.811 158.126 269.625 158.547 274.411C158.547 274.451 158.562 274.488 158.59 274.516C158.618 274.543 158.655 274.559 158.694 274.559C158.733 274.559 158.771 274.543 158.799 274.516C158.826 274.488 158.842 274.451 158.842 274.411C158.979 269.63 159.221 264.795 159.094 260.014C159.077 259.954 159.04 259.902 158.99 259.866C158.939 259.829 158.879 259.81 158.817 259.811C158.755 259.812 158.695 259.834 158.646 259.872C158.597 259.911 158.562 259.964 158.547 260.024Z" fill="#37474F"/>
<path d="M129.583 251.335C129.435 251.335 129.309 251.536 129.467 251.588C134.079 253.257 138.603 255.158 143.022 257.286C145.128 258.245 156.23 264.227 154.028 267.608C153.66 268.166 152.975 268.261 151.922 268.019C150.708 267.566 149.555 266.965 148.488 266.228C146.171 264.922 143.822 263.701 141.41 262.584C136.937 260.475 132.257 258.837 127.445 257.697C127.429 257.692 127.412 257.691 127.395 257.692C127.379 257.694 127.363 257.699 127.348 257.706C127.333 257.714 127.32 257.725 127.31 257.738C127.299 257.751 127.291 257.765 127.286 257.781C127.282 257.797 127.28 257.814 127.282 257.83C127.283 257.847 127.288 257.863 127.296 257.878C127.304 257.892 127.314 257.905 127.327 257.916C127.34 257.927 127.355 257.934 127.371 257.939C133.832 260.154 140.117 262.854 146.171 266.018C149.068 267.598 153.112 270.799 154.745 267.777C156.377 264.754 149.478 259.782 147.488 258.624C141.859 255.432 135.84 252.982 129.583 251.335Z" fill="#37474F"/>
<path d="M154.386 267.618C155.049 268.238 155.752 268.811 156.493 269.335C157.046 269.801 157.682 270.158 158.368 270.388C158.505 270.388 158.578 270.251 158.515 270.146C158.053 269.543 157.498 269.017 156.872 268.587C156.219 268.029 155.587 267.46 154.913 266.923C154.82 266.875 154.714 266.861 154.612 266.884C154.51 266.907 154.42 266.965 154.357 267.048C154.294 267.131 154.262 267.234 154.267 267.339C154.273 267.443 154.315 267.542 154.386 267.618Z" fill="#37474F"/>
<path d="M249.958 263.943C243.481 263.838 159.979 271.705 158.884 271.863C158.768 271.863 158.821 272.158 158.884 272.158C162.718 272.084 244.112 264.786 249.863 265.049C253.981 265.238 340.147 268.546 344.255 268.64C344.371 268.64 344.381 268.461 344.255 268.451C337.009 267.482 250.822 263.953 249.958 263.943Z" fill="#37474F"/>
<path d="M283.061 300.922C269.158 300.122 255.203 299.795 241.279 299.795C227.355 299.795 213.273 300.164 199.297 300.912C185.32 301.66 171.354 302.829 157.441 304.356C150.839 305.219 144.192 305.687 137.535 305.757C130.867 305.728 124.266 304.419 118.092 301.902C111.267 299.047 96.6583 288.368 95.2786 287.399C95.1838 287.335 95.0574 287.472 95.1522 287.536C105.8 295.382 118.618 310.781 150.542 305.925C157.378 304.872 164.298 304.524 171.186 303.935C178.25 303.324 185.327 302.811 192.419 302.397C206.469 301.565 220.52 301.028 234.549 300.901C248.578 300.775 262.681 301.017 276.731 301.617C290.782 302.218 304.895 303.25 318.966 304.25C320.799 304.377 322.632 304.566 324.454 304.756C324.559 304.756 324.591 304.609 324.454 304.598C310.762 303.113 296.954 301.723 283.061 300.922Z" fill="#37474F"/>
<path d="M92.9939 218.948C109.709 226.732 133.375 233.293 139.273 230.186C144.034 227.68 164.551 196.251 165.31 192.628C165.973 189.468 143.834 178.556 141.591 181.137C137.841 185.466 127.772 207.552 126.234 208.037C124.697 208.521 107.276 206.562 92.8254 206.309C79.544 206.078 81.3977 213.587 92.9939 218.948Z" fill="#D3766A"/>
<path d="M163.275 196.588C164.961 194.155 171.701 182.295 172.849 178.577C173.997 174.859 176.494 163.916 173.734 162.779C170.975 161.641 169.985 164.759 169.985 164.759C169.985 164.759 170.311 159.967 167.425 159.05C164.539 158.134 163.212 163.074 163.212 163.074C163.212 163.074 163.212 158.134 160.242 157.428C157.272 156.723 156.745 161.915 156.745 161.915C156.745 161.915 156.935 157.397 154.27 157.839C151.058 158.366 151.648 166.728 150.057 170.741C149.699 171.658 141.526 188.646 141.526 188.646L163.275 196.588Z" fill="#D3766A"/>
<path d="M156.757 161.451C157.178 167.613 156.304 170.372 153.418 175.723C153.355 175.828 153.502 175.934 153.565 175.828C156.872 170.857 158.473 167.539 157.062 161.42C156.988 161.114 156.746 161.157 156.757 161.451Z" fill="#263238"/>
<path d="M163.127 162.568C163.001 169.003 162.074 172.047 159.462 177.83C159.457 177.848 159.459 177.868 159.467 177.886C159.475 177.903 159.488 177.918 159.506 177.926C159.523 177.935 159.543 177.937 159.562 177.933C159.58 177.929 159.597 177.918 159.609 177.903C162.643 172.405 164.17 169.067 163.443 162.621C163.411 162.336 163.127 162.273 163.127 162.568Z" fill="#263238"/>
<path d="M169.848 165.022C169.279 171.246 168.405 174.585 165.14 179.915C165.129 179.94 165.127 179.967 165.135 179.993C165.143 180.019 165.159 180.042 165.182 180.057C165.204 180.072 165.231 180.078 165.258 180.076C165.285 180.073 165.31 180.06 165.329 180.041C169.184 174.943 170.311 170.773 170.037 165.064C170.016 164.674 169.879 164.632 169.848 165.022Z" fill="#263238"/>
<path d="M137.082 190.795C137.082 190.795 136.124 183.117 136.45 179.652C136.777 176.187 142.717 163.727 145.487 164.906C149.058 166.37 147.035 174.238 145.55 177.967C145.55 177.967 153.808 181.337 153.586 187.309C153.365 193.281 137.082 190.795 137.082 190.795Z" fill="#D3766A"/>
<path d="M146.339 165.58C148.624 169.267 146.339 174.006 145.18 177.756C145.16 177.81 145.153 177.869 145.16 177.926C145.167 177.984 145.188 178.039 145.221 178.087C145.255 178.134 145.299 178.173 145.351 178.2C145.402 178.227 145.459 178.241 145.517 178.24C148.877 179.883 153.153 183.18 153.764 187.098C153.771 187.117 153.783 187.133 153.799 187.144C153.815 187.156 153.834 187.162 153.854 187.162C153.874 187.162 153.893 187.156 153.909 187.144C153.925 187.133 153.937 187.117 153.943 187.098C153.859 182.811 149.931 179.22 146.118 177.619C147.392 173.817 149.457 168.94 146.371 165.528C146.35 165.538 146.318 165.559 146.339 165.58Z" fill="#263238"/>
<path d="M134.502 191.353L163.287 204.877C163.287 204.877 145.645 229.302 138.862 231.208C132.08 233.114 115.912 229.681 91.9931 219.096C75.7837 211.923 82.872 205.404 93.5729 206.025C101.325 206.446 124.823 207.931 125.802 206.762C126.782 205.593 134.502 191.353 134.502 191.353Z" fill="#ED1944"/>
<path d="M97.217 218.759C97.4522 218.73 97.6785 218.651 97.8805 218.527C98.0583 218.415 98.2046 218.259 98.3059 218.075C98.4072 217.891 98.4602 217.684 98.4598 217.474C98.47 217.146 98.5749 216.829 98.7618 216.56C98.9488 216.29 99.2097 216.081 99.513 215.957C99.8058 215.875 100.116 215.875 100.408 215.957C100.685 215.997 100.96 216.053 101.23 216.126C100.956 216.189 100.693 216.221 100.408 216.273C100.167 216.292 99.9336 216.364 99.7237 216.484C99.5453 216.597 99.3973 216.752 99.2927 216.936C99.188 217.119 99.1299 217.326 99.1233 217.537C99.1185 217.869 99.016 218.191 98.8286 218.465C98.6413 218.738 98.3774 218.951 98.0701 219.075C97.7875 219.194 97.4761 219.227 97.1748 219.17C96.901 219.106 96.6377 219.075 96.3744 219.001C96.6798 218.854 96.9431 218.854 97.217 218.759ZM125.718 225.563C125.953 225.536 126.18 225.457 126.381 225.331C126.559 225.219 126.705 225.063 126.807 224.879C126.908 224.695 126.961 224.488 126.961 224.278C126.971 223.95 127.076 223.633 127.263 223.364C127.45 223.094 127.71 222.885 128.014 222.761C128.302 222.661 128.611 222.643 128.909 222.709C129.186 222.748 129.46 222.805 129.731 222.877C129.457 222.94 129.193 222.972 128.909 223.024C128.668 223.043 128.434 223.115 128.224 223.235C128.046 223.348 127.898 223.504 127.793 223.687C127.689 223.871 127.631 224.077 127.624 224.288C127.619 224.62 127.517 224.943 127.329 225.216C127.142 225.49 126.878 225.702 126.571 225.826C126.288 225.946 125.977 225.979 125.676 225.921C125.402 225.858 125.138 225.826 124.875 225.752C125.152 225.671 125.433 225.608 125.718 225.563ZM141.516 199.695C141.752 199.666 141.978 199.587 142.18 199.463C142.356 199.35 142.5 199.194 142.599 199.01C142.699 198.826 142.75 198.619 142.749 198.41C142.759 198.083 142.864 197.765 143.051 197.496C143.238 197.227 143.499 197.018 143.802 196.894C144.091 196.799 144.399 196.781 144.697 196.841C144.974 196.881 145.248 196.937 145.519 197.009C145.245 197.073 144.982 197.104 144.697 197.157C144.461 197.182 144.232 197.254 144.023 197.367C143.841 197.478 143.69 197.632 143.584 197.816C143.477 198 143.418 198.208 143.412 198.421C143.409 198.753 143.307 199.076 143.119 199.35C142.932 199.623 142.667 199.835 142.359 199.958C142.076 200.077 141.765 200.11 141.464 200.053C141.179 199.99 140.916 199.958 140.653 199.885C141.011 199.779 141.274 199.748 141.558 199.695H141.516ZM113.311 211.871C113.311 211.586 113.395 211.323 113.458 211.06C113.531 211.326 113.588 211.597 113.626 211.871C113.643 212.109 113.716 212.339 113.837 212.545C113.944 212.73 114.097 212.885 114.282 212.994C114.467 213.103 114.676 213.162 114.89 213.166C115.222 213.171 115.545 213.273 115.818 213.461C116.092 213.648 116.304 213.912 116.428 214.219C116.547 214.506 116.58 214.82 116.523 215.125C116.46 215.388 116.428 215.652 116.354 215.936C116.283 215.67 116.231 215.399 116.196 215.125C116.178 214.884 116.098 214.652 115.965 214.451C115.851 214.275 115.695 214.129 115.511 214.028C115.327 213.927 115.121 213.873 114.911 213.872C114.67 213.872 114.431 213.817 114.213 213.712C113.995 213.607 113.804 213.454 113.653 213.265C113.502 213.075 113.396 212.855 113.342 212.619C113.288 212.383 113.288 212.138 113.342 211.902L113.311 211.871ZM155.988 204.256C156.041 203.971 156.083 203.708 156.146 203.445C156.22 203.708 156.251 203.971 156.314 204.256C156.333 204.493 156.405 204.724 156.525 204.93C156.631 205.116 156.784 205.27 156.969 205.377C157.154 205.484 157.364 205.541 157.578 205.541C157.91 205.544 158.233 205.646 158.507 205.834C158.781 206.021 158.993 206.286 159.116 206.594C159.235 206.88 159.268 207.195 159.211 207.5C159.148 207.763 159.116 208.026 159.053 208.3C158.983 208.036 158.926 207.769 158.884 207.5C158.866 207.259 158.786 207.027 158.653 206.826C158.539 206.648 158.384 206.501 158.2 206.398C158.016 206.295 157.81 206.239 157.599 206.236C157.27 206.231 156.951 206.128 156.68 205.941C156.41 205.753 156.202 205.489 156.083 205.183C155.961 204.89 155.921 204.569 155.967 204.256H155.988ZM144.002 216.895C144.055 216.61 144.086 216.347 144.149 216.084C144.223 216.35 144.279 216.621 144.318 216.895C144.337 217.132 144.409 217.363 144.529 217.569C144.636 217.753 144.79 217.906 144.975 218.013C145.159 218.12 145.368 218.178 145.582 218.18C145.914 218.183 146.237 218.285 146.511 218.473C146.785 218.66 146.996 218.925 147.12 219.233C147.239 219.519 147.272 219.834 147.214 220.139C147.151 220.402 147.12 220.665 147.046 220.939C146.974 220.676 146.921 220.409 146.888 220.139C146.869 219.898 146.789 219.666 146.656 219.465C146.542 219.288 146.386 219.142 146.202 219.039C146.019 218.937 145.813 218.88 145.603 218.875C145.274 218.871 144.953 218.769 144.683 218.581C144.412 218.394 144.204 218.129 144.086 217.821C143.966 217.539 143.93 217.229 143.981 216.926L144.002 216.895ZM82.5558 210.006C82.7853 209.952 82.9918 209.827 83.1456 209.648C83.3868 209.422 83.6896 209.272 84.0157 209.218C84.3418 209.164 84.6768 209.207 84.9783 209.343C85.2587 209.469 85.4965 209.674 85.6629 209.933C85.8103 210.164 85.9894 210.386 86.1263 210.628C85.8735 210.48 85.6629 210.312 85.4312 210.164C85.2559 210.003 85.0417 209.891 84.8098 209.838C84.6011 209.78 84.3811 209.777 84.1709 209.829C83.9606 209.88 83.7672 209.985 83.609 210.133C83.4612 210.29 83.2834 210.415 83.0862 210.502C82.8891 210.589 82.6764 210.635 82.461 210.638C82.4656 210.436 82.4903 210.235 82.5347 210.038L82.5558 210.006ZM135.85 230.018C136.023 230.18 136.238 230.29 136.471 230.334C136.682 230.383 136.902 230.376 137.109 230.313C137.316 230.25 137.503 230.134 137.651 229.976C137.89 229.747 138.193 229.594 138.519 229.538C138.845 229.482 139.181 229.524 139.484 229.66C139.76 229.789 139.993 229.993 140.158 230.25L140.326 230.492L140.116 230.608L139.926 230.481C139.747 230.32 139.529 230.208 139.294 230.155C139.089 230.098 138.872 230.095 138.665 230.147C138.459 230.198 138.269 230.303 138.114 230.45C137.887 230.687 137.594 230.85 137.272 230.917C136.951 230.985 136.617 230.954 136.313 230.829C136.026 230.706 135.778 230.505 135.597 230.25C135.45 230.018 135.292 229.807 135.155 229.555L135.85 230.018ZM130.678 210.091C130.857 210.251 131.075 210.36 131.31 210.407C131.52 210.455 131.738 210.447 131.943 210.384C132.148 210.321 132.333 210.206 132.48 210.049C132.721 209.823 133.023 209.673 133.349 209.617C133.674 209.561 134.009 209.601 134.312 209.733C134.593 209.859 134.83 210.064 134.997 210.322C135.144 210.554 135.323 210.775 135.46 211.018C135.207 210.87 134.997 210.702 134.765 210.554C134.585 210.395 134.368 210.282 134.133 210.228C133.926 210.171 133.708 210.168 133.5 210.22C133.291 210.271 133.099 210.376 132.943 210.522C132.717 210.761 132.423 210.925 132.101 210.992C131.78 211.06 131.445 211.028 131.142 210.902C130.857 210.778 130.613 210.577 130.436 210.322C130.289 210.091 130.12 209.88 129.983 209.627C130.162 209.817 130.426 209.975 130.657 210.122L130.678 210.091Z" fill="white"/>
<path d="M132.794 197.567C136.902 199.832 141.126 201.907 145.37 203.887C147.477 204.866 149.583 205.835 151.69 206.731C153.796 207.626 156.166 208.468 158.367 209.416C158.388 209.426 158.412 209.427 158.434 209.419C158.456 209.411 158.473 209.395 158.483 209.374C158.493 209.353 158.494 209.329 158.486 209.308C158.478 209.286 158.462 209.268 158.441 209.258C156.282 208.258 154.228 207.078 152.048 206.025C149.867 204.972 147.887 204.045 145.812 203.065C141.6 201.075 137.292 199.095 132.973 197.251C132.932 197.228 132.882 197.222 132.836 197.234C132.789 197.247 132.75 197.278 132.726 197.32C132.702 197.362 132.696 197.411 132.709 197.458C132.722 197.504 132.753 197.544 132.794 197.567Z" fill="#263238"/>
<path opacity="0.1" d="M83.5451 213.482C84.9143 215.199 87.5895 217.095 91.971 219.043C115.901 229.628 132.057 233.009 138.84 231.156C141.073 230.545 144.486 227.49 148.035 223.667L83.5451 213.482Z" fill="black"/>
<path d="M140.694 246.238C140.536 248.186 97.0058 296.93 96.5108 296.793C95.1942 296.499 66.6619 246.533 72.0861 216.052C73.0445 210.68 80.5121 206.246 85.2832 207.068C95.9315 208.89 125.306 236.021 127.339 237.496C131.141 240.192 140.694 245.722 140.694 246.238Z" fill="#ED1944"/>
<path d="M97.2165 218.758C97.4518 218.729 97.6781 218.65 97.8801 218.526C98.0578 218.414 98.2042 218.259 98.3055 218.075C98.4068 217.89 98.4598 217.683 98.4594 217.473C98.4696 217.146 98.5745 216.828 98.7614 216.559C98.9483 216.29 99.2093 216.081 99.5126 215.957C99.8053 215.874 100.115 215.874 100.408 215.957C100.685 215.997 100.959 216.053 101.229 216.125C100.956 216.188 100.692 216.22 100.408 216.273C100.167 216.292 99.9332 216.363 99.7233 216.483C99.5449 216.596 99.3969 216.752 99.2923 216.935C99.1876 217.119 99.1295 217.325 99.1229 217.536C99.1181 217.868 99.0156 218.191 98.8282 218.464C98.6409 218.738 98.377 218.95 98.0697 219.074C97.7871 219.193 97.4756 219.226 97.1744 219.169C96.9006 219.106 96.6373 219.074 96.374 219C96.6794 218.853 96.9427 218.853 97.2165 218.758ZM127.761 249.302C127.996 249.273 128.222 249.194 128.424 249.071C128.599 248.956 128.743 248.8 128.842 248.616C128.942 248.432 128.993 248.226 128.993 248.017C129.004 247.689 129.109 247.37 129.295 247.099C129.482 246.828 129.743 246.617 130.046 246.49C130.339 246.412 130.648 246.412 130.941 246.49C131.222 246.526 131.501 246.582 131.773 246.659C131.489 246.722 131.226 246.753 130.941 246.806C130.704 246.827 130.474 246.898 130.267 247.017C130.085 247.127 129.933 247.281 129.827 247.465C129.72 247.649 129.661 247.857 129.656 248.07C129.652 248.401 129.549 248.724 129.362 248.998C129.174 249.271 128.911 249.483 128.603 249.608C128.32 249.726 128.009 249.759 127.708 249.702C127.424 249.639 127.16 249.608 126.897 249.534C127.173 249.465 127.455 249.419 127.74 249.397L127.761 249.302ZM83.1768 269.419C83.4694 269.336 83.7795 269.336 84.0721 269.419C84.3354 269.419 84.6092 269.503 84.8831 269.567C84.6168 269.639 84.3458 269.691 84.0721 269.725C83.8343 269.75 83.6046 269.825 83.398 269.946C83.1942 270.063 83.0266 270.235 82.9135 270.441C82.8293 270.23 82.7345 270.02 82.6502 269.798C82.7915 269.652 82.9644 269.541 83.1557 269.472L83.1768 269.419ZM96.6373 294.402C96.8783 294.385 97.1106 294.305 97.3113 294.17C97.4898 294.059 97.6367 293.904 97.7381 293.719C97.8395 293.535 97.892 293.328 97.8906 293.117C97.8961 292.787 97.999 292.466 98.1864 292.194C98.3738 291.923 98.6373 291.712 98.9438 291.59C99.2336 291.512 99.5388 291.512 99.8286 291.59C100.092 291.59 100.376 291.674 100.64 291.737C100.374 291.81 100.102 291.863 99.8286 291.895C99.5915 291.924 99.3624 291.999 99.1545 292.117C98.9696 292.224 98.8154 292.378 98.7066 292.562C98.5978 292.747 98.5381 292.956 98.5331 293.17C98.5339 293.503 98.4337 293.828 98.2456 294.102C98.0575 294.377 97.7905 294.588 97.4798 294.708C97.1944 294.829 96.8798 294.866 96.574 294.813L95.7631 294.644C96.0896 294.539 96.3529 294.507 96.6162 294.455L96.6373 294.402ZM98.5331 264.248C98.772 264.22 99.002 264.141 99.2071 264.016C99.3823 263.901 99.5266 263.745 99.6276 263.561C99.7285 263.378 99.7831 263.172 99.7865 262.963C99.789 262.721 99.8452 262.483 99.9508 262.266C100.056 262.049 100.209 261.858 100.397 261.707C100.586 261.556 100.805 261.448 101.04 261.392C101.275 261.336 101.52 261.333 101.756 261.383C102.03 261.446 102.293 261.478 102.567 261.551C102.293 261.625 102.03 261.657 101.756 261.709C101.512 261.722 101.276 261.798 101.071 261.931C100.885 262.037 100.728 262.19 100.618 262.375C100.507 262.559 100.446 262.769 100.439 262.984C100.446 263.311 100.354 263.632 100.176 263.907C99.9972 264.181 99.7405 264.395 99.4389 264.522C99.1528 264.642 98.8365 264.672 98.5331 264.606C98.2698 264.553 98.0065 264.522 97.7221 264.437C97.9854 264.385 98.2487 264.353 98.512 264.3L98.5331 264.248ZM87.7268 241.75C87.9594 241.732 88.1838 241.656 88.3798 241.529C88.559 241.419 88.7064 241.263 88.8079 241.079C88.9094 240.894 88.9615 240.687 88.9591 240.476C88.9667 240.148 89.0706 239.829 89.2578 239.559C89.4451 239.29 89.7075 239.081 90.0124 238.959C90.297 238.846 90.6099 238.824 90.9076 238.896L91.7291 239.054C91.4589 239.127 91.1845 239.183 90.9076 239.223C90.6708 239.238 90.4405 239.307 90.2335 239.423C90.0513 239.533 89.8997 239.687 89.7929 239.871C89.6861 240.055 89.6276 240.263 89.6227 240.476C89.6179 240.81 89.5156 241.136 89.3286 241.413C89.1415 241.689 88.8776 241.906 88.5694 242.035C88.2847 242.147 87.9733 242.172 87.6742 242.109C87.3933 242.076 87.1152 242.024 86.8421 241.951C87.1581 241.898 87.4214 241.866 87.7058 241.803L87.7268 241.75ZM116.754 239.918C116.988 239.896 117.214 239.824 117.418 239.707C117.593 239.593 117.738 239.437 117.839 239.253C117.94 239.069 117.995 238.864 117.997 238.654C118.003 238.325 118.107 238.006 118.294 237.736C118.481 237.466 118.745 237.258 119.05 237.137C119.335 237.024 119.648 237.002 119.946 237.074L120.778 237.232C120.504 237.303 120.226 237.36 119.946 237.401C119.709 237.418 119.479 237.486 119.271 237.601C119.089 237.711 118.938 237.865 118.831 238.049C118.724 238.233 118.665 238.441 118.661 238.654C118.66 238.989 118.559 239.316 118.372 239.594C118.184 239.872 117.918 240.087 117.607 240.213C117.323 240.325 117.011 240.35 116.712 240.286C116.435 240.255 116.16 240.202 115.891 240.129C116.207 239.971 116.47 239.918 116.754 239.918ZM103.673 245.184C103.703 244.91 103.756 244.639 103.831 244.373C103.894 244.636 103.936 244.9 103.999 245.184C104.012 245.421 104.08 245.653 104.2 245.858C104.306 246.044 104.459 246.198 104.644 246.306C104.829 246.413 105.039 246.469 105.253 246.469C105.585 246.476 105.908 246.579 106.183 246.766C106.458 246.953 106.673 247.216 106.801 247.522C106.911 247.807 106.94 248.117 106.885 248.418C106.885 248.702 106.801 248.965 106.727 249.25C106.651 248.977 106.595 248.699 106.559 248.418C106.54 248.18 106.46 247.952 106.327 247.754C106.214 247.578 106.058 247.434 105.873 247.334C105.689 247.235 105.483 247.184 105.274 247.185C104.946 247.175 104.629 247.07 104.36 246.883C104.09 246.696 103.881 246.435 103.757 246.132C103.63 245.833 103.601 245.501 103.673 245.184ZM112.099 271.852C112.129 271.578 112.182 271.307 112.257 271.041C112.32 271.304 112.362 271.568 112.425 271.852C112.438 272.09 112.506 272.321 112.625 272.526C112.731 272.712 112.885 272.866 113.07 272.974C113.255 273.081 113.465 273.137 113.679 273.137C114.011 273.144 114.334 273.247 114.609 273.434C114.884 273.621 115.099 273.884 115.227 274.19C115.337 274.475 115.366 274.785 115.311 275.086C115.274 275.366 115.221 275.643 115.153 275.918C115.082 275.644 115.026 275.366 114.985 275.086C114.966 274.848 114.886 274.62 114.753 274.422C114.64 274.246 114.484 274.101 114.3 274.001C114.116 273.902 113.909 273.851 113.7 273.853C113.371 273.843 113.052 273.737 112.782 273.551C112.511 273.364 112.3 273.103 112.173 272.8C112.057 272.493 112.043 272.158 112.13 271.842L112.099 271.852ZM79.4483 225.088C79.5221 224.825 79.5537 224.562 79.6169 224.277C79.7011 224.562 79.7327 224.825 79.7854 225.088C79.801 225.333 79.8731 225.571 79.996 225.783C80.1023 225.97 80.2554 226.125 80.4401 226.234C80.6248 226.343 80.8348 226.402 81.0492 226.405C81.3821 226.404 81.7073 226.504 81.9819 226.692C82.2565 226.88 82.4675 227.147 82.587 227.458C82.7176 227.734 82.7475 228.047 82.6713 228.343C82.6186 228.627 82.587 228.89 82.5238 229.154C82.4501 228.89 82.4079 228.627 82.3553 228.343C82.331 228.106 82.2517 227.879 82.1236 227.679C82.0116 227.502 81.8558 227.357 81.6714 227.257C81.4869 227.157 81.2799 227.107 81.0703 227.11C80.7418 227.104 80.4224 227.001 80.1525 226.813C79.8826 226.626 79.6742 226.363 79.5537 226.057C79.4507 225.741 79.429 225.404 79.4905 225.078L79.4483 225.088ZM81.281 209.742C81.4644 209.895 81.6807 210.003 81.9129 210.058C82.123 210.107 82.342 210.098 82.5475 210.033C82.753 209.968 82.9375 209.85 83.082 209.69C83.3232 209.464 83.626 209.314 83.9521 209.26C84.2782 209.205 84.6132 209.249 84.9147 209.384C85.1951 209.511 85.4329 209.715 85.5993 209.974C85.7467 210.206 85.9258 210.427 86.0627 210.669C85.8099 210.522 85.5993 210.353 85.3676 210.206C85.1923 210.045 84.9781 209.932 84.7461 209.879C84.5375 209.822 84.3175 209.818 84.1073 209.87C83.897 209.922 83.7036 210.026 83.5454 210.174C83.3207 210.412 83.029 210.575 82.7092 210.643C82.3894 210.71 82.0566 210.679 81.7549 210.553C81.4655 210.433 81.2169 210.232 81.0387 209.974C80.8913 209.742 80.7227 209.532 80.5858 209.279C80.8807 209.374 81.0914 209.584 81.3231 209.732L81.281 209.742ZM100.029 231.439C100.202 231.598 100.418 231.704 100.65 231.745C100.861 231.796 101.081 231.79 101.289 231.727C101.496 231.664 101.683 231.546 101.83 231.387C102.071 231.16 102.373 231.009 102.699 230.953C103.024 230.897 103.36 230.938 103.662 231.071C103.941 231.2 104.175 231.409 104.336 231.671C104.503 231.894 104.658 232.126 104.8 232.366C104.558 232.208 104.336 232.04 104.105 231.903C103.93 231.733 103.711 231.616 103.473 231.566C103.267 231.508 103.049 231.506 102.842 231.559C102.635 231.613 102.445 231.72 102.293 231.871C102.064 232.105 101.77 232.265 101.449 232.331C101.128 232.397 100.795 232.365 100.492 232.24C100.203 232.124 99.9543 231.926 99.7759 231.671C99.6285 231.439 99.4705 231.218 99.3336 230.976C99.6179 231.113 99.8391 231.271 100.071 231.429L100.029 231.439ZM94.3517 277.15C94.5248 277.312 94.7403 277.422 94.9731 277.466C95.1839 277.515 95.4039 277.508 95.611 277.445C95.818 277.382 96.0049 277.266 96.1528 277.108C96.3921 276.879 96.6943 276.726 97.0208 276.67C97.3473 276.614 97.6832 276.656 97.9854 276.792C98.2613 276.921 98.495 277.125 98.6595 277.382C98.8069 277.613 98.9965 277.835 99.1229 278.077C98.8807 277.929 98.6595 277.761 98.4278 277.613C98.2487 277.452 98.031 277.34 97.7958 277.287C97.5905 277.23 97.3739 277.227 97.1671 277.279C96.9603 277.33 96.7705 277.435 96.6162 277.582C96.3889 277.819 96.0955 277.982 95.7742 278.049C95.4529 278.117 95.1187 278.086 94.8151 277.961C94.5275 277.838 94.2797 277.637 94.0989 277.382C93.9515 277.15 93.7935 276.939 93.6566 276.687L94.3517 277.15ZM116.049 258.076C116.293 258.308 116.617 258.437 116.954 258.437C117.291 258.437 117.616 258.308 117.86 258.076C118.097 257.846 118.396 257.692 118.721 257.634C119.046 257.575 119.381 257.616 119.682 257.749C119.954 257.889 120.186 258.096 120.356 258.35C120.526 258.571 120.681 258.803 120.82 259.045C120.577 258.908 120.356 258.739 120.125 258.581C119.948 258.42 119.735 258.304 119.503 258.244C119.296 258.194 119.079 258.197 118.873 258.252C118.667 258.307 118.478 258.413 118.324 258.56C118.092 258.795 117.797 258.955 117.475 259.023C117.153 259.09 116.818 259.061 116.512 258.939C116.23 258.821 115.989 258.624 115.817 258.371C115.669 258.139 115.48 257.918 115.353 257.676C115.617 257.76 115.838 257.928 116.07 258.076H116.049ZM82.9135 255.811C83.0996 255.966 83.3198 256.074 83.556 256.127C83.7653 256.169 83.9817 256.159 84.1858 256.096C84.39 256.034 84.5753 255.921 84.7251 255.769C84.9617 255.532 85.2655 255.374 85.5952 255.315C85.9249 255.257 86.2646 255.301 86.5682 255.443C86.8385 255.585 87.0699 255.791 87.2423 256.043C87.3898 256.264 87.5478 256.475 87.7058 256.717C87.462 256.58 87.2264 256.429 87.0001 256.264C86.8134 256.118 86.6033 256.004 86.3787 255.927C86.1697 255.875 85.951 255.877 85.7429 255.932C85.5348 255.987 85.344 256.094 85.1885 256.243C84.9589 256.476 84.6655 256.637 84.3452 256.704C84.0248 256.772 83.6917 256.743 83.3874 256.622C83.1004 256.498 82.8528 256.298 82.6713 256.043C82.5343 255.811 82.3658 255.601 82.2394 255.348C82.4922 255.485 82.6923 255.643 82.9346 255.811H82.9135Z" fill="white"/>
<path d="M68.0207 219.096C60.3952 234.421 47.1981 265.765 52.7803 273.864C58.3625 281.964 87.1055 285.64 96.9322 286.767C100.166 287.135 110.308 263.595 107.043 262.395C101.493 260.341 75.5514 257.276 74.6351 255.591C74.0452 254.537 77.7948 234.294 77.7105 222.529C77.5631 207.268 70.4116 214.335 68.0207 219.096Z" fill="#D3766A"/>
<path d="M104.21 261.615C104.21 261.615 114.385 262.395 121.01 263.216C124.706 263.68 130.984 265.028 133.543 266.608C137.377 268.967 151.901 281.353 148.994 284.881C146.351 288.136 135.218 275.95 135.218 275.95C135.218 275.95 147.541 287.251 143.644 290.569C139.747 293.887 129.004 278.467 129.004 278.467C129.004 278.467 141.4 290.358 136.84 293.149C133.396 295.256 122.874 281.837 122.874 281.837C122.874 281.837 133.459 292.128 130.015 294.476C126.202 297.046 115.712 285.261 115.712 285.261C105.948 289.695 99.4918 287.809 95.0471 285.924C93.9728 285.44 104.21 261.615 104.21 261.615Z" fill="#D3766A"/>
<path d="M131.215 271.779C132.71 273.053 134.238 274.328 135.617 275.728C136.997 277.129 138.324 278.583 139.557 280.11C141.196 282.076 142.61 284.221 143.77 286.503C141.233 282.773 138.352 279.289 135.165 276.097C133.785 274.696 132.489 273.222 131.11 271.821C131.12 271.789 131.215 271.747 131.215 271.779Z" fill="#263238"/>
<path d="M126.054 276.655C127.887 278.362 129.782 279.994 131.541 281.785C133.3 283.575 134.806 285.418 136.439 287.314C136.565 287.462 136.439 287.483 136.312 287.314C134.606 285.481 132.889 283.923 131.173 282.111C129.456 280.299 127.792 278.414 126.012 276.676L126.054 276.655Z" fill="#263238"/>
<path d="M120.872 280.047C123.76 282.597 126.372 285.442 128.666 288.536C128.793 288.683 128.666 288.694 128.498 288.536C125.96 285.671 123.99 283.396 120.788 280.11C120.683 280.1 120.809 279.994 120.872 280.047Z" fill="#263238"/>
<path d="M105.095 261.068L86.1364 287.704C86.1364 287.704 56.0663 282.754 51.2108 272.895C46.3554 263.037 58.8995 233.715 66.0721 221.455C73.2446 209.195 78.2792 209.164 78.1949 222.719C78.1106 234.852 74.8456 254.558 75.3511 255.19C75.8567 255.822 105.095 261.068 105.095 261.068Z" fill="#ED1944"/>
<path d="M65.2094 223.067H65.3569C65.5931 223.042 65.8204 222.963 66.0204 222.835C66.1982 222.723 66.3445 222.567 66.4459 222.383C66.5472 222.199 66.6001 221.992 66.5997 221.782C66.6086 221.454 66.713 221.136 66.9001 220.866C67.0872 220.597 67.3488 220.388 67.6529 220.265C67.9417 220.17 68.2503 220.152 68.5482 220.212C68.8248 220.254 69.099 220.311 69.3697 220.381C69.0853 220.444 68.822 220.476 68.5482 220.528C68.3092 220.557 68.0774 220.628 67.8636 220.739C67.682 220.85 67.5309 221.004 67.4242 221.188C67.3175 221.372 67.2586 221.58 67.2527 221.792C67.2507 222.124 67.1493 222.448 66.9616 222.722C66.7739 222.996 66.5084 223.208 66.1995 223.33C65.9167 223.448 65.6055 223.481 65.3042 223.425L65.0198 223.372C65.1251 223.182 65.1673 223.067 65.2094 223.067ZM80.829 272.369C81.0703 272.353 81.303 272.273 81.5031 272.137C81.6815 272.026 81.8285 271.87 81.9299 271.686C82.0313 271.502 82.0838 271.294 82.0824 271.084C82.0879 270.754 82.1908 270.433 82.3782 270.161C82.5656 269.889 82.8291 269.679 83.1356 269.557C83.4282 269.473 83.7383 269.473 84.0309 269.557C84.2942 269.557 84.568 269.641 84.8419 269.704C84.5756 269.776 84.3046 269.829 84.0309 269.862C83.7931 269.888 83.5634 269.963 83.3568 270.083C83.1692 270.189 83.0124 270.342 82.9016 270.526C82.7908 270.711 82.7299 270.921 82.7248 271.137C82.7257 271.469 82.6254 271.795 82.4374 272.069C82.2493 272.344 81.9822 272.555 81.6716 272.674C81.3863 272.797 81.0716 272.833 80.7658 272.78L79.9548 272.611C80.3024 272.401 80.5657 272.369 80.829 272.316V272.369ZM98.513 264.354C98.7518 264.326 98.9819 264.247 99.187 264.122C99.3621 264.007 99.5065 263.851 99.6074 263.667C99.7084 263.484 99.763 263.278 99.7663 263.069C99.7689 262.827 99.825 262.589 99.9307 262.372C100.036 262.155 100.189 261.964 100.377 261.813C100.566 261.662 100.785 261.554 101.02 261.498C101.255 261.442 101.5 261.439 101.736 261.489C102.01 261.552 102.273 261.584 102.547 261.657C102.273 261.731 102.01 261.763 101.736 261.815C101.492 261.828 101.256 261.904 101.051 262.037C100.864 262.143 100.708 262.296 100.597 262.48C100.487 262.665 100.425 262.875 100.419 263.09C100.426 263.417 100.334 263.738 100.155 264.013C99.9771 264.287 99.7204 264.501 99.4187 264.628C99.1327 264.748 98.8164 264.778 98.513 264.712C98.2497 264.659 97.9863 264.628 97.702 264.543C97.9863 264.385 98.2497 264.354 98.513 264.301V264.354ZM50.3798 263.574C50.5229 263.46 50.6367 263.314 50.7118 263.147C50.7869 262.981 50.8211 262.798 50.8116 262.616C50.8198 262.286 50.9238 261.967 51.1108 261.695C51.2979 261.424 51.5599 261.213 51.8648 261.089C52.1506 260.98 52.4619 260.958 52.7601 261.025C53.0445 261.089 53.3078 261.12 53.5816 261.194C53.3123 261.268 53.0376 261.321 52.7601 261.352C52.5233 261.368 52.2929 261.436 52.086 261.552C51.9037 261.662 51.7522 261.816 51.6454 262C51.5386 262.184 51.48 262.393 51.4751 262.605C51.4696 262.938 51.367 263.262 51.1799 263.537C50.9927 263.812 50.7293 264.026 50.4219 264.154L50.2639 264.217C50.3271 263.964 50.3482 263.743 50.3798 263.522V263.574ZM66.3469 255.928C66.5847 255.911 66.8137 255.831 67.0105 255.696C67.1877 255.584 67.3331 255.428 67.4327 255.244C67.5323 255.059 67.5827 254.852 67.5792 254.643C67.5854 254.314 67.6888 253.995 67.8762 253.725C68.0636 253.455 68.3268 253.247 68.6324 253.126C68.9322 253.043 69.249 253.043 69.5488 253.126C69.8121 253.126 70.0754 253.21 70.3492 253.274C70.0856 253.344 69.8184 253.4 69.5488 253.442C69.3043 253.46 69.0667 253.532 68.8536 253.653C68.67 253.761 68.5174 253.915 68.4104 254.099C68.3034 254.284 68.2457 254.493 68.2427 254.706C68.2393 255.038 68.1374 255.361 67.9498 255.635C67.7623 255.909 67.4977 256.121 67.1895 256.244C66.9052 256.37 66.5894 256.406 66.2837 256.349C65.9994 256.275 65.736 256.244 65.4727 256.181C65.7565 256.058 66.0486 255.956 66.3469 255.875V255.928ZM67.4002 238.17C67.5865 238.328 67.8009 238.449 68.0321 238.528C68.2412 238.577 68.4592 238.574 68.6668 238.519C68.8744 238.464 69.0652 238.359 69.2223 238.212C69.4519 237.979 69.7452 237.818 70.0656 237.751C70.386 237.684 70.7191 237.712 71.0233 237.833C71.3143 237.941 71.5621 238.14 71.729 238.402C71.887 238.644 72.0555 238.855 72.1924 239.107L71.4973 238.644C71.3188 238.49 71.1056 238.381 70.8759 238.328C70.6634 238.283 70.443 238.293 70.235 238.355C70.0271 238.418 69.8381 238.532 69.6857 238.686C69.4464 238.915 69.1441 239.068 68.8176 239.124C68.4912 239.18 68.1553 239.138 67.8531 239.002C67.5753 238.867 67.3388 238.66 67.1684 238.402C67.0315 238.17 66.863 237.97 66.7261 237.717C66.9683 237.812 67.1579 237.981 67.3896 238.117L67.4002 238.17ZM55.1299 245.416C55.4196 245.448 55.6953 245.557 55.9273 245.734C56.1593 245.91 56.3388 246.146 56.4464 246.417C56.5722 246.698 56.6017 247.013 56.5307 247.312C56.478 247.586 56.4464 247.849 56.3833 248.113C56.311 247.85 56.2547 247.582 56.2147 247.312C56.1876 247.077 56.1084 246.85 55.983 246.649C55.8731 246.469 55.718 246.321 55.5333 246.219C55.3486 246.118 55.1406 246.066 54.9298 246.069C54.9614 245.796 55.0351 245.585 55.1193 245.364L55.1299 245.416ZM54.9508 275.086C55.014 274.823 55.0456 274.56 55.1193 274.275C55.1903 274.542 55.2431 274.813 55.2773 275.086C55.2962 275.332 55.3719 275.57 55.4985 275.781C55.6061 275.966 55.7598 276.119 55.9444 276.226C56.129 276.333 56.3383 276.39 56.5517 276.392C56.8849 276.39 57.2108 276.49 57.4857 276.678C57.7606 276.866 57.9713 277.134 58.0895 277.446C58.2152 277.723 58.2448 278.034 58.1737 278.33C58.1737 278.583 58.1 278.815 58.0474 279.046V279.131V279.015C57.9896 278.786 57.9439 278.554 57.9104 278.32C57.8816 278.084 57.8026 277.858 57.6787 277.656C57.5665 277.478 57.411 277.332 57.2268 277.231C57.0426 277.129 56.8357 277.076 56.6255 277.077C56.2958 277.07 55.9754 276.967 55.7039 276.779C55.4324 276.592 55.2219 276.329 55.0983 276.024C54.9611 275.713 54.9067 275.372 54.9403 275.034L54.9508 275.086ZM93.9208 276.887L93.8471 276.982C93.7918 276.905 93.7425 276.824 93.6996 276.74L93.9208 276.887ZM65.2305 267.756C65.4115 267.906 65.6238 268.014 65.8519 268.072C66.0644 268.113 66.2838 268.102 66.4911 268.039C66.6984 267.977 66.8875 267.865 67.0421 267.714C67.2797 267.485 67.5801 267.333 67.9048 267.277C68.2295 267.221 68.5635 267.263 68.8642 267.398C69.1417 267.524 69.3761 267.729 69.5382 267.987C69.6962 268.219 69.8648 268.44 70.0017 268.683C69.7594 268.535 69.5382 268.377 69.3065 268.219C69.1251 268.059 68.9087 267.943 68.6746 267.882C68.4699 267.828 68.2548 267.828 68.05 267.882C67.8453 267.935 67.6577 268.04 67.5055 268.188C67.2742 268.422 66.979 268.583 66.6568 268.65C66.3346 268.718 65.9997 268.689 65.6939 268.567C65.409 268.448 65.1666 268.246 64.9988 267.987C64.8287 267.766 64.6738 267.534 64.5353 267.292L65.2305 267.756ZM72.4557 282.596C72.6342 282.75 72.8474 282.859 73.0771 282.912C73.2896 282.958 73.5103 282.949 73.7184 282.886C73.9265 282.824 74.1154 282.709 74.2673 282.554C74.5064 282.328 74.8068 282.178 75.1308 282.121C75.4548 282.065 75.7882 282.106 76.0894 282.238C76.367 282.364 76.6013 282.569 76.7635 282.828C76.9312 283.05 77.0859 283.282 77.2269 283.523C76.9847 283.375 76.7635 283.217 76.5318 283.059C76.3504 282.899 76.1339 282.784 75.8998 282.722C75.6951 282.669 75.48 282.668 75.2753 282.722C75.0705 282.775 74.883 282.881 74.7307 283.028C74.4995 283.262 74.2043 283.423 73.8821 283.49C73.5599 283.558 73.2249 283.529 72.9191 283.407C72.6362 283.285 72.3947 283.084 72.224 282.828C72.0539 282.607 71.8991 282.374 71.7606 282.132C71.9818 282.238 72.2345 282.406 72.4347 282.543L72.4557 282.596Z" fill="white"/>
<path d="M97.3212 261.089C94.3405 264.712 91.5284 268.462 88.8005 272.296C87.4629 274.17 86.1147 276.045 84.8508 277.962C83.5869 279.879 82.323 282.049 80.9959 284.039C80.9327 284.124 81.0697 284.229 81.1329 284.134C82.5126 282.196 84.0503 280.353 85.4827 278.447C86.9151 276.54 88.1896 274.718 89.5272 272.854C92.2656 269.031 94.9935 265.207 97.595 261.268C97.6075 261.233 97.6077 261.194 97.5955 261.158C97.5834 261.123 97.5597 261.092 97.5282 261.071C97.4967 261.051 97.4592 261.041 97.4216 261.045C97.3841 261.048 97.3488 261.063 97.3212 261.089Z" fill="#263238"/>
<path d="M105 261.615C104.927 261.678 104.611 261.752 104.737 261.615C104.864 261.478 105.137 261.109 105.095 261.099L75.1831 255.717C75.1305 255.717 75.9731 246.996 76.1521 245.353C76.5313 241.989 76.9772 238.633 77.4897 235.284C77.4897 235.21 77.6267 235.21 77.6267 235.284C77.6267 237.306 77.4897 239.339 77.3528 241.35C77.5951 240.455 77.8689 239.571 78.1954 238.707C78.1954 238.633 78.3429 238.707 78.3218 238.707C77.9848 240.424 77.574 242.14 77.1527 243.847C77.1527 244.3 77.1001 244.742 77.0474 245.195C76.8789 246.88 76.6893 248.565 76.4786 250.24C76.3733 251.061 76.2469 253.937 76.1521 254.79C79.8174 255.274 103.705 259.982 105.854 260.656C105.938 260.751 105.074 261.562 105 261.615Z" fill="#263238"/>
<path d="M87.3367 216.094C84.4192 218.106 76.9728 215.346 73.2443 212.208C72.9915 211.997 69.8739 200.622 69.0313 198.442C68.8523 197.999 84.0611 196.43 84.0611 196.43C84.3404 199.468 84.9913 202.461 85.9991 205.341C86.1255 205.667 90.1383 214.146 87.3367 216.094Z" fill="#D3766A"/>
<path d="M84.0609 196.43C84.0609 196.504 84.0609 196.799 84.1451 197.273C84.2504 198.084 84.4189 199.379 84.7244 200.843C85.0175 202.373 85.444 203.874 85.9988 205.33C85.9988 205.435 86.0936 205.541 86.1252 205.635C86.2095 205.815 86.3148 206.046 86.4307 206.331C86.0099 206.558 85.5734 206.755 85.1246 206.92C77.5834 209.659 71.4957 201.465 69.4313 198.221L69.6841 198.168C70.0632 198.084 70.5899 197.999 71.2113 197.894L71.6853 197.831C72.6858 197.683 73.876 197.536 75.1294 197.368L76.3722 197.22L79.0158 196.915L80.0691 196.799L81.1223 196.683C81.2908 196.683 81.4593 196.683 81.6173 196.62H81.8491L83.1129 196.493L83.7133 196.43C83.7974 196.423 83.882 196.423 83.9661 196.43H84.0187H84.0609Z" fill="#263238"/>
<path d="M61.5952 182.517C61.5952 187.972 68.7572 201.538 73.3072 203.645C79.9005 206.678 88.4634 204.498 90.4856 197.083C92.4552 189.9 82.8496 172.384 77.9731 170.699C70.8005 168.235 61.5425 174.449 61.5952 182.517Z" fill="#D3766A"/>
<path d="M78.4579 186.382C78.4579 186.382 78.4052 186.466 78.4579 186.498C78.9108 187.446 79.29 188.604 78.5632 189.31V189.363C79.5533 188.731 79.0477 187.256 78.4579 186.382Z" fill="#263238"/>
<path d="M77.1512 185.771C75.5608 186.35 76.8352 189.489 78.3097 188.931C79.7843 188.372 78.4888 185.286 77.1512 185.771Z" fill="#263238"/>
<path d="M83.5134 183.77C83.5134 183.77 83.6082 183.77 83.6187 183.822C83.9768 184.812 84.5456 185.876 85.5567 185.855C85.5567 185.855 85.6093 185.908 85.5567 185.918C84.4402 186.203 83.6924 184.76 83.5134 183.77Z" fill="#263238"/>
<path d="M83.9772 182.401C85.5044 181.663 86.8736 184.76 85.4623 185.445C84.051 186.129 82.7028 183.043 83.9772 182.401Z" fill="#263238"/>
<path d="M80.6596 194.513C80.9673 194.727 81.3395 194.827 81.7129 194.797C82.0745 194.658 82.4041 194.446 82.6819 194.176C82.6819 194.176 82.7556 194.176 82.7451 194.176C82.6734 194.419 82.5379 194.638 82.3526 194.81C82.1673 194.982 81.9391 195.102 81.6918 195.156C81.4771 195.168 81.2635 195.117 81.0766 195.011C80.8898 194.904 80.7377 194.746 80.6386 194.555C80.5333 194.534 80.607 194.492 80.6596 194.513Z" fill="#263238"/>
<path d="M83.8933 188.709C83.8933 188.709 84.6938 190.068 84.9465 190.753C83.6128 191.316 82.3648 192.064 81.2391 192.975C80.9863 193.207 80.881 192.975 81.1338 192.606C81.8823 191.593 82.9166 190.826 84.1039 190.405C84.1039 190.194 82.8295 188.299 82.9348 188.299C83.4838 188.123 84.0544 188.023 84.6306 188.004C83.0296 185.118 80.9864 182.516 79.4486 179.578C79.4399 179.557 79.4382 179.533 79.4439 179.511C79.4496 179.489 79.4623 179.469 79.4801 179.455C79.4979 179.441 79.5199 179.433 79.5427 179.432C79.5655 179.431 79.5879 179.438 79.6066 179.451C81.9024 182.193 83.9139 185.161 85.6101 188.309C85.8313 188.636 84.2198 188.709 83.8933 188.709Z" fill="#263238"/>
<path d="M83.4395 191.469C83.2554 192.339 82.7888 193.124 82.1124 193.702C80.9959 194.366 80.4272 193.355 81.4804 192.217C82.0541 191.796 82.731 191.537 83.4395 191.469Z" fill="#263238"/>
<path d="M82.1122 193.691C82.5208 193.415 82.8422 193.027 83.0391 192.575C82.6494 192.312 81.9121 192.133 80.9326 193.344C80.922 193.881 81.4065 194.113 82.1122 193.691Z" fill="#FF99BA"/>
<path d="M73.9717 183.906C74.3043 183.577 74.656 183.268 75.0249 182.98C75.3373 182.606 75.7622 182.344 76.2361 182.232C76.3911 182.229 76.5426 182.278 76.668 182.369C76.7933 182.46 76.8857 182.589 76.9313 182.737C76.9759 183.046 76.9369 183.362 76.8184 183.651C76.6998 183.94 76.5061 184.192 76.2572 184.38C75.8093 184.837 75.21 185.114 74.572 185.16C74.4227 185.17 74.2737 185.135 74.1444 185.06C74.015 184.984 73.9113 184.872 73.8467 184.737C73.782 184.602 73.7593 184.45 73.7816 184.302C73.8039 184.154 73.8701 184.016 73.9717 183.906Z" fill="#263238"/>
<path d="M84.0298 178.904C83.5663 178.904 83.124 178.904 82.6605 178.904C82.1809 178.84 81.6934 178.933 81.2702 179.167C81.1484 179.266 81.0642 179.404 81.0316 179.557C80.999 179.71 81.0201 179.87 81.0912 180.01C81.2647 180.269 81.5052 180.477 81.7871 180.61C82.0689 180.744 82.3817 180.798 82.6921 180.768C83.329 180.808 83.9585 180.613 84.4616 180.221C84.5703 180.122 84.6481 179.995 84.6856 179.853C84.7232 179.711 84.7189 179.562 84.6732 179.422C84.6275 179.283 84.5424 179.16 84.4282 179.068C84.314 178.976 84.1756 178.919 84.0298 178.904Z" fill="#263238"/>
<path d="M65.1871 194.702C65.1871 194.702 57.8143 187.33 57.0771 182.137C56.7506 179.809 59.468 177.524 59.468 177.524C59.0031 176.655 58.7912 175.674 58.8563 174.691C58.9215 173.707 59.2611 172.762 59.8366 171.963C61.9431 168.803 68.5575 167.75 68.5575 167.75C68.5575 167.75 71.2959 160.63 77.8576 161.588C84.4193 162.547 82.1653 170.267 82.1653 170.267C82.1653 170.267 85.1144 172.847 80.3538 176.586C75.5931 180.325 64.5551 180.483 64.5551 180.483C65.906 184.036 66.7189 187.771 66.967 191.564C66.986 192.2 66.8301 192.829 66.5162 193.382C66.2024 193.935 65.7426 194.392 65.1871 194.702Z" fill="#263238"/>
<path d="M69.6116 167.602C68.146 167.38 66.6501 167.466 65.2196 167.855C63.9306 168.144 62.7012 168.653 61.5859 169.361C60.567 169.938 59.724 170.78 59.147 171.799C58.5701 172.817 58.2808 173.973 58.3103 175.144C58.3626 175.744 58.5339 176.328 58.8142 176.861C59.0945 177.395 59.4781 177.867 59.9428 178.251C59.9428 178.251 60.0271 178.251 59.9955 178.177C58.1945 176.808 58.2787 173.964 59.353 172.195C60.7282 170.253 62.7662 168.882 65.0827 168.34C66.5588 167.956 68.0761 167.755 69.6011 167.739C69.6153 167.735 69.6279 167.727 69.6371 167.715C69.6464 167.703 69.652 167.689 69.6531 167.675C69.6542 167.66 69.6509 167.645 69.6435 167.632C69.6361 167.619 69.625 167.609 69.6116 167.602Z" fill="#263238"/>
<path d="M82.7655 163.463C82.3002 162.735 81.6607 162.134 80.905 161.715C80.1492 161.296 79.3009 161.071 78.4367 161.062C76.4462 160.946 74.474 161.498 72.8334 162.631C71.1879 163.782 69.8819 165.353 69.0523 167.181C69.0523 167.181 69.0523 167.255 69.1155 167.181C69.8779 165.564 71.0634 164.182 72.5467 163.183C74.0299 162.183 75.7557 161.603 77.5414 161.504C78.3631 161.43 79.191 161.543 79.9627 161.835C80.7343 162.127 81.4298 162.59 81.9966 163.19C82.4736 163.818 82.8058 164.545 82.9697 165.317C83.1336 166.089 83.125 166.887 82.9446 167.655C82.4437 169.491 81.4363 171.148 80.0376 172.437C80.0376 172.437 80.0376 172.511 80.0903 172.437C81.4375 171.311 82.4775 169.861 83.1131 168.224C83.3933 167.451 83.5073 166.627 83.4474 165.807C83.3875 164.986 83.1551 164.188 82.7655 163.463Z" fill="#263238"/>
<path d="M81.7137 176.566C79.5687 178.12 77.1159 179.197 74.5201 179.725C71.8373 180.297 69.1004 180.576 66.3575 180.557C64.7565 180.557 63.1977 180.505 61.5652 180.42C61.5652 180.42 61.5125 180.494 61.5652 180.494C64.4347 180.978 67.3472 181.158 70.2544 181.031C72.9524 180.888 75.5963 180.218 78.0379 179.062C79.3744 178.414 80.6236 177.6 81.7559 176.639C81.7559 176.639 81.7137 176.544 81.7137 176.566Z" fill="#263238"/>
<path d="M68.4627 193.228C68.4627 193.228 63.681 189.689 61.9642 191.543C60.2474 193.396 64.9344 199.284 67.7044 199.379C68.059 199.414 68.4169 199.376 68.7569 199.27C69.0968 199.163 69.4118 198.989 69.6831 198.758C69.9543 198.527 70.1763 198.244 70.3358 197.925C70.4953 197.607 70.589 197.259 70.6113 196.904L68.4627 193.228Z" fill="#D3766A"/>
<path d="M88.7381 208.848C90.339 211.576 93.8569 218.001 89.2331 219.833C87.2903 220.402 85.2251 220.402 83.2823 219.833C81.3317 219.399 79.4324 218.76 77.6158 217.927C75.5488 217.039 73.5585 215.982 71.665 214.767C71.6567 214.761 71.6472 214.756 71.637 214.754C71.6268 214.752 71.6162 214.751 71.606 214.753C71.5957 214.755 71.586 214.76 71.5775 214.766C71.569 214.772 71.5619 214.78 71.5566 214.789C71.5513 214.798 71.548 214.808 71.547 214.818C71.5459 214.828 71.547 214.839 71.5503 214.849C71.5535 214.859 71.5589 214.868 71.566 214.876C71.5731 214.883 71.5817 214.889 71.5913 214.894C73.5082 216.084 75.2882 217.432 77.3209 218.443C79.2724 219.438 81.3481 220.168 83.4929 220.613C85.5459 221.158 87.7157 221.07 89.7176 220.36C90.5585 219.984 91.2433 219.328 91.656 218.505C92.0687 217.681 92.1839 216.74 91.9821 215.841C91.4346 213.298 90.3263 210.909 88.7381 208.848Z" fill="#263238"/>
<path d="M86.5365 206.457L86.5997 215.936L72.3282 209.785L70.8116 214.24C70.8116 214.24 87.3369 226.521 87.0947 225.763L87.5792 217.4L94.3516 220.265L88.9695 208.216L86.5365 206.457Z" fill="#EBEBEB"/>
<path d="M92.0657 214.156C91.1178 212.197 90.212 210.196 89.1693 208.289C89.1693 208.215 89.0008 208.226 89.0218 208.289C89.4115 210.396 93.0979 217.874 93.8457 219.727C93.5613 219.59 87.6316 217.273 87.6105 217.347C87.3367 218.758 86.968 224.846 86.9891 225.383C84.3665 223.435 74.5503 216.452 71.7065 214.756C71.69 214.751 71.6725 214.752 71.6561 214.757C71.6398 214.762 71.6255 214.773 71.6152 214.786C71.6049 214.8 71.599 214.817 71.5984 214.834C71.5977 214.851 71.6024 214.868 71.6117 214.883C74.1079 217.052 87.1892 226.468 87.2945 226.416C87.6106 223.488 87.7724 220.545 87.779 217.6C88.8323 218.19 95.0464 221.023 94.9411 220.76C94.099 218.509 93.1393 216.305 92.0657 214.156Z" fill="#263238"/>
<path d="M137.144 152.815C137.143 156.583 136.095 160.277 134.118 163.484C132.14 166.692 129.31 169.287 125.944 170.98C122.578 172.673 118.807 173.397 115.053 173.072C111.299 172.748 107.709 171.386 104.683 169.14L94.7195 171.689L98.8693 162.41C97.28 159.462 96.451 156.164 96.4574 152.815C96.3957 150.105 96.8763 147.409 97.8709 144.887C98.8656 142.365 100.354 140.067 102.249 138.128C104.144 136.189 106.408 134.649 108.907 133.597C111.406 132.545 114.09 132.003 116.801 132.003C119.512 132.003 122.196 132.545 124.695 133.597C127.194 134.649 129.457 136.189 131.352 138.128C133.247 140.067 134.736 142.365 135.731 144.887C136.725 147.409 137.206 150.105 137.144 152.815Z" fill="white"/>
<path d="M137.144 152.815C137.116 156.577 136.048 160.259 134.058 163.453C133.568 164.246 133.026 165.006 132.436 165.728C131.83 166.435 131.179 167.104 130.488 167.729C129.12 169.006 127.569 170.071 125.885 170.888C124.221 171.715 122.448 172.3 120.619 172.626C118.79 172.939 116.928 173.021 115.079 172.869C111.386 172.506 107.867 171.124 104.915 168.877L104.778 168.771H104.599L94.6142 171.225L95.1514 171.868L99.3644 162.61L99.4592 162.378L99.3433 162.157C97.9407 159.492 97.1423 156.55 97.0051 153.542C96.8903 150.525 97.4592 147.523 98.6692 144.757C99.9041 141.999 101.718 139.538 103.988 137.543C106.291 135.55 109.018 134.109 111.961 133.33C114.917 132.557 118.01 132.459 121.008 133.045C125.566 133.962 129.666 136.427 132.613 140.023C135.56 143.619 137.172 148.124 137.176 152.773L137.144 152.815ZM137.144 152.815C137.151 149.715 136.455 146.654 135.106 143.862C133.758 141.071 131.793 138.622 129.361 136.7C126.907 134.743 124.039 133.374 120.975 132.696C117.911 132.019 114.733 132.051 111.683 132.791C108.634 133.531 105.794 134.959 103.381 136.966C100.969 138.972 99.0469 141.504 97.7634 144.368C96.4591 147.256 95.8377 150.406 95.9473 153.573C96.0569 156.74 96.8945 159.84 98.3954 162.631V162.178L94.2877 171.478L93.898 172.363L94.8249 172.121L104.768 169.488L104.452 169.424C107.534 171.671 111.181 173.017 114.984 173.311C115.93 173.39 116.881 173.39 117.828 173.311C118.773 173.26 119.712 173.14 120.64 172.953C124.348 172.18 127.774 170.41 130.551 167.834C131.239 167.195 131.887 166.512 132.489 165.791C133.076 165.061 133.614 164.294 134.1 163.495C136.079 160.283 137.132 156.587 137.144 152.815Z" fill="#263238"/>
<path d="M124.726 153.657C124.726 154.012 124.831 154.358 125.027 154.652C125.224 154.947 125.504 155.176 125.831 155.312C126.158 155.447 126.518 155.483 126.865 155.414C127.213 155.344 127.532 155.174 127.782 154.924C128.033 154.673 128.203 154.354 128.272 154.007C128.341 153.659 128.306 153.299 128.17 152.972C128.035 152.645 127.805 152.365 127.511 152.169C127.216 151.972 126.87 151.867 126.516 151.867C126.041 151.867 125.586 152.056 125.25 152.391C124.914 152.727 124.726 153.183 124.726 153.657Z" fill="#263238"/>
<path d="M115.332 153.657C115.332 154.012 115.437 154.358 115.634 154.652C115.831 154.947 116.11 155.176 116.437 155.312C116.765 155.447 117.125 155.483 117.472 155.414C117.819 155.344 118.138 155.174 118.389 154.924C118.639 154.673 118.81 154.354 118.879 154.007C118.948 153.659 118.912 153.299 118.777 152.972C118.641 152.645 118.412 152.365 118.117 152.169C117.823 151.972 117.477 151.867 117.123 151.867C116.648 151.867 116.192 152.056 115.856 152.391C115.521 152.727 115.332 153.183 115.332 153.657Z" fill="#263238"/>
<path d="M105.937 153.657C105.937 154.012 106.042 154.358 106.238 154.652C106.435 154.947 106.715 155.176 107.042 155.312C107.369 155.447 107.729 155.483 108.076 155.414C108.424 155.344 108.743 155.174 108.993 154.924C109.244 154.673 109.414 154.354 109.483 154.007C109.552 153.659 109.517 153.299 109.381 152.972C109.246 152.645 109.016 152.365 108.722 152.169C108.427 151.972 108.081 151.867 107.727 151.867C107.252 151.867 106.797 152.056 106.461 152.391C106.125 152.727 105.937 153.183 105.937 153.657Z" fill="#263238"/>
</svg>
