<svg width="500" height="473" viewBox="0 0 500 473" fill="none" xmlns="http://www.w3.org/2000/svg">
<g clip-path="url(#clip0_201_786)">
<path d="M36 242.55C36 242.55 22.8 245.62 33 274.21C43.2 302.8 50.87 317.3 50.87 317.3C50.87 317.3 52.48 323.84 47.12 324.12C41.76 324.4 30.46 321.06 27.29 327.12C24 333.45 28.01 340.35 37.08 347.12C46.15 353.89 65.48 369.54 67.22 371C68.96 372.46 70.42 375.53 66.79 376.31C63.16 377.09 36.88 376.4 37.3 388.9C37.72 401.4 66.1 416.13 69.17 417.8C72.24 419.47 72.83 420.94 72.34 422.68C71.85 424.42 63.02 423.36 55.54 423.47C48.06 423.58 39.39 425.03 40.24 432.22C41.09 439.41 56.82 456.33 99.12 466.13L119.02 469.39L132.09 453.93C158.09 419.14 159.16 396.05 155.16 390.02C151.16 383.99 143.62 388.47 137.84 393.22C132.06 397.97 126 404.42 124.5 403.41C123 402.4 122.5 400.89 123.77 397.63C125.04 394.37 137.18 364.81 129.44 354.99C121.7 345.17 102.06 362.67 98.79 364.42C95.52 366.17 94.63 362.8 95.04 360.64C95.45 358.48 100.15 334.05 102.7 323.02C105.25 311.99 103.86 304.13 97.26 301.42C90.9 298.8 84.43 308.65 80.15 311.9C75.87 315.15 72.89 309.11 72.89 309.11C72.89 309.11 69.43 293 58.74 264.64C48.05 236.28 35.74 242.64 35.74 242.64" fill="#EBEBEB"/>
<path d="M119.44 474.18C111.67 453.29 98.4398 415.94 86.9998 383.92C75.5598 351.9 65.0998 323 57.4398 302C53.5998 291.56 50.4898 283.11 48.3398 277.23C47.2698 274.33 46.4398 272.06 45.8698 270.5L45.2398 268.74C45.0998 268.34 45.0498 268.13 45.0498 268.13C45.0498 268.13 45.1398 268.33 45.2998 268.72C45.4598 269.11 45.6898 269.72 45.9898 270.45C46.5798 272.01 47.4498 274.26 48.5598 277.15C50.7998 282.97 53.9698 291.41 57.8498 301.85C65.6198 322.74 76.1098 351.68 87.5898 383.68C99.0698 415.68 112.19 453.07 119.85 473.99" fill="#E0E0E0"/>
<path d="M42.8999 332.48C43.3657 332.622 43.8149 332.813 44.2399 333.05C45.0899 333.45 46.2999 334.05 47.7799 334.84C50.7799 336.39 54.7799 338.64 59.2199 341.2L70.5099 347.79L73.9399 349.79C74.3835 349.999 74.8 350.261 75.1799 350.57C74.7095 350.437 74.2564 350.249 73.8299 350.01C72.9799 349.6 71.7699 349.01 70.2899 348.2C67.2899 346.62 63.2899 344.32 58.8999 341.76L47.5699 335.25L44.1299 333.25C43.6919 333.041 43.2792 332.783 42.8999 332.48Z" fill="#E0E0E0"/>
<path d="M76.7099 349.45C76.5599 349.37 80.8199 340.82 86.2399 330.36C91.6599 319.9 96.1699 311.48 96.3199 311.56C96.4699 311.64 92.2099 320.19 86.7899 330.65C81.3699 341.11 76.8599 349.53 76.7099 349.45Z" fill="#E0E0E0"/>
<path d="M92.1299 399.4C92.4121 398.981 92.7484 398.601 93.1299 398.27L95.9199 395.34C98.2699 392.86 101.51 389.43 104.92 385.51C108.33 381.59 111.35 377.95 113.5 375.29L116.04 372.14C116.326 371.73 116.662 371.357 117.04 371.03C116.816 371.476 116.548 371.898 116.24 372.29C115.7 373.07 114.89 374.2 113.85 375.56C111.85 378.29 108.85 382 105.41 385.92C101.97 389.84 98.6699 393.25 96.2399 395.65C95.0099 396.84 94.0099 397.8 93.2999 398.44C92.9461 398.802 92.5537 399.124 92.1299 399.4Z" fill="#E0E0E0"/>
<path d="M58.1699 390.78C58.6295 390.794 59.086 390.861 59.5299 390.98L63.1899 391.76C66.2699 392.44 70.5199 393.42 75.1899 394.55C79.8599 395.68 84.1099 396.73 87.1899 397.55L90.8099 398.55C91.2596 398.643 91.6962 398.791 92.1099 398.99C91.6503 398.977 91.1939 398.91 90.7499 398.79L87.0799 398C83.9999 397.32 79.7499 396.33 75.0799 395.21C70.4099 394.09 66.1599 393.03 63.0799 392.21L59.4699 391.21C59.0223 391.115 58.5863 390.97 58.1699 390.78Z" fill="#E0E0E0"/>
<path d="M66.1699 436.6C66.7572 436.64 67.3396 436.734 67.9099 436.88L72.6099 437.88C76.6099 438.74 82.0199 439.96 88.0399 441.34C94.0599 442.72 99.4999 444 103.43 445L108.08 446.17C108.657 446.289 109.223 446.459 109.77 446.68C109.183 446.64 108.601 446.55 108.03 446.41L103.33 445.41C99.3299 444.56 93.9199 443.34 87.8999 441.95C81.8799 440.56 76.4399 439.28 72.5099 438.32L67.8599 437.14C67.282 437.009 66.7166 436.828 66.1699 436.6Z" fill="#E0E0E0"/>
<path d="M108.79 446.1C109.148 445.58 109.549 445.092 109.99 444.64L113.39 440.8C116.26 437.55 120.21 433.05 124.39 427.96C128.57 422.87 132.32 418.17 134.97 414.75L138.12 410.7C138.482 410.181 138.891 409.696 139.34 409.25C139.052 409.807 138.717 410.339 138.34 410.84C137.65 411.84 136.63 413.27 135.34 415.02C132.77 418.51 129.11 423.27 124.88 428.36C120.65 433.45 116.65 437.92 113.69 441.09C112.21 442.68 110.99 443.95 110.14 444.8C109.725 445.269 109.274 445.703 108.79 446.1Z" fill="#E0E0E0"/>
<path d="M356.75 469.39C329.53 453.21 321.19 420.07 320 389.82C319.8 384.77 318.85 379.5 320.93 374.9C323.01 370.3 328.37 366.9 333.03 368.67C336.9 370.16 338.85 374.39 341.21 377.83C344.357 382.426 348.739 386.038 353.85 388.25C357.18 389.68 361.23 390.4 364.26 388.42C368.43 385.71 368.5 379.67 368.1 374.66C367.36 365.327 366.617 355.994 365.87 346.66C365.47 341.66 365.08 336.54 366.29 331.66C367.5 326.78 370.62 322.12 375.29 320.43C379.96 318.74 386.06 321.06 387.42 325.89C387.99 327.89 387.73 330.05 388.02 332.12C388.31 334.19 389.45 336.42 391.47 336.85C393.49 337.28 395.47 335.73 396.81 334.15C401.543 328.587 405.153 322.158 407.44 315.22C409.96 307.91 412.44 300.55 417.22 295.76C422.37 290.64 427.68 285.05 434.82 284.12C441.96 283.19 449.94 287.05 452.27 293.96C454.6 300.87 451.01 308.36 446.95 314.41C440.922 323.378 433.63 331.428 425.3 338.31C423.8 339.55 422.18 340.89 421.71 342.79C420.87 346.21 424.27 349.29 427.65 350.15C431.48 351.15 435.5 350.43 439.44 350.6C443.38 350.77 447.74 352.19 449.49 355.77C451.92 360.77 448.03 366.42 444.07 370.25C436.149 377.913 426.968 384.154 416.93 388.7C413.34 390.32 409.55 391.79 406.77 394.59C403.99 397.39 402.52 402.04 404.58 405.43C406.64 408.82 411.32 409.62 415.13 408.62C418.94 407.62 422.24 405.27 425.82 403.62C432.51 400.51 441.44 400.33 446.28 405.96C449.47 409.66 450.13 415.08 449 419.85C447.87 424.62 445.2 428.85 442.32 432.79C432.23 446.55 418.87 458.01 403.32 464.72C387.77 471.43 373.07 474.02 356.77 469.38" fill="#EBEBEB"/>
<path d="M363.15 449.9C366.47 434.35 371.53 417.6 377.42 400.26L381.82 387.44C383.28 383.24 384.72 379.07 386.39 375.08C389.597 367.42 393.229 359.945 397.27 352.69C401.07 345.74 404.94 339.28 408.59 333.27C412.24 327.26 415.79 321.73 419.22 316.82C424.591 309.046 430.574 301.713 437.11 294.89C439.42 292.47 441.27 290.66 442.54 289.45L444 288.07C444.158 287.906 444.332 287.758 444.52 287.63C444.381 287.813 444.228 287.983 444.06 288.14C443.72 288.5 443.26 288.98 442.67 289.58C441.45 290.84 439.67 292.69 437.37 295.14C430.958 302.044 425.072 309.418 419.76 317.2C416.37 322.12 412.88 327.66 409.25 333.68C405.62 339.7 401.79 346.17 398.01 353.11C394.009 360.348 390.407 367.799 387.22 375.43C385.57 379.43 384.15 383.54 382.69 387.75C381.23 391.96 379.78 396.24 378.29 400.57C372.4 417.89 367.29 434.57 363.98 450.09" fill="#E0E0E0"/>
<path d="M386.65 375C386.357 374.326 386.139 373.622 386 372.9C385.64 371.54 385.18 369.55 384.64 367.08C383.57 362.14 382.31 355.27 380.96 347.7C379.61 340.13 378.26 333.29 377.12 328.38C376.55 325.92 376.07 323.94 375.72 322.58C375.496 321.878 375.348 321.154 375.28 320.42C375.619 321.075 375.884 321.766 376.07 322.48C376.52 323.81 377.07 325.78 377.75 328.22C379.06 333.1 380.52 339.94 381.87 347.53C383.22 355.12 384.37 361.78 385.28 366.95C385.71 369.28 386.07 371.25 386.35 372.82C386.526 373.534 386.627 374.265 386.65 375Z" fill="#E0E0E0"/>
<path d="M450.18 358.25C449.346 358.492 448.493 358.66 447.63 358.75C445.99 359.02 443.63 359.39 440.69 359.95C434.83 361.02 426.8 362.78 418.02 365.11C409.24 367.44 401.4 369.92 395.77 371.87C392.95 372.82 390.69 373.66 389.12 374.22C388.323 374.563 387.496 374.831 386.65 375.02C387.394 374.57 388.177 374.189 388.99 373.88C390.52 373.21 392.75 372.28 395.55 371.25C401.14 369.14 408.99 366.56 417.79 364.25C425.297 362.221 432.904 360.582 440.58 359.34C443.52 358.86 445.92 358.58 447.58 358.43C448.439 358.292 449.31 358.232 450.18 358.25Z" fill="#E0E0E0"/>
<path d="M363.85 448.66C363.85 448.66 363.65 448.42 363.35 447.91L362.08 445.66C360.98 443.66 359.47 440.83 357.65 437.25C354 430.1 349.27 420.06 344.2 408.92C339.13 397.78 334.49 387.7 331 380.49L326.83 372L325.71 369.67C325.556 369.409 325.444 369.126 325.38 368.83C325.576 369.059 325.744 369.311 325.88 369.58L327.15 371.83C328.24 373.83 329.76 376.66 331.58 380.24C335.23 387.39 339.96 397.43 345.03 408.58C350.1 419.73 354.74 429.79 358.23 437.01L362.4 445.54L363.52 447.87C363.661 448.119 363.772 448.385 363.85 448.66Z" fill="#E0E0E0"/>
<path d="M447.42 414.78C447.164 414.958 446.885 415.099 446.59 415.2L444.17 416.2L435.22 419.85C427.67 422.93 417.28 427.3 405.81 432.14C394.34 436.98 383.91 441.27 376.29 444.2C372.48 445.66 369.38 446.81 367.23 447.56L364.74 448.42C364.455 448.537 364.156 448.614 363.85 448.65C364.108 448.479 364.387 448.342 364.68 448.24L367.1 447.24L376.05 443.6C383.6 440.52 393.99 436.15 405.46 431.3C416.93 426.45 427.36 422.17 434.98 419.25C438.79 417.79 441.89 416.64 444.04 415.88L446.53 415.03C446.816 414.911 447.114 414.827 447.42 414.78Z" fill="#E0E0E0"/>
<path d="M310.1 40.9202C309.897 38.1617 308.85 35.5327 307.1 33.3902C305.457 31.2261 303.177 29.6314 300.58 28.8302C298.362 28.206 296 28.3301 293.86 29.1833C291.72 30.0365 289.92 31.5713 288.74 33.5502C287.743 31.5644 286.139 29.9475 284.161 28.9335C282.184 27.9196 279.935 27.5612 277.74 27.9102C275.07 28.405 272.623 29.7233 270.74 31.6802C268.743 33.603 267.382 36.0911 266.84 38.8102C266.21 42.2703 266.704 45.8412 268.25 49.0002C270.1 52.2321 272.695 54.975 275.82 57.0002C280.87 60.4502 287.53 64.8002 287.53 64.8002C287.53 64.8002 293.61 60.8002 299.02 57.9402C302.352 56.3102 305.249 53.9108 307.47 50.9402C309.4 47.9694 310.323 44.456 310.1 40.9202Z" fill="#FF725E"/>
<path d="M262 65.4904C261.579 63.6751 260.608 62.0338 259.22 60.7904C257.914 59.5218 256.241 58.6962 254.44 58.4304C252.905 58.2336 251.349 58.5509 250.014 59.3324C248.678 60.114 247.64 61.316 247.06 62.7504C246.458 61.9006 245.676 61.1938 244.77 60.6804C243.925 60.218 242.995 59.9301 242.037 59.8339C241.078 59.7377 240.11 59.8351 239.19 60.1204C237.468 60.7158 235.975 61.8347 234.92 63.3204C233.793 64.7977 233.144 66.5841 233.06 68.4404C232.993 70.8114 233.695 73.1406 235.06 75.0804C236.614 77.0312 238.613 78.5811 240.89 79.6004C244.58 81.3904 249.44 83.6004 249.44 83.6004C249.44 83.6004 253.07 80.3304 256.37 77.8904C258.422 76.474 260.103 74.584 261.27 72.3804C262.243 70.2206 262.499 67.8061 262 65.4904Z" fill="#FF725E"/>
<path opacity="0.5" d="M310.1 40.9202C309.897 38.1617 308.85 35.5327 307.1 33.3902C305.457 31.2261 303.177 29.6314 300.58 28.8302C298.362 28.206 296 28.3301 293.86 29.1833C291.72 30.0365 289.92 31.5713 288.74 33.5502C287.743 31.5644 286.139 29.9475 284.161 28.9335C282.184 27.9196 279.935 27.5612 277.74 27.9102C275.07 28.405 272.623 29.7233 270.74 31.6802C268.743 33.603 267.382 36.0911 266.84 38.8102C266.21 42.2703 266.704 45.8412 268.25 49.0002C270.1 52.2321 272.695 54.975 275.82 57.0002C280.87 60.4502 287.53 64.8002 287.53 64.8002C287.53 64.8002 293.61 60.8002 299.02 57.9402C302.352 56.3102 305.249 53.9108 307.47 50.9402C309.4 47.9694 310.323 44.456 310.1 40.9202Z" fill="white"/>
<path opacity="0.5" d="M262 65.4904C261.579 63.6751 260.608 62.0338 259.22 60.7904C257.914 59.5218 256.241 58.6962 254.44 58.4304C252.905 58.2336 251.349 58.5509 250.014 59.3324C248.678 60.114 247.64 61.316 247.06 62.7504C246.458 61.9006 245.676 61.1938 244.77 60.6804C243.925 60.218 242.995 59.9301 242.037 59.8339C241.078 59.7377 240.11 59.8351 239.19 60.1204C237.468 60.7158 235.975 61.8347 234.92 63.3204C233.793 64.7977 233.144 66.5841 233.06 68.4404C232.993 70.8114 233.695 73.1406 235.06 75.0804C236.614 77.0312 238.613 78.5811 240.89 79.6004C244.58 81.3904 249.44 83.6004 249.44 83.6004C249.44 83.6004 253.07 80.3304 256.37 77.8904C258.422 76.474 260.103 74.584 261.27 72.3804C262.243 70.2206 262.499 67.8061 262 65.4904Z" fill="white"/>
<path d="M146.29 189.4C146.29 189.4 115.46 184.21 108.56 202.57C102.73 218.09 127 245.85 127 245.85L147.34 226.4L146.29 189.4Z" fill="#FFBE9D"/>
<path d="M105.84 274.11C105.84 274.11 106.66 310.49 117.67 344.3C121.29 355.45 133.67 413.89 133.67 413.89C121.45 437.7 112.57 451.61 108.88 472.81H263.73L252 401.8C252 401.8 256.75 344.61 256.79 344.04C260.2 299.49 262.87 250.78 260.45 249.11C244.64 238.27 212.99 223.69 192.45 221.55C171.91 219.41 111.61 242 105.84 274.11Z" fill="#263238"/>
<path d="M204.82 364.43C204.76 364.711 204.673 364.986 204.56 365.25C204.35 365.83 204.07 366.6 203.71 367.57L203.08 369.24C202.83 369.84 202.51 370.47 202.19 371.16C201.495 372.74 200.718 374.282 199.86 375.78C199.38 376.61 198.86 377.49 198.37 378.39C197.88 379.29 197.19 380.18 196.58 381.12C195.248 383.117 193.816 385.046 192.29 386.9C188.748 391.115 184.795 394.968 180.49 398.4C176.125 401.76 171.435 404.674 166.49 407.1C164.17 408.1 161.99 409.18 159.85 409.89C158.78 410.26 157.78 410.68 156.77 410.97L153.87 411.79C152.224 412.261 150.555 412.649 148.87 412.95C148.13 413.09 147.44 413.25 146.79 413.35L145.02 413.56L142.57 413.83C142.286 413.876 141.998 413.897 141.71 413.89C141.989 413.814 142.273 413.761 142.56 413.73L144.99 413.36L146.75 413.1C147.39 412.99 148.08 412.82 148.82 412.66C150.29 412.32 152 412.03 153.82 411.43L156.69 410.59C157.69 410.29 158.69 409.86 159.69 409.48C161.82 408.76 163.97 407.71 166.27 406.67C176.143 401.868 184.882 395.024 191.91 386.59C193.47 384.59 195 382.77 196.21 380.88C196.83 379.94 197.48 379.08 198.02 378.18C198.56 377.28 199.02 376.42 199.53 375.6C200.53 373.98 201.23 372.39 201.92 371.04C202.25 370.36 202.58 369.73 202.84 369.14L203.51 367.49C203.91 366.54 204.22 365.78 204.45 365.22C204.559 364.95 204.682 364.686 204.82 364.43Z" fill="#455A64"/>
<path d="M236.56 387.58C236.513 387.652 236.46 387.719 236.4 387.78C236.26 387.94 236.08 388.12 235.86 388.35C235.36 388.88 234.66 389.6 233.78 390.51L232.26 392.07C231.69 392.62 231.03 393.18 230.35 393.8C228.95 395.01 227.43 396.49 225.55 397.87L222.66 400.12C221.66 400.89 220.53 401.6 219.4 402.38C217.17 403.99 214.62 405.43 211.96 407C206.097 410.236 199.96 412.946 193.62 415.1C187.246 417.157 180.704 418.652 174.07 419.57C171 419.89 168.07 420.26 165.35 420.3C163.98 420.35 162.65 420.45 161.35 420.44L157.69 420.36C155.35 420.36 153.26 420.1 151.41 419.96C150.49 419.87 149.63 419.81 148.84 419.71L146.7 419.37L143.7 418.89L142.93 418.75L142.67 418.68H142.94L143.71 418.76L146.71 419.15L148.85 419.45C149.64 419.53 150.5 419.57 151.42 419.65C153.26 419.76 155.35 420.01 157.68 419.97H161.33C162.59 419.97 163.91 419.86 165.33 419.81C168.06 419.75 170.96 419.36 174.01 419.03C187.254 417.252 200.048 413.009 211.73 406.52C214.38 404.97 216.93 403.52 219.16 401.96C220.29 401.19 221.41 400.5 222.43 399.74L225.33 397.52C227.21 396.16 228.74 394.71 230.15 393.52C230.85 392.91 231.51 392.36 232.09 391.83C232.67 391.3 233.17 390.77 233.64 390.31L235.79 388.22L236.36 387.69L236.56 387.58Z" fill="#455A64"/>
<path d="M202.25 242.81C202.25 242.86 201.64 243.16 200.58 243.81C199.089 244.74 197.742 245.882 196.58 247.2C194.851 249.151 193.474 251.388 192.51 253.81C191.32 256.773 190.643 259.918 190.51 263.11C190.25 269.94 191.91 276 193.13 280.29C193.75 282.44 194.3 284.17 194.66 285.37C194.83 285.92 194.96 286.37 195.07 286.76C195.132 286.916 195.169 287.081 195.18 287.25C195.095 287.103 195.025 286.949 194.97 286.79C194.84 286.42 194.67 285.98 194.47 285.43C194.04 284.25 193.47 282.54 192.77 280.43C191.96 277.919 191.293 275.365 190.77 272.78C190.121 269.606 189.849 266.367 189.96 263.13C190.113 259.879 190.823 256.679 192.06 253.67C193.068 251.21 194.503 248.949 196.3 246.99C197.513 245.673 198.923 244.553 200.48 243.67C200.903 243.431 201.341 243.217 201.79 243.03C201.935 242.94 202.089 242.867 202.25 242.81Z" fill="#455A64"/>
<path d="M218.4 217.66C223.19 219.38 228.79 221.02 233.17 218.15C236.17 216.15 237.77 212.55 239.11 209.15C242.224 201.164 244.927 193.023 247.21 184.76C247.21 184.76 259.21 157 258.7 141.25C258.19 125.5 260.51 118.58 239.84 113C219.17 107.42 166.11 201 166.11 201L218.4 217.66Z" fill="#FFBE9D"/>
<path d="M258.77 130.27C258.77 130.27 270.77 107.91 254.98 101.08C239.19 94.25 224.24 102.51 224.24 102.51C224.24 102.51 180.53 95.45 172.32 112.72C164.11 129.99 153.89 144.27 156.16 160.51C158.43 176.75 167.6 196 167.6 196C180.85 202.29 198.16 198.45 207.49 187.13C212.122 181.592 216.024 175.482 219.1 168.95C222.51 161.95 230.87 155.73 236.25 163.17C237.1 164.34 240.99 163.91 241.79 161.27C243.28 156.38 242.91 146.97 245.52 146.43C249.52 145.59 253.64 144.32 256.58 141.43C259.52 138.54 260.91 133.76 258.77 130.26" fill="#E4853B"/>
<path d="M231.12 174.56C230.465 174.59 229.822 174.372 229.32 173.95C228.648 173.507 228.114 172.884 227.78 172.153C227.445 171.421 227.323 170.61 227.427 169.812C227.532 169.014 227.858 168.262 228.37 167.641C228.881 167.02 229.557 166.555 230.32 166.3C230.912 166.012 231.59 165.959 232.22 166.15C231.621 166.251 231.034 166.415 230.47 166.64C229.806 166.912 229.225 167.355 228.789 167.925C228.352 168.495 228.075 169.171 227.986 169.883C227.896 170.595 227.997 171.318 228.279 171.978C228.561 172.639 229.014 173.212 229.59 173.64C230.072 173.991 230.584 174.299 231.12 174.56Z" fill="#EB996E"/>
<path d="M223.29 164.39C220.44 167.68 218.949 171.931 219.12 176.28C219.104 178.306 219.813 180.271 221.12 181.82C222.5 183.28 224.94 183.82 226.56 182.66C226.848 182.497 227.072 182.241 227.196 181.934C227.319 181.627 227.335 181.287 227.24 180.97C227.068 180.684 226.823 180.449 226.53 180.29C225.296 179.419 224.249 178.308 223.453 177.024C222.657 175.74 222.128 174.309 221.896 172.816C221.665 171.323 221.736 169.799 222.106 168.334C222.476 166.869 223.137 165.494 224.05 164.29" fill="#EB996E"/>
<path d="M234.91 162.09C234.91 162.09 234.62 161.65 233.91 161.09C233.4 160.706 232.815 160.434 232.193 160.293C231.571 160.151 230.925 160.144 230.3 160.27C228.409 160.541 226.655 161.414 225.3 162.76C223.649 164.427 222.568 166.572 222.21 168.89C221.777 171.201 221.963 173.585 222.75 175.8C223.053 176.699 223.538 177.527 224.174 178.23C224.811 178.934 225.585 179.499 226.45 179.89C227.63 180.41 228.95 180.519 230.2 180.2C230.646 180.04 231.083 179.857 231.51 179.65C231.51 179.65 231.42 179.74 231.23 179.89C230.919 180.098 230.583 180.266 230.23 180.39C228.921 180.82 227.5 180.764 226.23 180.23C225.304 179.839 224.47 179.259 223.781 178.527C223.093 177.796 222.564 176.928 222.23 175.98C221.389 173.684 221.181 171.204 221.63 168.8C222.005 166.374 223.151 164.133 224.9 162.41C226.341 161.007 228.21 160.127 230.21 159.91C230.879 159.784 231.569 159.809 232.227 159.982C232.886 160.155 233.499 160.472 234.02 160.91C234.291 161.153 234.524 161.437 234.71 161.75C234.87 162 234.93 162.08 234.91 162.09Z" fill="#263238"/>
<g opacity="0.2">
<path d="M159 148C161.8 151.85 165.39 155.31 167.69 159.48C170.34 164.29 171.59 169.75 172.31 175.19C173.31 183.19 172.95 189.4 169.76 197.05C175.01 195.43 177.76 191.76 178.67 186.35C179.512 180.505 179.055 174.547 177.33 168.9C175.385 162.452 171.654 156.687 166.57 152.27C162.99 149.1 156.95 144.71 155.88 140.05C155.84 140.08 157.11 145.5 159 148Z" fill="black"/>
</g>
<g opacity="0.2">
<path d="M160.45 136.15C162.753 139.201 166.07 141.329 169.803 142.154C173.535 142.978 177.44 142.444 180.814 140.647C184.188 138.85 186.811 135.909 188.21 132.351C189.61 128.794 189.695 124.854 188.45 121.24C188.371 120.896 188.221 120.572 188.012 120.288C187.802 120.004 187.535 119.766 187.23 119.59C186.786 119.475 186.317 119.522 185.904 119.721C185.492 119.921 185.164 120.261 184.98 120.68C184.648 121.535 184.476 122.443 184.47 123.36C184.228 125.849 183.372 128.238 181.978 130.314C180.584 132.389 178.695 134.086 176.483 135.25C174.27 136.414 171.802 137.01 169.302 136.984C166.802 136.958 164.348 136.31 162.16 135.1" fill="black"/>
</g>
<path d="M181.93 111.46C180.689 110.39 179.21 109.631 177.617 109.246C176.024 108.862 174.362 108.863 172.77 109.25C169.786 110.009 167.022 111.458 164.7 113.48C161.722 115.647 159.274 118.461 157.54 121.71C155.95 125.01 155.54 129.06 157.26 132.31C159.42 136.48 164.49 138.49 169.18 138.31C172.415 138.111 175.537 137.049 178.224 135.237C180.911 133.424 183.064 130.925 184.46 128C187.18 122.14 188.01 115.56 181.93 111.47" fill="#263238"/>
<path d="M146 189.93L170 196.7C170 196.7 173.18 194.87 172.37 180.45C171.99 173.64 166.64 167.45 164.37 161.02C162.52 155.7 159.55 150.83 157.59 145.55C155.63 140.27 154.28 135.34 156.73 130.27C159.18 125.2 164.37 125.07 169.28 127.83C172.132 126.273 174.279 123.682 175.28 120.59C172.28 112.86 167.69 109.42 162.28 107.42C158.863 106.085 155.184 105.559 151.53 105.884C147.876 106.208 144.347 107.374 141.22 109.29C133.66 114.13 129.29 122.42 127.43 131.02L127.37 131.26C125.258 141.337 126.811 151.836 131.75 160.87C135.5 167.69 138.86 179.7 132.39 188.87L141.9 189.29C143.285 189.355 144.66 189.57 146 189.93Z" fill="#E4853B"/>
<path d="M175.65 116.06C175.749 116.973 175.716 117.896 175.55 118.8C175.302 121.033 174.49 123.167 173.19 125C172.444 126.006 171.488 126.838 170.39 127.44C169.489 127.917 168.497 128.197 167.48 128.26C166.805 128.304 166.127 128.227 165.48 128.03C165.03 127.88 164.8 127.74 164.81 127.71C165.688 127.89 166.585 127.954 167.48 127.9C168.431 127.781 169.35 127.482 170.19 127.02C171.212 126.433 172.101 125.639 172.8 124.69C174.06 122.906 174.886 120.851 175.21 118.69C175.48 117.09 175.57 116.05 175.65 116.06Z" fill="#455A64"/>
<path d="M144 189.4C144.895 188.298 145.698 187.124 146.4 185.89C147.159 184.418 147.669 182.829 147.91 181.19C148.198 179.008 148.178 176.796 147.85 174.62C146.975 168.943 145.61 163.352 143.77 157.91C142.77 154.83 141.63 151.61 140.65 148.2C139.574 144.69 138.87 141.077 138.55 137.42C138.278 133.744 138.65 130.048 139.65 126.5C140.12 124.813 140.792 123.188 141.65 121.66C142.473 120.187 143.504 118.84 144.71 117.66C146.936 115.45 149.739 113.911 152.8 113.22C155.455 112.611 158.218 112.642 160.86 113.31C163.04 113.87 165.082 114.87 166.86 116.25C168.2 117.273 169.376 118.493 170.35 119.87C170.97 120.73 171.499 121.651 171.93 122.62C172.08 122.95 172.17 123.21 172.24 123.39C172.277 123.473 172.304 123.56 172.32 123.65C172.27 123.574 172.227 123.493 172.19 123.41C172.11 123.24 172 122.98 171.84 122.66C171.373 121.721 170.821 120.827 170.19 119.99C169.198 118.657 168.019 117.475 166.69 116.48C164.939 115.156 162.939 114.2 160.81 113.67C158.223 113.048 155.526 113.048 152.94 113.67C149.962 114.354 147.24 115.87 145.09 118.04C143.902 119.184 142.891 120.499 142.09 121.94C141.233 123.433 140.561 125.025 140.09 126.68C139.114 130.175 138.752 133.812 139.02 137.43C139.341 141.048 140.034 144.624 141.09 148.1C142.09 151.49 143.18 154.71 144.18 157.8C146.009 163.277 147.348 168.906 148.18 174.62C148.496 176.825 148.496 179.065 148.18 181.27C147.909 182.936 147.361 184.545 146.56 186.03C146.267 186.569 145.932 187.083 145.56 187.57C145.312 187.945 145.034 188.3 144.73 188.63L144.18 189.24C144.125 189.299 144.065 189.353 144 189.4Z" fill="#263238"/>
<path d="M169.53 128.73C168.779 127.885 167.836 127.234 166.78 126.83C165.333 126.329 163.774 126.245 162.281 126.588C160.789 126.931 159.423 127.687 158.34 128.77C155.59 131.52 154.58 136.7 156.34 141.52C157.284 144.049 158.591 146.428 160.22 148.58C161.89 150.84 163.76 153.11 165.45 155.58C167.146 157.982 168.584 160.556 169.74 163.26C170.718 165.82 171.429 168.474 171.86 171.18C172.28 173.74 172.69 176.18 172.86 178.51C172.999 180.657 173.019 182.811 172.92 184.96C172.82 186.96 172.6 188.7 172.44 190.25C172.33 191.594 172.034 192.917 171.56 194.18C171.25 194.972 170.829 195.716 170.31 196.39C170.14 196.63 169.98 196.79 169.89 196.9L169.73 197.06C169.879 196.807 170.043 196.564 170.22 196.33C170.7 195.644 171.087 194.898 171.37 194.11C172.15 192.11 172.29 188.84 172.55 184.94C172.628 182.806 172.585 180.669 172.42 178.54C172.211 176.098 171.877 173.668 171.42 171.26C170.986 168.591 170.279 165.974 169.31 163.45C168.144 160.788 166.7 158.257 165 155.9C163.32 153.42 161.47 151.17 159.79 148.9C158.132 146.712 156.811 144.289 155.87 141.71C154.07 136.71 155.15 131.38 158.05 128.55C159.339 127.26 161.021 126.437 162.83 126.21C164.181 126.02 165.558 126.178 166.83 126.67C167.639 126.955 168.379 127.409 169 128C169.153 128.158 169.296 128.325 169.43 128.5C169.5 128.66 169.54 128.73 169.53 128.73Z" fill="#263238"/>
<path d="M182.78 127C182.895 126.816 183.029 126.645 183.18 126.49C183.46 126.17 183.84 125.68 184.4 125.11C185.939 123.471 187.612 121.963 189.4 120.6C195.37 116.034 202.422 113.095 209.868 112.069C217.313 111.044 224.898 111.968 231.88 114.75C233.987 115.578 236.02 116.582 237.96 117.75C238.66 118.15 239.16 118.52 239.51 118.75C239.699 118.853 239.874 118.981 240.03 119.13C239.831 119.048 239.64 118.948 239.46 118.83C239.09 118.64 238.57 118.3 237.86 117.93C230.39 113.712 221.857 111.75 213.295 112.283C204.733 112.815 196.51 115.819 189.62 120.93C187.808 122.255 186.097 123.712 184.5 125.29C183.91 125.84 183.5 126.29 183.21 126.6C183.081 126.748 182.937 126.882 182.78 127Z" fill="#263238"/>
<path d="M176.31 133.84C176.476 133.957 176.627 134.095 176.76 134.25L177.98 135.49C179.07 136.49 180.62 138.07 182.73 139.76C185.165 141.758 187.772 143.538 190.52 145.08C193.872 146.987 197.468 148.431 201.21 149.37C203.144 149.853 205.114 150.188 207.1 150.37C208.95 150.511 210.807 150.528 212.66 150.42C216.21 150.21 219.4 149.74 222.09 149.42C224.214 149.178 226.351 149.062 228.49 149.07C229.25 149.07 229.84 149.12 230.24 149.16C230.442 149.166 230.643 149.193 230.84 149.24C230.84 149.24 230 149.24 228.49 149.24C226.362 149.301 224.239 149.471 222.13 149.75C219.45 150.06 216.27 150.57 212.69 150.81C210.812 150.94 208.927 150.94 207.05 150.81C205.027 150.633 203.02 150.299 201.05 149.81C197.267 148.857 193.636 147.383 190.26 145.43C187.495 143.857 184.884 142.029 182.46 139.97C180.825 138.591 179.273 137.119 177.81 135.56L176.66 134.25C176.529 134.126 176.412 133.988 176.31 133.84Z" fill="#263238"/>
<path d="M176.18 138C176.18 138 176.33 138.11 176.58 138.37L177.64 139.5L178.4 140.33C178.69 140.63 179.02 140.92 179.4 141.26C180.1 141.91 180.85 142.7 181.8 143.45L183.26 144.66C183.76 145.07 184.34 145.45 184.9 145.88C186.03 146.74 187.33 147.52 188.67 148.37C194.624 151.918 201.238 154.218 208.11 155.13C209.7 155.3 211.2 155.5 212.62 155.51C213.33 155.51 214.01 155.59 214.62 155.58L216.51 155.53C217.72 155.53 218.8 155.38 219.75 155.31C220.23 155.26 220.68 155.23 221.08 155.18L222.19 155L223.73 154.77C223.912 154.748 224.097 154.748 224.28 154.77C224.107 154.83 223.93 154.877 223.75 154.91L222.23 155.24L221.12 155.46C220.71 155.53 220.27 155.57 219.79 155.63C218.709 155.79 217.621 155.893 216.53 155.94L214.62 156.02C213.96 156.02 213.27 156.02 212.55 156.02C211.028 155.985 209.509 155.872 208 155.68C201.051 154.818 194.364 152.494 188.38 148.86C187.077 148.071 185.816 147.217 184.6 146.3C184.03 145.87 183.46 145.48 182.95 145.05L181.51 143.8C180.68 143.089 179.889 142.334 179.14 141.54C178.8 141.2 178.48 140.89 178.2 140.54C177.92 140.19 177.7 139.94 177.47 139.68L176.47 138.48C176.27 138.16 176.16 138 176.18 138Z" fill="#263238"/>
<path d="M159.44 193.73C159.44 193.73 159.54 193.42 159.75 192.84C159.85 192.54 159.98 192.18 160.12 191.76C160.26 191.34 160.39 190.82 160.54 190.27C160.89 188.888 161.15 187.485 161.32 186.07C161.518 184.2 161.575 182.318 161.49 180.44C161.2 175.537 160.148 170.708 158.37 166.13C156.48 160.91 153.26 155.69 150.66 149.84C149.365 146.994 148.418 144.002 147.84 140.93C147.301 138.057 147.345 135.105 147.97 132.25C148.576 129.668 149.79 127.268 151.51 125.25C153.004 123.476 154.981 122.174 157.2 121.5C159.036 120.984 160.973 120.942 162.83 121.38C164.233 121.688 165.553 122.295 166.7 123.16C167.422 123.727 168.052 124.402 168.57 125.16L169.04 125.97L168.53 125.18C168.001 124.454 167.368 123.81 166.65 123.27C165.503 122.427 164.191 121.837 162.8 121.54C160.963 121.116 159.049 121.171 157.24 121.7C155.055 122.371 153.11 123.66 151.64 125.41C149.946 127.411 148.753 129.786 148.16 132.34C147.548 135.17 147.507 138.094 148.04 140.94C148.617 143.995 149.561 146.97 150.85 149.8C153.45 155.63 156.66 160.86 158.55 166.1C160.322 170.699 161.362 175.548 161.63 180.47C161.714 182.359 161.651 184.251 161.44 186.13C161.254 187.545 160.98 188.948 160.62 190.33L160.18 191.82L159.79 192.9C159.57 193.43 159.44 193.73 159.44 193.73Z" fill="#263238"/>
<path d="M237 136.57L236.45 136.7L234.86 137.01C234.17 137.16 233.32 137.32 232.32 137.45C231.32 137.58 230.2 137.79 228.95 137.9C227.7 138.01 226.32 138.19 224.83 138.26C223.34 138.33 221.77 138.39 220.1 138.43C216.477 138.435 212.857 138.225 209.26 137.8C205.667 137.342 202.104 136.675 198.59 135.8C196.98 135.36 195.44 134.97 194.03 134.49C192.62 134.01 191.31 133.59 190.13 133.15C188.95 132.71 187.89 132.27 186.96 131.89C186.03 131.51 185.25 131.16 184.61 130.89L183.14 130.2C182.81 130.04 182.64 129.94 182.64 129.94L183.16 130.16L184.65 130.82C185.29 131.11 186.07 131.46 187.01 131.82C187.95 132.18 189.01 132.65 190.18 133.05C191.35 133.45 192.66 133.95 194.09 134.37C195.52 134.79 197.03 135.22 198.64 135.66C202.145 136.529 205.698 137.196 209.28 137.66C212.871 138.086 216.483 138.303 220.1 138.31C221.76 138.31 223.34 138.31 224.82 138.16C226.3 138.01 227.68 137.96 228.93 137.83C230.18 137.7 231.31 137.54 232.31 137.41C233.31 137.28 234.15 137.14 234.84 137L236.44 136.72L237 136.57Z" fill="#263238"/>
<path d="M156.58 340.35C156.07 343.15 153.87 344.63 152.26 345.85C147.939 349.1 142.723 350.943 137.32 351.13C136.669 351.214 136.007 351.092 135.43 350.78C134.27 350 134.52 348.23 135.05 346.93C135.58 345.63 136.26 344.14 135.55 342.93C133.83 344.296 131.766 345.159 129.586 345.424C127.407 345.689 125.196 345.345 123.2 344.43C122.96 344.314 122.755 344.137 122.606 343.918C122.456 343.698 122.366 343.443 122.346 343.177C122.326 342.912 122.376 342.646 122.49 342.406C122.605 342.166 122.781 341.961 123 341.81C128.62 337.81 132.44 330.25 133.43 323.42L156.58 340.35Z" fill="#E4853B"/>
<g opacity="0.2">
<path d="M155.44 339C148.604 333.15 141.239 327.947 133.44 323.46C133.13 326.46 132.89 329.95 134.34 332.61C135.79 335.27 138.34 336.66 140.97 337.95C145.29 340.11 150.18 342.04 154.84 340.76C155.4 340.61 156.05 340.23 155.95 339.66C155.861 339.388 155.681 339.154 155.44 339Z" fill="black"/>
</g>
<path d="M129.78 231.6C142.94 226.87 148.48 226.25 161.25 223.44C162.31 223.21 169.68 221.78 170.74 222.02C173.2 222.58 174.74 228.09 174.44 230.59C174.14 233.09 172.64 235.27 171.44 237.49C168.835 242.327 167.275 247.657 166.859 253.134C166.444 258.612 167.184 264.116 169.03 269.29C170.56 273.51 172.82 277.44 174.14 281.73C175.46 286.02 177.59 289.66 174.61 293.23C163.03 289.42 148.7 283.71 137.12 279.91C138.23 275.81 137.24 275 134.04 272.22C130.84 269.44 126.93 267.54 123.87 264.6C121.472 262.305 119.679 259.453 118.651 256.297C117.623 253.141 117.392 249.779 117.978 246.512C118.564 243.245 119.949 240.174 122.01 237.572C124.071 234.97 126.744 232.919 129.79 231.6" fill="#E4853B"/>
<g opacity="0.2">
<path d="M132.4 230.68C136.95 236.26 145.56 240.23 152.75 240.74C160.308 241.197 167.746 238.685 173.48 233.74C173.886 233.088 174.167 232.366 174.31 231.61C174.15 231.1 172.59 231.48 172.09 231.32C165.159 229.05 158.01 227.505 150.76 226.71C144.4 226.19 132.4 230.97 132.4 230.71" fill="black"/>
</g>
<path d="M155.16 284.9C155.269 284.081 155.329 283.257 155.34 282.43C155.234 280.181 154.608 277.987 153.51 276.02C152.779 274.652 151.915 273.359 150.93 272.16C149.88 270.86 148.65 269.55 147.34 268.16C146.03 266.77 144.66 265.34 143.34 263.71C141.347 261.252 139.874 258.415 139.01 255.371C138.145 252.327 137.907 249.139 138.31 246C139.073 240.318 141.925 235.124 146.31 231.43C146.779 231.03 147.274 230.659 147.79 230.32C147.958 230.184 148.143 230.07 148.34 229.98C148.34 229.98 147.64 230.52 146.44 231.58C144.767 233.091 143.313 234.828 142.12 236.74C140.345 239.567 139.212 242.749 138.8 246.06C138.309 250.122 138.899 254.24 140.51 258C142.18 262 145.11 265.08 147.69 267.83C148.99 269.21 150.22 270.54 151.27 271.83C152.256 273.076 153.117 274.416 153.84 275.83C154.932 277.853 155.516 280.112 155.54 282.41C155.531 283.032 155.464 283.651 155.34 284.26C155.307 284.481 155.247 284.696 155.16 284.9Z" fill="#263238"/>
<path d="M164.38 288.86C164.38 288.86 164.38 288.64 164.53 288.22C164.606 287.965 164.663 287.704 164.7 287.44C164.771 287.087 164.821 286.729 164.85 286.37C165.03 284.06 164.689 281.74 163.85 279.58C163.294 278.088 162.604 276.649 161.79 275.28C160.826 273.722 159.771 272.223 158.63 270.79C156.28 267.72 153.4 264.52 151.35 260.5C150.385 258.535 149.686 256.45 149.27 254.3C148.912 252.295 148.788 250.254 148.9 248.22C149.099 244.771 149.961 241.393 151.44 238.27C152.419 236.164 153.688 234.205 155.21 232.45C155.72 231.81 156.21 231.45 156.5 231.08C156.79 230.71 156.98 230.62 156.98 230.62L156.53 231.11C156.25 231.43 155.77 231.85 155.27 232.5C153.784 234.272 152.54 236.232 151.57 238.33C150.124 241.443 149.282 244.803 149.09 248.23C148.988 250.238 149.116 252.251 149.47 254.23C149.885 256.361 150.578 258.429 151.53 260.38C153.53 264.38 156.44 267.56 158.79 270.64C159.927 272.082 160.976 273.591 161.93 275.16C162.753 276.538 163.443 277.991 163.99 279.5C164.834 281.676 165.176 284.014 164.99 286.34C164.961 286.704 164.904 287.065 164.82 287.42C164.78 287.685 164.716 287.946 164.63 288.2C164.45 288.65 164.38 288.86 164.38 288.86Z" fill="#263238"/>
<path d="M240.71 193.73C246.1 199.45 245.2 207.32 242.49 212.86C238.39 221.22 239.59 223.79 237 228.12C234.53 232.26 236.44 231.95 238.1 236.48C239.76 241.01 242.84 244.87 246.1 248.4C250.091 252.684 254.466 256.594 259.17 260.08C261.75 261.98 264.85 263.85 267.96 263.08C270.53 262.45 272.39 260.08 273.18 257.59C273.832 255.025 274.042 252.367 273.8 249.73L272.36 208" fill="#263238"/>
<path d="M263.73 472.81H381.55C380.24 469.22 375.64 418.23 347.37 401.88C347.37 401.88 337.03 405.6 314.18 394.3C287.63 381.18 255.55 359.5 255.55 359.5L252 401.8L263.73 472.81Z" fill="#E4853B"/>
<g opacity="0.2">
<path d="M340 401.2C338.457 399.413 336.67 397.855 334.69 396.57C322.94 388.24 310.17 381.46 297.44 374.72C285.7 368.49 273.86 362.23 261.09 358.58C259.872 358.116 258.549 358.002 257.27 358.25C256.641 358.396 256.09 358.776 255.73 359.312C255.37 359.849 255.227 360.502 255.33 361.14C264.8 370.28 274.52 379.14 285.81 385.91C297.1 392.68 309.7 397.53 322.81 398.73C325.04 398.93 327.75 399.35 328.56 401.43C329 402.59 328.68 403.88 328.73 405.12C328.78 406.36 329.57 407.8 330.81 407.73C332.25 407.64 332.69 405.73 332.71 404.3C332.73 402.87 333.1 400.96 334.54 400.79C334.997 400.818 335.443 400.947 335.844 401.168C336.245 401.39 336.592 401.698 336.86 402.07C338.66 403.96 345.12 412.74 346.92 414.62C347.09 412.28 341.44 403.05 340 401.2Z" fill="black"/>
</g>
<path d="M346.17 426.49C346.07 426.49 346.58 425.06 346.91 422.72C347.096 421.352 347.163 419.97 347.11 418.59C346.97 415.199 346.115 411.877 344.6 408.84C343.979 407.601 343.25 406.42 342.42 405.31C341 403.42 339.88 402.45 339.95 402.37C340.249 402.552 340.525 402.77 340.77 403.02C341.083 403.282 341.378 403.566 341.65 403.87C342.03 404.256 342.387 404.663 342.72 405.09C343.602 406.189 344.376 407.372 345.03 408.62C345.814 410.161 346.434 411.78 346.88 413.45C347.29 415.128 347.528 416.844 347.59 418.57C347.624 419.981 347.517 421.391 347.27 422.78C347.187 423.314 347.07 423.842 346.92 424.36C346.835 424.759 346.718 425.15 346.57 425.53C346.474 425.864 346.34 426.187 346.17 426.49Z" fill="#263238"/>
<path d="M332.27 413.76C332.19 413.76 332.68 412.97 333.21 411.66C333.908 409.958 334.304 408.148 334.38 406.31C334.438 404.47 334.181 402.633 333.62 400.88C333.18 399.54 332.76 398.75 332.84 398.71C333.331 399.305 333.713 399.982 333.97 400.71C334.654 402.488 334.97 404.386 334.9 406.29C334.829 408.19 334.37 410.055 333.55 411.77C333.256 412.51 332.821 413.186 332.27 413.76Z" fill="#263238"/>
<path d="M302.05 386.41C299.626 386.685 297.189 386.832 294.75 386.85C292.5 386.85 289.8 386.8 286.83 386.54C280.364 385.962 274.001 384.546 267.9 382.33C265.411 381.431 262.971 380.403 260.59 379.25C258.387 378.207 256.243 377.041 254.17 375.76L254.62 375.99L255.9 376.69C256.99 377.31 258.62 378.15 260.65 379.12C262.68 380.09 265.16 381.12 267.96 382.12C271.009 383.196 274.118 384.098 277.27 384.82C280.432 385.5 283.631 386 286.85 386.32C289.85 386.59 292.5 386.68 294.75 386.67C297 386.66 298.83 386.58 300.09 386.49L301.54 386.39C301.71 386.388 301.88 386.394 302.05 386.41Z" fill="#FAFAFA"/>
<path d="M333.46 410.4L332.64 410.65L330.29 411.35C329.29 411.66 328.02 412.03 326.54 412.35C325.06 412.67 323.4 413.15 321.54 413.44C319.68 413.73 317.61 414.16 315.38 414.38C314.27 414.49 313.12 414.69 311.93 414.75L308.25 414.99C297.299 415.497 286.343 414.099 275.87 410.86L272.37 409.71C271.23 409.36 270.17 408.89 269.12 408.5C267.01 407.74 265.12 406.86 263.37 406.08C261.62 405.3 260.12 404.48 258.76 403.81C257.4 403.14 256.28 402.48 255.36 401.94L253.24 400.7L252.51 400.26L253.26 400.66L255.4 401.87C256.32 402.4 257.45 403.05 258.81 403.7C260.17 404.35 261.68 405.21 263.44 405.94C265.2 406.67 267.07 407.58 269.18 408.34C270.23 408.72 271.29 409.19 272.43 409.54L275.93 410.67C281.165 412.237 286.514 413.39 291.93 414.12C297.346 414.782 302.807 415.006 308.26 414.79L311.93 414.57C313.12 414.51 314.27 414.32 315.38 414.21C317.61 413.99 319.66 413.62 321.53 413.29C323.4 412.96 325.08 412.55 326.53 412.29C327.98 412.03 329.27 411.63 330.29 411.29L332.65 410.63L333.46 410.4Z" fill="#FAFAFA"/>
<path d="M345.86 412.71C345.747 412.811 345.623 412.898 345.49 412.97C345.24 413.13 344.87 413.33 344.41 413.57C343.18 414.165 341.889 414.624 340.56 414.94C339.228 415.241 337.866 415.392 336.5 415.39C335.98 415.39 335.56 415.39 335.27 415.33C335.118 415.323 334.967 415.299 334.82 415.26C334.82 415.26 335.46 415.26 336.5 415.26C337.847 415.222 339.187 415.051 340.5 414.75C341.817 414.448 343.101 414.012 344.33 413.45C345.29 413 345.85 412.68 345.86 412.71Z" fill="#FAFAFA"/>
<path d="M358 411C357.919 411.144 357.822 411.278 357.71 411.4C357.434 411.748 357.14 412.082 356.83 412.4C354.81 414.576 352.375 416.327 349.67 417.55C349.15 417.78 348.73 417.95 348.43 418.05C348.278 418.114 348.121 418.165 347.96 418.2C348.095 418.106 348.244 418.032 348.4 417.98L349.61 417.41C350.927 416.767 352.188 416.014 353.38 415.16C354.572 414.299 355.693 413.343 356.73 412.3C357.12 411.9 357.44 411.57 357.65 411.3C357.756 411.188 357.873 411.087 358 411Z" fill="#FAFAFA"/>
<path d="M368.85 426.49C368.85 426.49 368.54 426.75 367.93 427.23L366.81 428.11C366.309 428.523 365.785 428.907 365.24 429.26C361.849 431.648 358.195 433.637 354.35 435.19C348.638 437.468 342.666 439.03 336.57 439.84C333.14 440.3 329.51 440.65 325.75 440.84C321.99 441.03 318.07 441.08 314.07 441.03C306.55 440.901 299.051 440.192 291.64 438.91C284.8 437.76 278.71 436.35 273.64 435.07C263.49 432.47 257.3 430.54 257.3 430.54L258.43 430.85L261.68 431.75C264.51 432.53 268.6 433.66 273.68 434.92C278.76 436.18 284.85 437.58 291.68 438.72C299.086 439.985 306.578 440.687 314.09 440.82C318.09 440.87 321.98 440.82 325.75 440.64C329.52 440.46 333.13 440.11 336.56 439.64C342.642 438.838 348.603 437.293 354.31 435.04C358.148 433.498 361.803 431.536 365.21 429.19C365.754 428.84 366.279 428.46 366.78 428.05L367.92 427.19L368.85 426.49Z" fill="#FAFAFA"/>
<path d="M375.72 455.41L374.6 455.83L371.38 457L369.05 457.82C368.2 458.11 367.25 458.37 366.25 458.68C364.25 459.28 361.94 460.04 359.36 460.68L355.36 461.68C353.96 462.03 352.47 462.3 350.95 462.62C347.9 463.32 344.6 463.8 341.14 464.36C326.051 466.559 310.734 466.694 295.61 464.76C292.13 464.26 288.83 463.84 285.77 463.2C284.24 462.9 282.77 462.66 281.34 462.33L277.28 461.33C274.69 460.77 272.39 460.05 270.36 459.49C269.36 459.2 268.36 458.94 267.54 458.68L265.2 457.89L261.96 456.81C261.22 456.56 260.83 456.41 260.83 456.41L261.97 456.77L265.22 457.82L267.57 458.58C268.43 458.84 269.38 459.09 270.39 459.38C272.39 459.92 274.72 460.64 277.32 461.19L281.37 462.12C282.78 462.44 284.27 462.68 285.8 462.98C288.85 463.61 292.16 464.03 295.63 464.52C310.739 466.428 326.036 466.293 341.11 464.12C344.57 463.57 347.87 463.12 350.91 462.41C352.44 462.08 353.91 461.82 355.33 461.47L359.33 460.47C361.92 459.88 364.2 459.13 366.22 458.54C367.22 458.24 368.22 457.98 369.03 457.7L371.37 456.89L374.6 455.79C375.33 455.53 375.72 455.41 375.72 455.41Z" fill="#FAFAFA"/>
<path d="M260.46 251.11C260.46 251.11 282.63 268.88 294.07 294.57C303.28 315.25 365.07 343.89 369.9 366.25C375.9 394.01 351.06 404.3 337.9 402.31C306.85 397.61 236.6 347.97 236.6 347.97L260.46 251.11Z" fill="#263238"/>
<path d="M280.1 376.09C279.457 375.859 278.848 375.543 278.29 375.15C277.16 374.48 275.55 373.48 273.56 372.23C269.56 369.74 264.13 366.23 258.13 362.34C252.13 358.45 246.72 354.88 242.82 352.27C240.92 350.99 239.37 349.94 238.21 349.17L237 348.3C236.85 348.202 236.71 348.091 236.58 347.97C236.748 348.025 236.906 348.106 237.05 348.21L238.34 349L243.04 352L258.44 361.94L280.1 376.09Z" fill="#455A64"/>
<path d="M250.14 121.61C241.49 127.11 238.04 138.61 239.69 145.45C240.52 148.89 242.08 152.34 241.4 155.81C240.81 158.81 238.66 161.2 237.04 163.81C234.332 168.171 233.09 173.283 233.494 178.4C233.898 183.518 235.927 188.372 239.285 192.254C242.644 196.136 247.155 198.843 252.161 199.979C257.167 201.115 262.405 200.622 267.11 198.57" fill="#263238"/>
<path d="M245 166.6C224 120.35 274 97.11 301.29 104.82C326.95 112.06 337.89 124.82 342.11 141.99C346.33 159.16 346.11 177.74 339.4 194.09C336.09 202.15 330.11 210.34 321.45 211.35" fill="#263238"/>
<path d="M269.4 257.66C269.03 235.56 269.04 227.26 269.03 227.39C269.02 227.52 250.03 224.23 246.1 199.45C244.1 187.12 244.76 166.91 245.8 150.39C246.74 135.52 256.59 117.27 271.41 118.84L317.67 130.54C319.841 130.768 321.848 131.802 323.293 133.44C324.737 135.077 325.514 137.197 325.47 139.38L321.08 238.67" fill="#FFBE9D"/>
<path d="M249.76 166.74C250.14 167.17 252.61 165.47 256.03 165.59C259.45 165.71 261.9 167.5 262.28 167.1C262.47 166.92 262.09 166.16 261.03 165.33C259.581 164.253 257.835 163.649 256.03 163.6C254.253 163.538 252.502 164.043 251.03 165.04C250 165.81 249.58 166.55 249.76 166.74Z" fill="#263238"/>
<path d="M282.07 168.07C282.46 168.49 284.87 166.69 288.29 166.69C291.71 166.69 294.22 168.38 294.59 167.96C294.77 167.77 294.37 167.03 293.27 166.24C291.799 165.23 290.055 164.693 288.27 164.7C286.472 164.697 284.721 165.268 283.27 166.33C282.23 167.14 281.87 167.89 282.07 168.07Z" fill="#263238"/>
<path d="M271.4 186.91C271.4 186.71 269.29 186.35 265.84 185.91C264.97 185.82 264.14 185.64 263.99 185.05C263.917 184.147 264.123 183.243 264.58 182.46L267.16 175.81C270.75 166.34 273.34 158.55 272.96 158.41C272.58 158.27 269.36 165.83 265.77 175.3C264.91 177.63 264.08 179.86 263.3 181.99C262.751 183.045 262.589 184.258 262.84 185.42C262.968 185.727 263.164 186.001 263.414 186.22C263.663 186.44 263.959 186.601 264.28 186.69C264.762 186.825 265.259 186.895 265.76 186.9C269.23 187.09 271.38 187.1 271.4 186.91Z" fill="#263238"/>
<path d="M269 227.39C280.673 227.565 292.166 224.498 302.2 218.53C302.2 218.53 293.81 235.77 269 233.46V227.39Z" fill="#EB996E"/>
<path d="M272.84 195.15C273.493 194.332 274.342 193.693 275.309 193.292C276.277 192.892 277.329 192.743 278.37 192.86C279.124 192.929 279.856 193.15 280.523 193.509C281.19 193.868 281.777 194.358 282.25 194.95C282.709 195.518 282.981 196.214 283.03 196.942C283.078 197.671 282.9 198.397 282.52 199.02C281.6 200.32 279.67 200.62 278.04 200.16C276.425 199.587 274.94 198.7 273.67 197.55C273.278 197.28 272.939 196.941 272.67 196.55C272.543 196.361 272.475 196.138 272.475 195.91C272.475 195.682 272.543 195.459 272.67 195.27" fill="#EB996E"/>
<path d="M281.46 189.27C280.91 189.27 280.9 192.95 277.72 195.59C274.54 198.23 270.59 197.82 270.56 198.34C270.51 198.57 271.44 199.06 273.11 199.1C275.292 199.136 277.418 198.399 279.11 197.02C280.726 195.695 281.766 193.795 282.01 191.72C282.13 190.17 281.72 189.25 281.46 189.27Z" fill="#263238"/>
<path d="M282.27 155.55C282.61 156.48 286.02 156.04 290.04 156.55C294.06 157.06 297.3 158.13 297.83 157.3C298.07 156.9 297.5 156.02 296.19 155.12C294.444 154.016 292.469 153.325 290.415 153.099C288.362 152.874 286.284 153.121 284.34 153.82C282.87 154.38 282.13 155.11 282.27 155.55Z" fill="#263238"/>
<path d="M251.44 151C252.05 151.78 254.44 151 257.24 150.94C260.04 150.88 262.47 151.46 263.02 150.64C263.26 150.25 262.89 149.47 261.84 148.74C260.441 147.833 258.795 147.386 257.13 147.46C255.466 147.493 253.852 148.037 252.51 149.02C251.51 149.82 251.18 150.62 251.44 151Z" fill="#263238"/>
<path d="M321.22 171.86C321.58 171.68 334.49 165.97 334.64 180.81C334.79 195.65 319.86 192.74 319.83 192.32C319.8 191.9 321.22 171.86 321.22 171.86Z" fill="#FFBE9D"/>
<path d="M324.31 186.65C324.37 186.6 324.57 186.83 325.01 187.02C325.629 187.271 326.321 187.271 326.94 187.02C328.5 186.43 329.8 183.93 329.84 181.25C329.864 179.979 329.604 178.719 329.08 177.56C328.937 177.088 328.679 176.659 328.331 176.31C327.982 175.961 327.552 175.703 327.08 175.56C326.784 175.483 326.47 175.513 326.194 175.645C325.918 175.777 325.697 176.002 325.57 176.28C325.37 176.7 325.47 176.99 325.39 177.02C325.31 177.05 325.07 176.77 325.18 176.16C325.26 175.79 325.464 175.458 325.76 175.22C326.167 174.914 326.674 174.775 327.18 174.83C327.791 174.944 328.363 175.212 328.841 175.61C329.318 176.007 329.687 176.52 329.91 177.1C330.553 178.38 330.872 179.798 330.84 181.23C330.78 184.23 329.28 187.04 327.14 187.68C326.743 187.8 326.323 187.829 325.913 187.765C325.503 187.701 325.112 187.546 324.77 187.31C324.34 187 324.26 186.68 324.31 186.65Z" fill="#EB996E"/>
<path d="M266.47 111.37C258.21 115.64 254.81 132.53 258.23 141.17C261.65 149.81 270.23 155.67 279.32 157.66C288.41 159.65 297.9 158.25 306.86 155.76C307.48 161.76 311.09 167.96 316.93 169.55C324.66 171.65 332.46 164.55 334.18 156.74C335.9 148.93 333.32 140.85 330.77 133.25" fill="#263238"/>
<path d="M331.94 165.22C331.94 165.22 331.57 165.65 330.8 166.3C329.701 167.218 328.556 168.079 327.37 168.88C325.602 170.103 323.656 171.044 321.6 171.67C319.033 172.483 316.273 172.444 313.73 171.56C311.214 170.552 309.103 168.737 307.73 166.4C306.63 164.542 305.903 162.487 305.59 160.35C305.377 158.928 305.3 157.488 305.36 156.05C305.345 155.521 305.409 154.992 305.55 154.48C305.72 154.48 305.55 156.74 306.19 160.24C306.57 162.276 307.319 164.224 308.4 165.99C309.707 168.136 311.665 169.807 313.99 170.76C316.367 171.577 318.941 171.629 321.35 170.91C323.347 170.337 325.253 169.482 327.01 168.37C330.08 166.47 331.85 165.09 331.94 165.22Z" fill="#263238"/>
<path d="M321 239.47C323.61 235.53 330.09 232.32 334.81 231.95C339.53 231.58 344.29 231.8 348.96 231.07C364.51 228.65 371.36 218.42 369.52 203.47C368.79 197.47 366.44 193.47 356.93 181.73C348.8 171.73 344.63 159.59 343.32 147.46L336.76 166.46L339.4 188.24L333.09 201.24L322.55 205.62L321 239.47Z" fill="#263238"/>
<path d="M368.73 238.19C367.36 234.43 365.01 231.12 362.65 227.89C360.143 224.769 358.015 221.361 356.31 217.74L341.31 226.98C341.68 224.623 341.428 222.21 340.58 219.98C339.08 215.98 336.17 212.71 333.32 209.54L323.1 192.8C318.97 204 314.87 207.5 306.57 213.2C298.27 218.9 289.84 222.45 283 234.53C281.11 237.87 277.14 255.3 279.39 257.33C279.39 257.33 298.97 245.4 302.45 244.21C310.99 241.28 319.98 240 328.51 237.21C336.618 238.653 344.074 242.589 349.84 248.47C352.53 251.24 355.13 254.6 358.93 255.32C362.73 256.04 366.93 253.47 368.65 249.86C370.37 246.25 370.1 242 368.73 238.19Z" fill="#263238"/>
<path d="M363 228.17C362.712 227.654 362.399 227.153 362.06 226.67C361.036 225.322 359.759 224.188 358.3 223.33C355.977 221.993 353.512 220.923 350.95 220.14C349.356 219.607 347.791 218.993 346.26 218.3C344.516 217.532 342.921 216.462 341.55 215.14C340.069 213.637 339.001 211.777 338.45 209.74C337.897 207.538 337.744 205.255 338 203C338.4 198.29 340.46 193.65 342 188.71C342.855 186.194 343.36 183.573 343.5 180.92C343.591 178.169 342.971 175.441 341.7 173C341.044 171.761 340.146 170.666 339.06 169.78C337.931 168.902 336.624 168.281 335.23 167.96C333.83 167.6 332.37 167.4 330.9 167.08C329.382 166.818 327.939 166.232 326.67 165.36C325.45 164.405 324.494 163.156 323.89 161.73C323.23 160.37 322.75 158.97 322.15 157.64C321.006 155.016 319.017 152.851 316.5 151.49C314.061 150.181 311.398 149.343 308.65 149.02C305.994 148.724 303.32 148.627 300.65 148.73C298.04 148.78 295.48 148.86 292.99 148.73C286.18 148.379 279.692 145.723 274.59 141.2C271.912 138.813 269.698 135.951 268.06 132.76C266.83 130.357 265.925 127.801 265.37 125.16C265.018 123.495 264.824 121.801 264.79 120.1C264.757 119.507 264.757 118.913 264.79 118.32C264.79 118.32 264.79 118.47 264.79 118.77C264.79 119.07 264.79 119.51 264.79 120.09C264.874 121.773 265.101 123.446 265.47 125.09C266.054 127.703 266.979 130.228 268.22 132.6C269.861 135.74 272.068 138.551 274.73 140.89C278.001 143.716 281.846 145.801 286 147C288.277 147.676 290.627 148.075 293 148.19C295.46 148.33 298 148.25 300.62 148.19C303.306 148.077 305.997 148.167 308.67 148.46C311.471 148.789 314.185 149.644 316.67 150.98C317.949 151.688 319.113 152.589 320.12 153.65C321.134 154.738 321.953 155.993 322.54 157.36C323.16 158.71 323.64 160.11 324.28 161.44C324.873 162.809 325.81 164.001 327 164.9C328.202 165.724 329.565 166.283 331 166.54C332.44 166.85 333.91 167.05 335.36 167.42C336.815 167.765 338.18 168.42 339.36 169.34C340.502 170.267 341.445 171.417 342.13 172.72C343.437 175.25 344.067 178.074 343.96 180.92C343.812 183.618 343.294 186.283 342.42 188.84C340.84 193.84 338.78 198.41 338.42 203.03C338.166 205.238 338.312 207.473 338.85 209.63C339.377 211.611 340.411 213.42 341.85 214.88C343.186 216.179 344.74 217.235 346.44 218C348.04 218.76 349.61 219.33 351.09 219.87C353.662 220.678 356.132 221.783 358.45 223.16C359.919 224.042 361.192 225.216 362.19 226.61C362.52 227.096 362.792 227.62 363 228.17Z" fill="#455A64"/>
<path d="M357.3 217.55C357.396 217.456 357.503 217.376 357.62 217.31C357.84 217.15 358.19 216.97 358.62 216.64C359.822 215.728 360.869 214.627 361.72 213.38C363.063 211.404 363.992 209.175 364.45 206.83C365.081 203.73 365.006 200.527 364.23 197.46C363.251 193.733 361.652 190.197 359.5 187C357.038 183.339 354.367 179.823 351.5 176.47C348.304 172.764 345.493 168.744 343.11 164.47C340.66 159.93 339.71 154.65 337.69 149.7C336.73 147.249 335.304 145.007 333.49 143.1C331.68 141.288 329.573 139.8 327.26 138.7C322.73 136.46 317.87 135.52 313.31 134.62C308.947 133.855 304.64 132.796 300.42 131.45C296.739 130.264 293.193 128.696 289.84 126.77C284.953 123.994 280.761 120.143 277.58 115.51C276.73 114.237 275.981 112.9 275.34 111.51C275.12 111.04 274.98 110.66 274.88 110.42C274.823 110.297 274.776 110.17 274.74 110.04C274.814 110.154 274.878 110.274 274.93 110.4C275.05 110.63 275.2 111 275.44 111.46C276.114 112.815 276.886 114.118 277.75 115.36C280.977 119.892 285.171 123.649 290.03 126.36C293.365 128.255 296.892 129.794 300.55 130.95C304.76 132.268 309.053 133.307 313.4 134.06C317.97 134.95 322.87 135.88 327.49 138.15C329.849 139.28 332.002 140.798 333.86 142.64C335.716 144.601 337.179 146.899 338.17 149.41C340.22 154.41 341.17 159.68 343.56 164.14C345.92 168.409 348.704 172.429 351.87 176.14C354.743 179.513 357.414 183.052 359.87 186.74C362.02 189.97 363.609 193.541 364.57 197.3C365.336 200.422 365.387 203.676 364.72 206.82C364.228 209.194 363.259 211.443 361.87 213.43C360.983 214.675 359.899 215.766 358.66 216.66C358.226 216.985 357.771 217.282 357.3 217.55Z" fill="#455A64"/>
<path d="M285.5 245.81C285.444 245.554 285.413 245.292 285.41 245.03C285.361 244.281 285.361 243.529 285.41 242.78C285.546 240.005 286.151 237.273 287.2 234.7C288.732 230.873 291.005 227.386 293.89 224.44C297.429 220.855 301.513 217.851 305.99 215.54C310.71 213.01 315.54 211.35 319.57 209.17C321.493 208.167 323.3 206.956 324.96 205.56C326.392 204.332 327.623 202.888 328.61 201.28C330.107 198.979 330.883 196.284 330.84 193.54C330.766 192.527 330.598 191.523 330.34 190.54C330.457 190.773 330.551 191.018 330.62 191.27C330.845 191.991 330.986 192.736 331.04 193.49C331.16 196.291 330.42 199.062 328.92 201.43C327.934 203.085 326.696 204.577 325.25 205.85C323.575 207.28 321.747 208.521 319.8 209.55C315.73 211.78 310.91 213.45 306.24 215.96C301.811 218.247 297.763 221.205 294.24 224.73C291.383 227.626 289.112 231.045 287.55 234.8C286.492 237.332 285.84 240.015 285.62 242.75C285.558 243.495 285.534 244.243 285.55 244.99C285.557 245.264 285.54 245.539 285.5 245.81Z" fill="#455A64"/>
<path d="M333.45 128.83C333.39 128.83 333.22 128.02 332.57 126.64C331.628 124.72 330.297 123.017 328.66 121.64C326.229 119.599 323.393 118.096 320.34 117.23C316.579 116.235 312.731 115.598 308.85 115.33C301.749 114.785 294.731 113.443 287.93 111.33C285.33 110.51 283.26 109.73 281.85 109.15C281.14 108.87 280.6 108.63 280.23 108.47C280.039 108.399 279.858 108.305 279.69 108.19C279.89 108.224 280.085 108.284 280.27 108.37L281.92 108.96C283.35 109.48 285.43 110.21 288.04 110.96C294.84 112.97 301.831 114.267 308.9 114.83C312.817 115.11 316.696 115.78 320.48 116.83C323.584 117.738 326.455 119.303 328.9 121.42C330.549 122.849 331.866 124.62 332.76 126.61C332.993 127.151 333.183 127.709 333.33 128.28C333.387 128.459 333.427 128.643 333.45 128.83Z" fill="#455A64"/>
<path d="M308.29 240.08L199 299.76C198.241 300.175 197.403 300.424 196.542 300.491C195.68 300.558 194.813 300.442 194 300.15L119 273.49C118.163 270.302 117.519 267.066 117.07 263.8C116.73 259.61 118.47 252.66 118.47 252.66C113.26 253.23 112.47 259.76 112.47 259.76C112.47 259.76 101.13 259.16 98.7398 262.15C97.3544 264.108 96.3159 266.29 95.6698 268.6C95.3347 269.712 95.3347 270.898 95.6698 272.01C96.1998 273.82 96.7298 276.87 95.1398 278.86C92.7498 281.86 89.1398 285.43 90.3598 290.2C91.5798 294.97 96.4198 303.9 104.36 303.84C110.44 303.84 140.23 330.61 167.03 347.03C177.868 353.65 190.692 356.238 203.25 354.34C226.25 350.89 283.67 326.34 299.83 318.41C323.13 307.07 308.29 240.08 308.29 240.08Z" fill="#FFBE9D"/>
<path d="M115.66 276.57C115.72 276.63 114.95 277.49 113.86 278.98C111.008 282.871 109.033 287.333 108.07 292.06C107.7 293.87 107.59 295.06 107.5 295.01C107.459 294.741 107.459 294.468 107.5 294.2C107.536 293.463 107.613 292.728 107.73 292C108.121 289.588 108.816 287.236 109.8 285C110.788 282.768 112.062 280.674 113.59 278.77C114.031 278.19 114.502 277.632 115 277.1C115.42 276.74 115.63 276.55 115.66 276.57Z" fill="#EB996E"/>
<path d="M283.05 249.05C283.05 249.05 312.26 231.25 324.29 230.79C344.96 230 360.94 242.65 363.12 265.55C364.57 280.8 354.84 322.47 354.49 340.64C356.28 342.3 356.64 344.52 356 347.14L337 332.2C332 329.33 321.6 321.03 319.42 319.48C319.42 319.48 302.2 324.98 285.12 330.26C272.19 334.26 231.05 349.64 223.19 352.43L201.53 297.51L283.05 249.05Z" fill="#E4853B"/>
<path d="M337 318.37C335.627 317.647 334.118 317.218 332.57 317.11C329.57 316.85 325.27 317.75 320.14 319.31C315.01 320.87 308.92 322.87 302.19 325.15C295.46 327.43 288.07 329.98 280.32 332.68L240.7 346.68L228.7 350.94L225.43 352.08L224.57 352.37L224.28 352.45C224.367 352.395 224.461 352.351 224.56 352.32L225.39 351.98L228.63 350.75L240.57 346.34C250.68 342.65 264.66 337.62 280.15 332.21C287.9 329.51 295.29 326.96 302.04 324.71C308.79 322.46 314.87 320.47 320.04 318.98C321.33 318.58 322.57 318.26 323.75 317.98C324.93 317.7 326.05 317.45 327.1 317.27C328.907 316.918 330.753 316.807 332.59 316.94C333.75 317.036 334.886 317.327 335.95 317.8C336.318 317.955 336.67 318.146 337 318.37Z" fill="#263238"/>
<path d="M349.85 329.7C350.42 331.619 351.088 333.509 351.85 335.36C352.758 337.138 353.76 338.867 354.85 340.54C351.911 337.662 350.131 333.804 349.85 329.7Z" fill="#263238"/>
<g opacity="0.3">
<path d="M337.5 321C337.614 320.58 337.609 320.137 337.488 319.718C337.366 319.3 337.131 318.924 336.81 318.63C336.208 318.04 335.453 317.631 334.63 317.45C330.41 316.38 324.38 318.21 319.55 319.59C324.49 323.21 329.36 327.18 334.69 330.78L336.24 331.78C336.445 331.572 336.604 331.323 336.706 331.049C336.808 330.775 336.85 330.482 336.83 330.19C336.56 329.017 336.154 327.879 335.62 326.8C335.358 326.258 335.222 325.663 335.222 325.06C335.222 324.458 335.358 323.863 335.62 323.32C336.15 322.42 337.17 321.92 337.5 321Z" fill="black"/>
</g>
<path d="M244.84 344.52C244.79 344.52 239.12 331.66 232.19 315.75C225.26 299.84 219.67 286.91 219.73 286.89C219.79 286.87 225.44 299.75 232.38 315.66C239.32 331.57 244.89 344.5 244.84 344.52Z" fill="#FAFAFA"/>
<path d="M270.22 334.7L269.93 334.08L269.13 332.28L266.2 325.67C263.71 320.1 260.2 312.44 256.26 303.98C252.32 295.52 248.83 287.85 246.37 282.26C245.14 279.47 244.16 277.2 243.5 275.62C243.19 274.87 242.93 274.27 242.74 273.81C242.55 273.35 242.49 273.17 242.49 273.17L242.78 273.79C242.98 274.25 243.25 274.85 243.57 275.59L246.51 282.2C249 287.78 252.51 295.44 256.45 303.9C260.39 312.36 263.88 320.02 266.34 325.61C267.57 328.41 268.55 330.68 269.21 332.25C269.52 333 269.78 333.6 269.97 334.07C270.16 334.54 270.22 334.7 270.22 334.7Z" fill="#FAFAFA"/>
<path d="M295.88 326.83C295.88 326.83 295.76 326.6 295.56 326.15C295.36 325.7 295.06 325 294.7 324.15L291.51 317C288.79 310.9 284.97 302.52 280.58 293.33C276.19 284.14 272.07 275.9 269.04 269.96L265.42 262.96C265.01 262.16 264.68 261.53 264.42 261.05C264.16 260.57 264.08 260.38 264.08 260.38C264.08 260.38 264.22 260.6 264.45 261.03C264.68 261.46 265.05 262.13 265.45 262.92C266.34 264.56 267.59 266.92 269.13 269.92C272.2 275.85 276.34 284.08 280.73 293.27C285.12 302.46 288.92 310.86 291.6 316.97C292.94 320.02 294.01 322.5 294.73 324.22C295.08 325.04 295.35 325.7 295.56 326.22C295.77 326.74 295.88 326.83 295.88 326.83Z" fill="#FAFAFA"/>
<path d="M314.92 320.14C314.87 320.14 308.15 304.42 299.92 284.99C291.69 265.56 285 249.78 285.08 249.75C285.16 249.72 291.86 265.47 300.08 284.9C308.3 304.33 315 320.11 314.92 320.14Z" fill="#FAFAFA"/>
<path d="M336.5 316.22C336.5 316.22 336.43 315.94 336.33 315.39L335.88 313C335.69 312 335.45 310.7 335.14 309.23C334.83 307.76 334.51 306.08 334.07 304.23C333.26 300.54 332.16 296.18 330.82 291.38C329.48 286.58 327.82 281.38 325.91 275.91C324 270.44 321.91 265.39 319.91 260.8C317.91 256.21 316.02 252.15 314.33 248.8C313.51 247.1 312.7 245.6 312.01 244.26C311.32 242.92 310.72 241.79 310.21 240.87L309.05 238.73C308.79 238.24 308.66 237.98 308.66 237.98C308.66 237.98 311.05 241.98 314.46 248.73C316.17 252.1 318.09 256.17 320.09 260.73C322.09 265.29 324.09 270.41 326.09 275.84C328.09 281.27 329.64 286.52 331 291.32C332.36 296.12 333.41 300.5 334.2 304.2C335.82 311.6 336.5 316.22 336.5 316.22Z" fill="#FAFAFA"/>
<path d="M345.35 235.56C345.35 235.56 345.43 235.82 345.57 236.33L346.17 238.54C346.71 240.46 347.36 243.27 348.08 246.76C348.8 250.25 349.52 254.44 350 259.13C350.31 261.47 350.43 263.94 350.63 266.49C350.83 269.04 350.86 271.71 350.81 274.43C350.825 283.731 349.581 292.992 347.11 301.96C346.87 302.82 346.63 303.63 346.41 304.41L345.67 306.55C345.21 307.89 344.81 309.04 344.4 309.95C343.99 310.86 343.74 311.54 343.52 312.07C343.3 312.6 343.19 312.8 343.19 312.8C343.19 312.8 343.28 312.54 343.48 312.05C343.68 311.56 343.97 310.81 344.33 309.92C344.69 309.03 345.11 307.85 345.56 306.51C345.79 305.84 346.03 305.12 346.28 304.37L346.97 301.92C349.392 292.957 350.613 283.713 350.6 274.43C350.6 271.71 350.52 269.06 350.43 266.51C350.34 263.96 350.11 261.51 349.81 259.15C349.34 254.46 348.59 250.29 347.94 246.79C347.29 243.29 346.61 240.49 346.09 238.56C345.86 237.63 345.67 236.89 345.53 236.34L345.35 235.56Z" fill="#FAFAFA"/>
<path d="M355.91 325.42C355.09 326.262 354.181 327.013 353.2 327.66C350.832 329.242 348.174 330.34 345.38 330.89C342.589 331.469 339.713 331.499 336.91 330.98C335.752 330.777 334.621 330.441 333.54 329.98L333.78 330.04L334.45 330.25C334.798 330.365 335.152 330.462 335.51 330.54C335.981 330.667 336.458 330.767 336.94 330.84C339.724 331.315 342.573 331.267 345.34 330.7C348.108 330.149 350.748 329.08 353.12 327.55C353.839 327.085 354.527 326.574 355.18 326.02L355.72 325.57C355.84 325.46 355.91 325.41 355.91 325.42Z" fill="#FAFAFA"/>
<path d="M352.09 339.52C351.632 340.076 351.04 340.506 350.37 340.77C349.727 341.098 349.012 341.263 348.29 341.25C348.968 341.061 349.635 340.837 350.29 340.58C350.912 340.265 351.513 339.911 352.09 339.52Z" fill="#FAFAFA"/>
<path d="M361.45 288.86C361.45 288.86 361.45 289.01 361.39 289.29C361.33 289.57 361.26 290.04 361.17 290.52C361.08 291 360.95 291.73 360.81 292.46C360.67 293.19 360.4 294.05 360.16 294.99C358.801 299.872 356.649 304.497 353.79 308.68C352.182 310.953 350.364 313.069 348.36 315C346.699 316.555 344.887 317.939 342.95 319.13C341.639 319.935 340.222 320.551 338.74 320.96C338.339 321.077 337.926 321.144 337.51 321.16H337.08L337.51 321.09C337.92 321.052 338.326 320.972 338.72 320.85C340.182 320.414 341.578 319.782 342.87 318.97C344.786 317.767 346.581 316.381 348.23 314.83C350.213 312.898 352.018 310.789 353.62 308.53C356.446 304.385 358.6 299.819 360 295C360.25 294.07 360.52 293.24 360.68 292.49C360.84 291.74 360.96 291.11 361.07 290.55L361.33 289.33C361.41 289 361.45 288.86 361.45 288.86Z" fill="#FAFAFA"/>
<path d="M146.19 190L222.82 211.66L260.37 239.14L269.37 257.69L270.37 272.96C270.375 273.775 270.106 274.569 269.607 275.213C269.107 275.857 268.406 276.315 267.615 276.513C266.824 276.712 265.99 276.639 265.245 276.306C264.501 275.974 263.89 275.401 263.51 274.68C262.51 272.85 261.78 270.06 261.51 265.84L260.51 259.1L255 250.72C255 250.72 255.49 270.62 255.44 275.05C255.44 279.92 253.44 281.1 251.2 281.1C249.65 281.1 245.81 282.46 245.71 270.46C245.56 251.66 242.58 250.36 242.58 250.36C242.58 250.36 242 268 241.07 275.45C240.46 280.6 233.41 279.59 233.07 274.76C232.76 270.16 232.18 257.21 232.18 257.21C231.94 252.27 231.18 248.72 229.38 246.85C229.38 246.85 226.05 268.7 225.12 272.01C223.51 277.77 218.55 273.94 218.55 271.23C218.55 268.52 217.77 246.46 217.77 246.46L203.84 234.85L139.2 228.27L146.19 190Z" fill="#FFBE9D"/>
<path d="M160.61 230.45C160.044 230.487 159.476 230.487 158.91 230.45L154.31 230.14C149.229 229.859 144.168 229.299 139.15 228.46C136.391 227.948 133.676 227.223 131.03 226.29C129.82 225.82 128.66 225.39 127.63 224.87C126.6 224.35 125.63 223.87 124.79 223.4C123.95 222.93 123.21 222.4 122.55 222C121.989 221.643 121.449 221.255 120.93 220.84C120.465 220.519 120.03 220.157 119.63 219.76C120.128 220.026 120.603 220.334 121.05 220.68C121.5 220.98 122.05 221.38 122.71 221.76C123.37 222.14 124.09 222.66 124.97 223.08C125.85 223.5 126.76 224.08 127.81 224.48C128.86 224.88 129.99 225.39 131.19 225.84C133.823 226.734 136.517 227.439 139.25 227.95C145.08 229.02 150.46 229.38 154.34 229.77C156.28 229.96 157.85 230.11 158.93 230.25C159.495 230.265 160.057 230.332 160.61 230.45Z" fill="#EB996E"/>
<path d="M136 228.06C135.117 228.391 134.191 228.59 133.25 228.65C128.699 229.167 124.094 228.409 119.95 226.46C119.079 226.096 118.264 225.612 117.53 225.02C117.53 224.94 118.53 225.46 120.1 226.12C122.167 226.972 124.324 227.589 126.53 227.96C128.737 228.322 130.978 228.43 133.21 228.28C134.94 228.17 136 228 136 228.06Z" fill="#EB996E"/>
<path d="M217.37 246.41C216.411 245.812 215.499 245.143 214.64 244.41C212.99 243.11 210.74 241.3 208.28 239.24C207.083 238.291 206.032 237.173 205.16 235.92C204.441 234.873 203.998 233.663 203.87 232.4C203.78 231.548 203.897 230.687 204.21 229.89C204.306 229.592 204.47 229.322 204.69 229.1C204.258 230.125 204.103 231.246 204.24 232.35C204.405 233.539 204.854 234.671 205.55 235.65C206.428 236.843 207.456 237.919 208.61 238.85C211.06 240.85 213.29 242.76 214.87 244.13C215.762 244.822 216.598 245.584 217.37 246.41Z" fill="#EB996E"/>
<path d="M232.89 235.56C233.186 235.604 233.473 235.695 233.74 235.83C234.28 236.03 235.04 236.35 235.96 236.83C237.05 237.35 238.077 237.994 239.02 238.75C240.198 239.683 241.129 240.892 241.73 242.27C242.297 243.649 242.615 245.119 242.67 246.61C242.731 247.805 242.731 249.004 242.67 250.2C242.654 251.298 242.564 252.394 242.4 253.48C242.264 252.388 242.23 251.287 242.3 250.19C242.3 248.19 242.48 245.29 241.3 242.48C240.728 241.176 239.858 240.025 238.76 239.12C237.855 238.358 236.877 237.688 235.84 237.12C234 236.16 232.86 235.64 232.89 235.56Z" fill="#EB996E"/>
<path d="M255.15 259.32C254.875 258.144 254.774 256.935 254.85 255.73C254.85 254.62 254.85 253.3 254.85 251.83C254.85 250.36 254.96 248.74 254.85 247.08C254.776 245.517 254.413 243.981 253.78 242.55C253.249 241.399 252.403 240.421 251.34 239.73C250.62 239.267 249.801 238.98 248.95 238.89C248.35 238.89 248.01 238.89 248 238.89C248.316 238.757 248.659 238.702 249 238.73C249.907 238.738 250.794 238.991 251.57 239.46C252.734 240.145 253.667 241.162 254.25 242.38C254.942 243.855 255.337 245.452 255.41 247.08C255.491 248.679 255.491 250.281 255.41 251.88C255.41 253.31 255.31 254.62 255.27 255.78C255.23 256.94 255.22 257.78 255.22 258.4C255.225 258.708 255.201 259.016 255.15 259.32Z" fill="#EB996E"/>
<path d="M260.37 239.11C260.298 239.079 260.231 239.039 260.17 238.99L259.62 238.61L257.5 237.11L249.63 231.45L222.63 211.83H222.71C217.71 210.34 212.37 208.83 206.82 207.22C190.05 202.49 174.82 198.41 163.82 195.22C158.33 193.66 153.91 192.33 150.82 191.41L147.31 190.31L146.41 190.02C146.302 189.993 146.198 189.952 146.1 189.9C146.209 189.908 146.317 189.932 146.42 189.97L147.34 190.21L150.88 191.21L163.88 194.87C174.88 197.93 190.13 201.96 206.88 206.69C212.43 208.26 217.79 209.82 222.77 211.32H222.82L249.67 231.08L257.6 237L259.67 238.56L260.2 238.98C260.26 239.018 260.317 239.061 260.37 239.11Z" fill="#EB996E"/>
<path d="M471.06 472.81C471.06 472.95 372.06 473.07 250.06 473.07C128.06 473.07 28.9399 473 28.9399 472.81C28.9399 472.62 127.94 472.55 250.01 472.55C372.08 472.55 471.06 472.66 471.06 472.81Z" fill="#263238"/>
</g>
<defs>
<clipPath id="clip0_201_786">
<rect width="500" height="473" fill="white"/>
</clipPath>
</defs>
</svg>
