<svg width="210" height="210" viewBox="0 0 210 210" fill="none" xmlns="http://www.w3.org/2000/svg">
<path d="M196.148 118.794C203.776 68.4435 169.144 21.4421 118.794 13.8133C68.4433 6.1845 21.442 40.817 13.8132 91.1673C6.18438 141.518 40.8169 188.519 91.1672 196.148C141.517 203.777 188.519 169.144 196.148 118.794Z" fill="#E4853B"/>
<path d="M85.7591 83.1858L93.7879 69.2795L88.8214 66.4121L90.4561 63.5806L103.757 71.26L102.123 74.0915L97.1674 71.2307L89.1386 85.137L85.7591 83.1858ZM109.644 96.9758L105.968 94.8533L106.701 90.2076L100.011 86.3448L96.4343 89.3491L92.8492 87.2793L109.032 74.3054L112.606 76.3686L109.644 96.9758ZM107.245 86.7613L108.525 79.2187L102.678 84.1245L107.245 86.7613ZM111.494 98.0437L121.157 81.3059L124.537 83.2571L120.246 90.6898L131.364 87.199L135.909 89.8225L125.842 92.7031L126.587 106.758L122.215 104.233L122.149 93.7218L117.793 94.937L114.873 99.9949L111.494 98.0437ZM128.346 107.773L138.009 91.0354L150.42 98.2007L148.785 101.032L139.754 95.8181L137.612 99.5287L146.015 104.38L144.387 107.2L135.984 102.349L133.353 106.904L142.704 112.303L141.076 115.123L128.346 107.773ZM63.8197 106.315L60.1433 104.192L60.877 99.5465L54.1864 95.6837L50.6099 98.6881L47.0248 96.6183L63.2077 83.6444L66.7813 85.7076L63.8197 106.315ZM61.4205 96.1002L62.7002 88.5577L56.8536 93.4635L61.4205 96.1002ZM79.8861 107.385L82.563 110.316C81.006 111.853 79.3843 112.728 77.6979 112.942C76.0236 113.153 74.2883 112.739 72.4919 111.702C70.2694 110.419 68.8798 108.607 68.3234 106.266C67.7713 103.918 68.2555 101.427 69.776 98.7931C71.3844 96.0072 73.3518 94.2608 75.6781 93.5539C78.0087 92.8393 80.3462 93.1588 82.6906 94.5123C84.7381 95.6944 86.0519 97.2597 86.6319 99.2082C86.98 100.363 86.9576 101.72 86.5647 103.28L82.758 102.148C83.0611 101.166 83.0417 100.241 82.7 99.3739C82.3659 98.5112 81.7498 97.8205 80.8516 97.302C79.6109 96.5857 78.3453 96.4487 77.0548 96.891C75.7719 97.3377 74.5547 98.5582 73.4033 100.552C72.1817 102.668 71.6921 104.395 71.9347 105.733C72.1773 107.07 72.9076 108.091 74.1254 108.794C75.0236 109.312 75.9609 109.473 76.9375 109.276C77.9141 109.078 78.8969 108.448 79.8861 107.385ZM86.289 119.287L94.3178 105.381L89.3513 102.514L90.9861 99.6822L104.287 107.362L102.652 110.193L97.6974 107.332L89.6685 121.239L86.289 119.287ZM96.713 125.306L106.377 108.568L109.756 110.519L100.093 127.257L96.713 125.306ZM107.411 120.461C108.395 118.756 109.477 117.472 110.655 116.61C111.527 115.977 112.487 115.511 113.532 115.211C114.586 114.916 115.599 114.831 116.572 114.956C117.869 115.117 119.199 115.591 120.562 116.377C123.028 117.801 124.558 119.704 125.151 122.087C125.752 124.474 125.266 127.029 123.693 129.754C122.133 132.456 120.176 134.148 117.824 134.83C115.476 135.504 113.073 135.132 110.614 133.712C108.125 132.275 106.584 130.375 105.989 128.013C105.399 125.642 105.873 123.125 107.411 120.461ZM110.959 122.357C109.865 124.252 109.472 125.944 109.781 127.431C110.093 128.911 110.923 130.039 112.271 130.817C113.618 131.595 115.001 131.749 116.419 131.279C117.849 130.805 119.125 129.598 120.245 127.657C121.353 125.739 121.756 124.064 121.456 122.633C121.164 121.206 120.321 120.09 118.928 119.286C117.535 118.481 116.136 118.313 114.73 118.78C113.328 119.239 112.071 120.431 110.959 122.357ZM121.557 139.65L131.221 122.912L134.509 124.81L134.906 139.943L141.359 128.765L144.499 130.578L134.835 147.316L131.445 145.358L130.999 130.547L124.697 141.462L121.557 139.65ZM142.145 145.782L146.216 136.806L148.484 132.879L151.955 134.882L149.687 138.81L143.961 146.83L142.145 145.782ZM138.957 149.695L140.809 146.487L144.018 148.339L142.165 151.548L138.957 149.695Z" fill="white"/>
</svg>
