<svg width="160" height="161" viewBox="0 0 160 161" fill="none" xmlns="http://www.w3.org/2000/svg">
<g clip-path="url(#clip0_201_494)">
<path d="M158.681 73.8709C150.295 121.218 108.848 160.001 108.848 160.001C108.848 160.001 53.1009 149.734 20.6706 114.357C-6.37888 84.8684 -6.47577 44.3821 18.0045 28.3725C53.101 5.40441 71.5 38 71.5 38C71.5 38 72.8791 -0.386231 114.811 0.00305986C144.042 0.246366 165.662 34.4066 158.681 73.8709Z" fill="#ED1944"/>
<path d="M158.681 73.8709C150.295 121.218 108.848 160.001 108.848 160.001C108.848 160.001 53.1009 149.734 20.6706 114.357C-6.37888 84.8684 -6.47577 44.3821 18.0045 28.3725C53.101 5.40441 71.5 38 71.5 38C71.5 38 72.8791 -0.386231 114.811 0.00305986C144.042 0.246366 165.662 34.4066 158.681 73.8709Z" fill="#ED1944"/>
<path d="M63.8681 82.5761L62.8891 79.4704L70.911 76.9416L73.2258 84.2846C72.6841 85.2847 71.7625 86.3079 70.4612 87.354C69.1656 88.389 67.7591 89.1457 66.2419 89.624C64.314 90.2318 62.5064 90.3592 60.8194 90.0064C59.1297 89.6451 57.6879 88.8279 56.494 87.5547C55.2974 86.2731 54.4204 84.748 53.8628 82.9793C53.2577 81.0597 53.1223 79.2271 53.4567 77.4813C53.7911 75.7356 54.6081 74.2201 55.9078 72.9349C56.8968 71.9504 58.2715 71.1807 60.0318 70.6258C62.3202 69.9044 64.2576 69.8235 65.844 70.3832C67.4361 70.9319 68.6835 71.9947 69.5861 73.5717L66.1075 75.4286C65.5622 74.6052 64.8472 74.0473 63.9625 73.7548C63.0835 73.4513 62.1076 73.4687 61.0346 73.8069C59.4084 74.3196 58.2759 75.2433 57.6369 76.5782C57.0063 77.9105 57.0108 79.5909 57.6502 81.6195C58.3399 83.8073 59.344 85.297 60.6625 86.0886C61.9784 86.8718 63.4243 87.015 65.0002 86.5182C65.7798 86.2724 66.5118 85.8758 67.1962 85.3283C67.8864 84.7697 68.4436 84.184 68.8678 83.5711L68.1306 81.2324L63.8681 82.5761ZM77.4717 85.7384L71.6609 67.3054L85.3285 62.9969L86.3115 66.1152L76.3657 69.2504L77.6539 73.3369L86.9081 70.4196L87.8871 73.5253L78.6329 76.4426L80.2144 81.4595L90.5123 78.2132L91.4913 81.3189L77.4717 85.7384ZM98.7966 79.016L93.9688 63.7013L88.4993 65.4255L87.5163 62.3072L102.165 57.6896L103.148 60.8078L97.6906 62.5281L102.518 77.8427L98.7966 79.016ZM58.1869 124.322L52.3761 105.889L56.0979 104.715L58.3849 111.97L65.6777 109.671L63.3906 102.416L67.1124 101.243L72.9232 119.676L69.2014 120.849L66.6607 112.79L59.3679 115.089L61.9087 123.148L58.1869 124.322ZM76.7833 118.459L70.9725 100.026L84.6401 95.7178L85.6231 98.836L75.6773 101.971L76.9655 106.058L86.2197 103.14L87.1987 106.246L77.9445 109.163L79.526 114.18L89.8239 110.934L90.8029 114.04L76.7833 118.459ZM94.0595 113.013L88.2963 94.7311L92.0181 93.5578L96.8022 108.734L106.056 105.817L107.035 108.923L94.0595 113.013ZM109.701 108.082L103.89 89.6494L109.863 87.7666C112.126 87.0532 113.63 86.6803 114.376 86.648C115.519 86.5917 116.594 86.9165 117.6 87.6223C118.603 88.3198 119.336 89.4019 119.798 90.8689C120.155 92.0005 120.249 93.0166 120.082 93.9173C119.914 94.818 119.582 95.5908 119.085 96.2359C118.594 96.87 118.043 97.3614 117.435 97.71C116.601 98.1661 115.343 98.6597 113.658 99.1909L111.231 99.9559L113.423 106.909L109.701 108.082ZM108.595 91.5944L110.244 96.825L112.281 96.1829C113.748 95.7205 114.698 95.3149 115.132 94.9662C115.566 94.6175 115.856 94.1942 116.003 93.6962C116.159 93.1957 116.151 92.6729 115.979 92.1281C115.768 91.4575 115.396 90.9663 114.865 90.6547C114.333 90.343 113.749 90.2278 113.111 90.309C112.64 90.3653 111.734 90.6048 110.393 91.0276L108.595 91.5944ZM126.736 97.487L122.869 88.4216L121.506 84.0963L125.328 82.8913L126.692 87.2166L128.736 96.8568L126.736 97.487ZM127.468 102.482L126.354 98.9485L129.887 97.8347L131.001 101.368L127.468 102.482Z" fill="white"/>
</g>
<defs>
<clipPath id="clip0_201_494">
<rect width="160" height="161" fill="white"/>
</clipPath>
</defs>
</svg>
