<svg width="42" height="47" viewBox="0 0 42 47" fill="none" xmlns="http://www.w3.org/2000/svg">
<g clip-path="url(#clip0_200_22)">
<path fill-rule="evenodd" clip-rule="evenodd" d="M18.9365 3.51478C17.9505 5.44522 16.8933 7.12358 16.5872 7.24431C16.2811 7.36505 15.2974 7.01943 14.4016 6.47564C13.5057 5.93232 12.7021 5.56043 12.6156 5.64937C12.5292 5.73831 12.9576 8.4858 13.5684 11.7545C14.1788 15.0237 14.6785 17.8624 14.6785 18.0633C14.6785 19.0099 13.3614 18.2016 11.0184 15.8177L8.45272 13.2066L7.87728 14.5504C7.56088 15.2891 7.12483 16.0237 6.90837 16.1822C6.69146 16.3412 5.2112 16.1651 3.61889 15.7919C2.02659 15.4181 0.637305 15.2015 0.53154 15.3103C0.425775 15.4186 0.835838 17.0085 1.44264 18.8426L2.54556 22.1772L1.22036 22.9528C0.491654 23.379 -0.0555461 23.8597 0.00450698 24.021C0.06456 24.1823 2.37347 26.2099 5.13591 28.5265C7.89835 30.8432 10.2669 32.9183 10.3986 33.1381C10.5308 33.3579 10.3466 34.3893 9.98989 35.4303C9.22265 37.6653 8.87891 37.5948 14.9864 36.4561C18.1925 35.8584 19.6925 35.7501 20.025 36.0921C20.3369 36.4128 20.3997 38.3561 20.2092 41.7894C19.9206 46.9816 19.9233 47 20.9334 47C21.944 47 21.9463 46.9862 21.6245 41.9239C21.4 38.3879 21.4551 36.6584 21.8069 36.2229C22.23 35.6985 23.0523 35.7354 26.898 36.4524C32.97 37.5842 32.6823 37.6262 31.9097 35.7243C31.5525 34.8455 31.2635 33.8602 31.267 33.5354C31.2711 33.2105 33.6849 30.9745 36.6315 28.5666C39.5781 26.1588 41.9937 24.085 42 23.9583C42.0058 23.8316 41.4227 23.3841 40.7048 22.9638L39.3989 22.2002L40.4489 18.7011C41.6181 14.8038 41.7131 14.9107 37.902 15.8329C35.0199 16.5306 34.6511 16.4089 33.9582 14.5356L33.463 13.1964L30.8924 15.8121C28.38 18.3688 27.2251 19.0117 27.2287 17.8523C27.2296 17.5357 27.723 14.69 28.3249 11.5296C28.9272 8.36875 29.3525 5.71342 29.2701 5.62909C29.188 5.5443 28.4423 5.90052 27.6137 6.41988C26.7846 6.9397 25.7942 7.36551 25.4119 7.36644C24.9875 7.36782 24.0378 5.93462 22.9694 3.68161C22.0081 1.65394 21.1105 -0.00276155 20.9751 3.45604e-06C20.8393 0.00276846 19.9219 1.58435 18.9365 3.51478Z" fill="#763188"/>
</g>
<defs>
<clipPath id="clip0_200_22">
<rect width="42" height="47" fill="white"/>
</clipPath>
</defs>
</svg>
