<svg width="278" height="326" viewBox="0 0 278 326" fill="none" xmlns="http://www.w3.org/2000/svg">
<g clip-path="url(#clip0_200_479)">
<path d="M138.829 84.0791C144.228 48.4425 119.716 15.176 84.0792 9.77655C48.4425 4.37705 15.1762 28.8891 9.77666 64.5258C4.37716 100.163 28.8892 133.429 64.5259 138.828C100.163 144.228 133.429 119.716 138.829 84.0791Z" fill="#763188"/>
<path opacity="0.1" d="M63.2462 138.628C53.1442 137.002 43.5667 133.021 35.2886 127.007C27.0105 120.993 20.2643 113.115 15.5959 104.01C10.9274 94.9051 8.46774 84.8291 8.41588 74.5971C8.36401 64.3651 10.7214 54.2647 15.2973 45.1128C19.8733 35.961 26.5392 28.0147 34.7559 21.9171C42.9726 15.8194 52.5092 11.7415 62.5943 10.0133C72.6794 8.28504 83.0296 8.95504 92.8077 11.9691C102.586 14.9831 111.517 20.2565 118.879 27.3626C108.725 18.3029 95.6467 13.2062 82.0403 13.0065C68.4339 12.8069 55.2112 17.5177 44.7961 26.2755C34.381 35.0334 27.4711 47.2515 25.3329 60.6904C23.1948 74.1293 25.9717 87.8886 33.1547 99.4462C40.3376 111.004 51.4454 119.586 64.442 123.619C77.4386 127.651 91.4532 126.865 103.917 121.404C116.381 115.943 126.459 106.172 132.305 93.8839C138.15 81.5953 139.37 67.6118 135.742 54.4964C139.12 65.1081 139.723 76.4081 137.494 87.3191C135.265 98.23 130.278 108.388 123.008 116.824C115.739 125.261 106.429 131.694 95.9674 135.511C85.5057 139.328 74.2405 140.401 63.2462 138.628Z" fill="black"/>
<path d="M35.854 55.1359C35.8747 53.8102 36.1595 52.5019 36.6917 51.2875C37.2239 50.0732 37.9929 48.9771 38.9536 48.0634C39.9491 47.0754 41.1562 46.3267 42.4837 45.874C43.8453 45.4185 45.2963 45.2962 46.7149 45.5173C48.1272 45.7563 49.4631 46.3252 50.614 47.1778C51.7292 48.0283 52.6409 49.1166 53.2831 50.3635C53.9048 51.534 54.287 52.8167 54.4074 54.1366C54.5278 55.4566 54.3839 56.7873 53.9842 58.051C53.8422 55.643 53.0424 53.3201 51.6718 51.3352C51.0553 50.4328 50.2641 49.6631 49.3452 49.0715C48.4262 48.48 47.398 48.0787 46.3213 47.8912C45.2413 47.7275 44.1394 47.7849 43.0823 48.0598C42.0251 48.3346 41.0348 48.8212 40.1713 49.4902C38.2394 50.9382 36.7453 52.8921 35.854 55.1359Z" fill="#263238"/>
<path d="M97.354 65.0501C97.3731 63.7253 97.656 62.4175 98.186 61.2032C98.7161 59.9889 99.4828 58.8923 100.441 57.9776C101.439 56.9923 102.645 56.244 103.971 55.7882C105.332 55.3245 106.785 55.2009 108.205 55.4282C109.624 55.6554 110.966 56.2267 112.114 57.092C113.229 57.9426 114.141 59.0308 114.783 60.2777C115.407 61.4473 115.791 62.7301 115.912 64.0505C116.032 65.3708 115.887 66.7019 115.484 67.9652C115.34 65.5577 114.54 63.2355 113.172 61.2494C112.568 60.336 111.781 59.5579 110.861 58.9644C109.941 58.3708 108.908 57.9748 107.827 57.8014C106.746 57.6279 105.64 57.6809 104.581 57.9568C103.521 58.2327 102.53 58.7257 101.671 59.4044C99.7353 60.8483 98.2402 62.8034 97.354 65.0501Z" fill="#263238"/>
<path d="M89.6667 60.8188C89.4727 62.6691 88.9042 64.4606 87.9959 66.0843C87.0875 67.7079 85.8583 69.1298 84.3831 70.2634C82.9078 71.3969 81.2173 72.2185 79.4145 72.678C77.6116 73.1376 75.7342 73.2255 73.8963 72.9364C72.0584 72.6474 70.2985 71.9874 68.7238 70.9967C67.149 70.0059 65.7924 68.7052 64.7363 67.1735C63.6802 65.6418 62.9467 63.9113 62.5806 62.0872C62.2145 60.2631 62.2234 58.3836 62.6067 56.563L89.6667 60.8188Z" fill="#263238"/>
<path d="M85.337 68.8379C83.8187 70.2184 82.0102 71.2409 80.0447 71.8302C78.0791 72.4195 76.0064 72.5607 73.979 72.2432C71.9517 71.9258 70.0213 71.1579 68.3299 69.996C66.6386 68.834 65.2292 67.3077 64.2056 65.5292C67.543 63.4678 71.5077 62.6682 75.3833 63.275C79.2588 63.8818 82.7894 65.855 85.337 68.8379Z" fill="#C95F50"/>
<path d="M34.7962 54.6684C34.7962 54.6684 24.9562 51.2982 18.5479 55.0128C12.1396 58.7274 14.1076 66.0828 20.6266 66.624C27.1456 67.1652 34.7962 54.6684 34.7962 54.6684Z" fill="white"/>
<path d="M117.034 67.9648C117.034 67.9648 127.403 68.7151 131.794 74.6314C136.185 80.5477 131.585 86.5132 125.349 84.4714C119.113 82.4296 117.034 67.9648 117.034 67.9648Z" fill="white"/>
<path d="M168.272 161.121C168.272 150.857 174.5 134.5 151.447 123C195.339 123 197.533 161.121 198.996 161.121C225.331 164.298 278 185.899 278 246.891C278 292.5 247.5 325.5 186 325.5C124.5 325.5 90 299.673 90 246.891C90 194.109 142.182 167.719 168.272 161.121Z" fill="white"/>
<path d="M147.195 238V218.673H149.753V235.719H159.271V238H147.195ZM162.383 238V218.673H176.357V220.954H164.94V226.873H175.632V229.141H164.94V235.719H176.806V238H162.383ZM185.256 238V220.954H178.889V218.673H194.208V220.954H187.814V238H185.256ZM196.396 221.23V218.475H198.941V220.65C198.941 221.828 198.805 222.676 198.532 223.195C198.154 223.907 197.565 224.443 196.766 224.803L196.186 223.867C196.66 223.674 197.012 223.371 197.24 222.958C197.478 222.536 197.609 221.96 197.636 221.23H196.396ZM201.986 231.791L204.399 231.58C204.513 232.546 204.777 233.342 205.19 233.966C205.612 234.581 206.262 235.082 207.141 235.469C208.02 235.847 209.009 236.036 210.107 236.036C211.083 236.036 211.944 235.891 212.691 235.601C213.438 235.311 213.992 234.915 214.353 234.414C214.722 233.904 214.906 233.351 214.906 232.753C214.906 232.146 214.73 231.619 214.379 231.171C214.027 230.714 213.447 230.332 212.639 230.024C212.12 229.822 210.973 229.51 209.198 229.088C207.422 228.657 206.179 228.253 205.467 227.875C204.544 227.392 203.854 226.794 203.397 226.082C202.949 225.361 202.725 224.557 202.725 223.669C202.725 222.694 203.001 221.784 203.555 220.94C204.109 220.088 204.917 219.442 205.981 219.002C207.044 218.563 208.227 218.343 209.527 218.343C210.96 218.343 212.221 218.576 213.311 219.042C214.41 219.499 215.253 220.176 215.842 221.072C216.431 221.969 216.748 222.984 216.792 224.118L214.339 224.302C214.208 223.081 213.759 222.158 212.995 221.534C212.239 220.91 211.118 220.598 209.633 220.598C208.086 220.598 206.957 220.883 206.245 221.455C205.542 222.017 205.19 222.698 205.19 223.498C205.19 224.192 205.44 224.764 205.941 225.212C206.434 225.66 207.717 226.122 209.791 226.596C211.874 227.062 213.302 227.471 214.076 227.822C215.201 228.341 216.031 229 216.567 229.8C217.104 230.591 217.372 231.505 217.372 232.542C217.372 233.57 217.077 234.542 216.488 235.456C215.899 236.361 215.051 237.068 213.944 237.578C212.845 238.079 211.606 238.33 210.226 238.33C208.477 238.33 207.009 238.075 205.823 237.565C204.645 237.055 203.718 236.291 203.041 235.271C202.373 234.243 202.021 233.083 201.986 231.791ZM150.557 269V249.673H157.848C159.131 249.673 160.111 249.734 160.788 249.857C161.737 250.016 162.532 250.319 163.174 250.767C163.815 251.207 164.33 251.826 164.716 252.626C165.112 253.426 165.31 254.305 165.31 255.263C165.31 256.906 164.787 258.299 163.741 259.442C162.695 260.576 160.805 261.143 158.072 261.143H153.115V269H150.557ZM153.115 258.862H158.111C159.764 258.862 160.937 258.554 161.631 257.939C162.326 257.324 162.673 256.458 162.673 255.342C162.673 254.533 162.466 253.843 162.053 253.272C161.649 252.692 161.113 252.31 160.445 252.125C160.014 252.011 159.219 251.954 158.059 251.954H153.115V258.862ZM168.46 269V249.673H171.018V266.719H180.537V269H168.46ZM181.473 269L188.895 249.673H191.65L199.561 269H196.647L194.393 263.146H186.311L184.188 269H181.473ZM187.049 261.063H193.602L191.584 255.711C190.969 254.085 190.512 252.749 190.213 251.703C189.967 252.942 189.62 254.173 189.172 255.395L187.049 261.063ZM205.045 269V260.813L197.596 249.673H200.708L204.518 255.5C205.221 256.59 205.875 257.68 206.482 258.77C207.062 257.759 207.765 256.621 208.591 255.355L212.335 249.673H215.315L207.603 260.813V269H205.045Z" fill="black"/>
</g>
<defs>
<clipPath id="clip0_200_479">
<rect width="278" height="326" fill="white"/>
</clipPath>
</defs>
</svg>
