<svg width="66" height="64" viewBox="0 0 66 64" fill="none" xmlns="http://www.w3.org/2000/svg">
<g clip-path="url(#clip0_226_1287)">
<path d="M59.2721 48.795C63.469 41.9925 64.9671 33.8667 63.4717 26.0159C61.9764 18.1652 57.5959 11.1578 51.1919 6.3721C44.7878 1.58639 36.8238 -0.63121 28.8664 0.155499C20.9089 0.942208 13.534 4.67628 8.19226 10.6232C2.85053 16.5702 -0.0713665 24.2995 0.00132441 32.2909C0.0740153 40.2823 3.13603 47.9573 8.58506 53.8062C14.0341 59.6551 21.4757 63.2545 29.4462 63.8965C37.4166 64.5385 45.339 62.1766 51.6549 57.2753L66 60.6588L59.2721 48.795Z" fill="#ED1944"/>
<path d="M27.0065 15.7902L28.2665 35.7902C28.3242 36.5668 28.6589 37.2967 29.2094 37.8473C29.76 38.3979 30.49 38.7325 31.2665 38.7902C32.0951 38.8364 32.91 38.5637 33.5441 38.0282C34.1781 37.4927 34.5833 36.7349 34.6765 35.9102L36.8965 15.8202C36.9362 15.4623 36.8994 15.0999 36.7884 14.7572C36.6774 14.4146 36.4948 14.0994 36.2527 13.8327C36.0105 13.566 35.7145 13.3539 35.3841 13.2104C35.0538 13.0668 34.6966 12.9952 34.3365 13.0002L29.4565 13.0702C29.1149 13.0815 28.779 13.1616 28.4691 13.3057C28.1591 13.4498 27.8815 13.655 27.6527 13.9089C27.424 14.1629 27.2488 14.4604 27.1378 14.7837C27.0267 15.107 26.9821 15.4493 27.0065 15.7902Z" fill="white"/>
<path d="M36.6063 50.0502C36.3008 50.9628 35.7317 51.7645 34.971 52.3539C34.2102 52.9434 33.2918 53.2942 32.3319 53.3621C31.3719 53.43 30.4133 53.212 29.5771 52.7355C28.7409 52.2591 28.0647 51.5455 27.6337 50.685C27.2028 49.8245 27.0364 48.8556 27.1557 47.9006C27.275 46.9457 27.6746 46.0474 28.304 45.3194C28.9334 44.5913 29.7644 44.0661 30.692 43.8099C31.6197 43.5538 32.6025 43.5782 33.5163 43.8802C34.1258 44.0803 34.6897 44.399 35.1754 44.818C35.6611 45.237 36.0591 45.7481 36.3464 46.3217C36.6336 46.8952 36.8045 47.52 36.8491 48.16C36.8937 48.7999 36.8112 49.4423 36.6063 50.0502Z" fill="white"/>
</g>
<defs>
<clipPath id="clip0_226_1287">
<rect width="66" height="64" fill="white"/>
</clipPath>
</defs>
</svg>
