<svg width="57" height="64" viewBox="0 0 57 64" fill="none" xmlns="http://www.w3.org/2000/svg">
<g clip-path="url(#clip0_226_1288)">
<path d="M52.635 25.245C52.395 20.91 55.92 12.825 55.92 12.825L56.4 11.325L55.83 10.23C55.83 10.23 50.67 3.555 48.045 0.240005C42.15 3.84 32.025 4.845 27.18 0C22.23 4.95 14.265 3.84 8.37002 0.240005C5.92502 3.24 1.305 9.24 0.660004 10.125L0.509994 10.35L0 11.325L0.495026 12.825C0.495026 12.825 4.02001 20.91 3.76501 25.245C3.3076 28.8636 2.50391 32.43 1.36501 35.895C0.230731 39.3915 0.204555 43.153 1.29002 46.665C2.5699 49.5415 4.74213 51.9294 7.48503 53.475C14.145 57.54 22.905 58.23 28.2 63.975C33.51 58.26 42.255 57.57 48.915 53.475C51.6543 51.9294 53.8217 49.541 55.095 46.665C56.43 43.26 55.935 39.435 55.095 35.895C53.9284 32.4341 53.1045 28.8669 52.635 25.245Z" fill="#ED1944"/>
<path d="M28.0802 47.0251C36.3893 47.0251 43.1251 40.2892 43.1251 31.9801C43.1251 23.6709 36.3893 16.9351 28.0802 16.9351C19.771 16.9351 13.0352 23.6709 13.0352 31.9801C13.0352 40.2892 19.771 47.0251 28.0802 47.0251Z" fill="white"/>
<path d="M28.0799 37.7098L34.8449 41.2648L33.5549 33.7348L39.0299 28.3948L31.4549 27.2998L28.0799 20.4448L24.6899 27.2998L17.1299 28.3948L22.6049 33.7348L21.3149 41.2648L28.0799 37.7098Z" fill="#ED1944"/>
</g>
<defs>
<clipPath id="clip0_226_1288">
<rect width="57" height="64" fill="white"/>
</clipPath>
</defs>
</svg>
