<svg width="263" height="263" viewBox="0 0 263 263" fill="none" xmlns="http://www.w3.org/2000/svg">
<g clip-path="url(#clip0_237_1708)">
<path d="M17.8998 227.758L46.2985 227.89L74.6972 227.932L131.5 228.021L188.303 227.937L216.701 227.89L245.105 227.758L216.701 227.632L188.303 227.585L131.5 227.495L74.6972 227.585L46.2985 227.632L17.8998 227.758Z" fill="#263238"/>
<path d="M43.4155 74.2871C43.4543 72.677 43.3928 71.0661 43.2314 69.4637C43.0916 67.8605 42.8545 66.2673 42.5213 64.6929C42.4826 66.3029 42.5441 67.9139 42.7054 69.5163C42.8452 71.1195 43.0823 72.7127 43.4155 74.2871Z" fill="#263238"/>
<path d="M46.2568 74.8394C47.0921 73.463 47.8422 72.0366 48.5028 70.5683C49.1871 69.1114 49.7791 67.6128 50.2754 66.0815C48.6189 68.8447 47.2712 71.7817 46.2568 74.8394Z" fill="#263238"/>
<path d="M48.4341 76.7382C49.8455 75.9642 51.2086 75.1052 52.5159 74.1661C53.8384 73.2454 55.1016 72.2422 56.2979 71.1626C53.4819 72.7299 50.845 74.5995 48.4341 76.7382Z" fill="#263238"/>
<path d="M49.3755 79.4684C52.5967 79.5222 55.814 79.2223 58.9697 78.5742C57.3614 78.5355 55.7522 78.5969 54.1516 78.7583C52.5466 78.8981 50.9517 79.1352 49.3755 79.4684Z" fill="#263238"/>
<path d="M39.1768 82.9766C36.3525 84.5437 33.707 86.4132 31.2868 88.5522C32.7004 87.782 34.0637 86.9229 35.3685 85.98C36.6981 85.0576 37.9699 84.0545 39.1768 82.9766Z" fill="#263238"/>
<path d="M38.2344 80.2468C35.0115 80.1934 31.7925 80.4932 28.6349 81.141C30.2449 81.1799 31.8559 81.1184 33.4583 80.9569C35.0632 80.8171 36.6582 80.58 38.2344 80.2468Z" fill="#263238"/>
<path d="M38.7871 77.4063C37.4107 76.571 35.9843 75.8209 34.516 75.1603C33.059 74.476 31.5605 73.8839 30.0292 73.3877C31.4044 74.2237 32.8289 74.9755 34.2951 75.639C35.7543 76.3207 37.2546 76.9109 38.7871 77.4063Z" fill="#263238"/>
<path d="M40.6855 75.2182C39.9117 73.8056 39.0509 72.4424 38.1082 71.1364C37.1909 69.8128 36.1894 68.5495 35.1099 67.3545C36.6757 70.1796 38.5453 72.8253 40.6855 75.2445V75.2182Z" fill="#263238"/>
<path d="M160.43 193.983C161.014 194.725 210.126 196.929 212.462 196.256C212.575 196.222 212.685 196.176 212.788 196.119C215.681 194.762 228.094 185.388 230.072 181.438C231.65 178.282 222.293 161.008 219.026 158.047C216.854 156.085 212.825 155.312 212.825 155.312C212.825 155.312 201.453 122.489 194.441 115.62C192.679 113.894 162.223 113.221 156.785 115.704C154.454 116.756 148.789 122.542 148.632 123.594C148.5 125.114 159.856 193.231 160.43 193.983Z" fill="#37474F"/>
<path d="M160.094 193.983C160.678 194.725 209.785 196.929 212.126 196.255C212.239 196.22 212.348 196.175 212.452 196.119C207.718 183.395 185.626 123.694 184.995 123.31C184.364 122.926 155.265 123.099 148.296 123.604C148.149 125.114 159.505 193.231 160.094 193.983Z" fill="#263238"/>
<path d="M178.131 118.04C178.62 117.577 178.946 110.907 178.041 109.576C177.031 108.088 165.354 108.824 164.665 110.102C163.976 111.38 163.645 118.04 163.997 118.282C164.349 118.524 166.296 118.75 166.559 118.324C166.822 117.898 166.806 112.385 167.011 112.091C167.216 111.796 175.395 111.27 175.679 111.691C175.963 112.112 175.274 117.687 175.601 117.929C175.927 118.171 177.652 118.492 178.131 118.04Z" fill="#37474F"/>
<path d="M202.246 148.345L205.852 146.655L207.796 150.803L204.19 152.493L202.246 148.345Z" fill="#DBDBDB"/>
<path d="M202.42 151.682L208.298 148.928L210.517 153.662L204.639 156.416L202.42 151.682Z" fill="#C7C7C7"/>
<path d="M203.347 164.175L213.504 185.846L227.475 179.292L217.323 157.626C215.308 153.339 211.063 151.314 206.803 153.302C202.542 155.291 201.338 159.904 203.347 164.175Z" fill="#E4853B"/>
<path opacity="0.1" d="M203.347 164.175L213.504 185.846L227.475 179.292L217.323 157.626C215.308 153.339 211.063 151.314 206.803 153.302C202.542 155.291 201.338 159.904 203.347 164.175Z" fill="black"/>
<path d="M208.296 154.57C208.331 154.642 208.379 154.706 208.438 154.759C208.498 154.811 208.567 154.852 208.642 154.878C208.717 154.904 208.796 154.915 208.875 154.911C208.955 154.906 209.032 154.886 209.104 154.852C209.175 154.817 209.239 154.769 209.292 154.71C209.345 154.65 209.385 154.581 209.412 154.506C209.438 154.431 209.449 154.352 209.444 154.273C209.44 154.193 209.42 154.116 209.385 154.044C209.315 153.9 209.191 153.789 209.04 153.736C208.888 153.684 208.722 153.693 208.578 153.763C208.433 153.833 208.323 153.957 208.27 154.108C208.217 154.26 208.227 154.426 208.296 154.57Z" fill="white"/>
<path d="M203.641 162.718C203.692 162.825 203.773 162.915 203.874 162.976C203.976 163.037 204.093 163.066 204.212 163.061C204.33 163.055 204.444 163.015 204.539 162.945C204.635 162.874 204.707 162.777 204.747 162.666C204.788 162.555 204.794 162.434 204.766 162.319C204.738 162.204 204.676 162.1 204.588 162.02C204.501 161.94 204.392 161.887 204.275 161.869C204.158 161.851 204.038 161.868 203.931 161.918C203.859 161.952 203.795 161.999 203.741 162.057C203.688 162.115 203.647 162.184 203.62 162.258C203.593 162.332 203.581 162.411 203.585 162.49C203.588 162.569 203.608 162.646 203.641 162.718Z" fill="white"/>
<path d="M210.079 160.367C210.113 160.438 210.16 160.502 210.219 160.555C210.277 160.607 210.346 160.648 210.42 160.675C210.494 160.701 210.573 160.712 210.652 160.708C210.73 160.704 210.807 160.685 210.879 160.651C210.95 160.616 211.013 160.568 211.066 160.509C211.118 160.45 211.159 160.381 211.185 160.306C211.21 160.231 211.221 160.152 211.217 160.073C211.212 159.994 211.192 159.917 211.157 159.846C211.123 159.775 211.075 159.711 211.015 159.659C210.956 159.606 210.887 159.566 210.813 159.54C210.738 159.514 210.659 159.503 210.58 159.508C210.501 159.513 210.424 159.533 210.353 159.567C210.212 159.638 210.104 159.762 210.053 159.911C210.002 160.061 210.011 160.224 210.079 160.367Z" fill="white"/>
<path d="M211.978 165.821C212.011 165.894 212.057 165.958 212.116 166.012C212.174 166.066 212.242 166.107 212.317 166.134C212.391 166.161 212.47 166.173 212.549 166.169C212.628 166.165 212.706 166.145 212.777 166.111C212.884 166.06 212.974 165.979 213.035 165.877C213.096 165.776 213.126 165.659 213.12 165.54C213.115 165.422 213.074 165.308 213.004 165.213C212.934 165.117 212.837 165.045 212.725 165.005C212.614 164.964 212.493 164.958 212.378 164.986C212.263 165.014 212.159 165.076 212.079 165.164C211.999 165.251 211.947 165.36 211.929 165.477C211.911 165.594 211.928 165.714 211.978 165.821Z" fill="white"/>
<path d="M220.152 168.619C220.185 168.691 220.232 168.756 220.29 168.81C220.348 168.864 220.417 168.905 220.491 168.932C220.566 168.959 220.645 168.971 220.724 168.967C220.803 168.963 220.88 168.943 220.952 168.909C221.023 168.874 221.087 168.826 221.139 168.767C221.192 168.708 221.232 168.639 221.258 168.564C221.284 168.489 221.295 168.41 221.29 168.331C221.285 168.252 221.265 168.175 221.231 168.104C221.196 168.033 221.148 167.969 221.089 167.917C221.03 167.864 220.961 167.824 220.886 167.798C220.811 167.772 220.732 167.761 220.653 167.766C220.574 167.77 220.497 167.791 220.426 167.825C220.355 167.859 220.292 167.906 220.24 167.965C220.188 168.023 220.148 168.091 220.123 168.165C220.097 168.239 220.087 168.317 220.092 168.395C220.097 168.473 220.117 168.549 220.152 168.619Z" fill="white"/>
<path d="M218.427 163.528C218.462 163.599 218.51 163.663 218.569 163.716C218.629 163.769 218.698 163.81 218.773 163.836C218.848 163.862 218.927 163.873 219.006 163.868C219.085 163.864 219.163 163.844 219.235 163.809C219.306 163.775 219.37 163.726 219.423 163.667C219.476 163.608 219.516 163.539 219.542 163.464C219.569 163.389 219.58 163.309 219.575 163.23C219.571 163.151 219.551 163.073 219.516 163.002C219.446 162.857 219.322 162.747 219.171 162.694C219.019 162.641 218.853 162.651 218.709 162.72C218.564 162.79 218.453 162.914 218.401 163.066C218.348 163.217 218.357 163.383 218.427 163.528Z" fill="white"/>
<path d="M215.886 158.462C215.921 158.534 215.969 158.598 216.028 158.651C216.087 158.703 216.157 158.744 216.232 158.77C216.307 158.796 216.386 158.808 216.465 158.803C216.544 158.798 216.622 158.778 216.694 158.744C216.765 158.709 216.829 158.661 216.882 158.602C216.935 158.542 216.975 158.473 217.001 158.398C217.028 158.323 217.039 158.244 217.034 158.165C217.03 158.085 217.009 158.008 216.975 157.936C216.905 157.792 216.781 157.681 216.63 157.628C216.478 157.576 216.312 157.585 216.168 157.655C216.023 157.725 215.912 157.849 215.86 158C215.807 158.152 215.816 158.318 215.886 158.462Z" fill="white"/>
<path d="M212.057 156.432C212.107 156.54 212.188 156.631 212.289 156.693C212.39 156.754 212.508 156.785 212.627 156.78C212.745 156.775 212.86 156.735 212.956 156.665C213.051 156.595 213.124 156.498 213.165 156.386C213.206 156.274 213.212 156.153 213.184 156.038C213.156 155.923 213.094 155.818 213.006 155.738C212.918 155.658 212.809 155.606 212.691 155.588C212.574 155.57 212.454 155.587 212.347 155.638C212.203 155.705 212.092 155.827 212.038 155.975C211.984 156.124 211.991 156.288 212.057 156.432Z" fill="white"/>
<path d="M214.041 162.086C214.091 162.194 214.172 162.283 214.274 162.344C214.375 162.406 214.493 162.435 214.611 162.43C214.729 162.424 214.843 162.384 214.939 162.313C215.034 162.243 215.107 162.146 215.147 162.035C215.187 161.923 215.194 161.802 215.165 161.687C215.137 161.572 215.075 161.468 214.988 161.388C214.9 161.308 214.791 161.256 214.674 161.238C214.557 161.22 214.437 161.237 214.33 161.287C214.258 161.32 214.194 161.367 214.141 161.426C214.087 161.484 214.046 161.552 214.019 161.627C213.992 161.701 213.98 161.78 213.984 161.859C213.988 161.938 214.007 162.015 214.041 162.086Z" fill="white"/>
<path d="M205.961 158.71C206.011 158.817 206.092 158.906 206.194 158.967C206.295 159.029 206.413 159.058 206.531 159.053C206.649 159.047 206.763 159.007 206.859 158.936C206.954 158.866 207.026 158.769 207.067 158.658C207.107 158.546 207.113 158.425 207.085 158.31C207.057 158.195 206.995 158.091 206.908 158.011C206.82 157.931 206.711 157.879 206.594 157.861C206.477 157.843 206.357 157.86 206.25 157.91C206.178 157.943 206.114 157.99 206.061 158.049C206.007 158.107 205.966 158.175 205.939 158.25C205.912 158.324 205.9 158.403 205.904 158.482C205.908 158.561 205.927 158.638 205.961 158.71Z" fill="white"/>
<path d="M207.77 164.306C207.821 164.413 207.902 164.503 208.003 164.564C208.105 164.625 208.222 164.655 208.341 164.649C208.459 164.644 208.573 164.603 208.668 164.533C208.764 164.463 208.836 164.366 208.876 164.254C208.917 164.143 208.923 164.022 208.895 163.907C208.866 163.792 208.805 163.688 208.717 163.608C208.63 163.528 208.521 163.476 208.404 163.458C208.287 163.44 208.167 163.457 208.059 163.507C207.988 163.54 207.923 163.587 207.87 163.645C207.817 163.704 207.775 163.772 207.749 163.846C207.722 163.921 207.71 163.999 207.713 164.078C207.717 164.157 207.736 164.235 207.77 164.306Z" fill="white"/>
<path d="M216.123 167.268C216.173 167.375 216.254 167.465 216.356 167.526C216.457 167.587 216.575 167.616 216.693 167.611C216.811 167.605 216.925 167.565 217.021 167.494C217.116 167.424 217.189 167.327 217.229 167.216C217.269 167.104 217.276 166.984 217.247 166.869C217.219 166.753 217.157 166.649 217.07 166.569C216.982 166.489 216.873 166.437 216.756 166.419C216.639 166.401 216.519 166.418 216.412 166.468C216.34 166.501 216.276 166.549 216.223 166.607C216.169 166.665 216.128 166.733 216.101 166.808C216.074 166.882 216.062 166.961 216.066 167.04C216.07 167.119 216.089 167.196 216.123 167.268Z" fill="white"/>
<path d="M212.273 174.337C212.324 174.445 212.405 174.534 212.506 174.595C212.608 174.656 212.725 174.686 212.843 174.681C212.962 174.675 213.076 174.635 213.171 174.564C213.267 174.494 213.339 174.397 213.379 174.286C213.42 174.174 213.426 174.053 213.398 173.938C213.369 173.823 213.308 173.719 213.22 173.639C213.133 173.559 213.024 173.507 212.907 173.489C212.79 173.471 212.67 173.488 212.562 173.538C212.491 173.571 212.426 173.618 212.373 173.677C212.32 173.735 212.278 173.803 212.252 173.878C212.225 173.952 212.213 174.031 212.216 174.11C212.22 174.189 212.239 174.266 212.273 174.337Z" fill="white"/>
<path d="M214.277 178.393C214.328 178.5 214.409 178.59 214.51 178.651C214.612 178.712 214.729 178.741 214.847 178.736C214.966 178.73 215.08 178.69 215.175 178.619C215.27 178.549 215.343 178.452 215.383 178.341C215.423 178.229 215.43 178.109 215.402 177.994C215.373 177.878 215.312 177.774 215.224 177.694C215.137 177.614 215.028 177.562 214.911 177.544C214.793 177.526 214.674 177.543 214.566 177.593C214.495 177.626 214.43 177.674 214.377 177.732C214.324 177.79 214.282 177.858 214.255 177.933C214.229 178.007 214.217 178.086 214.22 178.165C214.224 178.244 214.243 178.321 214.277 178.393Z" fill="white"/>
<path d="M217.859 171.838C217.892 171.91 217.939 171.974 217.997 172.028C218.056 172.081 218.124 172.122 218.198 172.149C218.273 172.176 218.351 172.188 218.43 172.184C218.509 172.181 218.587 172.161 218.658 172.128C218.765 172.077 218.855 171.996 218.916 171.895C218.977 171.793 219.007 171.676 219.001 171.557C218.996 171.439 218.955 171.325 218.885 171.23C218.815 171.134 218.718 171.062 218.606 171.022C218.495 170.981 218.374 170.975 218.259 171.003C218.144 171.031 218.04 171.093 217.96 171.181C217.88 171.268 217.828 171.377 217.81 171.494C217.792 171.611 217.809 171.731 217.859 171.838Z" fill="white"/>
<path d="M223.503 176.978C223.538 177.049 223.586 177.113 223.645 177.166C223.705 177.219 223.774 177.26 223.849 177.286C223.924 177.312 224.003 177.323 224.082 177.319C224.162 177.314 224.239 177.294 224.311 177.259C224.382 177.225 224.446 177.177 224.499 177.117C224.552 177.058 224.593 176.989 224.619 176.914C224.645 176.839 224.656 176.76 224.651 176.68C224.647 176.601 224.627 176.523 224.592 176.452C224.522 176.308 224.398 176.197 224.247 176.144C224.095 176.091 223.929 176.101 223.785 176.171C223.64 176.24 223.53 176.365 223.477 176.516C223.424 176.667 223.434 176.834 223.503 176.978Z" fill="white"/>
<path d="M213.893 170.708C213.944 170.815 214.025 170.904 214.126 170.966C214.228 171.027 214.345 171.056 214.464 171.051C214.582 171.045 214.696 171.005 214.791 170.934C214.887 170.864 214.959 170.767 214.999 170.656C215.04 170.544 215.046 170.423 215.018 170.308C214.989 170.193 214.928 170.089 214.84 170.009C214.753 169.929 214.644 169.877 214.527 169.859C214.41 169.841 214.29 169.858 214.183 169.908C214.111 169.941 214.047 169.989 213.993 170.047C213.94 170.105 213.899 170.173 213.872 170.248C213.845 170.322 213.833 170.401 213.837 170.48C213.84 170.559 213.859 170.636 213.893 170.708Z" fill="white"/>
<path d="M215.897 175.158C215.948 175.265 216.029 175.355 216.13 175.416C216.232 175.477 216.349 175.506 216.467 175.501C216.586 175.495 216.7 175.455 216.795 175.385C216.891 175.314 216.963 175.217 217.003 175.106C217.044 174.995 217.05 174.874 217.022 174.759C216.993 174.644 216.932 174.54 216.844 174.46C216.757 174.38 216.648 174.327 216.531 174.309C216.414 174.291 216.294 174.308 216.186 174.358C216.115 174.392 216.05 174.439 215.997 174.497C215.944 174.555 215.902 174.624 215.876 174.698C215.849 174.772 215.837 174.851 215.84 174.93C215.844 175.009 215.863 175.086 215.897 175.158Z" fill="white"/>
<path d="M217.964 179.571C218.015 179.678 218.096 179.768 218.198 179.829C218.299 179.89 218.417 179.92 218.535 179.914C218.653 179.908 218.767 179.868 218.863 179.798C218.958 179.727 219.03 179.63 219.071 179.519C219.111 179.408 219.117 179.287 219.089 179.172C219.061 179.057 218.999 178.953 218.912 178.873C218.824 178.793 218.715 178.74 218.598 178.722C218.481 178.704 218.361 178.721 218.254 178.771C218.182 178.805 218.118 178.852 218.064 178.91C218.011 178.968 217.97 179.037 217.943 179.111C217.916 179.185 217.904 179.264 217.908 179.343C217.912 179.422 217.931 179.499 217.964 179.571Z" fill="white"/>
<path d="M216.15 182.911C216.218 183.055 216.341 183.166 216.49 183.22C216.64 183.274 216.805 183.267 216.949 183.2C217.021 183.166 217.085 183.117 217.138 183.058C217.191 182.999 217.231 182.93 217.257 182.855C217.283 182.78 217.295 182.701 217.29 182.621C217.285 182.542 217.265 182.464 217.231 182.393C217.196 182.321 217.148 182.257 217.089 182.205C217.029 182.152 216.96 182.111 216.885 182.085C216.81 182.059 216.731 182.048 216.652 182.052C216.572 182.057 216.495 182.077 216.423 182.111C216.282 182.183 216.175 182.306 216.124 182.456C216.073 182.605 216.082 182.768 216.15 182.911Z" fill="white"/>
<path d="M221.625 172.796C221.695 172.94 221.819 173.051 221.971 173.104C222.122 173.157 222.288 173.147 222.433 173.077C222.577 173.007 222.688 172.883 222.741 172.732C222.794 172.58 222.784 172.414 222.714 172.27C222.68 172.198 222.631 172.134 222.572 172.082C222.513 172.029 222.444 171.988 222.369 171.962C222.294 171.936 222.214 171.925 222.135 171.929C222.056 171.934 221.978 171.954 221.907 171.988C221.835 172.023 221.771 172.071 221.718 172.13C221.666 172.19 221.625 172.259 221.599 172.334C221.573 172.409 221.562 172.488 221.566 172.567C221.571 172.647 221.591 172.724 221.625 172.796Z" fill="white"/>
<path d="M219.821 176.031C219.871 176.138 219.953 176.228 220.054 176.289C220.156 176.35 220.273 176.379 220.391 176.374C220.51 176.368 220.624 176.328 220.719 176.258C220.814 176.187 220.887 176.09 220.927 175.979C220.967 175.868 220.974 175.747 220.946 175.632C220.917 175.517 220.855 175.413 220.768 175.333C220.681 175.253 220.572 175.2 220.455 175.182C220.337 175.164 220.218 175.181 220.11 175.231C220.039 175.265 219.974 175.312 219.921 175.37C219.868 175.428 219.826 175.497 219.799 175.571C219.773 175.645 219.761 175.724 219.764 175.803C219.768 175.882 219.787 175.959 219.821 176.031Z" fill="white"/>
<path d="M212.604 182.085C212.655 182.192 212.736 182.282 212.837 182.343C212.939 182.404 213.056 182.434 213.175 182.428C213.293 182.423 213.407 182.382 213.502 182.312C213.598 182.242 213.67 182.145 213.71 182.033C213.751 181.922 213.757 181.801 213.729 181.686C213.7 181.571 213.639 181.467 213.551 181.387C213.464 181.307 213.355 181.255 213.238 181.236C213.121 181.218 213.001 181.236 212.893 181.285C212.75 181.354 212.639 181.476 212.585 181.626C212.53 181.776 212.537 181.94 212.604 182.085Z" fill="white"/>
<path d="M221.704 180.36C221.754 180.467 221.835 180.557 221.937 180.618C222.038 180.679 222.156 180.709 222.274 180.703C222.392 180.697 222.507 180.657 222.602 180.587C222.697 180.516 222.77 180.419 222.81 180.308C222.85 180.197 222.857 180.076 222.828 179.961C222.8 179.846 222.738 179.742 222.651 179.662C222.564 179.582 222.454 179.529 222.337 179.511C222.22 179.493 222.1 179.51 221.993 179.56C221.921 179.594 221.857 179.641 221.804 179.699C221.75 179.757 221.709 179.826 221.682 179.9C221.655 179.974 221.643 180.053 221.647 180.132C221.651 180.211 221.67 180.288 221.704 180.36Z" fill="white"/>
<path d="M208.454 173.443C208.504 173.55 208.585 173.64 208.687 173.701C208.788 173.762 208.906 173.792 209.024 173.786C209.142 173.78 209.257 173.74 209.352 173.67C209.447 173.599 209.52 173.502 209.56 173.391C209.6 173.28 209.607 173.159 209.578 173.044C209.55 172.929 209.488 172.825 209.401 172.745C209.314 172.665 209.204 172.612 209.087 172.594C208.97 172.576 208.85 172.593 208.743 172.643C208.671 172.677 208.607 172.724 208.554 172.782C208.5 172.84 208.459 172.909 208.432 172.983C208.405 173.057 208.393 173.136 208.397 173.215C208.401 173.294 208.42 173.371 208.454 173.443Z" fill="white"/>
<path d="M210.453 177.714C210.503 177.821 210.584 177.911 210.686 177.972C210.787 178.033 210.905 178.063 211.023 178.057C211.141 178.051 211.256 178.011 211.351 177.941C211.446 177.87 211.519 177.773 211.559 177.662C211.599 177.551 211.606 177.43 211.577 177.315C211.549 177.2 211.487 177.096 211.4 177.016C211.313 176.936 211.203 176.883 211.086 176.865C210.969 176.847 210.849 176.864 210.742 176.914C210.67 176.948 210.606 176.995 210.553 177.053C210.499 177.111 210.458 177.18 210.431 177.254C210.404 177.328 210.392 177.407 210.396 177.486C210.4 177.565 210.419 177.642 210.453 177.714Z" fill="white"/>
<path d="M210.069 169.929C210.12 170.036 210.201 170.126 210.302 170.187C210.404 170.248 210.521 170.278 210.639 170.272C210.758 170.267 210.872 170.226 210.967 170.156C211.062 170.086 211.135 169.989 211.175 169.877C211.215 169.766 211.222 169.645 211.194 169.53C211.165 169.415 211.104 169.311 211.016 169.231C210.929 169.151 210.82 169.099 210.703 169.081C210.585 169.063 210.466 169.08 210.358 169.13C210.287 169.163 210.222 169.21 210.169 169.269C210.116 169.327 210.074 169.395 210.047 169.469C210.021 169.544 210.009 169.623 210.012 169.701C210.016 169.78 210.035 169.858 210.069 169.929Z" fill="white"/>
<path d="M205.85 168.599C205.901 168.706 205.982 168.796 206.083 168.857C206.185 168.918 206.302 168.947 206.421 168.942C206.539 168.936 206.653 168.896 206.748 168.825C206.844 168.755 206.916 168.658 206.956 168.547C206.997 168.435 207.003 168.315 206.975 168.2C206.947 168.085 206.885 167.98 206.797 167.9C206.71 167.82 206.601 167.768 206.484 167.75C206.367 167.732 206.247 167.749 206.14 167.799C206.068 167.832 206.004 167.88 205.95 167.938C205.897 167.996 205.856 168.064 205.829 168.139C205.802 168.213 205.79 168.292 205.794 168.371C205.797 168.45 205.817 168.527 205.85 168.599Z" fill="white"/>
<path d="M229.11 179.602C227.932 185.388 215.076 191.627 214.198 191.6C213.319 191.574 204.788 170.455 204.788 170.455C204.788 170.455 215.187 167.036 219.868 160.956C219.868 160.956 229.478 177.788 229.11 179.602Z" fill="#455A64"/>
<path d="M129.875 227.547H179.63C182.659 215.975 185.442 205.766 187.214 199.317C188.33 195.261 189.045 192.689 189.182 192.205C189.189 192.177 189.198 192.149 189.208 192.121H137.465L135.887 199.375C135.261 202.31 134.467 206.013 133.552 210.247C133.478 210.615 133.394 210.989 133.315 211.378C132.274 216.228 131.101 221.724 129.875 227.547Z" fill="#455A64"/>
<path d="M172.086 227.547H173.023C175.568 218.167 178.053 208.769 180.476 199.354L180.676 198.559C180.723 198.344 180.402 198.244 180.339 198.46C180.25 198.759 180.16 199.054 180.076 199.354C177.331 208.727 174.69 218.132 172.086 227.547Z" fill="#263238"/>
<path d="M141.494 192.205C141.9 194.664 142.49 197.089 143.261 199.459C143.84 201.342 144.539 203.378 145.328 205.476C145.497 205.955 145.686 206.418 145.854 206.891C148.363 213.282 151.64 219.794 155.028 222.887H155.054C155.451 223.267 155.885 223.607 156.348 223.902L159.231 225.685C159.227 225.699 159.227 225.713 159.231 225.727C159.231 225.901 159.362 226.527 159.525 227.537H208.091C209.332 216.291 206.744 205.771 204.488 199.175C203.698 196.79 202.756 194.459 201.668 192.195L141.494 192.205Z" fill="#455A64"/>
<path d="M147.28 220.147C150.332 221.823 153.476 223.326 156.696 224.649C157.553 225.018 158.411 225.38 159.284 225.733C159.336 225.733 159.389 225.78 159.442 225.796C160.192 226.108 160.944 226.408 161.698 226.695C162.435 226.98 163.166 227.274 163.913 227.548H165.554C164.423 226.98 163.239 226.496 162.087 225.97C160.488 225.268 158.884 224.567 157.274 223.866C156.543 223.55 155.812 223.229 155.086 222.903H155.06C152.551 221.788 150.052 220.673 147.47 219.747C147.212 219.621 147.044 220.01 147.28 220.147Z" fill="#263238"/>
<path d="M159.257 225.77C159.257 226.148 159.289 226.774 159.363 227.548H159.889C159.72 226.822 159.568 226.227 159.421 225.796C159.422 225.78 159.422 225.764 159.421 225.749C159.394 225.68 159.3 225.675 159.279 225.749C159.279 225.749 159.257 225.754 159.257 225.77Z" fill="#263238"/>
<path d="M196.971 195.23C197.629 196.545 198.223 197.86 198.776 199.238C202.125 207.475 203.39 216.411 202.458 225.254C202.368 226.022 202.258 226.785 202.142 227.547H202.984C203.316 225.326 203.509 223.086 203.562 220.841C203.736 213.414 202.289 206.039 199.323 199.228C198.702 197.813 198.013 196.424 197.261 195.072C197.25 195.053 197.236 195.036 197.22 195.023C197.203 195.009 197.183 194.999 197.163 194.993C197.142 194.987 197.12 194.985 197.099 194.987C197.077 194.99 197.056 194.996 197.037 195.006C197.018 195.017 197.001 195.031 196.988 195.048C196.974 195.064 196.964 195.084 196.958 195.105C196.952 195.125 196.95 195.147 196.952 195.169C196.955 195.19 196.961 195.211 196.971 195.23Z" fill="#263238"/>
<path d="M160.478 212.23C160.43 210.357 160.299 208.49 160.204 206.623C159.988 202.215 159.815 197.781 159.405 193.389C159.405 193.352 159.39 193.318 159.365 193.292C159.339 193.266 159.304 193.252 159.268 193.252C159.232 193.252 159.197 193.266 159.171 193.292C159.145 193.318 159.131 193.352 159.131 193.389C159.078 196.797 159.21 200.227 159.278 203.63C159.315 205.334 159.362 207.044 159.41 208.748C159.502 210.375 159.512 212.006 159.441 213.634C159.352 214.865 159.084 217.253 157.479 217.401C155.965 217.543 154.771 215.912 154.392 214.718C153.434 211.678 153.093 208.406 152.782 205.25C152.598 203.383 152.382 195.782 152.482 193.878C152.482 193.757 152.304 193.762 152.293 193.878C152.188 195.803 151.925 197.718 151.862 199.664C151.799 201.61 151.793 203.514 151.914 205.45C152.035 207.291 152.188 209.132 152.467 210.968C152.654 212.636 153.051 214.275 153.65 215.844C154.208 217.138 155.165 218.326 156.617 218.61C156.791 218.64 156.966 218.658 157.143 218.663C157.143 219.058 157.216 219.457 157.243 219.847C157.285 220.467 157.364 221.077 157.448 221.693C157.533 222.296 157.658 222.894 157.821 223.481C157.953 224.075 158.166 224.649 158.453 225.185C158.464 225.202 158.479 225.215 158.498 225.222C158.517 225.229 158.537 225.23 158.556 225.225C158.576 225.219 158.593 225.208 158.605 225.193C158.618 225.177 158.625 225.158 158.626 225.138C158.64 224.547 158.591 223.956 158.479 223.376C158.395 222.776 158.311 222.166 158.19 221.577C158.069 220.988 157.958 220.404 157.837 219.82C157.758 219.431 157.706 219.026 157.632 218.631C158.101 218.549 158.541 218.352 158.915 218.057C159.289 217.762 159.583 217.38 159.773 216.943C160.462 215.486 160.514 213.787 160.478 212.23Z" fill="#263238"/>
<path d="M161.372 127.66C155.097 135.524 130.491 163.428 116.815 166.032C107.604 167.794 78.0169 152.734 71.5366 147.28C68.9066 145.049 83.703 122.973 87.3166 123.862C91.23 124.825 112.522 138.979 115.289 138.816C118.056 138.653 139.848 126.403 153.067 120.98C161.009 117.697 164.907 123.236 161.372 127.66Z" fill="#AD6359"/>
<path d="M79.6634 152.54C73.9721 150.346 56.714 138.243 53.8473 135.098C50.9806 131.952 43.3852 122.321 45.5734 119.88C47.7615 117.44 50.2022 120.086 50.2022 120.086C50.2022 120.086 47.3249 115.115 50.0601 113.248C52.243 111.759 55.8882 115.299 55.8882 115.299C55.8882 115.299 53.0215 109.687 55.9724 108.187C58.6602 106.82 61.6216 111.627 61.6216 111.627C61.6216 111.627 59.7017 106.688 62.5421 105.873C65.9611 104.884 69.2907 113.432 72.715 116.667C73.4934 117.398 96.4639 128.67 96.4639 128.67L79.6634 152.54Z" fill="#AD6359"/>
<path d="M61.7476 111.38C64.9036 117.529 66.3764 119.98 71.7416 123.915C71.8468 123.988 71.7416 124.162 71.6364 124.094C66.0503 120.717 64.083 117.934 61.453 111.47C61.311 111.17 61.6003 111.096 61.7476 111.38Z" fill="#263238"/>
<path d="M55.9509 115.299C59.0806 121.611 61.4739 123.983 66.7707 128.512C66.8496 128.575 66.7707 128.712 66.6655 128.654C61.0951 124.641 58.0233 122.058 55.7247 115.352C55.6195 115.052 55.8088 115.015 55.9509 115.299Z" fill="#263238"/>
<path d="M50.4648 120.312C53.9364 126.192 56.3612 129.085 62.0736 132.82C62.1029 132.837 62.1243 132.864 62.1332 132.897C62.1421 132.929 62.1377 132.964 62.1209 132.993C62.1042 133.023 62.0765 133.044 62.0439 133.053C62.0114 133.062 61.9766 133.058 61.9473 133.041C55.7563 129.795 52.695 126.203 50.2964 120.417C50.1334 120.043 50.2491 119.928 50.4648 120.312Z" fill="#263238"/>
<path d="M27.5465 137.675C42.648 142.083 57.5285 146.496 71.9935 150.904C80.6567 131.442 81.9349 111.98 87.8682 92.5179C72.7457 88.1047 57.8862 83.6968 43.3633 79.2837C34.7159 98.7404 33.464 118.208 27.5465 137.675Z" fill="white"/>
<path d="M27.5465 137.675C35.0753 139.912 42.534 142.146 49.9226 144.376C57.3111 146.607 64.6453 148.835 71.9251 151.062L72.0724 151.109L72.1461 150.951C80.8461 131.489 82.1401 112.027 88.1207 92.5653C88.147 92.4812 88.168 92.397 88.1943 92.3129L87.9471 92.2392C72.8246 87.8524 57.9651 83.4655 43.4423 79.0892L43.2687 79.0366L43.1898 79.2155C38.8766 88.9728 36.4201 98.7301 34.3004 108.487C32.1806 118.245 30.4606 127.949 27.5465 137.675ZM27.5465 137.675C30.55 127.939 32.391 118.213 34.5686 108.461C36.7463 98.709 39.208 89.0359 43.5106 79.3259L43.2634 79.4522C57.7652 83.8863 72.6458 88.3258 87.7683 92.76L87.5947 92.4338C81.6877 111.896 80.4411 131.384 71.8147 150.857L72.0304 150.746C64.7926 148.565 57.4654 146.384 50.0488 144.203C42.6322 142.022 35.1315 139.846 27.5465 137.675Z" fill="#263238"/>
<path d="M80.7207 100.992C72.189 98.5373 63.7081 96.0826 55.2781 93.6279C55.1308 94.1276 54.9835 94.6273 54.8415 95.127C63.2891 97.5817 71.7945 100.036 80.3578 102.491C80.4787 102.012 80.5997 101.518 80.7207 100.992Z" fill="#DBDBDB"/>
<path d="M79.8154 104.8C71.2416 102.345 62.7064 99.8907 54.2098 97.436L53.8153 98.9351C62.3224 101.39 70.8752 103.844 79.4735 106.299C79.584 105.799 79.6997 105.3 79.8154 104.8Z" fill="#DBDBDB"/>
<path d="M78.9639 108.587C70.3585 106.132 61.783 103.678 53.2372 101.223C53.1162 101.749 52.99 102.223 52.8743 102.722C61.427 105.177 70.0184 107.632 78.6483 110.086C78.7429 109.587 78.8534 109.087 78.9639 108.587Z" fill="#DBDBDB"/>
<path d="M78.1426 112.369C65.5186 108.778 52.9332 105.186 40.3863 101.591L40.0234 103.096C52.5632 106.683 65.1925 110.276 77.8217 113.868C77.9322 113.368 78.0374 112.869 78.1426 112.369Z" fill="#DBDBDB"/>
<path d="M77.3223 116.156C64.6983 112.562 52.083 108.969 39.4766 105.378C39.3608 105.878 39.2451 106.378 39.1347 106.878C51.7271 110.472 64.3511 114.064 77.0067 117.655C77.1276 117.156 77.2328 116.656 77.3223 116.156Z" fill="#DBDBDB"/>
<path d="M76.5283 119.928L38.6563 109.155C38.5459 109.681 38.4354 110.155 38.3302 110.654C50.9542 114.247 63.5782 117.834 76.2022 121.427C76.3127 120.938 76.4179 120.454 76.5283 119.928Z" fill="#DBDBDB"/>
<path d="M75.6914 123.725C63.106 120.131 50.482 116.539 37.8194 112.948C37.7089 113.474 37.6038 113.947 37.4986 114.447C50.1226 118.038 62.736 121.63 75.339 125.225C75.4652 124.725 75.5809 124.225 75.6914 123.725Z" fill="#DBDBDB"/>
<path d="M74.8135 127.507C62.2789 123.915 49.6549 120.327 37.0256 116.735C36.9152 117.235 36.81 117.734 36.7048 118.234C49.3288 121.828 61.9089 125.419 74.4453 129.006C74.5715 128.507 74.6925 128.007 74.8135 127.507Z" fill="#DBDBDB"/>
<path d="M73.8662 131.295C61.4 127.7 48.8479 124.108 36.2099 120.517C36.0994 121.017 35.9942 121.516 35.8838 122.016C48.4867 125.611 61.0143 129.203 73.4665 132.794C73.6032 132.294 73.7347 131.795 73.8662 131.295Z" fill="#DBDBDB"/>
<path d="M72.8359 135.077C60.4644 131.489 47.9754 127.899 35.369 124.304C35.2532 124.83 35.1428 125.304 35.0218 125.803C47.5827 129.396 60.0699 132.988 72.3994 136.581C72.5466 136.076 72.6939 135.576 72.8359 135.077Z" fill="#DBDBDB"/>
<path d="M71.7051 138.864C59.4317 135.273 47.0234 131.68 34.4801 128.086C34.3591 128.612 34.2381 129.085 34.1119 129.585C46.6096 133.179 58.9794 136.772 71.2212 140.363C71.3842 139.863 71.5368 139.39 71.7051 138.864Z" fill="#DBDBDB"/>
<path d="M70.4473 142.651C58.3072 139.06 45.9988 135.467 33.5221 131.873C33.3906 132.373 33.2591 132.872 33.1223 133.372C45.5359 136.963 57.7987 140.556 69.9108 144.15L70.4473 142.651Z" fill="#DBDBDB"/>
<path d="M50.9331 101.465C51.4959 97.3781 52.185 93.2911 53.1055 89.2041C50.2282 92.1339 47.4773 95.0637 44.7999 97.9936L45.5889 98.7142C47.4615 96.6523 49.3709 94.5903 51.3381 92.5284C50.7648 95.4477 50.2861 98.3618 49.8916 101.281L50.9331 101.465Z" fill="#E4853B"/>
<path d="M51.6848 99.3402L52.2949 98.5039C50.4224 97.1012 48.5673 95.6986 46.7298 94.2959L46.0986 95.1322C47.9396 96.5419 49.8017 97.9446 51.6848 99.3402Z" fill="#E4853B"/>
<path d="M53.3261 87.5999C54.1915 88.2409 54.9587 89.0046 55.6037 89.867C56.8749 91.6142 57.5399 93.7293 57.4973 95.8897C57.4884 96.9374 57.259 97.9715 56.824 98.9247C56.3764 99.8443 55.7257 100.65 54.9211 101.282C54.1166 101.913 53.1791 102.354 52.1794 102.57C50.1701 102.964 48.0188 102.244 46.2198 101.055C44.378 99.9545 42.9816 98.2416 42.2748 96.2158C41.9428 95.2221 41.8394 94.1663 41.9724 93.1271C42.1054 92.0879 42.4713 91.0922 43.0428 90.2141C43.6725 89.346 44.4861 88.6275 45.4256 88.1101C46.3641 87.5674 47.4079 87.232 48.4869 87.1265C49.5587 87.0181 50.6408 87.1678 51.6429 87.5631C52.6375 87.9729 53.5539 88.5512 54.3518 89.2726C53.9827 88.8745 53.5855 88.5036 53.163 88.1627C52.7234 87.8356 52.2531 87.552 51.7586 87.3159C50.7425 86.8221 49.6213 86.5838 48.4922 86.6216C47.3054 86.6797 46.1449 86.9914 45.0887 87.5358C44.0326 88.0802 43.1054 88.8446 42.3695 89.7776C41.6646 90.7416 41.2108 91.866 41.0493 93.0493C40.8828 94.2174 40.9744 95.4078 41.3175 96.5367C42.0844 98.8042 43.6292 100.727 45.6781 101.965C46.6686 102.618 47.7546 103.113 48.8972 103.433C50.0438 103.758 51.2509 103.811 52.4214 103.585C53.564 103.344 54.6276 102.82 55.5143 102.06C56.3923 101.313 57.0961 100.383 57.5762 99.335C58.4194 97.1639 58.4063 94.7534 57.5394 92.5917C56.7464 90.4953 55.2595 88.7337 53.3261 87.5999Z" fill="#E4853B"/>
<path d="M47.5561 91.5237C48.1592 90.6961 48.7747 89.8703 49.4023 89.0462L48.5765 88.436C47.9453 89.2601 47.3246 90.0859 46.7145 90.9135L47.5561 91.5237Z" fill="#E4853B"/>
<path d="M48.918 91.2661L49.5439 90.4035L47.1769 88.6992C46.9613 88.9885 46.7509 89.2778 46.5352 89.5619L48.918 91.2661Z" fill="#E4853B"/>
<path d="M96.4639 128.675C96.4639 128.675 90.8725 122.947 88.3582 120.101C85.8439 117.256 79.837 108.224 76.5758 108.44C72.8938 108.682 75.5554 118.197 80.0106 123.31C80.0106 123.31 74.0931 132.746 78.138 137.864C79.0164 138.969 85.3916 142.472 86.9748 142.146L96.4639 128.675Z" fill="#AD6359"/>
<path d="M80.2784 123.994C77.843 127.581 76.1493 133.046 77.8956 137.007C77.9039 137.029 77.9038 137.054 77.8954 137.076C77.8869 137.099 77.8707 137.117 77.8497 137.129C77.8286 137.14 77.8042 137.144 77.7807 137.139C77.7573 137.134 77.7365 137.121 77.7221 137.101C75.2762 133.109 77.196 126.766 79.542 123.688C79.9996 123.084 80.9096 123.084 80.2784 123.994Z" fill="#263238"/>
<path d="M96.463 128.675L79.6626 152.54C79.6132 154.055 80.0287 155.549 80.8534 156.821C81.678 158.094 82.8722 159.083 84.2756 159.657C89.2883 161.85 110.023 169.33 118.234 166.558C126.445 163.786 149.868 143.598 159.972 130.18C170.077 116.761 155.144 119.428 152.298 120.712C149.452 121.995 116.046 137.738 114.857 137.712C113.668 137.686 105.915 131.789 102.233 129.959C98.5512 128.128 96.463 128.675 96.463 128.675Z" fill="#E4853B"/>
<path opacity="0.1" d="M106.252 166.374C110.986 167.242 115.368 167.526 118.224 166.558C126.44 163.781 149.863 143.603 159.967 130.174C160.609 129.328 161.145 128.539 161.598 127.823L106.252 166.374Z" fill="black"/>
<path d="M86.2061 157.468C87.7473 155.58 89.0307 153.481 90.372 151.461C91.7133 149.442 93.002 147.474 94.3012 145.465C96.9312 141.42 99.6507 137.401 102.002 133.204C102.009 133.185 102.01 133.164 102.003 133.144C101.997 133.125 101.984 133.108 101.967 133.097C101.949 133.086 101.929 133.081 101.908 133.083C101.888 133.085 101.869 133.095 101.855 133.109C98.8196 136.933 96.1738 141.068 93.5122 145.134C92.1762 147.171 90.87 149.226 89.5935 151.298C88.2974 153.263 87.1121 155.298 86.043 157.395C85.9957 157.495 86.143 157.547 86.2061 157.468Z" fill="#263238"/>
<g opacity="0.1">
<path d="M91.5929 162.413L93.4918 163.06C93.5912 162.363 93.6387 161.66 93.6338 160.956C93.6338 159.625 93.5286 158.326 93.5444 157.058C93.5399 155.79 93.6633 154.525 93.9126 153.282C94.1667 152.063 94.5936 150.887 95.1802 149.789C95.3223 149.515 95.4853 149.263 95.6378 149C95.7904 148.737 95.964 148.516 96.1375 148.274C96.511 147.795 96.9002 147.301 97.3053 146.817L99.7249 143.877C100.545 142.888 101.355 141.894 102.155 140.879C102.955 139.863 103.733 138.811 104.454 137.723C105.202 136.597 105.848 135.407 106.384 134.167C106.568 133.713 106.726 133.25 106.857 132.778C106.179 132.331 105.511 131.9 104.88 131.5C104.671 132.067 104.431 132.622 104.159 133.162C103.578 134.225 102.937 135.254 102.239 136.245C100.829 138.296 99.3462 140.363 97.8576 142.451C97.1159 143.503 96.3532 144.555 95.6589 145.644C95.3117 146.196 94.9646 146.754 94.6542 147.359C94.5017 147.664 94.3491 147.964 94.2124 148.3C94.0756 148.637 93.9757 148.942 93.881 149.268C93.1025 151.856 92.9868 154.465 92.687 157.016C92.4839 158.844 92.1178 160.65 91.5929 162.413Z" fill="black"/>
<path d="M98.2306 164.469C98.7566 164.617 99.2511 164.759 99.7718 164.896C100.403 162.718 100.44 160.572 100.487 158.452V155.17C100.487 154.644 100.487 154.091 100.529 153.56C100.541 153.045 100.592 152.532 100.682 152.024C100.7 151.909 100.73 151.797 100.771 151.688L100.903 151.33L101.06 150.983C101.118 150.867 101.187 150.757 101.245 150.641C101.512 150.187 101.829 149.766 102.191 149.384C102.947 148.616 103.806 147.955 104.742 147.422C105.211 147.138 105.695 146.896 106.184 146.638L107.662 145.886C108.72 145.393 109.675 144.704 110.476 143.856C110.674 143.618 110.85 143.363 111.002 143.093C111.081 142.956 111.149 142.809 111.218 142.667L111.381 142.246C111.57 141.691 111.713 141.121 111.807 140.542C111.985 139.422 112.052 138.287 112.007 137.154C112.007 136.823 111.975 136.492 111.949 136.16L110.897 135.466C110.897 136.029 110.897 136.586 110.849 137.144C110.806 138.203 110.687 139.258 110.492 140.3C110.39 140.8 110.253 141.292 110.081 141.773L109.945 142.12C109.892 142.22 109.855 142.325 109.797 142.43C109.687 142.637 109.563 142.836 109.424 143.024C108.781 143.834 108.031 144.553 107.194 145.16C106.336 145.817 105.405 146.412 104.485 147.017C103.534 147.596 102.628 148.246 101.776 148.963C101.339 149.335 100.939 149.749 100.582 150.199C100.402 150.43 100.235 150.67 100.082 150.92L99.8665 151.304C99.7953 151.445 99.7338 151.591 99.6824 151.74C99.4994 152.295 99.3708 152.865 99.2984 153.444C99.209 154.002 99.1616 154.56 99.1143 155.112C99.0249 156.217 98.9723 157.311 98.8986 158.394C98.825 159.478 98.7461 160.561 98.6409 161.624C98.5686 162.581 98.4315 163.531 98.2306 164.469Z" fill="black"/>
</g>
<path d="M207.003 202.647C206.95 202.715 135.167 199.359 134.699 198.917C134.483 198.712 133.552 194.625 134.651 188.95C137.949 171.933 147.833 137.175 156.549 122.468C158.726 118.786 168.542 113.374 175.664 120.328C190.102 134.424 201.438 170.298 205.903 190.002C208.092 199.633 207.297 202.236 207.003 202.647Z" fill="#E4853B"/>
<g opacity="0.1">
<path d="M134.972 187.324C135.188 187.324 135.403 187.324 135.614 187.356C137.654 187.551 139.681 187.869 141.684 188.308C145.813 189.149 150.015 190.096 154.25 191.038C156.354 191.506 158.489 192 160.672 192.358C161.766 192.532 162.866 192.705 164.007 192.789C164.586 192.826 165.154 192.868 165.774 192.858C166.395 192.847 166.921 192.8 167.494 192.731C172.044 192.242 176.184 190.701 180.366 189.486C184.547 188.271 188.861 187.44 192.7 187.456C193.647 187.456 194.668 187.535 195.693 187.629C196.719 187.724 197.745 187.877 198.781 188.029C200.848 188.36 202.936 188.776 205.019 189.228L205.771 189.397C205.519 188.292 205.245 187.135 204.946 185.941C203.14 185.344 201.304 184.847 199.444 184.452C198.35 184.214 197.238 184.024 196.109 183.884C195.541 183.816 194.973 183.758 194.399 183.726C193.804 183.687 193.206 183.687 192.611 183.726C190.287 183.884 188.01 184.458 185.889 185.42C183.816 186.283 181.881 187.303 179.882 188.129C177.908 188.974 175.853 189.615 173.749 190.044C171.68 190.452 169.563 190.564 167.463 190.375C166.937 190.338 166.411 190.259 165.932 190.191C165.454 190.123 164.97 189.996 164.475 189.881C163.476 189.612 162.455 189.355 161.44 189.028L155.249 187.193C153.177 186.567 151.083 185.957 148.974 185.383C146.865 184.81 144.719 184.3 142.525 183.895C140.328 183.478 138.097 183.256 135.861 183.232C135.535 184.663 135.24 186.036 134.972 187.324Z" fill="black"/>
<path d="M138.102 173.979C139.563 173.46 141.057 173.035 142.573 172.707C143.419 172.531 144.277 172.419 145.139 172.37H145.765C145.96 172.37 146.149 172.37 146.344 172.396C146.74 172.434 147.134 172.498 147.522 172.586C149.207 173.055 150.821 173.75 152.319 174.653C153.897 175.557 155.475 176.609 157.001 177.656C158.532 178.755 160.145 179.736 161.824 180.591C162.693 181.025 163.599 181.377 164.533 181.643C165.011 181.772 165.496 181.873 165.985 181.948L166.742 181.996C167.01 182.014 167.279 182.014 167.547 181.996C168.532 181.917 169.506 181.741 170.456 181.47C171.382 181.238 172.281 180.944 173.17 180.654C174.953 180.065 176.694 179.429 178.43 178.824C180.166 178.219 181.907 177.63 183.632 177.093C185.309 176.543 187.025 176.121 188.766 175.831C189.579 175.708 190.405 175.691 191.222 175.778C192.083 175.876 192.936 176.036 193.773 176.257C195.516 176.722 197.228 177.298 198.897 177.982C200.401 178.592 201.898 179.245 203.389 179.939C203.226 179.334 203.057 178.724 202.863 178.103C201.811 177.462 200.743 176.855 199.659 176.283C197.968 175.387 196.209 174.624 194.399 174C193.461 173.689 192.501 173.449 191.527 173.28C190.508 173.102 189.469 173.063 188.44 173.164C184.442 173.564 180.923 174.974 177.462 176.357L172.328 178.461C171.482 178.813 170.629 179.145 169.788 179.466C168.979 179.784 168.147 180.043 167.3 180.239C167.105 180.28 166.909 180.308 166.711 180.323L166.069 180.349H165.422C165.201 180.349 164.985 180.307 164.77 180.286C163.887 180.17 163.021 179.955 162.187 179.644C160.496 178.967 158.903 178.065 157.453 176.962C156.711 176.436 156.007 175.82 155.286 175.237L153.14 173.422C151.683 172.233 150.115 171.023 148.117 170.382C147.614 170.215 147.096 170.098 146.57 170.034C146.302 169.998 146.044 169.992 145.76 169.977H144.997C144.008 170.047 143.026 170.202 142.062 170.439C140.927 170.71 139.812 171.061 138.727 171.491L138.102 173.979Z" fill="black"/>
</g>
<path d="M183.201 122.032C206.634 131.968 224.829 140.62 222.188 149.626C221.136 153.16 215.035 162.697 207.176 162.686C201.001 162.686 189.992 152.776 177.447 135.445C170.951 126.476 168.405 115.751 183.201 122.032Z" fill="#E4853B"/>
<path d="M179.045 140.2C180.044 141.026 181.039 141.873 182.012 142.735L181.386 142.009C179.708 140.021 178.051 138.017 176.394 136.013C176.362 135.971 176.431 135.918 176.468 135.96C179.624 139.316 182.78 142.64 185.973 145.986C189.165 149.331 197.492 157.805 199.517 159.467C199.559 159.504 199.517 159.572 199.464 159.541C197.634 158.11 192.495 153.807 190.854 152.203C188.375 149.777 185.992 147.273 183.705 144.692C182.037 143.317 180.445 141.852 178.935 140.305C178.877 140.247 178.977 140.142 179.045 140.2Z" fill="#263238"/>
<path d="M213.809 157.237C224.055 153.029 230.693 121.948 233.207 101.029C233.686 97.0469 202.21 93.2123 202.173 97.4992C202.047 121.969 202.584 161.834 213.809 157.237Z" fill="#AD6359"/>
<path d="M237.163 84.7227C236.979 91.3976 231.261 108.109 228.626 110.839C225.991 113.568 206.008 104.001 204.909 100.319C203.809 96.6365 202.863 74.7444 207.265 69.5475C211.668 64.3507 237.358 77.811 237.163 84.7227Z" fill="#AD6359"/>
<path d="M202.095 78.8998C203.841 81.9769 206.466 78.1581 206.466 78.1581C206.466 78.1581 204.009 84.5648 207.034 87.0422C209.958 89.4198 212.972 84.6963 213.188 84.3596C213.062 84.7015 210.958 90.6716 214.24 92.823C217.67 95.0795 219.879 89.8195 220.026 89.4776C220.026 89.8406 219.831 94.5851 222.714 95.6686C227.664 97.5307 228.442 85.4011 231.772 82.708C231.772 82.708 236.974 85.1276 237.158 85.2433C237.158 85.2433 238.131 76.4276 234.254 72.1354C233.701 71.5017 232.947 71.0767 232.118 70.9312C231.289 70.7858 230.436 70.9286 229.699 71.3359C229.699 71.3359 230.42 67.6539 227.879 65.8602C226.575 64.9397 223.94 66.2179 223.94 66.2179C223.94 66.2179 224.397 63.246 222.041 61.789C220.158 60.6213 217.833 62.0835 217.833 62.0835C217.833 62.0835 216.949 59.0275 214.64 58.4541C209.974 57.2812 198.365 72.2932 202.095 78.8998Z" fill="#AD6359"/>
<path d="M217.417 62.2414C217.422 62.2317 217.425 62.2204 217.423 62.2093C217.422 62.1981 217.417 62.1876 217.41 62.1794C217.402 62.1712 217.392 62.1656 217.381 62.1635C217.37 62.1614 217.359 62.1629 217.348 62.1678C212.325 66.1707 208.033 72.1092 206.302 78.3318C206.245 78.5369 206.555 78.721 206.66 78.5053C209.669 72.43 212.825 67.2753 217.417 62.2414Z" fill="#263238"/>
<path d="M223.982 66.1024C224.029 66.0498 223.94 65.9656 223.877 66.013C218.722 70.1684 214.072 76.9906 212.925 84.423C212.883 84.6754 213.104 84.949 213.173 84.6544C214.309 79.7626 219.826 70.6155 223.982 66.1024Z" fill="#263238"/>
<path d="M220.131 90.0087C221.51 82.9445 225.013 77.0323 229.484 71.4777C229.542 71.4041 229.431 71.3304 229.368 71.3778C226.438 73.4818 223.961 77.3373 222.283 80.4881C220.668 83.3765 219.836 86.6366 219.868 89.9456C219.868 90.0928 220.105 90.1612 220.131 90.0087Z" fill="#263238"/>
<path d="M206.466 78.1421C206.108 79.4131 205.869 80.7143 205.75 82.0292C205.588 83.3039 205.77 84.5987 206.276 85.7796C206.532 86.3104 206.976 86.7268 207.523 86.9473C208.076 87.1638 208.676 87.2344 209.264 87.1525C209.844 87.025 210.39 86.7764 210.867 86.4228C211.344 86.0693 211.74 85.6188 212.031 85.1011L213.556 82.6341L212.978 85.4798C212.713 86.7419 212.654 88.0387 212.804 89.3196C212.967 90.5662 213.461 91.7655 214.413 92.3967C214.854 92.7348 215.397 92.9119 215.952 92.8985C216.507 92.8851 217.041 92.682 217.464 92.3231C218.396 91.4991 219.102 90.4508 219.516 89.2775L220.773 86.0794L220.636 89.4984C220.593 90.45 220.675 91.403 220.878 92.3336C221.035 93.2227 221.45 94.0459 222.072 94.7006C222.365 94.9825 222.731 95.1771 223.129 95.2626C223.527 95.3481 223.94 95.321 224.323 95.1845C225.133 94.751 225.802 94.096 226.254 93.2961C227.245 91.5772 228.099 89.7834 228.81 87.9309C229.205 87.0052 229.604 86.0794 230.046 85.1694C230.441 84.2315 231.029 83.3873 231.771 82.692C231.12 83.4517 230.621 84.3306 230.304 85.2799C229.936 86.2109 229.61 87.163 229.284 88.1151C228.676 90.0582 227.885 91.9392 226.922 93.7327C226.416 94.714 225.635 95.5271 224.676 96.0734C224.121 96.3117 223.509 96.3829 222.915 96.2782C222.321 96.1736 221.77 95.8976 221.33 95.4843C220.526 94.6982 219.976 93.6884 219.752 92.5861C219.51 91.5523 219.404 90.4913 219.437 89.4301L220.552 89.651C220.085 91.0476 219.26 92.2973 218.159 93.2751C217.534 93.8013 216.745 94.0933 215.928 94.1009C215.127 94.0809 214.35 93.8207 213.698 93.354C212.367 92.4282 211.82 90.8555 211.663 89.4616C211.515 88.0543 211.602 86.6324 211.92 85.2536L212.872 85.6376C212.487 86.2658 211.969 86.8022 211.355 87.2093C210.741 87.6163 210.045 87.8842 209.317 87.9941C208.584 88.0605 207.846 87.9354 207.176 87.6311C206.492 87.3089 205.949 86.7476 205.65 86.0531C205.072 84.7118 205.193 83.3021 205.377 81.9871C205.595 80.6687 205.96 79.379 206.466 78.1421Z" fill="#263238"/>
<path d="M204.289 101.728C204.289 101.728 188.056 72.0094 203.237 71.6149C206.919 71.5202 221.547 77.4535 220.489 80.4149C219.122 84.2442 212.599 83.0712 208.581 81.6825C208.581 81.6825 213.383 90.1406 208.491 95.2428C206.669 97.1002 205.239 99.306 204.289 101.728Z" fill="#AD6359"/>
<path d="M202.184 71.5987C203.63 71.5422 205.076 71.6982 206.477 72.0615C207.887 72.3853 209.274 72.8054 210.627 73.3187C213.358 74.3019 215.998 75.5216 218.517 76.9639C219.182 77.3473 219.792 77.8217 220.326 78.3735C220.631 78.6946 220.861 79.079 220.999 79.4992C221.078 79.7311 221.115 79.975 221.11 80.2198C221.103 80.4602 221.059 80.698 220.978 80.9247C220.677 81.7392 220.098 82.4211 219.342 82.8498C218.64 83.22 217.878 83.4656 217.091 83.5757C215.601 83.7551 214.09 83.6786 212.625 83.3495C211.196 83.0547 209.789 82.6556 208.417 82.1555L209.012 81.4244C209.524 82.4101 209.941 83.4422 210.258 84.5067C210.584 85.5583 210.801 86.6405 210.905 87.7364C210.997 88.8361 210.93 89.9433 210.706 91.0239C210.48 92.0922 210.053 93.1079 209.448 94.0168C209.92 93.0559 210.227 92.023 210.358 90.9607C210.473 89.9098 210.445 88.8481 210.274 87.8047C210.114 86.7656 209.85 85.7452 209.485 84.7592C209.128 83.7769 208.68 82.8296 208.149 81.9293L207.481 80.83L208.744 81.2034C210.082 81.633 211.447 81.9738 212.831 82.2239C214.175 82.4974 215.555 82.5524 216.918 82.3869C218.196 82.1923 219.511 81.5927 219.868 80.5459C220.268 79.6517 219.053 78.6471 217.922 77.9159C216.733 77.1631 215.504 76.4748 214.24 75.854C212.973 75.2018 211.694 74.5706 210.39 74.0077C207.728 72.94 205.051 71.8248 202.184 71.5987Z" fill="#263238"/>
<path d="M200.932 103.543L233.665 110.697C233.665 110.697 235.822 116.903 233.918 123.347C230.304 135.571 219.526 161.813 210.832 161.219C201.416 160.561 199.128 127.76 199.26 111.696C199.354 106.252 200.932 103.543 200.932 103.543Z" fill="#E4853B"/>
<g opacity="0.1">
<path d="M199.296 116.309C199.296 116.998 199.296 117.708 199.343 118.413C200.132 118.808 200.921 119.181 201.773 119.502C202.389 119.744 203.02 119.965 203.662 120.154C203.988 120.249 204.314 120.344 204.645 120.417C204.992 120.499 205.343 120.561 205.697 120.601C207.069 120.733 208.453 120.619 209.784 120.265C211.073 119.965 212.304 119.555 213.551 119.27C214.781 118.968 216.04 118.792 217.306 118.744C218.547 118.708 219.787 118.848 220.988 119.16C221.283 119.234 221.583 119.328 221.861 119.418C222.14 119.507 222.387 119.623 222.682 119.739C223.234 119.991 223.802 120.265 224.37 120.533L227.795 122.206C228.941 122.768 230.104 123.331 231.277 123.868C231.987 124.204 232.713 124.515 233.449 124.815C233.612 124.289 233.765 123.799 233.907 123.321C234.017 122.958 234.112 122.595 234.186 122.232C232.392 121.527 230.577 120.791 228.757 120.049C227.563 119.576 226.38 119.076 225.138 118.655C224.518 118.45 223.897 118.24 223.239 118.082C222.908 118.003 222.577 117.924 222.187 117.871C221.798 117.819 221.514 117.792 221.178 117.777C218.474 117.619 215.918 118.113 213.361 118.413C210.91 118.756 208.422 118.756 205.971 118.413C205.445 118.318 204.835 118.176 204.246 118.019C203.657 117.861 203.073 117.677 202.484 117.493C201.458 117.135 200.369 116.735 199.296 116.309Z" fill="black"/>
<path d="M199.475 122.032C199.475 122.41 199.507 122.789 199.528 123.173C199.959 123.536 200.395 123.889 200.848 124.225C201.744 124.909 202.69 125.524 203.678 126.066C204.187 126.336 204.714 126.57 205.256 126.766C205.833 126.966 206.435 127.09 207.044 127.134C209.416 127.286 211.599 126.808 213.756 126.34L216.954 125.603C217.48 125.482 218.006 125.372 218.532 125.267C219.035 125.16 219.545 125.09 220.057 125.056C220.173 125.048 220.289 125.048 220.405 125.056L220.783 125.104L221.162 125.177C221.283 125.177 221.409 125.246 221.535 125.277C222.056 125.439 222.555 125.661 223.024 125.94C223.949 126.495 224.791 127.177 225.528 127.965C225.912 128.354 226.264 128.77 226.627 129.18L227.679 130.448C228.403 131.363 229.296 132.131 230.309 132.71C230.415 132.769 230.526 132.82 230.64 132.862C230.804 132.436 230.961 132.015 231.119 131.594C231.04 131.563 230.956 131.537 230.877 131.5C229.941 131.061 229.069 130.499 228.284 129.827C227.442 129.143 226.648 128.381 225.849 127.623C225.062 126.832 224.216 126.102 223.319 125.44C222.856 125.104 222.363 124.811 221.846 124.567C221.578 124.446 221.32 124.346 221.025 124.251L220.599 124.13C220.452 124.099 220.278 124.067 220.131 124.052C219.55 123.996 218.965 123.996 218.385 124.052C217.822 124.099 217.27 124.178 216.723 124.262C215.628 124.436 214.55 124.635 213.477 124.82C212.404 125.004 211.336 125.177 210.279 125.319C209.249 125.477 208.208 125.556 207.165 125.556C206.678 125.547 206.193 125.476 205.724 125.346C205.233 125.205 204.753 125.029 204.288 124.82C203.316 124.381 202.374 123.878 201.469 123.315C200.795 122.919 200.131 122.491 199.475 122.032Z" fill="black"/>
</g>
<path d="M201.337 112.353C217.527 116.898 229.215 119.007 231.493 119.36C231.505 119.36 231.517 119.355 231.526 119.346C231.535 119.337 231.54 119.325 231.54 119.312C231.54 119.3 231.535 119.288 231.526 119.279C231.517 119.27 231.505 119.265 231.493 119.265C220.242 115.814 202.442 112.248 201.348 112.159C201.325 112.163 201.305 112.174 201.29 112.191C201.275 112.208 201.266 112.229 201.265 112.252C201.263 112.274 201.27 112.297 201.283 112.315C201.296 112.334 201.315 112.347 201.337 112.353Z" fill="#263238"/>
<path d="M199.743 131.815C200.127 134.882 201 139.747 201.705 142.756C201.752 142.945 201.8 143.135 201.842 143.324C201.642 144.403 201.542 145.498 201.542 146.596C201.542 147.879 201.652 149.147 201.784 150.42C201.784 150.472 201.873 150.467 201.868 150.42C201.784 149.153 201.795 147.882 201.9 146.617C201.958 145.865 202.021 145.107 202.084 144.35C202.773 147.222 203.499 150.094 204.393 152.908C204.393 152.96 204.488 152.908 204.472 152.876C203.799 149.82 203.078 146.769 202.515 143.692C201.952 140.615 200.664 133.393 200.127 130.337C199.701 127.912 199.622 130.853 199.743 131.815Z" fill="#263238"/>
<path d="M169.898 119.039C169.514 120.159 163.312 127.076 158.094 126.319C156.39 126.066 157.342 116.73 157.342 116.73L157.253 116.025L156.033 106.147L169.829 99.1665C169.829 99.1665 170.061 118.56 169.898 119.039Z" fill="#AD6359"/>
<path d="M156.043 106.152L157.274 116.02L157.358 116.73C157.358 116.73 157.19 118.423 157.122 120.38C164.37 120.017 168.168 114.968 169.956 111.401C169.924 105.799 169.846 99.1665 169.846 99.1665L156.043 106.152Z" fill="#263238"/>
<path d="M140.658 89.3143C135.619 110.028 147.459 115.383 151.93 116.466C155.985 117.445 169.919 120.269 177.068 100.187C184.216 80.1041 176.179 71.2147 167.021 68.4795C157.863 65.7443 145.702 68.5952 140.658 89.3143Z" fill="#AD6359"/>
<path d="M146.607 89.9092C147.099 89.9163 147.59 89.897 148.08 89.8513C148.6 89.905 149.124 89.7847 149.568 89.5094C149.692 89.3954 149.774 89.2436 149.801 89.0779C149.829 88.9122 149.801 88.7421 149.721 88.5942C149.523 88.3245 149.255 88.1133 148.947 87.9828C148.639 87.8523 148.301 87.8073 147.969 87.8525C147.284 87.834 146.616 88.0722 146.097 88.5205C145.985 88.6297 145.907 88.769 145.872 88.9216C145.837 89.0741 145.848 89.2335 145.901 89.3804C145.955 89.5272 146.051 89.6553 146.176 89.7492C146.301 89.843 146.451 89.8986 146.607 89.9092Z" fill="#263238"/>
<path d="M161.346 93.0648C160.88 92.9127 160.421 92.7371 159.973 92.5388C159.465 92.4167 159.012 92.13 158.684 91.7235C158.604 91.5753 158.576 91.4046 158.605 91.2387C158.634 91.0727 158.717 90.9212 158.842 90.8083C159.119 90.6203 159.441 90.5099 159.775 90.4887C160.109 90.4674 160.442 90.536 160.741 90.6873C161.394 90.8984 161.945 91.3446 162.287 91.9392C162.352 92.0788 162.376 92.234 162.356 92.3868C162.336 92.5395 162.273 92.6834 162.175 92.8015C162.076 92.9197 161.945 93.0072 161.798 93.0539C161.652 93.1005 161.495 93.1043 161.346 93.0648Z" fill="#263238"/>
<path d="M155.108 107.372C154.724 107.672 154.329 108.098 153.803 108.088C153.267 108.021 152.751 107.842 152.288 107.562C152.279 107.558 152.268 107.557 152.258 107.559C152.248 107.561 152.239 107.566 152.232 107.573C152.224 107.58 152.219 107.59 152.217 107.6C152.215 107.61 152.216 107.62 152.22 107.63C152.395 107.935 152.651 108.188 152.958 108.36C153.265 108.532 153.614 108.618 153.966 108.608C154.269 108.565 154.552 108.432 154.779 108.227C155.005 108.022 155.166 107.753 155.239 107.456C155.271 107.372 155.171 107.304 155.108 107.372Z" fill="#263238"/>
<path d="M149.879 103.927C150.256 104.876 150.87 105.713 151.662 106.357C152.107 106.688 152.644 106.872 153.198 106.883C154.413 106.915 154.739 105.884 154.776 104.937C154.797 104.432 154.756 103.927 154.655 103.433C153.156 104.102 151.483 104.275 149.879 103.927Z" fill="white"/>
<path d="M150.605 105.268C150.663 105.347 150.726 105.436 150.794 105.515C151.177 105.56 151.564 105.56 151.946 105.515C151.489 105.431 151.042 105.352 150.605 105.268Z" fill="#DBDBDB"/>
<path d="M153.166 105.416C153.461 105.418 153.756 105.386 154.044 105.321C154.296 105.256 154.54 105.168 154.775 105.058C154.775 105.026 154.775 104.984 154.775 104.953C154.775 104.921 154.775 104.848 154.775 104.795C154.252 105.035 153.715 105.243 153.166 105.416Z" fill="#DBDBDB"/>
<path d="M149.978 101.202C149.978 101.202 149.331 103.306 149.163 104.3C149.163 104.395 149.384 104.479 149.721 104.553C149.721 104.553 149.747 104.553 149.763 104.553C150.602 104.854 151.509 104.919 152.383 104.739C153.256 104.56 154.064 104.145 154.718 103.537C154.74 103.521 154.755 103.496 154.759 103.468C154.763 103.441 154.755 103.412 154.739 103.39C154.722 103.368 154.697 103.353 154.669 103.349C154.642 103.345 154.614 103.352 154.591 103.369C153.158 104.036 151.547 104.221 149.999 103.895C149.999 103.606 151.241 100.318 151.078 100.318C150.389 100.318 149.158 100.418 148.7 100.455C149.095 99.0875 150.399 95.2635 151.109 92.7702C151.151 92.6177 150.915 92.523 150.857 92.665C149.559 95.4145 148.445 98.2471 147.522 101.144C147.454 101.386 149.547 101.302 149.978 101.202Z" fill="#263238"/>
<path d="M160.193 96.9417C160.186 96.5695 160.079 96.206 159.883 95.8897C159.767 95.7245 159.619 95.5847 159.447 95.4789C159.275 95.3731 159.083 95.3035 158.884 95.2743C158.679 95.2501 158.472 95.2741 158.278 95.3445C158.084 95.4148 157.91 95.5294 157.768 95.6793C157.524 95.9452 157.344 96.2637 157.242 96.6103C157.188 96.818 157.146 97.0288 157.116 97.2415C157.054 97.6847 157.094 98.1362 157.232 98.5618C157.256 98.2387 157.316 97.9194 157.411 97.6097C157.492 97.3313 157.592 97.0588 157.711 96.7944C157.968 96.2684 158.358 95.8318 158.805 95.916C159.252 96.0001 159.573 96.3999 159.688 96.968C159.786 97.58 159.825 98.2 159.804 98.8195C160.074 98.2311 160.207 97.589 160.193 96.9417Z" fill="#263238"/>
<path d="M145.865 94.1537C146.011 93.8167 146.246 93.5257 146.544 93.3121C146.713 93.2018 146.903 93.1275 147.102 93.0941C147.301 93.0606 147.505 93.0685 147.701 93.1174C147.9 93.1711 148.083 93.2711 148.236 93.4091C148.388 93.5472 148.506 93.7194 148.58 93.9117C148.707 94.2469 148.752 94.6076 148.711 94.9637C148.687 95.1769 148.647 95.3879 148.59 95.5949C148.486 96.0304 148.278 96.4345 147.985 96.7731C148.088 96.4665 148.153 96.1486 148.18 95.8263C148.203 95.5358 148.203 95.2438 148.18 94.9532C148.148 94.3588 147.948 93.8223 147.501 93.7329C147.054 93.6434 146.607 93.8854 146.281 94.3904C145.96 94.9208 145.69 95.4809 145.476 96.063C145.452 95.4046 145.585 94.75 145.865 94.1537Z" fill="#263238"/>
<path d="M179.119 102.044C172.78 102.112 169.929 94.3906 171.755 88.4257C171.755 88.4257 154.838 89.6566 154.833 76.1384C153.547 77.8899 151.849 79.2978 149.889 80.2381C147.93 81.1783 145.769 81.622 143.598 81.5299L141.425 86.3849C139.732 85.7852 138.191 80.7882 142.63 77.1956C142.63 77.1956 143.314 70.4997 148.505 66.7598C149.911 65.6816 151.598 65.0324 153.363 64.8906C155.129 64.7488 156.898 65.1202 158.457 65.9603C161.504 64.0196 165.186 63.3405 168.725 64.0667C174.837 65.2239 177.051 71.0099 177.051 71.0099C177.051 71.0099 185.273 73.1139 186.335 79.0787C186.678 80.7798 186.656 82.5342 186.271 84.2262C185.886 85.9181 185.146 87.5091 184.1 88.8939C184.1 88.8939 186.046 91.3398 184.689 96.3157C183.837 99.4875 181.018 102.044 179.119 102.044Z" fill="#263238"/>
<path d="M155.286 74.9756C155.094 76.0603 155.016 77.1622 155.055 78.2631C155.062 79.3493 155.203 80.4305 155.475 81.4822C155.994 83.5635 157.279 85.3725 159.073 86.5476C160.814 87.8152 163.045 88.1256 165.17 88.4622C166.258 88.4938 167.352 88.6043 168.452 88.5727C169.551 88.5411 170.651 88.457 171.766 88.4359C170.677 88.6306 169.577 88.7831 168.473 88.9619C167.368 89.1408 166.248 89.0303 165.122 89.0671C162.913 88.8462 160.588 88.5411 158.647 87.1998C156.715 85.9033 155.367 83.9021 154.892 81.6242C154.461 79.4102 154.597 77.1232 155.286 74.9756Z" fill="#263238"/>
<path d="M177.052 71.0098C179.183 71.1525 181.263 71.7345 183.159 72.7193C185.137 73.6947 186.708 75.3378 187.593 77.3586C187.964 78.3872 188.168 79.4687 188.198 80.5619C188.267 81.6469 188.149 82.7357 187.85 83.781C187.288 85.8966 185.949 87.7224 184.1 88.8938C185.694 87.5481 186.802 85.7171 187.256 83.6811C187.7 81.687 187.561 79.6074 186.856 77.69C186.492 76.7574 185.957 75.9011 185.278 75.1652C184.558 74.4407 183.75 73.8082 182.874 73.2821C181.066 72.2209 179.101 71.4539 177.052 71.0098Z" fill="#263238"/>
<path d="M158.437 65.9812C156.888 65.3105 155.242 64.8915 153.561 64.7399C151.922 64.5805 150.27 64.845 148.763 65.5078C147.29 66.2328 146.023 67.3184 145.081 68.6638C144.109 70.0444 143.344 71.5595 142.809 73.1611C143.062 71.446 143.667 69.8018 144.587 68.3325C145.478 66.782 146.827 65.5452 148.448 64.7918C150.07 64.0384 151.885 63.8053 153.645 64.1245C155.357 64.3894 156.992 65.0229 158.437 65.9812Z" fill="#263238"/>
<path d="M146.17 82.2505C148.047 81.7343 149.824 80.9095 151.43 79.8098C152.215 79.2615 152.923 78.6105 153.534 77.8742C154.152 77.1144 154.682 76.2868 155.112 75.4072C154.966 76.4111 154.607 77.3723 154.06 78.2266C153.512 79.0962 152.797 79.8488 151.956 80.441C151.123 81.0322 150.202 81.4885 149.226 81.7929C148.242 82.1208 147.208 82.2756 146.17 82.2505Z" fill="#263238"/>
<path d="M159.504 104.821C160.895 104.919 162.286 104.624 163.517 103.971C164.749 103.318 165.773 102.332 166.472 101.126C167.171 99.9194 167.517 98.5411 167.472 97.1476C167.426 95.7541 166.99 94.4014 166.214 93.2434C165.438 92.0854 164.352 91.1685 163.08 90.5971C161.808 90.0257 160.402 89.8228 159.02 90.0113C157.639 90.1998 156.338 90.7723 155.266 91.6636C154.194 92.5549 153.393 93.7293 152.956 95.053C152.34 96.9287 152.492 98.972 153.38 100.736C154.267 102.499 155.817 103.84 157.69 104.463C158.278 104.655 158.887 104.775 159.504 104.821ZM160.478 90.9555C161.014 90.9943 161.544 91.0985 162.056 91.2658C163.613 91.7806 164.916 92.8698 165.699 94.3115C166.482 95.7533 166.686 97.4392 166.269 99.0261C165.853 100.613 164.847 101.981 163.457 102.853C162.067 103.724 160.397 104.033 158.787 103.716C157.178 103.4 155.749 102.482 154.793 101.149C153.836 99.8158 153.424 98.1685 153.639 96.5421C153.854 94.9157 154.681 93.4326 155.952 92.3946C157.223 91.3567 158.841 90.8421 160.478 90.9555Z" fill="#E4853B"/>
<path d="M143.377 101.602C146.223 101.802 149 99.072 149.726 95.2532C150.099 93.4344 149.897 91.5446 149.147 89.8459C148.868 89.0971 148.401 88.4331 147.79 87.9182C147.179 87.4032 146.445 87.0548 145.66 86.9066C144.875 86.7585 144.065 86.8156 143.308 87.0726C142.551 87.3295 141.874 87.7775 141.341 88.3731C140.023 89.6784 139.146 91.363 138.832 93.1913C138.07 97.2257 139.884 100.971 142.893 101.539C143.053 101.57 143.214 101.591 143.377 101.602ZM145.102 87.8419C145.228 87.8419 145.349 87.8419 145.476 87.8892C146.095 88.0367 146.67 88.3305 147.152 88.746C147.634 89.1615 148.01 89.6866 148.248 90.2772C148.911 91.7849 149.086 93.4624 148.747 95.0744C148.085 98.567 145.549 101.034 143.077 100.566C140.605 100.098 139.148 96.8838 139.811 93.3859C140.083 91.7607 140.857 90.2617 142.025 89.099C142.422 88.6861 142.9 88.3609 143.43 88.1444C143.96 87.9279 144.53 87.8248 145.102 87.8419Z" fill="#E4853B"/>
<path d="M152.972 95.9318L153.624 95.4058C152.835 94.4432 150.873 92.981 149.058 94.3065L149.584 94.9798C151.178 93.7857 152.898 95.8477 152.972 95.9318Z" fill="#E4853B"/>
<path d="M182.438 103.159L183.243 102.917C183.127 102.544 182.096 99.2351 180.313 98.5881C178.641 97.9885 167.395 96.9365 166.916 96.8892L166.837 97.7255C170.062 98.0253 178.735 98.909 180.024 99.3771C181.202 99.8085 182.165 102.254 182.438 103.159Z" fill="#E4853B"/>
<path d="M172.67 101.139C172.67 101.139 178.277 95.2689 181.007 97.3624C183.737 99.4559 178.824 108.466 175.121 109.234C174.654 109.366 174.165 109.402 173.684 109.34C173.203 109.278 172.739 109.119 172.32 108.874C171.902 108.628 171.537 108.3 171.248 107.91C170.96 107.52 170.752 107.076 170.64 106.604L172.67 101.139Z" fill="#AD6359"/>
<path d="M179.534 99.9081C179.545 99.9115 179.554 99.9182 179.56 99.9272C179.567 99.9362 179.57 99.947 179.57 99.958C179.57 99.9691 179.567 99.9799 179.56 99.9889C179.554 99.9978 179.545 100.005 179.534 100.008C176.904 100.623 175.284 102.706 174.016 104.931C174.884 104.132 175.957 103.785 177.041 104.842C177.099 104.9 177.041 104.989 176.951 104.963C176.54 104.76 176.077 104.689 175.624 104.76C175.171 104.83 174.751 105.039 174.421 105.357C173.876 105.897 173.389 106.493 172.97 107.135C172.822 107.335 172.444 107.135 172.565 106.92L172.596 106.862C173.017 103.722 176.12 99.7082 179.534 99.9081Z" fill="#263238"/>
<path d="M178.514 120.454C179.376 119.402 173.827 116.246 172.386 117.435C170.945 118.623 163.649 137.128 166.016 157.205C168.383 177.283 207.244 198.917 208.69 195.914C209.29 194.651 208.522 191.132 207.575 190.007C206.244 188.429 178.182 171.008 175.41 158.557C172.949 147.485 176.326 123.189 178.514 120.454Z" fill="#455A64"/>
<path d="M156.638 120.033C157.806 117.818 151.794 119.602 151.136 120.796C150.479 121.99 142.441 141.173 141.053 153.713C140.527 158.736 138.554 172.259 138.554 172.259C138.554 172.259 144.424 154.118 149.264 138.927C151.32 132.479 153.784 126.169 156.638 120.033Z" fill="#455A64"/>
<path d="M58.0441 220.61H118.481V227.763H58.0441V220.61Z" fill="#37474F"/>
<path d="M104.163 220.61H106.625V227.763H104.163V220.61Z" fill="#455A64"/>
<path d="M65.1555 220.61H71.0625V227.763H65.1555V220.61Z" fill="#455A64"/>
<path d="M62.3936 199.696H124.125V209.148H62.3936V199.696Z" fill="#37474F"/>
<path d="M73.3137 202.763H88.1416V206.082H73.3137V202.763Z" fill="#E4853B"/>
<path d="M65.8819 204.42C65.8565 204.812 65.9499 205.204 66.1497 205.542C66.3496 205.881 66.6467 206.152 67.0026 206.32C67.3585 206.488 67.7566 206.545 68.1453 206.484C68.5339 206.423 68.8952 206.246 69.1822 205.977C69.4691 205.708 69.6685 205.358 69.7544 204.974C69.8403 204.59 69.8088 204.189 69.6639 203.824C69.5191 203.458 69.2675 203.144 68.942 202.923C68.6165 202.702 68.2321 202.584 67.8386 202.584C67.3358 202.568 66.8474 202.753 66.4805 203.097C66.1136 203.441 65.8983 203.917 65.8819 204.42Z" fill="#E4853B"/>
<path d="M95.916 191.333H127.103V199.675H95.916V191.333Z" fill="#263238"/>
<path d="M67.0912 191.333H95.916V199.675H67.0912V191.333Z" fill="#263238"/>
<path d="M95.916 192.2H127.103V198.812H95.916V192.2Z" fill="white"/>
<path d="M124.389 193.568C121.12 193.526 117.852 193.494 114.584 193.473L110.15 193.442L100.35 193.473C97.084 193.473 99.1827 193.521 95.9163 193.568C99.1827 193.615 97.084 193.647 100.35 193.668L110.15 193.694L114.584 193.668C117.852 193.64 121.12 193.607 124.389 193.568Z" fill="#DBDBDB"/>
<path d="M124.389 194.857C121.12 194.811 117.852 194.78 114.584 194.762L110.15 194.73L100.35 194.757C97.084 194.757 99.1827 194.809 95.9163 194.857C99.1827 194.904 97.084 194.936 100.35 194.951L110.15 194.983L114.584 194.951C117.852 194.937 121.12 194.906 124.389 194.857Z" fill="#DBDBDB"/>
<path d="M124.389 196.151C121.12 196.109 117.852 196.077 114.584 196.056L110.15 196.03L100.35 196.056C97.084 196.056 99.1827 196.109 95.9163 196.151C99.1827 196.198 97.084 196.235 100.35 196.251H110.15H114.584C117.852 196.233 121.12 196.2 124.389 196.151Z" fill="#DBDBDB"/>
<path d="M124.389 197.45C121.12 197.404 117.852 197.373 114.584 197.355L110.15 197.324L100.35 197.355C97.084 197.355 99.1827 197.403 95.9163 197.45C99.1827 197.497 97.084 197.529 100.35 197.545L110.15 197.576L114.584 197.545C117.852 197.531 121.12 197.499 124.389 197.45Z" fill="#DBDBDB"/>
<path d="M85.4696 191.333H89.5303V199.675H85.4696V191.333Z" fill="#455A64"/>
<path d="M68.5796 191.333H71.3096V199.675H68.5796V191.333Z" fill="#455A64"/>
<path d="M100.056 220.604H64.9346V209.138H100.056V220.604Z" fill="#E4853B"/>
<path d="M126.724 220.604H100.056V209.138H126.724V220.604Z" fill="#E4853B"/>
<path d="M100.056 219.416H64.9346V210.331H100.056V219.416Z" fill="white"/>
<path d="M67.2118 217.549C69.947 217.598 72.684 217.629 75.4227 217.643L83.6336 217.675L91.8444 217.643C94.5831 217.643 97.3218 217.612 100.061 217.549C97.3183 217.503 94.5796 217.471 91.8444 217.454L83.6336 217.422L75.4227 217.454C72.684 217.471 69.947 217.503 67.2118 217.549Z" fill="#DBDBDB"/>
<path d="M67.2118 215.765C69.947 215.814 72.684 215.846 75.4227 215.86L83.6336 215.892L91.8444 215.865C94.5831 215.844 97.3218 215.811 100.061 215.765C97.3183 215.72 94.5796 215.688 91.8444 215.671L83.6336 215.66L75.4227 215.692C72.684 215.695 69.947 215.72 67.2118 215.765Z" fill="#DBDBDB"/>
<path d="M67.2118 213.982C69.947 214.028 72.684 214.061 75.4227 214.082L83.6336 214.108L91.8444 214.082C94.5831 214.061 97.3218 214.028 100.061 213.982C97.3183 213.937 94.5796 213.905 91.8444 213.888L83.6336 213.856L75.4227 213.888C72.684 213.905 69.947 213.937 67.2118 213.982Z" fill="#DBDBDB"/>
<path d="M67.2118 212.199C69.947 212.245 72.684 212.278 75.4227 212.299L83.6336 212.325L91.8444 212.299C94.5831 212.299 97.3218 212.266 100.061 212.199C97.3183 212.15 94.5796 212.118 91.8444 212.104L83.6336 212.073L75.4227 212.104C72.6822 212.12 69.9576 212.157 67.2118 212.199Z" fill="#DBDBDB"/>
<path d="M117.487 209.143H122.479V220.61H117.487V209.143Z" fill="#455A64"/>
<path d="M97.3521 54.5253C97.353 58.0057 98.3206 61.4174 100.147 64.3801C101.973 67.3428 104.587 69.7399 107.696 71.3042C110.805 72.8686 114.287 73.5386 117.755 73.2396C121.222 72.9406 124.539 71.6844 127.334 69.611L136.539 71.9622L132.705 63.3884C134.053 60.8691 134.81 58.0754 134.916 55.2197C135.023 52.3641 134.477 49.5217 133.32 46.9088C132.163 44.2959 130.426 41.9812 128.24 40.1408C126.053 38.3004 123.476 36.9827 120.705 36.288C117.933 35.5933 115.039 35.5398 112.243 36.1316C109.448 36.7234 106.824 37.945 104.571 39.7034C102.318 41.4617 100.497 43.7106 99.2438 46.279C97.991 48.8474 97.3405 51.6677 97.3415 54.5253H97.3521Z" fill="white"/>
<path d="M97.3518 54.5251C97.3569 58.0063 98.3215 61.4188 100.14 64.3876C100.596 65.1175 101.095 65.82 101.633 66.4916C102.194 67.1525 102.794 67.7779 103.432 68.3641C103.744 68.6647 104.07 68.9492 104.411 69.2162L105.463 70C105.81 70.2577 106.194 70.4629 106.562 70.6996L107.114 71.0415C107.304 71.1467 107.504 71.2361 107.693 71.3308C108.088 71.5201 108.471 71.72 108.866 71.8988L110.086 72.3565C110.492 72.512 110.909 72.6385 111.333 72.7352C111.754 72.8351 112.164 72.9771 112.595 73.0403C113.449 73.2085 114.314 73.314 115.183 73.3559C116.059 73.4254 116.938 73.4254 117.813 73.3559C119.552 73.2136 121.263 72.8349 122.9 72.2302C124.535 71.6134 126.08 70.7783 127.492 69.7475L127.334 69.7791L136.528 72.1671L136.991 72.2881L136.797 71.8515L132.983 63.2672V63.4934C134.347 60.9468 135.1 58.1177 135.182 55.2299C135.287 52.3365 134.728 49.4574 133.548 46.8133C132.368 44.1692 130.599 41.8304 128.375 39.9759C126.161 38.1339 123.553 36.824 120.754 36.1466C117.972 35.4725 115.074 35.4375 112.278 36.0444C109.481 36.6513 106.858 37.8842 104.606 39.6505C102.354 41.4168 100.532 43.6705 99.2766 46.2423C98.0211 48.814 97.3648 51.6369 97.3571 54.4988L97.3518 54.5251ZM97.3518 54.5251C97.3668 51.6728 98.0288 48.8611 99.288 46.3017C100.547 43.7424 102.371 41.5021 104.621 39.7497C106.877 38.0187 109.492 36.8145 112.274 36.2255C115.061 35.6643 117.938 35.7416 120.69 36.4517C123.431 37.1511 125.975 38.4681 128.128 40.302C130.262 42.1477 131.966 44.4387 133.12 47.0138C134.255 49.5927 134.789 52.3957 134.682 55.2113C134.576 58.0269 133.831 60.7815 132.504 63.2672L132.447 63.3776L132.494 63.4934L136.339 72.0619L136.607 71.741L127.386 69.4319H127.302L127.229 69.4845C124.477 71.5698 121.198 72.8451 117.761 73.1665C116.904 73.2471 116.042 73.2594 115.183 73.2033C114.324 73.1682 113.468 73.0751 112.622 72.9245C112.196 72.8667 111.785 72.7247 111.364 72.63C110.942 72.5422 110.527 72.4226 110.123 72.2723L108.908 71.8357L107.74 71.2834C107.546 71.1887 107.346 71.1046 107.156 70.9994L106.63 70.668C106.268 70.4418 105.878 70.2419 105.531 69.9895L104.479 69.2162C104.138 68.9514 103.812 68.6687 103.501 68.3694C102.864 67.7872 102.264 67.1672 101.702 66.5126C101.16 65.8423 100.659 65.1397 100.203 64.4086C98.3587 61.4403 97.372 58.0195 97.3518 54.5251Z" fill="#263238"/>
<path d="M119.191 65.7078L127.612 57.1813L124.782 54.383L119.864 59.3642L109.639 43.3423L106.288 45.4778L119.191 65.7078Z" fill="#E4853B"/>
</g>
<defs>
<clipPath id="clip0_237_1708">
<rect width="263" height="263" fill="white"/>
</clipPath>
</defs>
</svg>
