<svg width="103" height="103" viewBox="0 0 103 103" fill="none" xmlns="http://www.w3.org/2000/svg">
<g clip-path="url(#clip0_194_15)">
<rect width="103" height="103" rx="51.5" fill="white"/>
<circle cx="51.5" cy="51.5" r="51.5" fill="#ED1944"/>
<path d="M39.4316 43.6575V41.6675H44.5718V46.3726C44.0723 46.856 43.3472 47.283 42.3965 47.6536C41.4512 48.0188 40.4924 48.2014 39.5203 48.2014C38.2849 48.2014 37.208 47.9436 36.2896 47.428C35.3711 46.907 34.6809 46.1658 34.219 45.2043C33.7571 44.2375 33.5261 43.1875 33.5261 42.0542C33.5261 40.8242 33.7839 39.7312 34.2996 38.7751C34.8152 37.8191 35.5698 37.0859 36.5635 36.5757C37.3208 36.1836 38.2634 35.9875 39.3914 35.9875C40.8577 35.9875 42.0017 36.2964 42.8235 36.9141C43.6506 37.5264 44.1824 38.375 44.4187 39.46L42.05 39.9031C41.8835 39.323 41.5693 38.8665 41.1074 38.5334C40.6509 38.1951 40.0789 38.0259 39.3914 38.0259C38.3494 38.0259 37.5195 38.3562 36.9019 39.0168C36.2896 39.6775 35.9834 40.6577 35.9834 41.9575C35.9834 43.3594 36.2949 44.4121 36.918 45.1157C37.541 45.814 38.3574 46.1631 39.3672 46.1631C39.8667 46.1631 40.3662 46.0664 40.8657 45.873C41.3706 45.6743 41.803 45.4353 42.1628 45.156V43.6575H39.4316ZM46.7793 48V36.189H55.5369V38.187H49.1641V40.8054H55.0938V42.7954H49.1641V46.01H55.7625V48H46.7793ZM60.4434 48V38.187H56.9387V36.189H66.3247V38.187H62.8281V48H60.4434ZM28.4504 67V55.189H30.8352V59.8376H35.5081V55.189H37.8928V67H35.5081V61.8357H30.8352V67H28.4504ZM40.3662 67V55.189H49.1238V57.187H42.751V59.8054H48.6807V61.7954H42.751V65.01H49.3494V67H40.3662ZM51.436 67V55.2856H53.8208V65.01H59.7505V67H51.436ZM61.4585 67V55.189H65.2854C66.7356 55.189 67.6809 55.248 68.1213 55.3662C68.7981 55.5435 69.3647 55.9302 69.8213 56.5264C70.2778 57.1172 70.5061 57.8826 70.5061 58.8225C70.5061 59.5476 70.3745 60.1572 70.1113 60.6514C69.8481 61.1455 69.5125 61.5349 69.1042 61.8196C68.7014 62.0989 68.2905 62.2842 67.8716 62.3755C67.3022 62.4883 66.4778 62.5447 65.3982 62.5447H63.8433V67H61.4585ZM63.8433 57.187V60.5386H65.1484C66.0884 60.5386 66.7168 60.4768 67.0337 60.3533C67.3506 60.2297 67.5977 60.0364 67.7749 59.7732C67.9575 59.51 68.0488 59.2039 68.0488 58.8547C68.0488 58.425 67.9226 58.0706 67.6702 57.7913C67.4177 57.512 67.0981 57.3374 66.7114 57.2676C66.4268 57.2139 65.8547 57.187 64.9954 57.187H63.8433ZM73.334 63.9546L72.7458 57.9604V55.189H75.1951V57.9604L74.615 63.9546H73.334ZM72.8425 67V64.7361H75.1064V67H72.8425Z" fill="white"/>
</g>
<defs>
<clipPath id="clip0_194_15">
<rect width="103" height="103" rx="51.5" fill="white"/>
</clipPath>
</defs>
</svg>
