<svg width="39" height="20" viewBox="0 0 39 20" fill="none" xmlns="http://www.w3.org/2000/svg">
<g clip-path="url(#clip0_4_579)">
<path d="M12.2146 5.05368C11.7378 5.05368 11.2585 5.05368 10.7817 5.05368C10.6045 5.05368 10.5196 5.16602 10.562 5.33826C10.5695 5.36822 10.582 5.39818 10.5945 5.42813C12.3894 9.92156 14.1817 14.4175 15.9766 18.9109C16.064 19.1331 16.069 19.1356 16.3136 19.1356C17.1799 19.1356 18.0461 19.1356 18.9123 19.1356C19.147 19.1356 19.1819 19.1106 19.2693 18.8884C20.8095 15.0241 22.3473 11.1597 23.8875 7.2954C24.1472 6.64385 24.4068 5.99231 24.6664 5.34076C24.7363 5.16602 24.6564 5.02872 24.4842 5.02872C23.568 5.02872 22.6543 5.02123 21.7382 5.03371C21.204 5.0412 20.7347 5.39568 20.5524 5.88996C19.9558 7.51508 19.3592 9.1402 18.76 10.7653C18.463 11.5716 18.1659 12.378 17.8713 13.1843C17.8314 13.2916 17.7815 13.374 17.6567 13.3715C17.5343 13.369 17.4595 13.2966 17.427 13.1793C17.422 13.1618 17.4145 13.1468 17.407 13.1294C16.5233 10.7229 15.6371 8.3189 14.7534 5.91242C14.5612 5.39318 14.0969 5.06117 13.5427 5.05867C13.1008 5.05618 12.659 5.05867 12.2171 5.05867L12.2146 5.05368Z" fill="white"/>
<path d="M31.444 19.3503C23.4133 19.0532 21.4486 8.36887 28.8902 5.35329C32.9867 3.66326 37.9969 6.33435 38.7932 10.668C39.7444 15.104 36.202 19.2779 31.7161 19.3503C31.6262 19.3503 31.5364 19.3503 31.4465 19.3503H31.444ZM28.029 11.8188C27.8493 15.2288 31.7211 17.166 34.0926 14.7146C35.4182 13.3116 35.4731 11.0799 34.2199 9.60706C32.0556 7.07327 28.1239 8.7608 28.029 11.8188Z" fill="#ED1944"/>
<path d="M0.00249635 5.18601C0.0674013 5.07867 0.164759 5.05121 0.28708 5.05121C0.796334 5.0562 1.30559 5.05121 1.81484 5.05121C2.06947 5.05121 2.13687 4.98381 2.13937 4.73417C2.13937 3.97279 2.14436 3.2114 2.13937 2.45002C2.13438 1.88335 2.39649 1.49142 2.89327 1.24428C3.69459 0.844865 4.49842 0.450442 5.30224 0.0535233C5.55437 -0.0663013 5.68917 0.0135818 5.65922 0.308151C5.65922 1.77351 5.65922 3.23636 5.65922 4.70172C5.65922 4.97132 5.71414 5.02624 5.98374 5.02624C6.88992 5.02624 7.79609 5.02874 8.70226 5.02375C8.85204 5.02375 8.92943 5.07867 8.98435 5.21597C9.33384 6.10217 9.69082 6.98588 10.0453 7.87208C10.1352 8.09675 10.0628 8.20909 9.82063 8.20909C8.52752 8.20909 7.23192 8.20909 5.93881 8.20909C5.68668 8.20909 5.62926 8.2665 5.62926 8.51863C5.62926 10.1263 5.62926 11.7364 5.62926 13.3441C5.56685 15.8479 7.68625 16.2873 9.73575 15.9627C9.9779 15.8978 10.27 15.9403 10.1526 16.2598C9.80565 17.1285 9.45366 17.9948 9.10168 18.861C9.04426 18.9983 8.93942 19.0932 8.78464 19.1031C7.60387 19.188 6.43308 19.1381 5.29475 18.7736C2.56874 17.9274 2.03951 15.5533 2.11191 12.9946C2.10442 11.5217 2.10941 10.0489 2.10941 8.57605C2.10941 8.28398 2.06198 8.23655 1.7749 8.23655C1.27813 8.23655 0.783853 8.23405 0.28708 8.23655C0.164759 8.23655 0.0674014 8.20909 0 8.10424V5.18351L0.00249635 5.18601Z" fill="#ED1944"/>
<path d="M12.2146 5.05374C13.1482 5.08868 14.349 4.79162 14.7509 5.90749C15.6346 8.31396 16.5208 10.7179 17.4045 13.1244C17.4569 13.399 17.7789 13.4789 17.8688 13.1818C18.76 10.7504 19.6562 8.31896 20.5499 5.88752C20.7321 5.39074 21.2039 5.03626 21.7356 5.03127C22.6518 5.01879 23.5655 5.02628 24.4816 5.02628C24.6539 5.02628 24.7338 5.16357 24.6639 5.33832C22.869 9.85671 21.0666 14.3701 19.2668 18.886C19.1769 19.1107 19.1419 19.1331 18.9098 19.1331C18.0436 19.1331 17.1773 19.1331 16.3111 19.1331C16.064 19.1331 16.0615 19.1306 15.9741 18.9085C14.1792 14.415 12.3868 9.91911 10.592 5.42569C10.5046 5.25344 10.552 5.04125 10.7792 5.05124C11.256 5.05124 11.7353 5.05124 12.2121 5.05124L12.2146 5.05374Z" fill="#ED1944"/>
</g>
<defs>
<clipPath id="clip0_4_579">
<rect width="39" height="20" fill="white"/>
</clipPath>
</defs>
</svg>
