<svg width="55" height="27" viewBox="0 0 55 27" fill="none" xmlns="http://www.w3.org/2000/svg">
<g clip-path="url(#clip0_168_14)">
<path d="M14.4771 18.7859C14.4449 19.9703 14.3226 21.1435 13.9364 22.2764C13.2605 24.2574 11.8572 25.3308 9.80535 25.6108C8.81242 25.746 7.82593 25.7396 6.85232 25.4724C4.94532 24.951 3.85745 23.6845 3.55007 21.7631C3.42294 20.9681 3.37305 20.1538 3.36501 19.3475C3.34248 16.652 3.35696 13.9548 3.35213 11.2593C3.35052 10.8167 3.32799 10.3758 3.31029 9.93324C3.29902 9.64839 3.20891 9.55184 2.92084 9.52609C2.61025 9.50034 2.29483 9.50034 1.98424 9.46976C1.65112 9.43597 1.31317 9.40861 0.989707 9.32976C0.44738 9.1994 0.127133 8.84053 0.0466691 8.2789C0.0418413 8.23545 0.0160928 8.19521 0 8.15337V7.7414C0.0144835 7.71565 0.0370134 7.69151 0.0450599 7.66415C0.262313 6.87078 0.844872 6.42018 1.66078 6.41696C2.08885 6.41535 2.51691 6.41857 2.94337 6.41374C3.28776 6.40891 3.34569 6.35259 3.35696 6.01625C3.36822 5.64933 3.37466 5.28402 3.37949 4.91872C3.38754 3.94188 3.36983 2.96505 3.40846 1.98983C3.43742 1.23347 3.79307 0.634813 4.64277 0.539866C4.67174 0.536647 4.69749 0.514117 4.72324 0.499634H5.22855C5.30741 0.523773 5.38465 0.549521 5.46351 0.568833C6.13136 0.742635 6.52402 1.25278 6.54655 2.06064C6.57391 3.09058 6.56747 4.12212 6.57391 5.15206C6.57552 5.45783 6.58678 5.76359 6.57552 6.06935C6.56908 6.29948 6.64472 6.38477 6.88933 6.38155C8.07376 6.37029 9.25819 6.37351 10.4426 6.38155C10.7468 6.38477 11.0558 6.40087 11.3535 6.45719C12.1887 6.61329 12.5572 7.05906 12.5701 7.88784C12.583 8.69087 12.1951 9.19136 11.3937 9.36999C11.1185 9.42953 10.8337 9.46494 10.5537 9.46815C9.43843 9.47942 8.32159 9.46333 7.20636 9.47942C6.47413 9.48907 6.52241 9.47942 6.51919 10.1666C6.50954 12.9619 6.49988 15.7572 6.52563 18.5509C6.53368 19.3636 6.60127 20.186 6.74449 20.9842C7.00198 22.4245 7.79374 22.8364 9.15198 22.7463C10.3284 22.6691 10.9656 22.0431 11.1378 20.8152C11.2489 20.0331 11.2344 19.2349 11.2827 18.4431C11.31 17.9877 11.31 17.5242 11.3921 17.0784C11.6029 15.9455 12.451 15.6607 13.3763 15.8667C14.0329 16.0131 14.3467 16.5249 14.4272 17.1412C14.4996 17.6819 14.4932 18.2371 14.4771 18.7859Z" fill="#ED1944"/>
<path d="M54.9841 14.7498C54.8666 13.229 54.4804 11.7758 53.7884 10.4144C52.8212 8.5106 51.3954 7.11536 49.3275 6.44751C47.9789 6.013 46.5965 5.89069 45.1884 5.99369C43.9123 6.08542 42.7117 6.42498 41.6078 7.07673C39.8681 8.10345 38.7417 9.63388 38.0384 11.4942C37.3367 13.3513 37.1324 15.2792 37.2869 17.2522C37.4027 18.7263 37.7455 20.1409 38.4005 21.4717C39.292 23.2822 40.6197 24.6533 42.4977 25.4499C44.0716 26.1177 45.7195 26.2481 47.3948 26.0212C50.3269 25.6237 52.4736 24.0917 53.8238 21.4669C54.7041 19.7579 55.0565 17.9217 54.9889 16.0066C54.9889 15.5866 55.0163 15.1666 54.9841 14.7498ZM50.9142 20.0234C50.2593 21.5747 49.1843 22.6803 47.4994 23.0682C45.9255 23.4318 44.4128 23.2999 43.0706 22.3005C42.1694 21.6295 41.5981 20.7106 41.257 19.6597C40.3638 16.8998 40.4266 14.172 41.6963 11.5328C42.3336 10.2084 43.3555 9.29593 44.8408 9.00143C46.0156 8.76809 47.1823 8.79866 48.3185 9.20742C49.791 9.73687 50.6149 10.8602 51.1009 12.286C51.4968 13.4447 51.6658 14.6404 51.6593 16.2319C51.6497 17.2924 51.4759 18.6941 50.9142 20.0234Z" fill="#ED1944"/>
<path d="M26.4954 21.8692C26.5436 21.7469 26.5806 21.6584 26.6128 21.5667C27.8182 18.1695 29.0235 14.7723 30.2273 11.3751C30.4075 10.865 30.5781 10.3532 30.7519 9.84149C30.7648 9.80608 30.7728 9.76746 30.7744 9.72884C30.7937 9.24766 30.6602 8.92902 30.0728 9.19616C29.6817 9.37479 29.2842 9.47457 28.8513 9.38767C28.1256 9.24122 27.617 8.54119 27.6862 7.77517C27.7554 7.00754 28.3332 6.44108 29.1008 6.47487C29.73 6.50223 30.3608 6.59396 30.982 6.70822C32.1407 6.92225 33.2865 6.87236 34.442 6.67764C35.0551 6.57465 35.6843 6.51671 36.3071 6.52154C37.0136 6.52637 37.5398 7.0172 37.6573 7.66735C37.844 8.69729 36.8672 9.63389 35.8404 9.40054C35.5588 9.33617 35.2836 9.23961 35.0068 9.15754C34.7831 9.09156 34.6319 9.15271 34.5401 9.38445C34.2038 10.2358 33.8498 11.0774 33.5183 11.9303C32.0007 15.8296 30.4944 19.7337 28.9672 23.6298C28.7773 24.1142 28.5263 24.5905 28.2221 25.0122C27.3772 26.1853 25.3383 26.2722 24.4467 24.9623C24.1539 24.5326 23.9141 24.053 23.7242 23.567C22.0618 19.3234 20.4171 15.0716 18.7628 10.8248C18.6131 10.4417 18.4506 10.0603 18.2526 9.70148C17.9018 9.06742 17.7135 8.96765 16.8976 9.24444C16.624 9.33778 16.3167 9.42146 16.0366 9.39089C15.4895 9.32973 15.0679 8.81959 15.0147 8.1968C14.9906 7.90069 14.997 7.57401 15.0952 7.29882C15.3173 6.66798 15.8773 6.46522 16.4744 6.48131C17.1422 6.49901 17.8149 6.57947 18.4699 6.70822C19.5626 6.92386 20.6376 6.85788 21.7238 6.67764C22.3692 6.57143 23.0257 6.51671 23.6791 6.47487C23.9141 6.46039 24.1667 6.52315 24.3952 6.59879C25.2803 6.89328 25.6119 7.77517 25.1597 8.59268C24.7686 9.29755 24.0509 9.55825 23.2623 9.3056C22.9598 9.20904 22.6427 9.14467 22.3273 9.11248C22.0457 9.08351 21.9121 9.22191 21.9604 9.49871C22.0151 9.81896 22.1085 10.1376 22.2227 10.4417C23.6147 14.193 25.0148 17.941 26.4133 21.6906C26.431 21.7389 26.4567 21.7856 26.497 21.8676L26.4954 21.8692Z" fill="#ED1944"/>
</g>
<defs>
<clipPath id="clip0_168_14">
<rect width="55" height="27" fill="white"/>
</clipPath>
</defs>
</svg>
