<svg width="103" height="103" viewBox="0 0 103 103" fill="none" xmlns="http://www.w3.org/2000/svg">
<g clip-path="url(#clip0_187_5)">
<rect width="103" height="103" rx="51.5" fill="white"/>
<circle cx="51.5" cy="51.5" r="51.5" fill="#ED1944"/>
<path d="M34.0015 48V38.187H30.4968V36.189H39.8828V38.187H36.3862V48H34.0015ZM50.856 48H48.2617L47.2305 45.3171H42.5093L41.5344 48H39.0046L43.605 36.189H46.1267L50.856 48ZM46.4651 43.3271L44.8376 38.9443L43.2424 43.3271H46.4651ZM52.1611 48V36.189H54.5459V41.4338L59.3638 36.189H62.5703L58.123 40.7893L62.812 48H59.7263L56.4795 42.457L54.5459 44.4309V48H52.1611ZM64.0527 48V36.189H72.8103V38.187H66.4375V40.8054H72.3672V42.7954H66.4375V46.01H73.0359V48H64.0527ZM29.4575 67H26.8633L25.832 64.3171H21.1108L20.136 67H17.6062L22.2065 55.189H24.7283L29.4575 67ZM25.0667 62.3271L23.4392 57.9443L21.844 62.3271H25.0667ZM38.2876 62.6575L40.5999 63.3906C40.2454 64.6797 39.6545 65.6384 38.8274 66.2668C38.0056 66.8899 36.9609 67.2014 35.6934 67.2014C34.125 67.2014 32.8359 66.667 31.8262 65.5981C30.8164 64.5239 30.3115 63.0576 30.3115 61.1992C30.3115 59.2334 30.8191 57.708 31.8342 56.623C32.8494 55.5327 34.1841 54.9875 35.8384 54.9875C37.2832 54.9875 38.4568 55.4146 39.3591 56.2686C39.8962 56.7734 40.2991 57.4985 40.5676 58.4438L38.207 59.0078C38.0674 58.3955 37.7747 57.9121 37.3289 57.5576C36.8884 57.2031 36.3513 57.0259 35.7175 57.0259C34.842 57.0259 34.1304 57.3401 33.5825 57.9685C33.04 58.5969 32.7688 59.6147 32.7688 61.022C32.7688 62.5151 33.0374 63.5786 33.5745 64.2124C34.1116 64.8462 34.8098 65.1631 35.6692 65.1631C36.303 65.1631 36.8481 64.9617 37.3047 64.5588C37.7612 64.156 38.0889 63.5222 38.2876 62.6575ZM45.313 67V57.187H41.8083V55.189H51.1943V57.187H47.6978V67H45.313ZM52.6687 67V55.189H55.0535V67H52.6687ZM56.8501 61.167C56.8501 59.9639 57.03 58.9541 57.3899 58.1377C57.6584 57.5361 58.0237 56.9963 58.4856 56.5183C58.9529 56.0403 59.4631 55.6858 60.0164 55.4548C60.7522 55.1433 61.6008 54.9875 62.5623 54.9875C64.3025 54.9875 65.6936 55.5273 66.7356 56.6069C67.783 57.6865 68.3066 59.1877 68.3066 61.1106C68.3066 63.0173 67.7883 64.5105 66.7517 65.5901C65.7151 66.6643 64.3293 67.2014 62.5945 67.2014C60.8381 67.2014 59.4417 66.667 58.405 65.5981C57.3684 64.5239 56.8501 63.0469 56.8501 61.167ZM59.3074 61.0864C59.3074 62.4238 59.6162 63.439 60.2339 64.1318C60.8516 64.8193 61.6357 65.1631 62.5864 65.1631C63.5371 65.1631 64.3159 64.822 64.9229 64.1399C65.5352 63.4524 65.8413 62.4238 65.8413 61.0542C65.8413 59.7007 65.5432 58.6909 64.947 58.0249C64.3562 57.3589 63.5693 57.0259 62.5864 57.0259C61.6035 57.0259 60.8113 57.3643 60.2097 58.041C59.6082 58.7124 59.3074 59.7275 59.3074 61.0864ZM70.2 67V55.189H72.5203L77.3542 63.0764V55.189H79.5698V67H77.177L72.4155 59.2979V67H70.2ZM82.9697 63.9546L82.3816 57.9604V55.189H84.8308V57.9604L84.2507 63.9546H82.9697ZM82.4783 67V64.7361H84.7422V67H82.4783Z" fill="white"/>
</g>
<defs>
<clipPath id="clip0_187_5">
<rect width="103" height="103" rx="51.5" fill="white"/>
</clipPath>
</defs>
</svg>
